<?xml version="1.0" standalone="no"?>
<!DOCTYPE svg PUBLIC "-//W3C//DTD SVG 20010904//EN"
 "http://www.w3.org/TR/2001/REC-SVG-20010904/DTD/svg10.dtd">
<svg version="1.0" xmlns="http://www.w3.org/2000/svg"
 width="1108.000000pt" height="1108.000000pt" viewBox="0 0 1108.000000 1108.000000"
 preserveAspectRatio="xMidYMid meet">
<metadata>
Created by potrace 1.14, written by Peter Selinger 2001-2017
</metadata>
<g transform="translate(0.000000,1108.000000) scale(0.100000,-0.100000)"
fill="#000000" stroke="none">
<path d="M5495 7720 c2 -3 -16 -12 -41 -19 -24 -7 -44 -17 -44 -22 0 -5 -7 -9
-15 -9 -8 0 -19 -9 -25 -21 -7 -11 -14 -18 -17 -15 -4 3 -15 -8 -25 -25 -10
-16 -22 -28 -27 -24 -5 3 -7 -4 -4 -15 3 -11 1 -20 -4 -20 -5 0 -10 -7 -11
-15 -1 -8 -3 -22 -4 -30 -1 -8 -5 -15 -9 -15 -5 0 -6 -6 -3 -14 3 -8 0 -17 -6
-21 -8 -5 -8 -11 1 -21 8 -10 8 -14 1 -14 -7 0 -9 -7 -5 -17 4 -9 2 -14 -3
-11 -5 4 -10 -4 -10 -15 -1 -12 -4 -31 -7 -42 -3 -11 -6 -24 -6 -28 -1 -5 -6
-5 -12 -1 -8 4 -8 1 -1 -13 7 -12 7 -25 1 -36 -8 -13 -4 -25 12 -49 14 -19 17
-29 8 -24 -9 5 -9 3 2 -6 9 -7 14 -18 12 -24 -2 -6 7 -19 19 -30 l23 -19 -20
25 -20 25 22 -19 c13 -10 20 -22 18 -27 -3 -4 -1 -10 5 -14 5 -3 10 -15 10
-25 0 -10 7 -26 16 -34 8 -9 13 -20 10 -25 -3 -4 3 -16 14 -26 11 -10 20 -24
20 -32 0 -9 5 -11 13 -7 6 4 9 4 5 -1 -4 -4 -2 -15 5 -23 10 -13 9 -14 -3 -7
-13 8 -13 7 -1 -8 7 -9 20 -17 27 -17 8 0 14 -5 14 -11 0 -5 -5 -7 -11 -3 -8
5 -8 1 0 -14 9 -17 6 -24 -25 -47 -20 -15 -48 -27 -62 -27 -15 0 -33 -5 -39
-10 -9 -7 -15 -5 -19 6 -6 15 -7 15 -19 0 -11 -16 -13 -16 -23 2 -6 10 -12 14
-12 7 0 -7 -7 -10 -15 -7 -8 4 -15 1 -15 -4 0 -6 -9 -9 -20 -7 -11 2 -22 -1
-25 -6 -4 -5 -10 -7 -15 -4 -4 3 -13 -1 -19 -9 -7 -8 -22 -11 -38 -8 -21 4
-25 2 -20 -12 6 -14 3 -15 -14 -5 -14 7 -19 7 -15 1 4 -6 -1 -15 -10 -20 -9
-5 -15 -12 -15 -15 3 -19 0 -27 -10 -27 -5 0 -7 5 -4 10 3 6 4 10 1 10 -3 0
-10 -9 -16 -20 -9 -16 -8 -19 7 -14 10 3 7 -1 -7 -9 -14 -9 -29 -13 -34 -10
-5 4 -6 1 -2 -6 4 -6 12 -9 17 -6 5 3 6 -1 3 -9 -3 -9 -10 -16 -15 -16 -5 0
-9 -9 -9 -21 0 -11 -4 -17 -10 -14 -5 3 -11 -2 -11 -12 -2 -31 -4 -38 -16 -59
-7 -12 -9 -24 -6 -28 3 -3 1 -6 -5 -6 -7 0 -12 6 -13 13 0 6 -4 3 -9 -8 -8
-18 -9 -18 -9 -2 -1 10 -6 15 -11 12 -6 -4 -36 -8 -67 -9 -43 -2 -60 -8 -73
-24 -10 -12 -20 -18 -24 -15 -3 4 -7 -7 -7 -23 -4 -72 6 -151 20 -168 9 -11 9
-15 -1 -19 -8 -3 -6 -6 5 -6 10 -1 15 -6 12 -11 -4 -6 -10 -8 -15 -5 -4 3 1
-12 11 -32 10 -20 16 -40 13 -44 -3 -5 0 -9 7 -9 8 0 7 -5 -2 -17 -8 -10 -9
-14 -2 -10 8 5 11 -3 10 -25 -1 -22 2 -32 11 -30 10 2 10 -2 2 -18 -6 -11 -7
-20 -1 -20 5 0 12 -7 15 -16 4 -10 2 -13 -7 -9 -6 4 -3 -1 7 -9 20 -16 20 -16
0 -16 -16 0 -17 -2 -4 -10 8 -5 11 -10 6 -10 -5 0 -1 -10 10 -22 10 -12 13
-18 7 -14 -7 4 -13 3 -13 -3 0 -5 6 -12 13 -14 9 -4 9 -6 -1 -6 -10 -1 -10 -6
-2 -22 7 -11 9 -23 6 -27 -3 -3 1 -14 11 -24 9 -10 11 -18 5 -18 -6 0 -9 -7
-6 -15 4 -8 11 -12 18 -8 7 4 7 2 -1 -8 -10 -12 -10 -18 0 -29 10 -10 9 -11
-3 -5 -13 8 -13 6 -2 -8 8 -9 10 -22 6 -28 -5 -9 -2 -10 12 -6 18 7 18 6 1 -7
-16 -12 -16 -15 -2 -29 10 -11 12 -18 4 -22 -7 -5 -4 -13 7 -26 9 -10 14 -19
9 -19 -4 0 -1 -8 6 -17 9 -11 10 -14 2 -9 -9 5 -11 2 -7 -8 3 -9 9 -14 14 -11
4 2 6 -7 4 -20 -1 -14 2 -25 7 -25 15 0 10 -40 -6 -46 -8 -4 -13 -10 -10 -14
3 -4 -2 -11 -11 -14 -17 -6 -11 -45 10 -58 6 -4 354 -7 773 -7 701 0 762 2
776 17 16 19 14 55 -3 60 -5 2 -8 8 -4 13 3 5 -1 9 -8 9 -9 0 -9 3 2 10 11 7
11 10 2 10 -9 0 -10 5 -3 18 9 17 11 24 11 43 0 5 5 7 10 4 6 -3 11 5 11 19 1
14 2 36 3 48 0 12 7 23 14 26 10 3 10 7 1 18 -6 8 -7 14 -2 14 5 0 9 10 8 23
-1 12 3 28 9 36 9 12 8 13 -3 6 -11 -6 -11 -3 1 14 9 12 14 31 11 42 -3 12 0
19 8 19 11 0 11 2 -1 10 -9 6 -11 13 -5 18 9 6 14 34 18 100 0 12 5 22 10 22
5 0 7 7 3 15 -3 8 0 15 6 15 9 0 9 3 0 12 -9 9 -8 15 2 27 8 9 16 27 18 41 2
14 7 31 12 39 7 11 6 12 -5 6 -11 -7 -12 -6 -2 6 6 8 13 26 15 39 2 14 7 31
12 39 7 11 6 12 -5 6 -12 -8 -12 -6 -1 8 8 9 11 20 8 26 -3 5 0 12 6 14 10 4
10 6 1 6 -7 1 -13 6 -13 12 0 5 4 8 9 5 5 -3 11 1 15 9 3 8 0 15 -7 15 -8 0
-6 4 3 10 8 5 10 10 4 10 -6 0 -11 7 -11 15 0 8 5 11 10 8 6 -4 8 0 4 10 -3 9
-1 18 6 21 9 3 8 5 -1 5 -7 1 -10 6 -7 11 9 14 -17 70 -32 70 -6 0 -15 5 -19
12 -5 7 -3 8 7 3 12 -8 12 -6 0 8 -14 18 -26 23 -17 8 3 -5 -5 -8 -18 -7 -13
0 -22 4 -20 7 2 4 -10 9 -26 11 -22 3 -30 1 -30 -11 0 -11 -4 -10 -16 5 -14
17 -15 17 -10 1 3 -10 2 -16 -2 -13 -5 3 -21 -2 -36 -10 -38 -19 -43 -18 -15
6 13 10 19 19 13 20 -7 0 -15 7 -18 16 -3 8 -2 12 4 9 6 -3 10 -1 10 4 0 6 -5
11 -11 11 -5 0 -7 5 -4 10 3 6 1 10 -6 10 -9 0 -9 3 0 14 10 11 7 17 -10 29
-11 9 -18 20 -14 26 3 6 -1 11 -10 11 -9 0 -13 5 -10 10 3 6 1 10 -5 10 -6 0
-8 5 -5 10 3 6 1 10 -5 10 -6 0 -8 5 -4 12 5 8 2 9 -9 5 -13 -5 -17 0 -18 21
0 24 -1 25 -9 7 -7 -17 -9 -17 -9 -2 -1 9 -6 17 -12 17 -5 0 -7 6 -3 13 5 7 0
6 -11 -3 -11 -9 -16 -10 -11 -3 4 8 -2 17 -18 25 -14 6 -26 15 -26 20 0 5 -4
7 -9 4 -5 -4 -21 -2 -36 4 -20 8 -25 7 -20 -3 4 -6 -1 -3 -10 8 -18 22 -24 23
-36 3 -7 -10 -9 -10 -9 0 0 6 -6 12 -14 12 -8 0 -17 -6 -19 -12 -4 -9 -6 -8
-6 2 -1 17 -61 21 -73 5 -4 -6 -8 -2 -8 8 0 10 -4 15 -10 12 -5 -3 -10 1 -10
10 0 9 -4 13 -10 10 -9 -6 -15 8 -11 29 1 5 -5 6 -14 2 -9 -3 -13 -2 -10 3 3
5 1 12 -5 16 -7 4 -7 12 0 24 5 10 6 21 3 25 -3 3 -1 6 5 6 7 0 12 7 12 15 0
9 6 12 18 8 14 -5 15 -3 5 8 -15 16 -17 33 -3 24 6 -3 10 1 10 10 0 9 4 13 10
10 6 -4 7 1 3 11 -5 13 -3 15 7 9 8 -5 11 -4 6 3 -4 6 -2 19 3 29 5 10 12 26
15 36 3 10 10 16 15 12 6 -3 8 4 6 15 -2 12 4 25 16 34 11 8 23 27 25 42 13
83 13 103 1 139 -7 22 -12 61 -12 88 1 26 -2 47 -5 47 -3 0 -6 9 -7 20 -1 13
3 18 10 14 7 -3 4 1 -6 9 -10 8 -19 24 -20 36 -1 11 -7 23 -15 26 -9 3 -11 13
-7 27 5 18 4 20 -4 8 -10 -15 -13 -11 -15 20 -1 8 -7 16 -14 16 -6 1 -17 2
-23 3 -5 0 -7 6 -4 11 3 6 -1 10 -9 10 -9 0 -16 5 -16 11 0 5 -4 7 -10 4 -5
-3 -10 -1 -10 6 0 7 -3 10 -6 7 -3 -4 -20 0 -39 7 -18 8 -35 11 -39 8 -3 -4
-6 -1 -6 4 0 8 -39 11 -114 10 -63 0 -113 -4 -111 -7z m820 -1160 c3 -5 1 -10
-4 -10 -6 0 -11 5 -11 10 0 6 2 10 4 10 3 0 8 -4 11 -10z m-861 -118 c3 -5 -1
-9 -9 -9 -8 0 -12 4 -9 9 3 4 7 8 9 8 2 0 6 -4 9 -8z m36 -2 c0 -5 -5 -10 -11
-10 -5 0 -7 5 -4 10 3 6 8 10 11 10 2 0 4 -4 4 -10z m100 -16 c0 -2 -8 0 -19
5 -10 6 -22 7 -26 3 -5 -4 -5 -1 -1 6 5 9 12 9 27 2 10 -6 19 -13 19 -16z m60
16 c0 -5 -5 -10 -11 -10 -5 0 -7 5 -4 10 3 6 8 10 11 10 2 0 4 -4 4 -10z m134
2 c2 -4 -5 -9 -17 -9 -17 -2 -19 0 -7 7 18 12 18 12 24 2z m371 -2 c-3 -5 -12
-10 -18 -10 -7 0 -6 4 3 10 19 12 23 12 15 0z m98 3 c3 -5 -6 -9 -20 -10 -19
-1 -22 1 -12 8 17 11 26 11 32 2z m37 -3 c0 -5 -5 -10 -11 -10 -5 0 -7 5 -4
10 3 6 8 10 11 10 2 0 4 -4 4 -10z"/>
<path d="M5945 7141 c-3 -5 -2 -12 3 -15 5 -3 9 1 9 9 0 17 -3 19 -12 6z"/>
<path d="M5400 6839 c0 -5 5 -7 10 -4 6 3 10 8 10 11 0 2 -4 4 -10 4 -5 0 -10
-5 -10 -11z"/>
<path d="M5369 6813 c-13 -16 -12 -17 4 -4 9 7 17 15 17 17 0 8 -8 3 -21 -13z"/>
<path d="M2855 4861 c-32 -20 -65 -55 -65 -70 0 -4 -7 -21 -15 -38 -15 -31
-23 -162 -10 -182 3 -6 2 -11 -2 -11 -22 0 -37 -50 -39 -125 -1 -80 -3 -96
-27 -235 l-13 -75 -49 -27 c-27 -15 -52 -26 -55 -26 -3 1 -25 -4 -50 -11 -25
-7 -53 -15 -62 -17 -10 -2 -28 -6 -40 -9 -13 -3 -36 -8 -51 -10 -15 -3 -56
-12 -90 -20 -34 -8 -70 -15 -79 -15 -25 0 -32 39 -18 107 7 32 14 69 16 83 1
14 7 50 13 80 5 30 13 80 17 110 4 30 8 66 10 79 3 25 -24 86 -54 122 -38 46
-48 58 -62 79 -8 12 -20 28 -25 34 -10 11 -44 78 -47 93 -7 34 -40 34 -81 -1
-21 -18 -93 -153 -87 -164 2 -2 -2 -29 -16 -117 -3 -16 -7 -48 -9 -70 -11
-109 -17 -182 -17 -197 1 -10 -3 -20 -8 -23 -5 -3 -6 -13 -3 -22 4 -11 3 -14
-5 -9 -7 4 -12 4 -12 -1 -1 -4 -2 -37 -4 -73 -1 -45 -11 -83 -29 -123 -15 -32
-29 -80 -32 -105 -8 -59 -13 -77 -37 -131 -11 -24 -21 -61 -23 -82 -3 -21 -12
-53 -21 -71 -22 -42 -20 -71 5 -136 11 -28 18 -58 15 -67 -4 -8 -2 -15 2 -15
5 0 26 -16 47 -35 64 -58 94 -68 163 -52 45 11 134 59 134 73 0 8 9 22 19 31
11 9 18 20 15 25 -3 4 0 8 5 8 6 0 11 7 11 15 0 8 4 15 10 15 5 0 12 16 16 35
3 19 11 35 17 35 6 0 7 3 4 6 -9 9 12 46 23 39 4 -3 10 -1 12 3 4 11 208 114
208 105 0 -3 7 0 15 7 8 7 15 9 15 5 0 -4 6 -3 13 3 14 12 134 38 141 31 3 -3
-1 -33 -8 -67 -20 -98 -14 -150 24 -218 38 -65 51 -81 96 -112 30 -21 48 -23
72 -9 6 5 12 6 12 2 0 -11 97 44 127 72 51 48 66 88 59 157 -9 87 -7 147 6
156 9 7 58 116 58 129 0 6 4 11 10 11 5 0 9 3 8 8 0 4 1 14 4 22 3 8 13 60 22
114 9 55 21 105 26 111 6 7 8 14 5 16 -2 3 2 27 11 54 21 72 13 342 -13 385
-9 16 -21 30 -25 30 -4 0 -8 7 -8 15 0 8 -4 15 -8 15 -10 0 -90 158 -96 190
-3 12 -48 80 -54 80 -4 0 -20 -9 -37 -19z"/>
<path d="M8163 4862 c-13 -2 -23 -8 -23 -13 0 -6 -4 -8 -8 -5 -19 11 -86 -68
-166 -195 -71 -111 -169 -288 -172 -309 -1 -12 -29 -66 -37 -71 -5 -3 -7 -8
-5 -10 5 -7 -35 -93 -47 -101 -5 -4 -7 -8 -3 -8 3 0 -14 -46 -39 -102 -75
-172 -114 -267 -129 -318 -11 -35 -12 -169 -3 -205 5 -16 10 -41 13 -55 12
-62 51 -146 79 -174 21 -21 146 -28 133 -8 -3 5 6 16 20 26 13 11 24 24 24 31
0 7 7 18 15 25 9 7 13 15 11 18 -3 2 -1 12 3 21 5 9 11 31 14 48 3 18 19 50
36 72 17 21 31 51 31 65 0 33 21 74 49 100 20 18 34 55 44 116 3 14 12 42 20
62 8 20 13 39 9 42 -3 3 0 6 7 6 7 0 9 5 6 10 -3 6 -1 10 5 10 6 0 8 5 5 10
-3 6 -1 10 4 10 6 0 10 3 9 8 -2 4 4 17 13 30 15 21 17 21 31 5 8 -10 19 -29
25 -43 22 -50 95 -121 152 -147 84 -39 230 -38 336 3 11 4 22 8 25 9 53 18
168 77 236 120 30 19 57 35 59 35 3 0 15 9 27 20 13 10 26 18 30 17 4 -1 15 8
23 21 9 12 21 20 26 17 5 -4 9 -2 9 2 0 5 9 14 21 21 30 19 51 0 39 -34 -6
-14 -12 -35 -15 -47 -3 -12 -14 -60 -25 -107 -11 -47 -23 -105 -26 -130 -3
-25 -7 -58 -10 -75 -5 -43 -5 -123 1 -169 6 -50 35 -126 48 -126 6 0 7 -3 4
-6 -9 -9 44 -54 62 -54 7 0 46 16 85 35 77 37 75 35 126 165 35 87 38 95 39
102 1 4 8 23 17 43 8 19 14 36 13 37 0 2 2 10 4 18 15 46 23 104 26 176 1 44
11 105 21 135 11 33 18 86 18 139 1 90 4 108 21 153 6 16 11 48 11 73 0 30 5
46 15 50 17 7 20 40 5 49 -5 3 -10 20 -10 37 0 56 -143 224 -216 252 -65 25
-91 26 -119 5 -14 -11 -25 -25 -25 -31 0 -16 -66 -110 -115 -161 -25 -27 -45
-47 -45 -44 0 3 -17 -11 -37 -30 -21 -19 -51 -44 -66 -56 -15 -12 -47 -41 -71
-64 -45 -42 -85 -69 -99 -65 -4 1 -10 -5 -13 -13 -3 -8 -10 -12 -15 -9 -5 3
-9 0 -9 -5 0 -6 -6 -11 -14 -11 -7 0 -19 -6 -25 -14 -16 -18 -95 -40 -123 -33
-59 15 -63 25 -64 166 -1 117 -3 136 -25 178 -13 27 -27 50 -31 51 -5 2 -8 10
-8 18 0 8 -4 14 -9 14 -5 0 -11 8 -13 18 -3 9 -16 22 -29 28 -75 34 -118 57
-114 64 5 8 -44 55 -65 61 -8 3 -25 3 -37 1z"/>
<path d="M5988 4855 c-2 -1 -32 -5 -68 -9 -83 -8 -138 -15 -170 -21 -65 -12
-100 -16 -167 -20 -40 -1 -73 1 -73 5 0 12 -40 24 -69 21 -13 -2 -33 -14 -45
-27 -21 -24 -32 -26 -191 -39 -22 -2 -40 -4 -40 -5 0 -1 -80 -7 -185 -14 -30
-2 -95 -4 -143 -5 l-88 -1 -15 -35 c-19 -46 -18 -81 5 -155 41 -130 89 -168
211 -164 41 1 75 2 75 3 0 1 27 4 60 6 33 1 90 5 126 8 64 4 67 3 64 -17 -2
-25 -62 -158 -74 -166 -7 -5 -36 -82 -45 -121 -3 -9 -14 -41 -26 -70 -12 -30
-26 -63 -30 -74 -69 -172 -95 -341 -66 -425 9 -25 16 -51 16 -58 0 -7 8 -32
19 -55 10 -23 21 -50 24 -60 4 -9 15 -20 24 -24 10 -3 36 -18 58 -33 54 -37
79 -43 132 -35 51 7 102 50 105 88 1 12 2 31 3 42 2 21 -43 78 -55 70 -3 -2
-14 10 -24 26 -21 35 -17 89 11 179 9 30 16 58 15 63 -1 4 3 7 8 7 6 0 10 7
10 15 0 8 4 15 9 15 5 0 14 21 20 48 7 26 27 79 46 117 78 162 100 210 102
228 2 10 24 57 49 104 25 48 47 94 49 102 5 26 34 89 43 95 4 2 26 7 48 10 21
2 98 12 169 21 72 9 168 18 215 19 109 4 188 23 223 55 22 20 27 33 27 71 0
25 -5 51 -12 58 -7 7 -8 12 -3 12 5 0 -1 7 -13 16 -12 8 -22 22 -22 30 0 8 -4
13 -8 11 -5 -1 -26 15 -46 37 -22 22 -53 42 -75 47 -31 8 -205 11 -213 4z"/>
<path d="M4007 4183 c-1 -1 -94 -4 -207 -8 -113 -3 -216 -9 -230 -12 -14 -4
-27 -7 -30 -8 -21 -5 -109 -16 -175 -20 -44 -4 -87 -8 -96 -11 -24 -7 -52 -79
-40 -103 6 -11 11 -36 11 -56 0 -41 31 -108 68 -147 33 -35 77 -43 155 -28 34
7 69 13 78 15 9 2 40 6 69 10 29 4 62 9 74 11 21 4 114 8 428 19 86 3 162 7
170 10 7 2 36 7 63 9 60 6 137 29 170 50 46 30 28 115 -30 143 -19 9 -35 21
-35 26 0 20 -65 64 -107 72 -15 3 -55 8 -88 11 -33 2 -85 8 -115 11 -52 6
-130 10 -133 6z"/>
<path d="M6776 4183 c-1 -2 -88 -5 -192 -9 -104 -3 -211 -10 -239 -16 -65 -13
-85 -16 -175 -23 -122 -9 -136 -14 -131 -47 0 -5 -3 -8 -8 -8 -14 0 -18 -32
-8 -60 5 -14 9 -38 8 -55 -3 -44 46 -132 88 -161 42 -28 69 -30 169 -9 41 9
95 18 120 21 26 3 60 8 77 10 29 4 94 7 420 19 208 8 283 18 373 53 44 18 55
36 54 86 -1 29 -45 86 -66 86 -6 0 -20 12 -31 27 -27 36 -92 63 -167 68 -35 3
-90 8 -123 11 -63 7 -165 11 -169 7z"/>
</g>
</svg>
