<?xml version="1.0" standalone="no"?><!DOCTYPE svg PUBLIC "-//W3C//DTD SVG 1.1//EN" "http://www.w3.org/Graphics/SVG/1.1/DTD/svg11.dtd" ><svg xmlns="http://www.w3.org/2000/svg"><metadata></metadata><defs><font id="Founder:FZLanTingYuanS-M-GB	Regular" horiz-adv-x="256"><font-face font-family="FZLanTingYuanS-M-GB" font-weight="400" font-stretch="normal" units-per-em="256" panose-1="2 0 0 0 0 0 0 0 0 0" ascent="229" descent="-72" x-height="0" bbox="-7 -72 262 218" underline-thickness="12" underline-position="-60" unicode-range="U+0000-ffe5" /><missing-glyph horiz-adv-x="256"  /><glyph glyph-name="" unicode="!" d="M40 63 l0 118 q0 15 11 14 q13 1 12 -15 l0 -117 q0 -14 -12 -14 q-11 0 -11 14 ZM37 3 q1 16 14 18 q14 -1 14 -18 q0 -18 -14 -18 q-13 1 -14 18 Z" /><glyph glyph-name="" unicode="&quot;" d="M9 142 l0 38 q0 15 11 15 q12 0 12 -15 l0 -38 q0 -14 -12 -14 q-11 0 -11 14 ZM55 142 l0 38 q0 15 11 15 q12 0 12 -15 l0 -38 q0 -14 -12 -14 q-11 0 -11 14 Z" /><glyph glyph-name="" unicode="#" d="M114 49 l-7 -52 q-1 -12 -12 -12 q-12 0 -11 14 l7 50 l-33 0 l-8 -52 q-1 -12 -12 -12 q-13 0 -11 14 l7 50 l-14 0 q-15 -1 -14 12 q0 11 14 11 l17 0 l6 41 l-16 0 q-15 -1 -14 11 q0 12 14 11 l19 0 l6 47 q2 14 12 13 q14 0 11 -16 l-6 -44 l32 0 l7 48 q1 13 12 12 q12 -1 10 -15 l-5 -45 l12 0 q15 1 14 -11 q1 -11 -14 -11 l-15 0 l-5 -41 l14 0 q14 1 13 -12 q0 -11 -13 -11 l-17 0 ZM93 72 l6 41 l-32 0 l-6 -41 l32 0 Z" /><glyph glyph-name="" unicode="$" d="M68 105 l0 60 q-28 -5 -29 -30 q0 -22 29 -30 ZM68 15 l0 67 q-51 10 -52 54 q3 44 52 53 l0 8 q0 12 10 12 q11 -1 11 -12 l0 -8 q40 -6 50 -38 q4 -14 -9 -16 q-8 -2 -14 11 q-7 18 -27 21 l0 -67 q52 -13 53 -54 q-1 -46 -53 -54 l0 -10 q0 -12 -11 -12 q-10 0 -10 12 l0 10 q-44 6 -56 45 q-3 15 9 16 q10 4 14 -11 q8 -24 33 -27 ZM89 77 l0 -62 q27 4 30 29 q0 21 -30 33 Z" /><glyph glyph-name="" unicode="%" d="M60 101 q22 1 23 36 q-1 35 -23 36 q-22 -1 -23 -36 q1 -35 23 -36 ZM60 79 q-43 3 -46 57 q3 56 46 59 q43 -3 46 -59 q-3 -54 -46 -57 ZM81 3 l73 181 q5 12 11 11 q17 -1 10 -19 l-72 -180 q-5 -13 -16 -11 q-10 4 -6 18 ZM197 7 q21 1 22 36 q-1 35 -22 36 q-23 -1 -24 -36 q1 -35 24 -36 ZM197 -15 q-44 2 -46 58 q3 56 46 58 q42 -3 45 -58 q-3 -56 -45 -58 Z" /><glyph glyph-name="" unicode="&amp;" d="M134 153 q2 -39 -51 -59 q33 -39 52 -54 q13 20 17 37 q5 15 14 12 q12 -1 8 -19 q-6 -24 -20 -43 q13 -10 30 -19 q6 -3 6 -9 q1 -11 -11 -11 q-14 1 -39 22 q-28 -24 -61 -25 q-60 5 -66 59 q1 39 36 59 q-17 28 -16 44 q1 47 53 48 q45 -3 48 -42 ZM79 6 q22 0 42 18 q-35 31 -59 61 q-25 -14 -26 -40 q3 -36 43 -39 ZM56 148 q2 -16 14 -36 q44 16 42 40 q-2 20 -26 22 q-30 -1 -30 -26 Z" /><glyph glyph-name="" unicode="&#39;" d="M27 142 l0 38 q0 15 11 15 q12 0 12 -15 l0 -38 q0 -14 -12 -14 q-11 0 -11 14 Z" /><glyph glyph-name="" unicode="(" d="M16 63 q1 62 26 120 q6 12 14 12 q11 -1 11 -10 q0 -5 -5 -14 q-22 -50 -23 -108 q1 -60 25 -110 q3 -6 3 -12 q-1 -9 -10 -10 q-7 0 -13 9 q-28 55 -28 123 Z" /><glyph glyph-name="" unicode=")" d="M61 63 q0 -68 -28 -123 q-6 -9 -13 -9 q-9 1 -10 10 q0 6 3 12 q24 50 25 110 q-1 58 -23 108 q-5 9 -5 14 q0 9 11 10 q8 0 14 -12 q25 -58 26 -120 Z" /><glyph glyph-name="" unicode="*" d="M46 142 l-19 10 q-12 7 -4 16 q5 10 16 4 l20 -11 l0 22 q0 12 11 12 q12 0 12 -12 l0 -22 l21 11 q9 6 16 -5 q5 -10 -7 -15 l-17 -10 l20 -11 q10 -5 4 -17 q-5 -8 -16 -3 l-21 12 l0 -24 q0 -11 -12 -11 q-11 0 -11 11 l0 24 l-23 -12 q-8 -4 -13 3 q-7 11 3 17 l20 11 Z" /><glyph glyph-name="" unicode="+" d="M78 101 l0 51 q0 13 11 13 q12 0 12 -13 l0 -51 l44 0 q13 1 13 -11 q0 -11 -13 -11 l-44 0 l0 -52 q1 -13 -12 -12 q-11 0 -11 12 l0 52 l-44 0 q-14 -1 -13 11 q-1 12 13 11 l44 0 Z" /><glyph glyph-name="" unicode="," d="M22 2 q1 15 16 16 q16 -1 17 -22 q-2 -33 -28 -46 q-8 -1 -12 6 q-4 9 5 13 q9 5 14 16 q-12 4 -12 17 Z" /><glyph glyph-name="" unicode="-" d="M145 79 l-111 0 q-14 -1 -13 11 q-1 12 13 11 l111 0 q14 1 13 -12 q1 -10 -13 -10 Z" /><glyph glyph-name="" unicode="." d="M22 2 q1 15 16 16 q16 -2 17 -16 q-1 -16 -17 -17 q-15 1 -16 17 Z" /><glyph glyph-name="" unicode="/" d="M19 3 l69 182 q3 10 11 10 q15 -1 10 -17 l-68 -182 q-6 -13 -16 -10 q-11 3 -6 17 Z" /><glyph glyph-name="" unicode="0" d="M77 173 q-38 -2 -40 -83 q1 -80 40 -83 q40 2 41 83 q-2 80 -41 83 ZM77 195 q61 -3 64 -105 q-2 -104 -64 -105 q-62 3 -63 105 q2 103 63 105 Z" /><glyph glyph-name="" unicode="1" d="M65 -1 l0 167 l-26 -15 q-12 -6 -16 5 q-5 9 8 17 l37 20 q19 7 20 -13 l0 -181 q0 -15 -11 -14 q-12 -1 -12 14 Z" /><glyph glyph-name="" unicode="2" d="M45 12 l79 0 q14 1 13 -11 q0 -11 -13 -11 l-91 0 q-17 0 -17 16 q0 11 5 20 q15 31 59 70 q33 26 31 49 q-2 27 -32 28 q-31 0 -38 -29 q-3 -18 -14 -15 q-11 2 -9 17 q10 47 61 49 q54 -2 55 -50 q2 -34 -40 -67 q-39 -35 -52 -61 q-1 -5 3 -5 Z" /><glyph glyph-name="" unicode="3" d="M141 47 q-2 -60 -64 -62 q-49 2 -63 45 q-2 15 7 17 q10 3 14 -9 q12 -30 42 -31 q40 1 41 39 q1 37 -54 37 q-14 0 -14 12 q0 11 14 11 q49 0 49 34 q-1 32 -36 33 q-29 -1 -38 -29 q-3 -14 -13 -11 q-12 1 -10 14 q15 46 61 48 q57 -2 59 -55 q0 -28 -25 -45 q29 -15 30 -48 Z" /><glyph glyph-name="" unicode="4" d="M99 33 l-72 0 q-15 1 -16 14 q0 7 7 18 l70 115 q9 15 19 15 q16 1 15 -22 l0 -118 l9 0 q13 1 12 -11 q1 -12 -12 -11 l-9 0 l0 -36 q1 -13 -11 -12 q-12 0 -12 12 l0 36 ZM37 55 l62 0 l0 101 l-62 -101 Z" /><glyph glyph-name="" unicode="5" d="M48 168 l0 -53 q17 8 32 8 q59 -3 61 -63 q-2 -73 -67 -75 q-44 1 -59 43 q-3 13 8 16 q9 4 14 -8 q10 -28 37 -29 q42 2 44 53 q-2 38 -39 41 q-12 0 -26 -7 q-8 -3 -13 -4 q-14 0 -14 18 l0 67 q-1 15 16 15 l78 0 q14 1 13 -12 q1 -10 -12 -10 l-73 0 Z" /><glyph glyph-name="" unicode="6" d="M14 67 l0 21 q1 105 68 107 q38 -1 52 -29 q4 -10 -4 -16 q-9 -5 -16 5 q-12 17 -32 18 q-38 -1 -45 -68 q18 18 43 18 q58 -4 61 -69 q-2 -66 -64 -69 q-62 2 -63 82 ZM38 54 q2 -44 39 -47 q39 3 41 47 q-2 45 -41 47 q-37 -2 -39 -47 Z" /><glyph glyph-name="" unicode="7" d="M56 3 l59 165 l-88 0 q-14 -1 -13 10 q-1 12 13 12 l94 0 q18 0 18 -15 q1 -4 -2 -10 l-59 -169 q-5 -14 -15 -11 q-12 3 -7 18 Z" /><glyph glyph-name="" unicode="8" d="M18 139 q4 52 59 56 q54 -4 58 -56 q0 -27 -21 -45 q26 -17 27 -48 q-3 -58 -64 -61 q-61 2 -63 61 q0 30 27 48 q-23 16 -23 45 ZM40 139 q3 -31 37 -34 q34 2 35 34 q-1 32 -35 34 q-35 -2 -37 -34 ZM36 46 q2 -37 41 -39 q39 2 41 39 q-3 35 -41 37 q-38 -2 -41 -37 Z" /><glyph glyph-name="" unicode="9" d="M141 121 l0 -37 q0 -98 -64 -99 q-43 1 -60 38 q-5 14 6 18 q10 3 16 -10 q10 -23 38 -24 q35 1 40 64 q-18 -15 -41 -15 q-58 4 -62 69 q4 65 63 70 q62 -3 64 -74 ZM118 124 q-2 47 -41 49 q-38 -1 -40 -49 q2 -43 39 -46 q40 2 42 46 Z" /><glyph glyph-name="" unicode=":" d="M22 3 q1 17 16 18 q16 -1 17 -18 q0 -17 -17 -18 q-15 1 -16 18 ZM22 110 q1 17 16 18 q16 -1 17 -18 q-1 -17 -17 -18 q-15 1 -16 18 Z" /><glyph glyph-name="" unicode=";" d="M22 110 q1 17 16 18 q16 -1 17 -18 q-1 -17 -17 -18 q-15 1 -16 18 ZM22 2 q1 18 16 19 q17 0 17 -24 q-2 -34 -28 -47 q-8 -1 -12 6 q-4 8 5 13 q10 6 14 16 q-11 4 -12 17 Z" /><glyph glyph-name="" unicode="&lt;" d="M47 90 l96 -54 q11 -5 9 -14 q-3 -14 -19 -7 l-106 60 q-12 7 -12 15 q0 9 12 15 l106 58 q17 8 19 -8 q0 -7 -9 -12 l-96 -53 Z" /><glyph glyph-name="" unicode="=" d="M138 109 l-110 0 q-13 0 -13 11 q0 12 13 11 l110 0 q15 0 14 -11 q1 -11 -14 -11 ZM138 48 l-110 0 q-13 0 -13 11 q0 12 13 11 l110 0 q15 1 14 -11 q1 -11 -14 -11 Z" /><glyph glyph-name="" unicode="&gt;" d="M121 90 l-96 53 q-9 5 -10 12 q2 16 19 8 l106 -58 q13 -5 12 -15 q0 -9 -11 -15 l-107 -60 q-14 -7 -19 7 q0 9 9 14 l97 54 Z" /><glyph glyph-name="" unicode="?" d="M73 73 l0 -18 q-1 -11 -11 -12 q-11 1 -12 12 l0 18 q1 20 18 30 q18 10 18 38 q-1 31 -23 32 q-20 0 -25 -34 q-1 -9 -12 -10 q-10 2 -10 11 q3 52 47 55 q45 -2 46 -54 q0 -42 -28 -56 q-8 -4 -8 -12 ZM45 2 q1 15 17 16 q16 -1 17 -16 q-1 -16 -17 -17 q-16 1 -17 17 Z" /><glyph glyph-name="" unicode="@" d="M128 76 l9 31 q1 5 1 9 q0 10 -11 10 q-28 -7 -33 -51 q0 -18 14 -18 q15 1 20 19 ZM191 24 q9 -10 -2 -18 q-26 -20 -70 -21 q-95 4 -99 94 q6 109 106 116 q81 -3 84 -85 q-2 -72 -61 -75 q-13 0 -19 9 q-11 -9 -22 -9 q-35 1 -36 40 q7 64 56 72 q32 -1 33 -30 q0 -6 -3 -14 l-11 -40 q-1 -5 5 -6 q33 4 35 53 q-2 61 -61 63 q-78 -6 -83 -94 q3 -69 76 -72 q34 0 57 16 q9 7 15 1 Z" /><glyph glyph-name="" unicode="A" d="M51 45 l-18 -49 q-5 -12 -14 -11 q-13 2 -8 19 l69 176 q6 16 17 15 q11 1 16 -15 l68 -176 q4 -17 -9 -19 q-9 0 -13 10 l-19 50 l-89 0 ZM132 67 l-35 93 l-37 -93 l72 0 Z" /><glyph glyph-name="" unicode="B" d="M42 168 l0 -64 l42 0 q39 1 40 32 q1 33 -43 32 l-39 0 ZM19 4 l0 172 q0 14 15 14 l49 0 q64 0 64 -54 q0 -28 -22 -42 q29 -15 29 -44 q-1 -59 -71 -60 l-49 0 q-15 0 -15 14 ZM42 82 l0 -70 l41 0 q49 -1 48 38 q-1 31 -47 32 l-42 0 Z" /><glyph glyph-name="" unicode="C" d="M40 90 q3 -78 61 -83 q33 1 45 34 q5 10 12 11 q14 -2 11 -15 q-16 -50 -68 -52 q-80 4 -84 105 q6 98 85 105 q47 -2 62 -37 q4 -15 -10 -16 q-6 0 -11 8 q-13 23 -41 23 q-56 -7 -62 -83 Z" /><glyph glyph-name="" unicode="D" d="M19 4 l0 173 q0 13 15 13 l49 0 q89 -1 90 -99 q-1 -100 -86 -101 l-53 0 q-15 -1 -15 14 ZM42 168 l0 -157 l46 0 q61 1 62 81 q-1 75 -64 76 l-44 0 Z" /><glyph glyph-name="" unicode="E" d="M42 83 l0 -71 l87 0 q13 0 13 -11 q1 -12 -13 -11 l-96 0 q-14 0 -14 13 l0 172 q-2 17 16 15 l93 0 q15 1 14 -12 q1 -10 -14 -10 l-86 0 l0 -63 l79 0 q14 0 13 -12 q1 -10 -13 -10 l-79 0 Z" /><glyph glyph-name="" unicode="F" d="M42 81 l0 -82 q0 -14 -11 -14 q-12 0 -12 13 l0 179 q0 13 13 13 l86 0 q15 0 15 -12 q1 -11 -15 -10 l-76 0 l0 -65 l70 0 q15 0 14 -11 q1 -12 -14 -11 l-70 0 Z" /><glyph glyph-name="" unicode="G" d="M146 43 l0 28 l-48 0 q-13 0 -13 11 q0 12 13 11 l53 0 q19 1 18 -17 l0 -32 q-1 -58 -67 -59 q-83 4 -86 105 q5 98 86 105 q51 -2 66 -46 q3 -13 -9 -17 q-9 0 -12 10 q-12 30 -45 31 q-59 -6 -63 -83 q2 -80 63 -83 q44 0 44 36 Z" /><glyph glyph-name="" unicode="H" d="M43 83 l0 -86 q0 -12 -12 -12 q-11 0 -11 12 l0 185 q0 13 11 13 q12 0 12 -13 l0 -77 l97 0 l0 77 q0 13 11 13 q12 1 12 -14 l0 -183 q0 -14 -12 -13 q-11 0 -11 13 l0 85 l-97 0 Z" /><glyph glyph-name="" unicode="I" d="M33 -2 l0 183 q0 15 12 14 q11 1 11 -15 l0 -182 q0 -13 -11 -13 q-12 0 -12 13 Z" /><glyph glyph-name="" unicode="J" d="M94 42 l0 140 q1 12 12 13 q13 1 12 -13 l0 -140 q0 -57 -54 -57 q-39 1 -52 39 q-3 15 8 17 q9 2 14 -9 q8 -24 30 -25 q30 0 30 35 Z" /><glyph glyph-name="" unicode="K" d="M44 74 l0 -76 q0 -13 -11 -13 q-12 0 -12 13 l0 183 q0 15 12 14 q11 0 11 -14 l0 -76 l83 83 q8 7 12 7 q10 -2 11 -10 q0 -6 -6 -13 l-66 -64 l74 -100 q6 -7 5 -12 q-1 -10 -10 -11 q-8 0 -12 7 l-72 100 l-19 -18 Z" /><glyph glyph-name="" unicode="L" d="M43 182 l0 -170 l82 0 q15 1 14 -11 q1 -11 -14 -11 l-91 0 q-14 0 -14 15 l0 177 q0 13 11 13 q12 0 12 -13 Z" /><glyph glyph-name="" unicode="M" d="M47 142 l0 -141 q0 -16 -12 -16 q-11 -1 -11 16 l0 175 q-1 20 16 19 q9 0 17 -16 l60 -154 l60 154 q8 17 17 16 q17 1 16 -19 l0 -175 q0 -16 -11 -16 q-12 0 -12 16 l0 141 l-56 -145 q-5 -12 -14 -12 q-7 -1 -13 11 l-57 146 Z" /><glyph glyph-name="" unicode="N" d="M42 151 l0 -153 q0 -13 -11 -13 q-12 0 -12 13 l0 177 q0 19 13 20 q10 1 18 -13 l90 -150 l0 150 q0 13 12 13 q11 0 11 -14 l0 -176 q0 -20 -12 -20 q-10 -1 -16 11 l-93 155 Z" /><glyph glyph-name="" unicode="O" d="M38 90 q3 -81 65 -83 q60 2 63 83 q-4 80 -63 83 q-61 -3 -65 -83 ZM189 90 q-3 -102 -87 -105 q-83 4 -86 105 q4 101 86 105 q84 -3 87 -105 Z" /><glyph glyph-name="" unicode="P" d="M43 69 l0 -72 q0 -12 -12 -12 q-11 0 -11 12 l0 179 q0 14 16 14 l48 0 q65 -2 67 -61 q-1 -59 -67 -60 l-41 0 ZM43 168 l0 -77 l44 0 q40 1 41 38 q-1 38 -41 39 l-44 0 Z" /><glyph glyph-name="" unicode="Q" d="M144 21 l-21 20 q-9 8 -4 15 q7 14 21 0 l18 -17 q11 20 11 51 q-2 81 -63 83 q-61 -2 -63 -83 q2 -81 63 -83 q23 0 38 14 ZM177 -9 l-16 15 q-23 -20 -54 -21 q-84 3 -87 105 q3 100 87 105 q82 -4 86 -105 q0 -40 -18 -67 l18 -17 q6 -5 5 -11 q-1 -9 -10 -10 q-7 0 -11 6 Z" /><glyph glyph-name="" unicode="R" d="M44 77 l0 -79 q0 -13 -12 -13 q-12 0 -12 13 l0 178 q0 14 17 14 l50 0 q66 0 66 -58 q0 -51 -52 -55 l51 -70 q4 -7 4 -12 q-1 -9 -10 -10 q-8 0 -11 7 l-60 85 l-31 0 ZM44 168 l0 -69 l42 0 q45 0 44 33 q1 37 -41 36 l-45 0 Z" /><glyph glyph-name="" unicode="S" d="M81 195 q38 0 57 -21 q6 -7 6 -12 q0 -4 -5 -9 q-1 -1 -1 -1 q-8 -3 -16 6 q-16 15 -41 15 q-41 -2 -44 -34 q-2 -24 55 -36 q55 -13 57 -58 q-2 -59 -71 -60 q-43 2 -65 31 q-4 7 3 14 q7 8 17 -2 q18 -20 45 -21 q47 1 48 38 q0 30 -52 39 q-60 13 -60 54 q4 54 67 57 Z" /><glyph glyph-name="" unicode="T" d="M74 -3 l0 171 l-48 0 q-15 0 -14 11 q-1 11 14 11 l120 0 q13 1 13 -11 q0 -11 -13 -11 l-49 0 l0 -171 q0 -12 -11 -12 q-12 0 -12 12 Z" /><glyph glyph-name="" unicode="U" d="M20 70 l0 111 q0 14 12 14 q12 0 12 -15 l0 -110 q1 -62 49 -63 q47 1 48 63 l0 111 q0 14 12 14 q12 0 11 -14 l0 -111 q-1 -84 -71 -85 q-72 1 -73 85 Z" /><glyph glyph-name="" unicode="V" d="M74 1 l-60 174 q-6 19 9 20 q9 1 13 -13 l54 -156 l53 156 q4 14 12 13 q12 0 12 -12 q0 -3 -2 -8 l-60 -174 q-5 -17 -16 -16 q-10 -1 -15 16 Z" /><glyph glyph-name="" unicode="W" d="M36 183 l36 -154 l40 150 q5 16 15 16 q11 1 16 -16 l41 -150 l36 153 q3 12 12 13 q15 -1 11 -18 l-42 -172 q-4 -22 -17 -20 q-11 -2 -17 20 l-40 145 l-38 -145 q-6 -22 -18 -20 q-12 -1 -17 20 l-41 173 l1 0 q-4 16 9 17 q9 1 13 -12 Z" /><glyph glyph-name="" unicode="X" d="M90 74 l-54 -80 q-6 -10 -13 -9 q-9 1 -10 9 q-1 5 4 13 l59 86 l-51 81 q-5 6 -4 12 q2 8 10 9 q7 1 14 -11 l46 -72 l46 72 q7 11 13 11 q10 -1 11 -10 q0 -6 -4 -12 l-52 -81 l58 -85 q4 -4 4 -12 q0 -10 -11 -10 q-6 1 -12 10 l-54 79 Z" /><glyph glyph-name="" unicode="Y" d="M78 -1 l0 70 l-63 105 q-8 11 2 18 q11 5 17 -7 l56 -93 l54 93 q8 14 19 7 q9 -6 1 -19 l-63 -104 l0 -70 q0 -15 -11 -14 q-12 -1 -12 14 Z" /><glyph glyph-name="" unicode="Z" d="M17 21 l94 147 l-82 0 q-13 0 -13 11 q0 11 13 11 l95 0 q16 0 16 -13 q0 -6 -7 -17 l-94 -148 l90 0 q15 1 14 -11 q1 -11 -14 -11 l-99 0 q-19 0 -19 14 q0 7 6 17 Z" /><glyph glyph-name="" unicode="[" d="M38 -47 l11 0 q14 1 13 -11 q1 -12 -13 -11 l-19 0 q-16 -1 -15 15 l0 234 q-1 16 16 15 l18 0 q14 1 13 -11 q2 -12 -13 -11 l-11 0 l0 -220 Z" /><glyph glyph-name="" unicode="\" d="M21 180 l69 -174 q4 -13 -7 -17 q-9 -3 -16 10 l-67 174 q-3 5 -2 8 q0 8 8 9 q10 3 15 -10 Z" /><glyph glyph-name="" unicode="]" d="M32 -47 l0 220 l-11 0 q-15 -1 -13 11 q-1 12 13 11 l18 0 q17 1 16 -15 l0 -234 q2 -17 -15 -15 l-19 0 q-14 -1 -13 11 q-1 12 13 11 l11 0 Z" /><glyph glyph-name="" unicode="^" d="M16 164 l24 26 q5 6 10 5 q6 0 11 -5 l26 -27 q4 -5 4 -10 q-1 -10 -13 -10 q-4 0 -9 6 l-18 19 l-18 -20 q-3 -3 -10 -5 q-11 0 -11 11 q0 4 4 10 Z" /><glyph glyph-name="" unicode="_" d="M121 -43 l-114 0 q-10 1 -11 11 q0 11 11 11 l114 0 q11 0 11 -12 q0 -10 -11 -10 Z" /><glyph glyph-name="" unicode="`" d="M42 144 l-25 30 q-4 6 -3 12 q1 8 11 9 q5 0 10 -6 l25 -30 q3 -4 3 -10 q-1 -10 -11 -11 q-4 0 -10 6 Z" /><glyph glyph-name="" unicode="a" d="M120 97 l0 -99 q1 -14 -11 -13 q-10 -1 -12 11 q-12 -11 -32 -11 q-53 3 -55 71 q3 69 74 72 q35 -1 36 -31 ZM97 46 l0 41 q1 21 -16 19 q-44 -3 -47 -50 q1 -47 31 -49 q32 0 32 39 Z" /><glyph glyph-name="" unicode="b" d="M38 66 l0 -36 q0 -23 25 -23 q51 0 51 52 q0 46 -37 47 q-38 -1 -39 -40 ZM15 28 l0 155 q0 12 12 12 q12 0 11 -12 l0 -69 q19 14 39 14 q58 -2 60 -69 q-1 -73 -74 -74 q-47 1 -48 43 Z" /><glyph glyph-name="" unicode="c" d="M35 57 q2 -48 39 -50 q22 1 34 20 q4 9 11 8 q14 -2 10 -17 q-16 -32 -55 -33 q-59 3 -62 72 q4 67 63 71 q40 -2 51 -33 q4 -12 -7 -16 q-10 -3 -14 8 q-8 19 -30 19 q-37 -3 -40 -49 Z" /><glyph glyph-name="" unicode="d" d="M110 58 q-1 47 -38 48 q-35 -3 -38 -48 q2 -48 38 -51 q37 1 38 51 ZM110 -4 l0 5 q-16 -16 -38 -16 q-58 4 -61 73 q4 66 61 70 q24 0 38 -14 l0 70 q0 11 11 11 q12 0 12 -11 l0 -188 q0 -12 -11 -11 q-12 0 -12 11 Z" /><glyph glyph-name="" unicode="e" d="M123 50 l-88 0 q4 -43 40 -44 q27 0 38 18 q8 12 16 7 q12 -6 5 -18 q-19 -27 -59 -28 q-62 1 -63 72 q2 68 64 71 q58 -3 61 -64 q1 -15 -14 -14 ZM35 71 l79 0 q-5 35 -39 36 q-34 -1 -40 -36 Z" /><glyph glyph-name="" unicode="f" d="M61 102 l0 -106 q0 -11 -12 -11 q-11 -1 -11 11 l0 106 l-19 0 q-10 0 -10 10 q-1 12 10 11 l19 0 l0 43 q-1 25 25 24 l18 0 q10 1 10 -11 q1 -11 -10 -10 l-16 0 q-4 0 -4 -4 l0 -42 l19 0 q11 1 10 -10 q0 -11 -10 -11 l-19 0 Z" /><glyph glyph-name="" unicode="g" d="M133 88 l0 -91 q1 -67 -64 -66 q-39 1 -57 28 q-5 10 4 15 q7 5 15 -4 q12 -18 39 -18 q41 -1 40 42 l0 9 q-14 -13 -39 -13 q-59 3 -61 65 q1 72 77 73 q45 -1 46 -40 ZM110 42 l0 42 q1 23 -23 22 q-54 1 -53 -51 q1 -42 37 -43 q40 -1 39 30 Z" /><glyph glyph-name="" unicode="h" d="M103 -3 l0 76 q-1 32 -30 33 q-33 -2 -35 -36 l0 -74 q0 -12 -11 -11 q-12 -1 -12 11 l0 187 q0 12 12 12 q12 0 11 -12 l0 -70 q16 15 37 15 q50 -1 51 -54 l0 -77 q1 -13 -11 -12 q-12 0 -12 12 Z" /><glyph glyph-name="" unicode="i" d="M27 -2 l0 116 q-1 15 11 14 q13 1 12 -14 l0 -116 q0 -13 -12 -13 q-11 0 -11 13 ZM25 178 q1 16 13 17 q13 -1 14 -17 q0 -15 -13 -16 q-14 1 -14 16 Z" /><glyph glyph-name="" unicode="j" d="M23 -37 l0 152 q0 14 12 13 q12 1 11 -13 l0 -151 q2 -36 -29 -33 l-5 0 q-12 -1 -13 11 q0 12 13 11 l5 0 q6 0 6 10 ZM21 178 q1 16 14 17 q13 -1 14 -17 q-1 -15 -14 -16 q-13 1 -14 16 Z" /><glyph glyph-name="" unicode="k" d="M39 49 l0 -52 q0 -12 -12 -12 q-11 0 -11 12 l0 185 q0 13 12 13 q11 0 11 -13 l0 -106 l66 48 q6 4 10 4 q9 -1 10 -11 q0 -6 -6 -10 l-47 -35 l51 -66 q4 -5 4 -11 q-1 -9 -11 -10 q-5 0 -10 6 l-51 69 l-16 -11 Z" /><glyph glyph-name="" unicode="l" d="M20 -2 l0 183 q0 15 12 14 q13 1 12 -15 l0 -182 q0 -13 -12 -13 q-12 0 -12 13 Z" /><glyph glyph-name="" unicode="m" d="M94 4 l0 83 q-1 27 -28 28 q-27 -1 -28 -31 l0 -79 q1 -13 -11 -13 q-12 0 -12 13 l0 118 q0 13 12 13 q12 0 11 -12 q13 12 33 12 q24 1 36 -18 q16 19 40 18 q46 -2 48 -53 l0 -78 q0 -13 -11 -13 q-12 0 -12 13 l0 76 q1 35 -28 34 q-26 -1 -27 -28 l0 -83 q0 -12 -12 -12 q-11 0 -11 12 Z" /><glyph glyph-name="" unicode="n" d="M15 -3 l0 116 q0 15 12 15 q12 0 11 -14 q17 14 36 14 q51 -1 52 -54 l0 -77 q1 -12 -11 -12 q-12 0 -12 12 l0 75 q-1 33 -33 34 q-30 -2 -32 -32 l0 -77 q0 -12 -11 -12 q-12 0 -12 12 Z" /><glyph glyph-name="" unicode="o" d="M118 56 q-2 48 -41 50 q-39 -2 -42 -50 q2 -48 42 -49 q39 2 41 49 ZM77 128 q59 -3 64 -71 q-4 -69 -64 -72 q-61 3 -65 72 q4 68 65 71 Z" /><glyph glyph-name="" unicode="p" d="M39 55 q2 -47 38 -50 q36 2 37 50 q0 51 -38 53 q-36 -2 -37 -53 ZM15 -56 l0 172 q0 12 12 12 q12 0 12 -13 l0 -4 q15 17 38 17 q60 -3 60 -77 q-3 -63 -60 -66 q-22 0 -38 14 l0 -55 q0 -13 -12 -13 q-12 0 -12 13 Z" /><glyph glyph-name="" unicode="q" d="M112 49 l0 33 q1 25 -25 24 q-50 -1 -52 -53 q1 -45 39 -46 q37 1 38 42 ZM135 87 l0 -143 q0 -13 -11 -13 q-12 0 -12 13 l0 54 q-16 -13 -38 -13 q-60 2 -62 68 q2 73 76 75 q46 -1 47 -41 Z" /><glyph glyph-name="" unicode="r" d="M15 -2 l0 117 q0 13 12 13 q12 0 11 -13 l0 -5 q17 18 35 18 q15 1 14 -11 q0 -10 -13 -11 q-33 -9 -36 -42 l0 -66 q1 -14 -11 -13 q-12 0 -12 13 Z" /><glyph glyph-name="" unicode="s" d="M64 128 q34 -1 49 -22 q6 -11 -4 -17 q-7 -3 -15 5 q-12 12 -31 12 q-27 -1 -28 -17 q0 -14 32 -19 q54 -9 53 -41 q-1 -44 -56 -44 q-37 2 -55 30 q-4 9 5 14 q9 6 15 -4 q13 -18 35 -18 q32 1 33 21 q0 15 -32 20 q-54 9 -53 41 q3 37 52 39 Z" /><glyph glyph-name="" unicode="t" d="M35 123 l0 22 q0 13 11 13 q12 1 12 -13 l0 -22 l20 0 q13 1 12 -11 q1 -11 -11 -11 l-21 0 l0 -86 q0 -3 3 -3 l19 0 q12 0 12 -11 q0 -12 -12 -11 l-19 0 q-27 -1 -26 25 l0 86 l-14 0 q-12 0 -12 11 q-1 12 12 11 l14 0 Z" /><glyph glyph-name="" unicode="u" d="M15 39 l0 76 q0 14 12 13 q12 1 11 -13 l0 -76 q0 -32 33 -32 q32 0 32 32 l0 76 q0 13 12 13 q11 1 11 -14 l0 -115 q1 -15 -11 -14 q-10 0 -12 12 q-13 -12 -33 -12 q-55 0 -55 54 Z" /><glyph glyph-name="" unicode="v" d="M132 109 l-43 -109 q-6 -16 -17 -15 q-11 -1 -17 15 l-43 109 q-6 18 9 19 q9 1 12 -10 l39 -98 l39 97 q3 12 12 11 q15 -2 9 -19 Z" /><glyph glyph-name="" unicode="w" d="M34 118 l30 -95 l27 90 q5 16 16 15 q11 1 16 -15 l26 -90 l29 95 q4 10 12 10 q14 -1 10 -17 l-34 -108 q-5 -19 -17 -18 q-13 -1 -18 18 l-24 83 l-25 -83 q-5 -18 -18 -18 q-12 0 -17 18 l-34 107 q-5 17 9 18 q9 0 12 -10 Z" /><glyph glyph-name="" unicode="x" d="M69 41 l-39 -51 q-4 -5 -10 -5 q-16 3 -9 18 l43 56 l-39 51 q-7 14 8 18 q6 1 11 -5 l35 -46 l33 45 q6 6 11 6 q17 -3 9 -19 l-38 -50 l42 -54 q7 -15 -7 -20 q-6 0 -11 6 l-39 50 Z" /><glyph glyph-name="" unicode="y" d="M65 4 l-53 106 q-6 16 10 18 q6 1 11 -8 l44 -90 l40 88 q5 10 12 10 q15 -2 9 -19 l-78 -169 q-5 -8 -11 -9 q-16 2 -11 18 l27 55 Z" /><glyph glyph-name="" unicode="z" d="M16 18 l64 83 l-56 0 q-12 0 -12 11 q-1 12 12 11 l70 0 q17 0 17 -12 q0 -6 -5 -14 l-66 -85 l62 0 q12 1 12 -11 q0 -11 -12 -11 l-74 0 q-18 0 -18 13 q-1 6 6 15 Z" /><glyph glyph-name="" unicode="{" d="M29 -41 l0 87 q0 6 -4 6 l-3 0 q-10 -1 -9 11 q-1 12 9 11 l3 0 q4 0 4 7 l0 85 q-1 30 27 29 l10 0 q12 1 12 -11 q0 -11 -12 -11 l-9 0 q-5 0 -5 -6 l0 -81 q1 -16 -8 -23 q8 -7 8 -22 l0 -82 q0 -6 5 -6 l9 0 q12 0 12 -11 q0 -12 -12 -11 l-10 0 q-28 -1 -27 28 Z" /><glyph glyph-name="" unicode="|" d="M17 -56 l0 237 q-1 15 11 14 q13 1 12 -15 l0 -236 q0 -13 -12 -13 q-11 0 -11 13 Z" /><glyph glyph-name="" unicode="}" d="M61 46 l0 -87 q1 -29 -27 -28 l-9 0 q-13 -1 -12 11 q-1 12 12 11 l8 0 q5 0 5 6 l0 82 q0 16 9 22 q-9 7 -9 23 l0 81 q0 6 -5 6 l-8 0 q-13 -1 -12 11 q-1 12 12 11 l9 0 q28 1 27 -29 l0 -85 q0 -7 4 -7 l4 0 q9 1 9 -11 q0 -11 -9 -11 l-4 0 q-4 0 -4 -6 Z" /><glyph glyph-name="" unicode="~" d="M14 80 q12 31 40 33 q19 0 35 -14 q14 -13 21 -12 q10 1 18 17 q2 8 8 9 q13 0 14 -11 q-5 -33 -41 -37 q-15 -1 -34 16 q-13 11 -21 10 q-9 0 -19 -18 q-5 -9 -12 -8 q-12 3 -9 15 Z" /><glyph glyph-name="" unicode="§" d="M158 93 q-1 10 -37 17 q-20 -8 -21 -20 q0 -11 34 -16 q24 10 24 19 ZM168 188 q8 -4 7 -13 q-3 -13 -16 -8 q-1 0 -2 1 q-13 5 -22 5 q-31 -1 -32 -19 q1 -16 31 -24 q49 -12 47 -37 q0 -18 -19 -28 q21 -12 21 -34 q-1 -45 -61 -46 q-20 0 -39 6 q-9 5 -10 13 q3 12 18 9 q18 -6 31 -6 q36 1 37 24 q-1 16 -33 22 q-50 7 -49 36 q0 21 22 33 q-19 12 -19 31 q3 40 56 42 q18 -1 32 -7 Z" /><glyph glyph-name="" unicode="·" d="M128 113 q21 -2 23 -23 q-1 -22 -23 -23 q-22 1 -23 23 q1 22 23 23 Z" /><glyph glyph-name="" unicode="×" d="M128 74 l-45 -43 q-7 -6 -15 1 q-6 8 -1 15 l45 43 l-44 42 q-6 7 1 15 q8 7 15 1 l44 -43 l44 43 q8 5 16 -2 q7 -6 1 -14 l-45 -43 l44 -42 q7 -7 -2 -15 q-8 -7 -14 -1 l-44 43 Z" /><glyph glyph-name="" unicode="á" d="M152 172 l-30 -30 q-6 -6 -12 -6 q-13 1 -14 14 q0 7 7 13 l37 24 q10 5 15 -1 q5 -6 -3 -14 ZM183 91 l0 -93 q0 -13 -11 -13 q-11 -1 -12 11 q-13 -12 -32 -11 q-54 2 -55 67 q3 73 73 76 q36 -1 37 -37 ZM160 46 l0 41 q0 19 -16 19 q-46 -3 -48 -54 q1 -44 32 -45 q32 0 32 39 Z" /><glyph glyph-name="" unicode="è" d="M177 50 l-89 0 q4 -42 40 -44 q27 0 39 18 q6 11 16 7 q11 -6 4 -18 q-19 -27 -59 -28 q-62 2 -63 72 q2 68 64 71 q58 -3 61 -64 q1 -15 -13 -14 ZM88 71 l79 0 q-4 35 -38 36 q-34 -1 -41 -36 ZM142 140 l-35 21 q-9 6 -10 14 q1 13 14 14 q6 0 11 -5 l32 -29 q6 -7 2 -14 q-5 -6 -14 -1 Z" /><glyph glyph-name="" unicode="é" d="M177 50 l-89 0 q4 -42 40 -44 q27 0 39 18 q6 11 16 7 q11 -6 4 -18 q-19 -27 -59 -28 q-62 2 -63 72 q2 68 64 71 q58 -3 61 -64 q1 -15 -13 -14 ZM88 71 l79 0 q-4 35 -38 36 q-34 -1 -41 -36 ZM152 172 l-30 -30 q-6 -6 -12 -6 q-13 1 -14 14 q0 7 7 13 l37 24 q10 5 15 -1 q5 -6 -3 -14 Z" /><glyph glyph-name="" unicode="ì" d="M116 -2 l0 116 q0 15 11 14 q13 1 12 -14 l0 -116 q0 -13 -11 -13 q-12 0 -12 13 ZM142 140 l-35 21 q-9 6 -10 14 q1 13 14 14 q6 0 11 -5 l32 -29 q6 -7 2 -14 q-5 -6 -14 -1 Z" /><glyph glyph-name="" unicode="ó" d="M152 172 l-30 -30 q-6 -6 -12 -6 q-13 1 -14 14 q0 7 7 13 l37 24 q10 5 15 -1 q5 -6 -3 -14 ZM169 56 q-2 49 -41 50 q-39 -1 -41 -50 q2 -48 41 -49 q39 1 41 49 ZM128 128 q60 -4 65 -71 q-4 -69 -65 -72 q-61 3 -65 72 q4 68 65 71 Z" /><glyph glyph-name="" unicode="ü" d="M72 39 l0 76 q0 14 12 13 q12 1 11 -13 l0 -76 q0 -32 33 -32 q33 0 33 32 l0 76 q0 13 11 13 q12 0 12 -14 l0 -115 q0 -15 -12 -14 q-11 -1 -11 11 q-15 -12 -34 -11 q-55 0 -55 54 ZM108 157 q14 -1 15 -14 q-1 -14 -15 -15 q-14 1 -15 15 q1 13 15 14 ZM148 157 q14 -1 15 -14 q-1 -14 -15 -15 q-14 1 -15 15 q1 13 15 14 Z" /><glyph glyph-name="" unicode="&#x3b1;" d="M197 124 l0 -22 q-24 -10 -27 -37 q1 -29 27 -43 l0 -20 q-27 7 -35 28 q-16 -29 -51 -29 q-50 5 -52 61 q4 61 53 64 q34 -1 50 -29 q11 23 35 27 ZM78 62 q3 -40 34 -43 q38 2 39 47 q-5 37 -35 41 q-37 -1 -38 -45 Z" /><glyph glyph-name="" unicode="&#x3b5;" d="M165 117 l-6 -18 q-41 23 -49 -6 q-1 -22 22 -23 l27 0 l0 -17 l-28 0 q-27 -2 -23 -21 q12 -27 55 -3 l3 -19 q-66 -26 -77 22 q-1 22 13 29 q-12 12 -11 35 q1 22 23 28 q24 6 51 -7 Z" /><glyph glyph-name="" unicode="&#x410;" d="M48 4 l66 178 l27 0 l67 -178 l-24 0 l-19 46 l-76 0 l-17 -46 l-24 0 ZM127 157 l-32 -87 l64 0 l-32 87 Z" /><glyph glyph-name="" unicode="&#x430;" d="M177 95 l0 -63 q2 -11 12 -9 l0 -18 l-15 0 q-16 -1 -18 17 q-18 -20 -44 -21 q-42 1 -46 35 q1 23 16 34 q14 9 44 10 q26 1 29 12 q0 30 -32 30 q-29 0 -31 -25 l-22 0 q8 44 54 43 q51 -2 53 -45 ZM155 55 l0 16 q-8 -5 -24 -6 q-8 -1 -12 -2 q-30 -5 -29 -26 q3 -21 37 -16 q25 8 28 34 Z" /><glyph glyph-name="" unicode="&#x438;" d="M94 4 l-22 0 l0 131 l20 0 l0 -102 l69 102 l23 0 l0 -131 l-21 0 l0 103 l-69 -103 Z" /><glyph glyph-name="" unicode="&#x43a;" d="M74 4 l0 131 l20 0 l0 -60 l56 60 l27 0 l-59 -63 l64 -68 l-29 0 l-59 64 l0 -64 l-20 0 Z" /><glyph glyph-name="" unicode="&#x43e;" d="M127 124 q-37 -2 -39 -53 q2 -50 41 -52 q36 2 39 52 q-2 50 -41 53 ZM129 141 q57 -2 60 -70 q-3 -67 -62 -70 q-58 3 -61 70 q4 66 63 70 Z" /><glyph glyph-name="" unicode="&#x440;" d="M88 137 l0 -17 q21 22 45 22 q51 -2 56 -67 q-2 -72 -58 -75 q-28 1 -44 24 l0 -65 l-20 0 l0 178 l21 0 ZM167 74 q-4 49 -36 51 q-42 -1 -43 -54 q3 -53 43 -55 q34 7 36 58 Z" /><glyph glyph-name="" unicode="&#x441;" d="M165 52 l22 0 q-6 -52 -58 -52 q-59 1 -61 71 q2 69 65 70 q46 -3 53 -46 l-22 0 q-5 26 -31 28 q-41 -1 -43 -53 q2 -48 39 -52 q32 0 36 34 Z" /><glyph glyph-name="" unicode="&#x442;" d="M72 119 l0 16 l112 0 l0 -16 l-47 0 l0 -115 l-21 0 l0 115 l-44 0 Z" /><glyph glyph-name="" unicode="&#x44d;" d="M90 94 l-22 0 q7 44 59 47 q56 -4 60 -69 q-1 -68 -60 -71 q-54 2 -59 50 l22 0 q3 -30 37 -33 q36 3 38 47 l-56 0 l0 17 l56 0 q-6 39 -38 41 q-30 -1 -37 -29 Z" /><glyph glyph-name="" unicode="&#x2014;" d="M250 78 l-245 0 q-10 1 -11 12 q-1 11 11 11 l245 0 q12 0 12 -11 q0 -12 -12 -12 Z" /><glyph glyph-name="" unicode="&#x2018;" d="M206 160 q-1 -17 -18 -18 q-16 1 -17 22 q2 36 28 48 q8 3 12 -5 q3 -7 -4 -13 q-9 -7 -13 -18 q12 -4 12 -16 Z" /><glyph glyph-name="" unicode="&#x2019;" d="M50 195 q0 17 18 17 q16 -1 17 -21 q-2 -35 -28 -48 q-7 -3 -12 5 q-3 6 4 13 q9 8 13 18 q-12 4 -12 16 Z" /><glyph glyph-name="" unicode="&#x201c;" d="M229 160 q-1 -17 -17 -18 q-17 1 -18 22 q2 35 28 48 q8 3 12 -5 q5 -7 -4 -13 q-10 -10 -12 -18 q11 -3 11 -16 ZM183 160 q-1 -17 -18 -18 q-17 1 -18 22 q2 35 28 48 q8 3 12 -5 q5 -7 -4 -13 q-10 -10 -12 -18 q12 -4 12 -16 Z" /><glyph glyph-name="" unicode="&#x201d;" d="M27 195 q1 16 17 17 q17 -1 18 -21 q-2 -35 -28 -48 q-7 -3 -12 5 q-5 6 4 13 q10 10 12 18 q-11 4 -11 16 ZM73 195 q1 16 18 17 q17 -1 18 -21 q-2 -35 -28 -48 q-8 -3 -12 5 q-5 6 4 13 q10 10 12 18 q-12 4 -12 16 Z" /><glyph glyph-name="" unicode="&#x2026;" d="M109 90 q1 17 19 18 q18 -1 19 -18 q-1 -18 -19 -19 q-18 1 -19 19 ZM195 90 q1 17 19 18 q17 -1 18 -18 q-1 -18 -18 -19 q-18 1 -19 19 ZM24 90 q1 17 18 18 q18 -1 19 -18 q0 -18 -19 -19 q-17 1 -18 19 Z" /><glyph glyph-name="" unicode="&#x2190;" d="M256 94 l0 -8 l-210 0 q20 -22 20 -46 q-27 36 -66 51 q38 14 66 49 q-1 -27 -20 -46 l210 0 Z" /><glyph glyph-name="" unicode="&#x2191;" d="M132 -38 l-8 0 l0 209 q-24 -20 -46 -19 q36 26 50 66 q13 -38 50 -66 q-28 1 -46 19 l0 -209 Z" /><glyph glyph-name="" unicode="&#x2208;" d="M207 24 l0 -15 l-92 0 q-65 2 -66 78 q1 77 66 78 l92 0 l0 -14 l-94 0 q-46 -3 -47 -56 l136 0 l0 -14 l-136 0 q0 -57 46 -57 l95 0 Z" /><glyph glyph-name="" unicode="&#x2211;" d="M195 190 l2 -40 l-6 0 q0 1 -1 4 q-4 26 -38 25 l-67 0 l70 -92 l-75 -87 l95 0 q24 -3 34 29 l6 0 q-1 -5 -3 -13 q-6 -22 -8 -44 q-2 0 -7 1 q-8 2 -13 2 l-128 0 q-3 0 -8 -1 q-5 0 -7 0 l89 102 l-89 116 q14 -2 27 -2 l127 0 Z" /><glyph glyph-name="" unicode="&#x221e;" d="M81 130 q24 1 46 -25 q25 26 48 25 q37 -4 41 -41 q-3 -37 -41 -40 q-24 0 -47 23 q-23 -23 -48 -23 q-37 3 -40 40 q4 37 41 41 ZM82 71 q14 -1 32 18 q-19 20 -34 20 q-16 -2 -18 -20 q2 -16 20 -18 ZM175 109 q-13 1 -33 -20 q16 -18 34 -18 q17 2 18 18 q-1 19 -19 20 Z" /><glyph glyph-name="" unicode="&#x2227;" d="M200 -8 l-13 0 l-56 186 l-62 -184 l-13 0 l67 200 l16 0 l61 -202 Z" /><glyph glyph-name="" unicode="&#x223c;" d="M61 80 q12 31 40 33 q19 0 35 -14 q14 -12 21 -12 q12 1 18 17 q2 8 9 9 q12 0 13 -11 q-5 -33 -41 -37 q-15 -1 -34 16 q-13 11 -21 10 q-9 0 -19 -18 q-5 -9 -12 -8 q-13 2 -9 15 Z" /><glyph glyph-name="" unicode="&#x2260;" d="M101 57 l-58 0 l0 12 l68 0 l20 27 l-88 0 l0 12 l97 0 l45 59 l13 0 l-45 -59 l60 0 l0 -12 l-69 0 l-20 -27 l89 0 l0 -12 l-99 0 l-44 -60 l-13 0 l44 60 Z" /><glyph glyph-name="" unicode="&#x2264;" d="M215 59 l0 -16 l-174 48 l0 16 l174 48 l0 -15 l-152 -41 l152 -40 ZM215 12 l0 -15 l-174 49 l0 15 l174 -49 Z" /><glyph glyph-name="" unicode="&#x2265;" d="M215 61 l0 -15 l-174 -49 l0 15 l174 49 ZM215 107 l0 -16 l-174 -48 l0 16 l152 40 l-152 41 l0 15 l174 -48 Z" /><glyph glyph-name="" unicode="&#x22ef;" d="M109 90 q1 17 19 18 q18 -1 19 -18 q-1 -18 -19 -19 q-18 1 -19 19 ZM195 90 q1 17 19 18 q17 -1 18 -18 q-1 -18 -18 -19 q-18 1 -19 19 ZM24 90 q1 17 18 18 q18 -1 19 -18 q0 -18 -19 -19 q-17 1 -18 19 Z" /><glyph glyph-name="" unicode="&#x2500;" d="M0 96 l256 0 l0 -13 l-256 0 l0 13 Z" /><glyph glyph-name="" unicode="&#x2605;" d="M128 179 l24 -70 l71 0 l-58 -44 l21 -69 l-58 41 l-58 -41 l21 69 l-58 44 l71 0 l24 70 Z" /><glyph glyph-name="" unicode="&#x2606;" d="M83 12 l45 34 l45 -33 l1 1 l-18 54 l46 34 l-57 0 l-17 55 l-1 0 l-17 -55 l-56 0 l45 -34 l-17 -55 l1 -1 ZM128 179 l24 -70 l71 0 l-58 -44 l21 -69 l-58 42 l-58 -42 l20 69 l-57 44 l71 0 l24 70 Z" /><glyph glyph-name="" unicode="&#x3001;" d="M50 33 l46 -45 q4 -4 4 -10 q-1 -10 -11 -11 q-5 0 -10 5 l-45 45 q-8 8 -2 16 q8 9 18 0 Z" /><glyph glyph-name="" unicode="&#x3002;" d="M64 37 q33 -2 35 -35 q-1 -34 -35 -35 q-33 2 -35 35 q3 33 35 35 ZM64 15 q-12 -1 -13 -13 q1 -13 13 -13 q13 0 13 13 q0 13 -13 13 Z" /><glyph glyph-name="" unicode="&#x3005;" d="M81 91 l0 -1 q-7 -9 -18 -3 q-8 6 0 17 q24 30 39 65 q4 12 14 8 q12 -3 7 -16 q-1 -3 -5 -10 q-3 -7 -5 -11 l71 0 q13 -1 14 -14 q-1 -6 -7 -15 l-44 -63 q11 -7 21 -16 q10 -9 2 -18 q-7 -8 -17 0 q-8 6 -22 17 q-20 16 -34 26 q-9 8 -4 15 q8 8 18 1 q9 -6 18 -12 l38 57 l-67 0 q-9 -15 -19 -27 Z" /><glyph glyph-name="" unicode="&#x300a;" d="M152 105 l42 99 q5 8 12 8 q13 -2 9 -16 l-42 -101 l0 1 q0 -1 -1 -3 q-1 -1 -1 -3 q0 -3 2 -6 l42 -101 q5 -14 -10 -16 q-8 0 -11 7 l-43 100 q-3 7 -3 16 q0 6 4 15 ZM89 105 l42 99 q3 8 11 8 q13 -2 10 -16 l-42 -101 l0 1 q0 -1 -1 -3 q-1 -1 -1 -3 q0 -3 2 -6 l42 -101 q5 -14 -10 -16 q-8 0 -11 7 l-43 100 q-3 7 -3 16 q0 6 4 15 Z" /><glyph glyph-name="" unicode="&#x300b;" d="M105 74 l-43 -100 q-3 -7 -11 -7 q-15 2 -10 16 l42 101 q2 3 2 6 q0 1 -1 3 q-1 2 -1 3 l0 -1 l-42 101 q-4 14 9 16 q7 0 12 -8 l42 -99 q4 -9 4 -15 q0 -9 -3 -16 ZM168 74 l-43 -100 q-2 -7 -11 -7 q-15 2 -10 16 l42 101 q2 3 2 6 q0 1 -1 3 q-1 2 -1 3 l0 -1 l-42 101 q-3 14 10 16 q8 0 11 -8 l42 -99 q4 -9 4 -15 q0 -9 -3 -16 Z" /><glyph glyph-name="" unicode="&#x300c;" d="M193 185 l-51 0 q-3 0 -3 -3 l0 -203 q0 -12 -11 -12 q-12 0 -12 12 l0 204 q1 23 22 24 l55 0 q13 1 13 -11 q-1 -10 -13 -11 Z" /><glyph glyph-name="" unicode="&#x300d;" d="M63 -6 l51 0 q3 0 3 3 l0 203 q0 12 11 12 q12 0 12 -12 l0 -204 q-1 -23 -22 -24 l-55 0 q-12 0 -13 11 q1 11 13 11 Z" /><glyph glyph-name="" unicode="&#x300e;" d="M139 -14 l0 173 q0 17 16 17 l34 0 q11 0 11 11 q0 11 -11 11 l-50 0 q-23 1 -22 -22 l0 -190 q0 -10 11 -10 q11 0 11 10 ZM108 -14 l0 190 q0 31 31 31 l50 0 q20 0 20 -20 q0 -21 -20 -21 l-34 0 q-6 0 -7 -6 l0 -174 q1 -20 -20 -19 q-21 -1 -20 19 Z" /><glyph glyph-name="" unicode="&#x300f;" d="M117 194 l0 -174 q0 -17 -16 -17 l-34 0 q-11 0 -11 -11 q0 -10 11 -10 l50 0 q23 -1 22 21 l0 191 q1 9 -11 9 q-11 0 -11 -9 ZM148 193 l0 -190 q0 -31 -31 -31 l-50 0 q-20 0 -20 20 q0 21 20 21 l34 0 q7 0 7 6 l0 174 q-1 20 20 19 q21 1 20 -19 Z" /><glyph glyph-name="" unicode="&#x3010;" d="M134 207 l38 0 q10 -1 11 -9 q0 -7 -6 -13 q-36 -33 -38 -95 q0 -58 38 -96 q5 -6 5 -12 q0 -10 -10 -10 l-38 0 q-18 0 -18 18 l0 198 q0 19 18 19 Z" /><glyph glyph-name="" unicode="&#x3011;" d="M140 188 l0 -198 q0 -18 -18 -18 l-38 0 q-9 0 -10 10 q0 6 5 12 q38 38 38 96 q-2 62 -38 95 q-6 6 -6 13 q1 8 11 9 l38 0 q18 0 18 -19 Z" /><glyph glyph-name="" unicode="&#x3043;" d="M113 81 l1 -1 q-3 -5 -9 -16 q-10 -16 -13 -25 q-1 -3 0 -11 q1 -7 -2 -7 q-34 4 -37 89 q0 8 -4 25 q-1 4 -1 5 q16 -10 19 -28 q0 -1 -1 -12 q-2 -12 -2 -13 q1 -37 18 -42 q4 0 26 29 q4 5 5 7 ZM152 112 q49 3 56 -53 q-2 -12 -6 -14 q-2 0 -4 3 q-1 1 -2 2 q-5 5 -17 7 q-2 0 -3 0 q1 1 4 1 q8 3 11 6 q3 41 -39 48 Z" /><glyph glyph-name="" unicode="&#x3044;" d="M112 93 l0 -3 q-19 -29 -31 -55 q-1 -2 0 -10 q3 -15 -3 -15 q-44 8 -46 116 q0 25 -8 41 q23 -14 24 -32 q0 -2 -2 -18 q-1 -13 -1 -14 q3 -60 24 -61 q8 8 43 51 ZM181 57 l0 1 q32 3 30 17 q-15 52 -54 52 l0 1 q62 5 75 -70 q0 -13 -6 -19 q-9 1 -11 9 q-7 6 -34 9 Z" /><glyph glyph-name="" unicode="&#x3046;" d="M111 218 q7 -16 34 -23 q25 -5 26 -20 q0 -8 -6 -8 q-3 0 -9 5 q-8 6 -13 8 q-11 6 -20 13 q-13 10 -12 25 ZM121 -34 l-2 0 q57 56 56 122 q0 38 -21 39 q-15 0 -41 -18 q-15 -11 -20 -11 q-20 5 -27 22 l0 4 q1 0 4 -3 q10 -8 17 -7 q4 0 16 5 q29 13 48 13 q39 1 39 -56 q-1 -67 -69 -110 Z" /><glyph glyph-name="" unicode="&#x3048;" d="M104 207 l1 0 q7 -12 36 -23 q14 -5 16 -8 q8 -17 -6 -18 q-43 21 -47 49 ZM141 116 l-2 3 q-25 -4 -47 -20 q-7 -5 -9 -5 q-20 7 -18 30 l2 0 q1 -1 2 -3 q3 -9 8 -9 q11 0 49 15 q19 8 22 8 q15 -3 17 -16 q0 -6 -16 -16 q-11 -7 -14 -11 q-3 -4 -26 -32 q-15 -18 -22 -26 q28 -2 44 -29 q11 -19 40 -20 q14 0 32 7 q-1 0 2 1 q16 0 19 -9 q1 -12 -37 -11 q-49 -1 -56 13 q-3 4 -9 13 q-19 32 -32 30 q-1 0 -3 -1 q-5 -1 -7 -2 q-5 -6 -12 -16 q-5 -7 -6 -8 q0 0 -1 -1 q-10 -21 -21 -20 q-16 1 3 31 q36 19 98 104 Z" /><glyph glyph-name="" unicode="&#x304a;" d="M23 26 l2 0 q5 -9 13 -9 l1 0 q15 15 47 39 l0 58 q-3 0 -10 -1 q-6 0 -8 0 q-26 0 -30 19 q2 -1 6 -3 q10 -6 19 -6 q12 0 23 4 l0 48 q-1 12 -14 14 l0 3 q31 5 34 -17 q0 0 -1 -2 q-8 -14 -10 -43 q10 3 22 10 q6 3 7 3 q8 0 10 -6 q0 -13 -40 -22 q0 0 0 -6 l0 -48 q41 26 75 26 q52 -4 55 -43 q-4 -49 -55 -51 l-2 0 q-12 0 -32 8 q-5 2 -7 3 l0 3 q12 -5 26 -5 l2 0 q47 3 50 45 q-3 33 -43 35 q-30 0 -69 -33 l0 -15 q0 -10 2 -36 q0 -6 0 -7 q0 -16 -12 -16 q-3 0 -4 4 q0 1 0 1 q-6 13 -25 29 q-3 -5 -6 -8 q0 0 0 -1 q-2 -4 -5 -4 q-25 10 -21 30 ZM174 151 l0 1 q20 13 43 0 q25 -18 14 -36 q-2 0 -4 2 q-5 3 -9 3 q-6 0 -26 -8 l0 2 q2 2 7 6 q12 9 12 17 q-3 17 -37 13 ZM83 -6 l2 0 q1 12 1 22 l0 26 q-21 -19 -30 -31 q5 -3 14 -8 q9 -6 13 -9 Z" /><glyph glyph-name="" unicode="&#x304b;" d="M173 143 q71 -22 69 -74 q-2 -6 -10 -6 q-2 0 -3 2 q0 2 -1 2 q-5 5 -44 12 q34 4 37 12 q-3 23 -48 52 ZM80 186 l0 2 q17 8 35 -15 q0 -3 -3 -7 q-5 -7 -8 -17 q0 0 -1 -1 q-4 -9 -7 -18 q2 0 7 1 q19 4 26 4 q34 0 34 -35 q-11 -101 -62 -117 q-1 1 -1 4 q0 4 -1 6 q-2 6 -12 16 q-7 8 -10 12 l2 0 q18 -11 29 -11 q35 16 41 89 q0 28 -21 28 q-10 0 -29 -5 q-5 -1 -7 -2 q-36 -91 -40 -96 q-12 -35 -27 -33 q-14 5 8 32 q4 5 6 8 q17 27 39 83 q-5 -2 -15 -6 q-23 -11 -25 -10 q-24 10 -25 26 q1 0 5 -3 q10 -7 18 -7 q4 0 21 5 q16 5 25 7 q11 35 11 47 q0 10 -13 13 Z" /><glyph glyph-name="" unicode="&#x304d;" d="M52 149 l0 2 q19 -5 49 3 q6 1 12 4 q-6 11 -12 20 q-1 1 -2 3 q-5 10 -9 12 q-6 2 -17 -4 l-1 2 q2 2 4 6 q3 4 4 5 q8 6 25 -1 q8 -4 8 -9 l0 -7 q0 -5 5 -14 q1 -3 2 -4 q1 -1 2 -4 q1 -1 1 -2 q7 2 18 7 q2 2 3 2 q0 0 1 1 q9 6 15 6 q10 0 13 -5 q0 -6 -6 -8 q-7 -3 -15 -6 q-11 -3 -23 -8 q1 -1 2 -2 q8 -15 18 -30 q12 4 24 11 q6 3 13 3 q11 0 11 -4 q0 -7 -8 -8 q-4 -2 -13 -6 q-2 -1 -3 -1 q-3 0 -9 -2 q-6 -1 -9 -2 q10 -16 22 -29 q1 -1 2 -3 q9 -11 15 -14 q1 -2 4 -4 q2 -1 3 -2 q4 -1 4 -8 q0 -5 -3 -10 q0 0 -1 -1 q-2 -7 -5 -8 q-3 0 -5 3 q-2 1 -3 2 q-11 6 -31 12 q-23 5 -44 5 l-6 0 q-27 0 -39 -11 q-8 -6 -8 -15 q0 -12 9 -19 q6 -8 24 -14 q15 -3 30 -3 l4 0 q2 0 6 1 q4 0 5 0 l5 0 q11 0 17 -6 q7 -7 3 -11 q-3 -4 -10 -4 l-4 0 q-15 0 -29 3 q-13 1 -25 4 q-29 9 -38 26 q-9 15 -1 32 q8 17 37 21 q12 1 23 1 l13 0 q9 0 26 -1 q17 -1 25 -1 q0 2 -2 3 q-6 10 -15 19 q-5 8 -14 21 q-3 5 -5 7 q-31 -12 -49 -14 q-14 -2 -21 0 q-5 1 -16 8 q-4 3 -6 4 l0 2 q14 -3 27 -4 q26 1 50 10 q5 2 9 3 q-11 18 -19 33 q0 0 -1 0 q-25 -9 -44 -9 q-2 0 -6 1 q2 -1 -2 1 q-2 2 -7 5 q-4 3 -7 4 Z" /><glyph glyph-name="" unicode="&#x304e;" d="M160 180 l0 3 q22 -3 32 -14 q11 -16 -2 -20 q-5 0 -12 12 q-9 17 -18 19 ZM187 195 l0 1 q48 -6 36 -29 q-7 0 -18 13 q-11 12 -18 15 ZM29 101 l0 2 q14 -5 27 -5 q26 0 59 14 q-10 15 -19 32 q-30 -9 -45 -9 q-9 1 -22 11 l0 2 q29 -5 61 6 q-18 31 -23 35 q-4 4 -15 -2 q-1 -1 -2 -1 l-1 1 q15 28 40 1 l0 -6 q0 -6 10 -24 q8 3 21 10 q14 7 17 7 q10 -1 12 -7 q0 -6 -6 -7 q-1 -1 -18 -7 q-13 -4 -20 -7 q9 -15 20 -32 q8 3 21 9 q14 6 16 6 q11 -1 11 -6 q0 -5 -7 -8 q-1 0 -5 -2 q-16 -5 -29 -9 q24 -33 38 -46 q1 -1 4 -2 q3 -1 4 -2 q7 -14 -6 -27 q-3 -1 -8 3 q-1 1 -2 2 q-26 15 -75 16 q-49 0 -50 -26 q4 -36 65 -37 q1 0 7 0 q7 1 9 1 q17 0 23 -10 q3 -10 -14 -11 q-93 3 -98 50 q-2 40 69 39 q15 0 40 -2 q13 -2 19 -2 q0 1 -1 4 q1 -1 -1 1 q-17 18 -33 46 q-45 -14 -61 -15 q-15 0 -32 14 Z" /><glyph glyph-name="" unicode="&#x304f;" d="M177 -24 l0 -3 q0 -11 -10 -7 q-4 2 -8 8 q-1 3 -2 4 q-7 15 -16 30 q-12 19 -28 37 q-3 3 -8 10 q-6 8 -10 12 q-1 1 -3 3 q-10 8 -12 15 q-5 10 9 25 q9 9 17 19 q21 22 40 47 q6 6 9 12 q1 4 1 7 q0 4 -7 9 q-3 3 -4 4 l0 2 q26 -2 30 -25 q0 -7 -11 -15 q-2 -2 -3 -3 q-4 -3 -11 -10 q-7 -7 -11 -10 q-1 -1 -3 -3 q-15 -13 -31 -29 q-13 -9 -17 -16 q-5 -9 8 -20 q6 -5 18 -16 q12 -10 17 -16 q18 -19 33 -40 q13 -19 13 -31 Z" /><glyph glyph-name="" unicode="&#x3050;" d="M146 140 q18 0 27 -11 q12 -16 0 -20 q-3 0 -10 11 q-9 16 -17 20 ZM174 153 l0 1 q19 -2 28 -11 q11 -15 3 -22 q-5 0 -12 10 q-8 14 -19 22 ZM114 208 l0 2 q27 -2 30 -25 q0 -7 -23 -26 q-29 -25 -52 -48 q-11 -9 -12 -19 q1 -10 13 -20 q74 -64 76 -96 q-1 -10 -5 -11 q-10 0 -18 21 q-17 32 -56 77 q-3 4 -5 6 q-1 2 -4 6 q-9 12 -9 18 q0 8 17 25 q2 3 7 8 q58 63 52 69 q0 7 -11 13 Z" /><glyph glyph-name="" unicode="&#x3051;" d="M32 79 l0 -5 q0 -20 7 -37 q1 0 2 1 q0 0 1 1 q11 15 22 46 l0 -2 q-6 -19 -10 -37 q0 -1 -1 -3 q-5 -20 -5 -32 l0 -8 q0 -6 -4 -7 q-16 0 -19 34 q-3 17 -3 35 l0 17 q0 23 10 66 q1 3 2 10 q4 13 4 20 q0 11 -11 17 q-1 4 2 4 q4 0 13 -6 q0 0 1 -1 q13 -10 13 -18 q0 -4 -2 -7 q-23 -55 -22 -88 ZM121 116 l-4 0 q-7 0 -20 5 q-4 2 -6 3 l0 3 q17 -5 45 1 q10 1 31 4 q-13 -2 4 1 l0 22 q0 1 0 2 q1 26 -10 31 q-5 4 -17 4 l0 2 q14 9 30 1 q13 -9 13 -22 q0 -4 -2 -11 q-1 -3 -1 -5 l0 -21 q6 0 12 2 q9 2 19 2 q8 0 14 -4 q9 -6 5 -12 q-6 -1 -18 0 q-5 0 -8 0 l-7 0 q-8 0 -17 -1 l0 -34 q0 -42 -10 -68 q-11 -32 -31 -46 q-10 -8 -17 -9 q22 22 35 65 q10 33 10 78 l0 13 q-6 -1 -17 -3 q-21 -3 -33 -3 Z" /><glyph glyph-name="" unicode="&#x3052;" d="M51 79 l0 -3 q-18 -45 -15 -68 q1 -6 0 -9 q-1 -6 -6 -6 q-21 13 -22 72 q0 30 14 84 q5 22 5 27 q0 6 -7 15 q-4 4 -4 5 q22 -2 29 -23 q0 -2 -4 -11 q-22 -47 -22 -90 q1 -35 10 -35 q13 20 22 42 ZM189 188 q16 -1 25 -14 q11 -18 -1 -20 q-4 -1 -10 12 q-8 16 -14 22 ZM213 201 l0 1 q17 -2 28 -12 q12 -12 3 -17 q-6 -2 -17 13 q-8 12 -14 15 ZM77 124 l0 3 q9 -1 20 -2 q15 0 53 6 q7 1 10 1 q2 65 -29 57 l0 3 q33 15 45 -20 q0 -1 -1 -4 q-3 -10 -4 -33 q28 5 33 5 q15 -3 20 -12 q0 -5 -3 -5 q-5 0 -18 1 q-5 0 -6 0 q-12 0 -26 -1 q0 -2 0 -3 q3 -121 -54 -154 l-2 0 l0 3 q46 41 45 152 q-7 -1 -21 -3 q-23 -3 -33 -3 q-16 0 -29 9 Z" /><glyph glyph-name="" unicode="&#x3053;" d="M122 169 l9 0 q9 0 18 -1 q13 0 24 -3 q14 -7 9 -16 q-3 -3 -8 -3 l-5 0 q-19 0 -53 -15 q-7 -3 -11 -4 l-2 0 l1 1 q18 11 33 26 l0 1 q-2 0 -5 1 q-3 0 -5 0 l-5 0 q-24 0 -43 16 q-1 1 -2 2 q-6 5 -6 9 q19 -14 51 -14 ZM111 10 l10 0 q34 0 67 9 q1 0 2 0 q11 2 17 1 q9 -3 8 -11 q0 -7 -8 -10 q-6 -3 -20 -4 q-4 -1 -6 -1 q-4 0 -12 0 q-8 -1 -13 -1 l-27 0 q-50 0 -75 22 q-12 10 -13 29 q0 15 11 32 q0 -1 -1 -4 q-2 -7 -3 -11 q-4 -24 13 -38 q12 -8 25 -11 q13 -2 25 -2 Z" /><glyph glyph-name="" unicode="&#x3055;" d="M126 63 l-9 0 q-18 0 -35 -6 q-22 -10 -22 -27 q0 -10 8 -19 q5 -7 23 -15 q2 -1 3 -1 q16 -4 34 -7 q3 0 9 -1 q12 -2 19 -2 l4 0 q15 0 15 -9 q-1 -8 -15 -10 l-4 0 q-23 0 -57 12 q-44 17 -44 46 l0 5 q1 17 17 28 q9 8 29 10 q15 4 30 4 l11 0 q20 0 45 -7 l0 2 q-6 10 -21 30 q-7 8 -10 13 q-10 12 -19 21 q-33 -12 -61 -12 l-5 0 q-10 0 -19 6 q-9 9 -8 19 l1 0 q8 -12 25 -12 l5 0 q18 0 30 4 q12 2 22 5 q-4 4 -12 11 q-3 3 -5 4 q-3 2 -10 7 q-7 4 -10 6 q-6 6 0 21 q2 7 9 7 q2 0 5 -2 q2 -1 3 -1 q3 -1 8 -2 q6 -2 8 -3 q26 -6 38 -12 q3 -1 9 -3 q3 -2 5 -3 q2 -1 7 -1 q4 0 6 0 q5 -1 7 -4 q3 -6 -2 -10 q-7 -6 -14 -9 q-8 -5 -23 -11 q-4 -1 -6 -2 q10 -10 29 -34 q9 -11 14 -17 q2 -2 5 -6 q7 -8 10 -12 q0 -1 1 -2 q3 -4 3 -8 q0 -4 -4 -10 q-1 -2 -1 -3 q-5 -5 -13 0 q-6 7 -12 11 q-5 4 -16 6 q-12 3 -24 3 q-1 0 -4 1 q-7 1 -12 1 ZM171 158 q1 5 -5 9 q-20 18 -47 18 q-13 0 -14 -6 q0 -4 5 -7 q4 -4 13 -11 q8 -8 12 -12 q1 -1 3 -3 q1 -1 2 -2 q16 6 31 14 Z" /><glyph glyph-name="" unicode="&#x3057;" d="M55 146 l0 27 q0 10 -3 13 q-2 3 -9 7 q-1 1 -1 1 q-1 4 3 5 q9 0 19 -6 q12 -12 12 -21 q0 -2 -1 -4 q-1 -2 -1 -3 q-4 -15 -7 -47 q-1 -9 -1 -13 q0 -5 -1 -15 q-2 -24 -2 -36 l0 -16 q0 -24 10 -36 q7 -11 28 -11 l10 0 q51 0 104 46 q-1 -9 -13 -21 q-40 -40 -88 -41 l-5 0 q-32 1 -46 18 q-11 15 -11 44 l0 17 q0 12 1 25 q2 33 2 67 Z" /><glyph glyph-name="" unicode="&#x3058;" d="M41 194 l0 2 q39 -3 33 -35 q-11 -51 -14 -119 q-1 -55 45 -54 q56 1 109 51 l1 0 q-38 -64 -99 -66 q-66 -5 -64 68 q0 27 2 105 q1 21 1 30 q0 11 -14 18 ZM113 149 q40 -15 28 -36 q-8 -1 -18 20 q-6 12 -10 16 ZM135 159 l0 3 q20 -1 31 -13 q13 -15 0 -19 q-6 0 -14 11 q-9 13 -17 18 Z" /><glyph glyph-name="" unicode="&#x3059;" d="M160 158 l11 0 q23 0 45 3 q2 0 5 0 q8 2 11 0 q1 -1 3 -2 q7 -5 7 -10 q0 -1 0 -3 q-3 -3 -9 -3 q-4 0 -11 2 q-5 2 -7 2 q-26 4 -52 4 l-10 0 q-6 0 -13 -1 q0 -20 2 -40 q1 -1 2 -3 q1 -3 1 -4 q6 -11 6 -30 l0 -8 q0 -36 -17 -62 q-12 -21 -38 -38 l-2 0 l0 1 q40 42 39 73 l-7 0 q-16 0 -28 11 q-12 14 -12 30 l0 5 q4 33 34 36 q5 1 11 -2 l0 30 q-16 -1 -32 -4 q-2 0 -6 -1 q-27 -4 -41 -13 q-6 -3 -13 -4 q-8 0 -14 4 q-1 0 -2 2 q-13 9 -9 16 q3 0 8 -5 q1 -1 1 -1 q9 -4 17 -2 q11 3 20 6 q35 8 71 11 l0 39 q-1 13 -21 15 l0 3 l5 3 l1 0 l5 0 q11 0 21 -13 q9 -8 1 -23 q-3 -8 -3 -17 l0 -7 q9 0 20 0 ZM133 59 l0 26 q1 9 -2 17 q-7 11 -17 11 q-8 0 -16 -8 q-8 -7 -8 -18 q0 -9 8 -21 q11 -14 26 -14 q9 0 9 7 Z" /><glyph glyph-name="" unicode="&#x305a;" d="M171 203 l0 1 q19 -2 28 -13 q9 -15 -3 -18 q-3 0 -11 12 q-8 15 -14 18 ZM197 213 l0 2 q42 -2 32 -26 q-6 -3 -14 8 q-9 14 -18 16 ZM109 209 l0 3 q5 3 11 3 q30 -4 26 -26 q-7 -3 -6 -31 q12 0 26 0 q15 0 49 3 q10 1 11 1 q12 -2 17 -10 q0 -9 -11 -9 q-1 0 -4 1 q-38 5 -66 5 q-7 0 -21 0 q0 -6 1 -21 q0 -12 0 -17 q10 -13 10 -42 q-1 -70 -59 -104 l-2 0 q33 30 42 71 q-44 4 -48 49 q3 33 31 36 q10 0 15 -2 l0 29 q-68 -7 -85 -18 q-8 -6 -19 0 q-13 8 -14 19 q1 0 4 -2 q9 -6 14 -6 q3 0 16 3 q45 11 84 13 l0 25 q1 25 -22 27 ZM133 60 l0 28 q-2 22 -19 25 q-22 -6 -23 -26 q3 -30 34 -35 q7 1 8 8 Z" /><glyph glyph-name="" unicode="&#x305b;" d="M94 99 l0 -28 q-5 -65 61 -61 q21 0 37 4 q4 1 5 1 q21 -1 23 -10 q2 -12 -45 -12 q-99 -8 -94 94 l0 9 q-18 -4 -42 -12 q-5 -1 -7 -2 q-18 3 -28 27 q1 0 8 -4 q10 -7 14 -7 q4 0 39 8 q10 3 16 4 l0 37 q1 12 -19 12 q13 24 35 -5 q0 -2 -2 -7 q-1 -1 -1 -1 l0 -34 q43 8 75 9 q3 24 3 45 q0 19 -19 20 q4 11 19 5 q18 -9 19 -21 q0 -2 -2 -4 q-2 -1 -2 -2 q-1 -21 -4 -43 q6 0 12 0 q18 0 28 5 q3 1 5 1 q17 -5 24 -17 q-1 -5 -6 -5 q-1 0 -5 1 q-23 5 -51 5 q-4 0 -8 0 q-9 -67 -28 -70 q-2 1 -3 4 q-1 2 -2 3 q-4 8 -19 17 q-3 1 -4 2 l0 1 l22 -5 q13 -6 21 47 q-25 -2 -70 -10 q-3 -1 -5 -1 Z" /><glyph glyph-name="" unicode="&#x305d;" d="M199 99 l-4 0 q-23 0 -48 -14 q-30 -17 -36 -40 q-4 -18 7 -33 q9 -17 39 -22 q1 0 4 -1 q21 -4 21 -14 q0 -5 -4 -8 q-5 -2 -17 0 q-8 3 -17 7 q-41 20 -42 53 l0 4 q0 29 33 56 q7 4 14 10 l-2 1 q-64 -13 -93 -38 q-2 -1 -5 -4 q-8 -7 -14 -7 q-11 2 -8 15 q5 7 12 10 q2 1 5 2 q6 1 8 3 q12 8 24 18 q5 5 15 14 q18 15 27 24 q10 9 28 30 q9 10 14 15 q2 4 -2 5 q-5 0 -8 0 q-4 -1 -11 -5 q-4 -1 -6 -2 q-15 -6 -28 -16 q-1 -1 -2 -2 q-1 -1 -2 -2 q-5 0 -14 9 q-1 1 -1 1 q-8 9 -8 18 l0 5 l1 0 q6 -13 17 -13 q11 0 20 5 q13 3 37 11 q3 1 5 2 l1 0 q5 0 12 -9 q3 -4 5 -5 q0 -1 1 -2 q1 -2 1 -5 q0 -6 -7 -7 q-8 -2 -19 -12 q-3 -3 -5 -5 q-41 -39 -77 -66 q32 11 88 24 q4 1 12 3 q8 1 12 2 q2 1 4 2 q6 3 10 3 q1 0 4 0 q4 -1 6 -1 q8 -3 17 -6 q1 0 2 -1 q5 -3 5 -7 q0 -6 -11 -6 l-4 0 q-2 0 -7 0 q-6 1 -9 1 Z" /><glyph glyph-name="" unicode="&#x305f;" d="M203 111 q0 4 -8 9 q-7 3 -15 4 q-8 2 -24 3 q-5 1 -8 1 q25 9 58 -1 q1 -1 4 -2 q13 -6 17 -12 q4 -4 4 -12 q0 -8 -7 -8 q-1 0 -3 1 q-2 0 -3 0 q-1 0 -2 1 q-2 3 -6 3 q-4 0 -9 -3 q-3 -1 -9 -4 q-10 -4 -15 -4 q1 0 2 1 q16 10 22 17 q2 3 2 6 ZM190 -5 l9 0 q4 0 11 2 q7 2 10 2 q10 0 16 -6 q1 -3 -3 -7 q-8 -5 -22 -5 l-24 0 q-15 0 -32 3 q-25 3 -35 19 q-7 12 -3 27 q1 3 2 9 q2 5 2 8 l0 -13 q0 -9 4 -17 q3 -7 11 -13 q10 -6 34 -8 q3 0 5 0 q3 0 8 -1 q5 0 7 0 ZM76 195 l0 2 q14 5 31 -10 q3 -2 3 -5 q0 -4 -3 -7 q-1 -1 -2 -2 q-2 -4 -5 -15 q-1 -3 -2 -5 q-2 -3 -2 -6 q11 3 20 9 q2 1 5 3 q4 3 8 3 q8 -1 11 -6 q0 -7 -16 -13 q-1 0 -1 0 q-10 -5 -21 -8 q-6 -3 -12 -4 q-10 -31 -35 -89 q-3 -9 -5 -13 q-1 -4 -4 -11 q-2 -6 -3 -8 q-1 -2 -2 -5 q-1 -5 -3 -8 q-6 -6 -12 -3 q-3 3 -3 9 l0 7 q0 4 4 8 q1 2 2 3 q14 15 27 51 q11 27 21 55 q-11 -3 -20 -5 q-19 -2 -28 6 q-7 6 -9 12 q2 0 5 -2 q3 -2 5 -2 q15 -8 47 4 q2 0 5 0 q1 3 3 9 q2 6 3 9 q0 2 1 5 q6 20 0 26 q-2 4 -10 5 q-2 1 -3 1 Z" /><glyph glyph-name="" unicode="&#x3060;" d="M107 45 l1 0 q-9 -52 52 -52 q10 0 38 5 q6 1 7 1 q24 -1 18 -13 q-10 -9 -38 -9 q-82 1 -84 42 q0 10 6 26 ZM133 128 q75 16 82 -33 q-4 -5 -12 0 q-4 3 -6 3 q-5 0 -10 -3 q-2 0 -6 -2 q-12 -3 -18 -3 q11 6 20 13 q15 22 -50 25 ZM187 167 l0 2 q23 0 34 -10 q13 -17 -2 -21 q-3 0 -10 9 q-12 16 -22 20 ZM208 188 l0 3 q40 -1 43 -22 q0 -6 -8 -7 q-4 0 -12 9 q-13 14 -23 17 ZM61 195 l0 1 q23 7 32 -17 q0 -4 -5 -12 q-1 -1 -1 -1 q-1 -4 -5 -14 q-1 -4 -2 -6 q19 8 31 16 q14 -1 14 -7 q0 -6 -7 -8 q-20 -11 -44 -19 q-28 -76 -48 -125 q-3 -10 -9 -11 q-8 -2 -10 0 q-3 14 1 24 q6 4 13 16 q20 33 40 92 q-12 -3 -22 -3 q-25 -1 -34 19 q1 0 4 -2 q13 -6 21 -6 q14 0 36 8 q2 6 5 16 q4 11 5 16 q2 22 -15 23 Z" /><glyph glyph-name="" unicode="&#x3061;" d="M78 194 l0 1 q6 5 11 4 q2 -1 5 -2 q12 -3 15 -10 q1 -2 1 -5 q0 -3 -3 -8 q-1 -3 -2 -5 q-5 -12 -8 -25 q1 0 4 1 q16 5 31 11 q24 11 37 1 q0 -8 -6 -9 q-8 -3 -19 -4 q-7 -3 -21 -6 q-3 -1 -4 -1 q-3 -1 -10 -3 q-10 -3 -15 -4 q-3 -13 -6 -27 q-1 -6 -4 -19 q-5 -23 -6 -34 l1 0 q46 32 89 32 q58 0 58 -41 l0 -2 q-1 -29 -31 -51 q-27 -15 -69 -15 l-8 0 l0 2 q29 3 60 21 q32 21 32 49 l0 2 q-1 28 -39 29 q-49 -3 -86 -37 q-2 -2 -4 -7 q-1 -3 -2 -4 q0 -1 -1 -3 q0 -5 -2 -7 q-3 -3 -8 -3 q-7 1 -7 14 l0 4 l0 1 q7 27 13 56 q3 9 6 28 q1 6 1 9 q-12 -3 -24 -3 l-5 0 q-21 3 -22 25 q2 -1 6 -5 q3 -3 5 -4 q6 -3 11 -3 l5 0 q14 0 27 3 q3 14 5 27 q2 12 0 18 q-3 8 -11 9 Z" /><glyph glyph-name="" unicode="&#x3064;" d="M118 2 l0 1 q103 19 108 92 q-3 49 -53 54 q-52 -2 -104 -41 q-2 -1 -5 -5 q-8 -9 -14 -9 q-28 11 -36 33 q14 -11 20 -11 q11 0 39 14 q51 27 90 27 q76 -2 79 -63 q-7 -86 -124 -92 Z" /><glyph glyph-name="" unicode="&#x3066;" d="M169 3 l4 0 q7 0 16 -7 q9 -3 9 -10 q0 -12 -22 -8 q-76 14 -79 80 q2 64 70 104 l0 2 q-12 -1 -36 -6 q-9 -2 -13 -3 q-2 -1 -6 -2 q-34 -9 -50 -20 q-4 -3 -11 -3 q-6 0 -10 6 q-7 6 -12 13 q0 0 -1 1 q-3 2 -3 5 l0 3 l2 0 q7 -9 16 -9 q10 0 28 6 q4 1 12 3 q24 6 59 14 q2 0 6 1 q14 2 36 6 q1 0 5 2 q6 2 9 2 q7 0 16 -3 q1 0 3 -1 q7 -2 9 -3 q7 -4 4 -11 q-2 -3 -8 -3 q-3 0 -9 1 q-6 1 -8 1 q-87 -20 -100 -101 q7 -55 64 -60 Z" /><glyph glyph-name="" unicode="&#x3067;" d="M185 138 l2 0 q18 -6 26 -20 q8 -17 -4 -20 q-7 1 -12 16 q-6 16 -12 24 ZM214 146 q42 -15 32 -36 q-8 -6 -19 15 q-8 15 -13 21 ZM150 163 l0 2 q-39 0 -93 -27 q-16 -8 -19 -8 q-25 8 -30 28 l2 0 q6 -9 17 -9 q9 0 44 10 q50 15 72 17 q4 0 22 4 q14 3 17 3 q16 0 26 -6 q7 -3 5 -10 q-3 -6 -16 -4 q-13 1 -27 -2 q-65 -26 -76 -90 q1 -66 69 -69 q2 0 4 -1 q3 0 6 -1 q1 -1 4 -3 q7 -4 8 -7 q-18 -22 -70 6 q-33 22 -33 62 q3 64 68 105 Z" /><glyph glyph-name="" unicode="&#x3068;" d="M106 -4 l27 0 q22 0 43 7 q1 0 3 0 q2 1 4 1 q19 0 19 -10 q-1 -5 -9 -9 q-15 -4 -43 -4 l-18 0 q-80 -1 -78 49 q0 27 43 61 q3 2 4 3 q-4 5 -6 18 q0 1 0 2 q-6 22 -7 44 q0 4 -1 11 q0 6 0 9 q0 1 0 2 q-1 3 -4 5 q-2 2 -10 5 q-3 1 -4 1 l0 3 q9 6 25 -1 q12 -7 12 -18 l0 -5 q0 -3 -1 -11 q-1 -8 -1 -12 l0 -11 q0 -19 5 -35 q40 30 67 31 q13 0 13 -7 q0 -6 -12 -11 q-3 -1 -4 -2 q-111 -36 -114 -86 q2 -29 47 -30 Z" /><glyph glyph-name="" unicode="&#x306a;" d="M21 155 l0 2 q16 -8 28 -8 q23 0 38 3 q4 6 10 20 q3 7 5 11 q5 19 -13 20 l0 1 q27 6 30 -21 q-1 -2 -4 -5 q-2 -1 -2 -2 q-6 -12 -11 -20 q11 2 26 7 q4 2 5 2 q14 -1 16 -9 q-1 -6 -55 -16 q-39 -77 -54 -95 q-6 -8 -14 -1 q-3 8 8 25 q3 0 7 4 q2 3 4 4 q16 22 36 62 q-18 -4 -33 -4 q-15 1 -27 20 ZM118 15 q-36 -1 -39 -20 q4 -17 39 -18 q25 1 33 31 q-18 7 -33 7 ZM184 131 l0 1 q31 -1 45 -13 q18 -26 -8 -19 q-13 3 -29 3 q-33 1 -32 -31 q1 -30 4 -54 q16 -4 29 -13 q17 -12 7 -24 q-5 0 -11 7 q-1 1 -2 2 q-8 6 -23 13 q-4 -34 -41 -33 q-47 1 -50 25 q4 27 53 28 q13 0 25 -2 q-2 36 -2 34 q0 30 11 39 q5 5 25 11 q22 6 22 13 q-6 11 -23 13 Z" /><glyph glyph-name="" unicode="&#x306b;" d="M32 188 q24 -7 27 -27 q0 -5 -6 -18 q-18 -38 -18 -78 q0 -23 7 -41 q1 -1 2 -1 q0 0 1 0 q12 33 24 67 q-1 -17 -8 -51 q-7 -29 -8 -45 q-1 -12 -9 -11 q-17 7 -20 78 q0 25 10 70 q6 24 6 32 q0 9 -6 20 q-2 3 -2 5 ZM160 127 l-3 0 l16 13 q1 1 2 1 q4 4 4 8 q-6 2 -16 2 q-25 0 -62 -8 l0 1 q36 21 78 21 q31 -1 34 -16 q0 -7 -19 -11 q-22 -5 -34 -11 ZM100 68 l1 0 q-4 -47 63 -45 q16 0 33 5 q5 1 7 1 q18 -1 28 -10 q3 -13 -42 -12 q-93 -1 -91 48 q0 10 1 13 Z" /><glyph glyph-name="" unicode="&#x306c;" d="M39 154 l1 0 q0 -25 12 -54 q29 26 64 37 q3 13 3 28 q0 16 -19 20 l0 1 q28 7 32 -19 q0 -13 -2 -27 q11 3 22 3 q81 -3 84 -77 q0 -30 -14 -50 q11 -9 18 -15 q8 -12 0 -20 q-6 -2 -13 8 q-1 1 -2 2 q-1 1 -3 3 q-7 8 -11 10 q-21 -19 -48 -19 q-27 1 -28 22 q1 22 36 23 q21 0 36 -7 q13 20 13 44 q-2 69 -68 71 q-12 0 -24 -4 q-11 -51 -42 -97 q2 -3 5 -7 q1 -1 3 -4 q6 -8 6 -13 q0 -6 -4 -7 q-4 0 -10 6 q-6 5 -10 12 q-27 -33 -46 -33 q-10 -1 -13 13 q0 1 -1 4 q-4 7 -4 20 q1 29 30 62 q-6 19 -6 39 q0 5 2 17 q1 5 1 8 ZM171 26 q-28 -1 -31 -18 q1 -15 23 -17 q21 1 38 22 q-12 11 -30 13 ZM114 130 q-29 -13 -57 -42 q11 -23 22 -40 q27 41 35 82 ZM47 76 q-26 -33 -27 -57 q1 -16 10 -17 q16 1 39 31 q-14 19 -22 43 Z" /><glyph glyph-name="" unicode="&#x306d;" d="M161 23 q-22 -1 -24 -15 q1 -16 25 -17 q22 0 35 20 q-17 12 -36 12 ZM68 109 l0 2 l0 10 q-10 -3 -19 -14 q-5 -6 -8 -6 q-20 5 -24 20 q3 0 8 -3 q5 -2 8 -2 q15 1 37 21 q3 27 3 35 l0 2 q0 8 -4 12 q-2 5 -10 8 q-1 1 -1 1 l0 1 q9 5 20 -2 q13 -10 10 -19 q-5 -21 -8 -39 q11 -8 11 -14 q1 -7 -5 -10 q-6 -4 -11 -15 q-1 -9 -1 -18 q55 52 99 53 q52 -4 54 -62 q0 -30 -10 -52 q13 -7 23 -19 q3 -7 3 -14 q0 -4 -5 -4 q-4 0 -11 5 q-1 1 -2 2 q-1 1 -3 3 q-8 9 -14 12 q-18 -20 -46 -20 q-31 1 -32 25 q2 22 36 22 q24 0 38 -6 q7 22 7 47 q1 54 -42 53 q-46 -1 -95 -51 q0 -3 0 -9 q-1 -9 -1 -13 q0 -7 1 -23 q2 -16 2 -24 q-1 -26 -8 -31 q-3 0 -6 1 q-2 1 -2 6 q-1 3 -1 4 q-3 16 -19 37 q-1 -3 -3 -9 q-2 -4 -5 -15 q-3 -11 -15 -9 q-7 10 -1 20 q32 42 52 101 ZM66 69 l0 11 q-2 -4 -5 -11 q-4 -8 -6 -12 q1 1 3 4 q5 5 8 8 ZM66 4 l0 61 q-8 -8 -11 -13 l-2 0 q-2 -4 -5 -12 q-5 -12 -7 -17 q1 -1 4 -4 q7 -8 13 -11 q3 -4 8 -4 Z" /><glyph glyph-name="" unicode="&#x306e;" d="M129 157 l-5 11 q-87 -30 -99 -97 q9 -39 27 -42 q63 64 77 128 ZM153 -7 l-2 0 l1 2 q69 36 71 95 q-7 74 -85 79 q-4 0 -9 0 q17 -13 13 -29 q-3 -3 -7 -11 q-1 -3 -2 -5 q-57 -104 -83 -112 q-26 10 -33 59 q16 93 122 106 q96 -6 100 -89 q-1 -71 -86 -95 Z" /><glyph glyph-name="" unicode="&#x306f;" d="M32 60 l0 -11 q0 -14 2 -26 q3 -6 6 -5 q3 6 7 20 q1 5 2 8 q1 6 5 19 q3 9 4 14 q-2 -23 -6 -42 q-2 -12 -2 -25 l0 -4 q0 -7 1 -15 q4 -15 -2 -16 q-8 0 -11 3 q-4 1 -6 6 q-4 10 -6 24 q-3 19 -3 39 l0 20 q0 23 11 65 q5 22 7 33 q0 1 0 5 q1 10 -2 14 q0 0 -1 1 q-5 4 -5 7 q10 0 21 -11 q6 -10 1 -25 q-2 -6 -7 -17 q-8 -20 -10 -31 q-6 -19 -6 -50 ZM190 16 q0 -19 -15 -30 q-10 -5 -29 -5 l-6 0 q-33 1 -42 16 q-2 5 0 15 q10 23 46 25 l5 0 q13 0 28 -3 l0 1 q0 3 -3 80 q-1 0 -3 0 q-9 -2 -19 -2 l-3 0 q-23 0 -48 19 l0 3 q17 -8 35 -8 l7 0 q15 0 30 2 q0 4 0 12 l0 26 q0 10 -4 15 q-1 3 -8 5 q-3 1 -4 2 l0 3 q2 2 3 2 q11 0 18 -5 q13 -7 13 -16 q0 -4 -2 -6 q-5 -15 -5 -30 l0 -4 q0 -1 0 -2 q17 5 33 12 l1 0 q10 -1 11 -7 q0 -7 -13 -12 q-7 -3 -22 -5 q-1 0 -1 0 q-2 0 -4 -1 q-3 0 -5 -1 q0 -14 2 -28 q2 -27 3 -53 q0 -1 1 -2 q0 -2 0 -3 q17 -3 32 -12 q1 0 2 -2 q13 -9 9 -16 q-5 -8 -12 -2 q-3 2 -8 5 q-8 6 -13 8 q-1 0 -4 2 q-4 1 -6 2 ZM142 29 l-4 0 q-13 0 -20 -4 q-13 -7 -13 -16 q0 -18 31 -18 l6 0 q16 0 26 6 q7 6 9 24 q-22 8 -35 8 Z" /><glyph glyph-name="" unicode="&#x3070;" d="M19 192 l2 2 q12 1 23 -17 q2 -1 2 -2 q2 -7 -7 -30 q-20 -49 -20 -91 q1 -38 8 -36 q4 12 12 37 q5 18 8 27 l0 -5 q-1 -3 -2 -9 q-13 -61 -8 -69 q5 -21 -6 -22 q-22 2 -22 78 q0 38 12 88 q13 41 -2 49 ZM194 186 l0 2 q42 -8 30 -29 q-5 -4 -17 12 q-9 11 -13 15 ZM215 202 q41 -9 27 -33 q-4 -1 -13 14 q-9 14 -14 19 ZM142 191 l0 3 q33 -3 35 -22 q-8 -16 -8 -39 q0 -1 0 -2 q10 3 24 8 q11 4 13 4 q10 -1 11 -7 q0 -5 -8 -10 q-2 -1 -3 -2 q-13 -4 -36 -8 q1 -22 6 -65 q1 -15 2 -21 q27 -6 40 -20 q3 -9 -4 -14 q-3 -1 -20 8 q-10 6 -16 9 q-1 -31 -43 -32 q-49 1 -52 26 q6 28 49 30 q15 0 31 -3 q-3 40 -4 80 q-4 0 -12 0 q-9 -1 -13 -1 q-25 0 -45 22 q19 -8 40 -8 q17 0 30 3 q0 11 0 23 q2 33 -17 38 ZM126 29 q-31 -1 -35 -21 q0 -17 35 -17 q35 -2 37 30 q-16 8 -37 8 Z" /><glyph glyph-name="" unicode="&#x3072;" d="M79 180 l1 0 q8 0 15 -4 q8 -4 4 -13 q-2 -4 -8 -8 q-1 -1 -2 -2 q-8 -9 -13 -22 q-10 -15 -17 -32 q-14 -26 -14 -55 l0 -5 q0 -29 20 -42 q6 -4 14 -4 q30 1 56 31 q17 19 26 43 q15 33 15 65 l0 5 q0 6 -3 17 q-4 11 -4 18 l0 4 q0 9 9 9 q9 0 10 -11 l0 -6 q0 -17 11 -41 q11 -21 27 -37 q1 -1 4 -4 q7 -6 9 -10 q1 -3 1 -8 q-3 -12 -17 -4 q-3 2 -8 8 q-3 3 -4 4 q-13 21 -23 45 q-3 9 -6 19 l0 -20 q0 -45 -22 -84 q-28 -54 -70 -55 l-3 0 q-25 0 -38 16 q-16 19 -16 44 l0 5 q-1 45 36 107 q0 1 2 3 q3 5 2 9 q-8 -7 -17 -13 q0 0 -1 -1 q-12 -8 -20 -8 q-7 1 -12 9 q-6 4 -6 10 q27 -16 62 18 Z" /><glyph glyph-name="" unicode="&#x3073;" d="M5 162 q20 -15 52 12 q5 6 13 6 q9 0 15 -10 q3 -6 -4 -12 q-1 0 -2 -1 q-6 -3 -8 -8 q-39 -60 -39 -108 q2 -43 35 -45 q78 7 93 136 q0 11 -5 33 q-1 6 -1 7 q0 14 11 13 q11 -3 12 -18 q0 -40 39 -79 q9 -9 9 -11 q4 -14 -8 -14 q-10 1 -21 17 q-20 29 -29 65 q-3 -157 -92 -164 q-52 1 -53 61 q1 52 37 122 q-21 -21 -36 -21 q-13 3 -18 19 ZM188 180 q23 -4 33 -24 q3 -11 -4 -15 q-6 -3 -11 8 q-2 4 -6 11 q-7 13 -12 20 ZM214 188 l0 3 q34 -7 37 -28 q-5 -17 -18 -5 q-6 23 -19 30 Z" /><glyph glyph-name="" unicode="&#x3075;" d="M156 12 l0 -3 q0 -14 -10 -23 q-7 -7 -26 -1 q-23 9 -41 25 q4 -1 12 -4 q18 -7 27 -7 q9 0 15 6 q10 14 -4 41 q0 1 -2 2 q-1 2 -2 4 q-62 -25 -70 -56 q-1 -11 -9 -11 q-4 0 -10 6 q-6 3 -13 9 q-8 5 -8 18 l0 2 q0 9 4 17 q4 3 4 1 q-4 -21 11 -23 q12 0 31 11 q23 12 45 23 q1 0 3 2 q7 3 10 4 q-2 4 -6 12 q-7 13 -9 20 q-3 6 -3 12 q0 5 10 15 q2 2 2 2 q1 2 5 5 q9 10 11 16 q5 11 -1 16 q-1 0 -2 1 q-9 6 -14 12 q-9 13 -8 25 l2 0 q6 -17 30 -27 q16 -6 16 -16 q0 -8 -11 -15 q-5 -2 -14 -9 q-3 -2 -5 -3 q-1 -1 -4 -4 q-11 -9 -11 -17 q0 -5 5 -13 q1 -1 1 -2 q2 -3 7 -9 q5 -6 7 -9 q3 -3 6 -8 q1 0 3 1 q6 1 10 1 q33 5 66 -13 q24 -15 25 -40 q1 -9 -8 -9 q-3 0 -8 4 q-1 1 -2 1 q-2 2 -5 2 q-1 1 -2 1 q-6 0 -19 2 q-8 1 -12 1 l1 1 q12 2 24 6 q5 1 7 4 q-4 36 -57 38 q-10 0 -21 -2 q17 -22 17 -45 Z" /><glyph glyph-name="" unicode="&#x3076;" d="M185 130 q38 -1 34 -28 q-8 -5 -22 14 q-8 11 -12 14 ZM209 140 l0 3 q39 -1 43 -25 q-6 -8 -17 3 q-14 14 -26 19 ZM97 191 l1 0 q2 -13 26 -24 q21 -9 21 -20 q0 -8 -17 -18 q-27 -15 -29 -34 q0 -5 14 -22 q8 -10 12 -16 q15 3 30 3 q66 -3 73 -55 q0 -13 -17 -3 q-5 3 -7 3 q-7 3 -30 2 q16 5 31 12 q-1 35 -50 38 q-15 1 -28 -2 q19 -27 18 -43 q-2 -25 -22 -30 q-19 2 -55 28 q60 -26 58 8 q0 16 -12 33 q-54 -17 -69 -52 q-3 -17 -9 -16 q-2 -1 -4 1 q-2 1 -3 1 q-1 1 -4 3 q-21 11 -21 30 q0 10 5 19 q1 2 2 2 q3 1 2 -1 q-3 -16 4 -22 q8 -6 21 1 q39 27 76 37 q-1 2 -4 7 q-15 21 -15 26 q-5 12 15 35 q14 15 14 22 q0 5 -9 12 q-18 14 -18 35 Z" /><glyph glyph-name="" unicode="&#x3078;" d="M5 90 q1 -1 3 -2 q6 -3 8 -3 q10 0 28 14 q3 4 5 5 q2 2 5 5 q5 6 15 14 q16 16 27 15 q15 0 38 -22 q4 -4 6 -6 q3 -5 11 -12 q3 -3 4 -4 q3 -2 10 -6 q6 -5 9 -7 q23 -18 49 -32 q2 -1 5 -2 q9 -4 14 -8 q5 -3 8 -8 q2 -9 -2 -12 q-4 -3 -13 1 q-1 1 -2 1 q-2 1 -6 3 q-5 3 -16 10 q-44 28 -76 64 q-2 2 -5 6 q-9 12 -16 17 q-13 12 -25 7 q-8 -5 -24 -21 q-3 -3 -4 -4 q-11 -13 -14 -21 q0 -1 0 -2 q-1 -6 -6 -8 q-1 -1 -6 -1 q-9 0 -21 6 q-9 7 -9 13 Z" /><glyph glyph-name="" unicode="&#x3079;" d="M174 151 q23 1 33 -7 q13 -13 2 -20 q-3 0 -12 9 q-13 15 -23 18 ZM201 169 q48 -2 36 -23 q-6 0 -17 10 q-11 10 -19 13 ZM4 87 q1 0 4 -2 q11 -9 22 0 q8 6 22 19 q30 29 46 28 q12 0 50 -34 q25 -23 39 -33 q9 -7 43 -25 q9 -4 10 -5 q1 -1 4 -3 q8 -7 8 -11 q0 -18 -26 -3 q-49 26 -103 91 q-16 18 -25 18 q-6 0 -18 -12 q-26 -25 -31 -38 q-4 -11 -13 -11 q-28 3 -32 21 Z" /><glyph glyph-name="" unicode="&#x307d;" d="M4 51 l0 34 q0 25 9 61 q0 3 2 8 q2 8 2 13 q0 4 -3 11 q-1 3 -1 4 q0 1 -2 3 q-2 4 -2 6 q4 -2 13 -8 q1 -1 1 -1 q10 -12 10 -20 q0 -6 -3 -10 q-7 -14 -12 -29 q-6 -18 -6 -40 l0 -16 q0 -3 1 -8 q0 -6 0 -9 q2 -17 7 -24 q3 0 4 2 q11 30 20 62 l0 -3 q-1 -7 -4 -20 q-2 -15 -4 -23 q0 -1 -1 -3 q-5 -24 -5 -38 l0 -4 q0 -14 -7 -14 q-5 1 -10 10 q-5 9 -6 24 q-3 16 -3 32 ZM251 167 q-2 -23 -25 -24 q-24 2 -26 25 q2 24 26 26 q24 -2 25 -27 ZM226 149 q19 1 20 18 q-1 20 -20 21 q-19 -1 -20 -20 q1 -17 20 -19 ZM119 165 l-6 0 q-13 0 -27 8 l0 2 q8 -2 17 -2 q9 0 27 4 q5 1 7 1 q2 0 5 1 q17 6 26 6 l4 0 l1 0 q13 -1 15 -8 q0 -1 -1 -3 q-2 -1 -5 -1 l-5 0 q-6 0 -18 -3 q-6 -2 -10 -3 q0 0 -1 0 q23 -12 13 -29 l0 -9 q4 2 11 6 q-1 -1 2 1 q2 0 5 2 q5 2 7 2 q10 -1 10 -7 q0 -2 -8 -6 q-13 -7 -26 -13 q-1 0 -1 0 l0 -24 q1 -24 4 -48 q22 -3 35 -12 q12 -6 12 -14 q0 -5 -4 -6 q-5 0 -10 2 q-7 5 -15 9 q-4 2 -13 5 q-3 1 -4 2 q0 -5 0 -8 l0 -4 q0 -11 -8 -17 q-10 -9 -23 -8 l-4 0 q-27 0 -38 12 q-13 20 14 36 q16 6 29 6 l4 0 q6 0 12 -1 q0 1 0 3 q-2 13 -2 29 l0 34 q-17 -7 -36 -7 q-13 0 -28 11 l0 2 q2 0 5 -1 q7 -2 11 -2 q21 0 48 11 l0 16 q0 15 -9 26 q-12 -1 -22 -1 ZM126 34 l-4 0 q-24 -1 -25 -17 q0 -14 21 -17 q1 0 3 0 q13 -3 19 0 q13 3 13 19 l0 5 q0 4 0 7 q-13 3 -27 3 Z" /><glyph glyph-name="" unicode="&#x307e;" d="M121 200 l0 2 q25 -1 31 -17 q0 -2 -2 -8 q-6 -16 -6 -28 l0 -6 q22 4 42 10 q1 1 1 1 q9 0 14 -7 q4 -6 -5 -8 q-18 -6 -52 -9 l0 -37 q1 0 2 1 q1 0 1 0 q1 0 4 0 q26 1 27 15 q4 -4 13 -6 q6 -2 6 -5 q3 -13 -53 -19 q2 -33 5 -54 q51 -11 60 -30 q3 -10 -3 -12 q-6 0 -9 2 q-17 14 -47 25 q-3 -41 -51 -40 q-47 1 -50 32 q2 27 57 27 q17 0 30 -2 q-3 51 -3 48 l0 2 q-4 0 -13 0 q-9 -1 -14 -1 q-43 0 -49 22 q29 -13 76 -6 l0 37 q-17 -2 -35 -2 q-41 1 -52 22 q18 -11 47 -11 q18 0 40 2 l0 37 q1 20 -12 23 ZM87 21 q-26 -2 -30 -19 q4 -20 40 -21 q35 -1 39 32 q-23 8 -49 8 Z" /><glyph glyph-name="" unicode="&#x307f;" d="M134 167 l0 1 q-18 -4 -34 -16 q-7 -6 -11 -6 q-13 0 -24 21 l1 2 q1 -1 3 -2 q5 -5 9 -5 q22 2 60 21 q19 -8 21 -22 q0 -5 -12 -14 q-2 -2 -3 -3 q-7 -8 -29 -45 q-9 -13 -13 -20 q1 0 2 0 q44 0 83 -14 q10 37 -7 51 q34 -7 21 -57 q37 -17 38 -33 q0 0 0 -1 q-1 -4 -5 -4 q-2 0 -5 0 q-2 1 -6 4 q-15 11 -27 18 q-25 -54 -62 -66 q28 27 48 73 q-42 21 -84 21 q-1 0 -1 0 q-35 -58 -48 -71 q-12 -12 -21 -8 q-9 6 -11 25 q6 51 73 61 q40 66 44 89 ZM29 23 q1 -17 6 -19 q8 0 18 15 q3 5 5 7 q2 4 8 13 q13 19 19 31 q-53 -8 -56 -47 Z" /><glyph glyph-name="" unicode="&#x3080;" d="M14 149 q2 -1 6 -3 q11 -5 15 -5 q10 0 29 4 q5 1 7 1 l1 20 q1 20 -18 23 l0 3 q22 6 36 -16 q0 -1 -1 -6 q-3 -12 -5 -21 q10 3 25 9 q11 4 13 4 q11 0 14 -5 q3 -4 -5 -8 q-29 -8 -49 -13 q-3 -14 -4 -32 q10 -3 10 -18 q0 -10 -11 -40 q-10 -24 -10 -31 q-10 -25 55 -22 q76 -2 64 42 q0 2 -1 6 q-8 65 -8 78 q-1 20 18 19 q45 -3 47 -49 q0 -10 -6 -10 q-3 0 -7 3 q-7 5 -16 5 l-13 0 q2 1 5 3 q13 5 16 12 q-1 28 -30 33 q-12 -1 -13 -15 q9 -67 28 -109 q1 -1 1 -2 q1 0 1 -1 q0 -32 -85 -31 q-70 -2 -64 34 q0 1 0 6 q1 10 1 13 q-35 16 -34 43 q7 29 43 32 l1 28 q-16 -3 -30 -3 q-18 2 -26 19 ZM62 48 l7 45 q-25 6 -34 -19 q-2 -21 27 -26 Z" /><glyph glyph-name="" unicode="&#x3081;" d="M121 188 l0 3 q32 -3 29 -33 q0 -6 -3 -18 q3 8 -1 -2 q3 0 5 0 q89 0 90 -80 q-6 -74 -93 -83 l0 1 q3 2 11 6 q67 31 66 81 q-3 61 -75 64 q-4 0 -7 -1 q-12 -40 -45 -82 q1 -1 2 -2 q4 -5 9 -11 q9 -14 0 -17 q-10 -1 -23 13 q0 0 -1 1 q-29 -33 -52 -38 q-13 0 -18 41 q1 39 39 71 q-2 7 -5 21 q-8 35 -13 42 q16 -2 22 -34 q1 -5 3 -15 q1 -5 1 -7 q32 21 70 27 q1 4 2 10 q2 7 2 10 q4 24 -15 32 ZM57 89 q-38 -34 -33 -63 q0 0 0 -1 q2 -15 10 -15 q19 1 44 28 q-13 20 -21 51 ZM67 96 q5 -18 23 -43 q25 32 38 71 q-33 -7 -61 -28 Z" /><glyph glyph-name="" unicode="&#x3082;" d="M157 103 l1 0 q41 -37 42 -80 q-2 -55 -67 -58 q-50 0 -50 70 q0 12 2 16 q-28 14 -29 33 q0 7 25 25 q11 7 16 11 l0 1 q-37 14 -36 37 l1 0 q6 -12 34 -22 q5 -2 8 -3 q2 8 5 19 q1 3 1 4 q14 39 -17 47 l0 1 q32 6 40 -25 q0 -8 -5 -13 q-7 -13 -15 -37 q7 -3 7 -9 q0 -7 -13 -10 q-10 -34 -12 -50 q6 -1 18 -2 q22 -2 25 -3 q5 -7 3 -10 q-3 -4 -11 -4 q-20 1 -37 7 q-2 -11 -2 -20 q0 -52 41 -51 q52 3 54 51 q1 38 -29 75 ZM96 106 q-33 -6 -37 -22 q0 -16 27 -22 q2 15 10 44 Z" /><glyph glyph-name="" unicode="&#x3089;" d="M69 120 l0 -37 q0 -21 -2 -42 q3 0 13 7 q40 28 78 28 q50 -2 52 -41 q-1 -61 -90 -62 l-7 0 l1 1 q80 18 81 61 q-2 34 -36 36 q-56 -2 -82 -46 q-1 -2 -3 -6 q-4 -12 -11 -12 q-12 4 -17 19 l0 3 q8 17 13 56 q3 25 6 37 q2 14 29 29 q16 9 16 14 q0 2 -7 9 q-16 18 -15 28 l2 0 q3 -8 20 -19 q23 -14 23 -27 q-2 -12 -13 -9 q-45 5 -51 -27 Z" /><glyph glyph-name="" unicode="&#x308a;" d="M111 -34 l-2 0 q56 52 60 147 q-3 73 -31 75 q-24 -1 -37 -57 q-12 -33 -9 -58 q1 -3 1 -5 q-1 -13 -6 -16 q-18 -3 -17 47 q0 21 5 55 q2 15 2 20 q0 9 -6 22 q-1 2 -1 3 q18 -9 19 -24 q0 -3 -2 -16 q-8 -45 0 -46 q25 81 56 81 q42 -3 43 -88 q-3 -104 -75 -140 Z" /><glyph glyph-name="" unicode="&#x308b;" d="M111 23 q-20 -2 -22 -19 q3 -19 37 -21 q9 0 21 2 q-8 36 -36 38 ZM147 176 l0 1 q-22 0 -45 -15 q-6 -4 -8 -4 q-24 10 -20 28 l2 0 q5 -17 51 1 q17 6 21 6 q9 0 14 -11 q3 -6 6 -8 q2 -3 3 -6 q0 -6 -13 -11 q-1 0 -1 0 q-8 -4 -60 -69 q-10 -13 -12 -16 l2 -1 q33 24 63 23 q62 -1 64 -49 q-3 -70 -83 -72 q-44 1 -48 30 q3 24 31 26 q36 -1 48 -38 q35 16 36 50 q-2 48 -47 49 q-42 -2 -86 -57 q-7 -8 -17 -7 q-8 3 -5 12 q2 6 12 14 q9 7 15 14 q47 59 77 110 Z" /><glyph glyph-name="" unicode="&#x308c;" d="M57 118 l0 2 q-5 -2 -16 -11 q-11 -9 -14 -8 q-16 9 -19 20 l2 1 q15 -16 49 18 q0 4 1 10 q1 13 1 24 q0 15 -13 21 l0 1 q19 6 32 -20 q0 -3 -3 -8 q-5 -6 -10 -32 q10 -8 10 -13 q0 -2 -2 -4 q-12 -16 -16 -34 l1 0 q59 73 96 72 q22 -1 23 -28 q0 -8 -6 -44 q-8 -51 -8 -68 q-3 -23 22 -21 q39 1 66 22 q-17 -33 -65 -35 q-38 -2 -36 50 q0 24 8 70 q5 25 5 32 q0 16 -14 16 q-38 -1 -91 -82 l0 -19 q0 -12 4 -52 q1 -10 1 -11 q-1 -15 -9 -21 q0 0 -1 0 q-1 1 -2 1 q-2 14 -15 36 q-3 6 -5 9 l0 1 q9 -8 18 -17 l1 0 q0 1 1 3 q0 2 0 3 l0 55 q0 0 0 1 q-13 -21 -25 -47 q-4 -14 -13 -17 q-11 -2 -12 9 q0 5 6 13 q40 67 48 102 Z" /><glyph glyph-name="" unicode="&#x308d;" d="M84 80 l1 -1 q51 22 76 22 q61 -2 63 -51 q-3 -75 -123 -77 l0 2 q107 19 107 80 q0 39 -45 39 q-59 -2 -102 -46 q-1 -1 -3 -4 q-11 -16 -22 -9 q-9 8 5 21 q16 9 28 23 q75 79 75 97 q-11 3 -36 -12 q-9 -6 -11 -6 q-6 0 -12 7 q-4 5 -8 9 q-3 2 -3 11 l2 0 q11 -24 64 6 q1 1 3 2 q1 1 2 1 q13 -6 20 -24 q0 -3 -5 -6 q-1 -1 -2 -1 q-7 -4 -33 -35 q-25 -30 -41 -48 Z" /><glyph glyph-name="" unicode="&#x308f;" d="M50 16 l22 -20 l2 3 q2 7 4 40 q1 12 1 18 q-14 -15 -23 -31 q0 -1 -1 -2 q-4 -6 -5 -8 ZM78 195 l0 4 q34 -12 24 -34 q-5 -1 -10 -28 q2 -3 7 -7 q5 -5 7 -8 q2 -1 0 -3 q0 -4 -6 -9 q-1 -1 -2 -1 q-1 -2 -4 -6 q-5 -7 -7 -12 q-1 -11 -1 -20 l0 -2 q42 47 85 47 q63 -3 67 -53 q-6 -76 -105 -80 l0 1 q80 24 85 76 q-3 46 -47 49 q-41 0 -85 -46 l0 -42 q0 -6 1 -20 q1 -14 1 -19 q0 -16 -8 -16 q-3 0 -5 6 q-1 3 -2 4 q-6 16 -23 39 q-5 -12 -10 -27 q-20 -12 -22 5 q-1 11 13 23 q28 31 50 75 q0 4 1 12 q0 6 1 11 q-10 -3 -23 -13 q-3 -2 -4 -3 q-22 6 -24 23 q1 0 7 -3 q8 -4 12 -5 q10 0 30 18 q3 3 4 4 q3 22 3 45 q-2 10 -10 15 ZM61 49 l0 -1 l4 -1 q3 2 9 9 q3 5 5 7 q0 3 1 9 q0 7 1 10 q-4 -6 -11 -18 q-6 -11 -9 -15 Z" /><glyph glyph-name="" unicode="&#x3092;" d="M182 116 l0 3 q10 7 24 -4 q16 -16 12 -26 q0 -1 -4 -1 q-1 0 -2 1 q-2 1 -6 1 q-41 -12 -71 -27 q1 -9 1 -22 q0 -26 -6 -23 q-6 1 -7 17 q0 10 0 22 q-47 -26 -47 -53 q-7 -25 54 -23 q23 0 39 3 q4 1 5 1 q13 -1 14 -11 q-2 -8 -15 -8 q-5 -1 -26 -1 q-84 -1 -79 35 q0 34 54 67 q-3 29 -23 27 q-25 0 -41 -30 q-5 -10 -8 -14 q-2 -3 -5 -3 q-9 5 -6 21 q2 5 8 10 q1 1 2 1 q20 17 45 60 q-11 -1 -20 -1 q-26 1 -36 24 l2 1 q10 -15 41 -14 q10 0 18 0 q12 28 11 37 q0 7 -14 13 l0 3 q31 -1 33 -18 q0 -3 -9 -18 q-1 -2 -2 -3 q-2 -2 -4 -7 q-1 -3 -2 -4 q17 4 37 11 q4 2 5 2 q15 -1 17 -7 q0 -9 -66 -18 q-13 -25 -28 -46 q14 7 28 7 q24 2 29 -27 q8 4 25 12 q21 10 30 15 q8 3 5 11 q-3 6 -12 4 Z" /><glyph glyph-name="" unicode="&#x3093;" d="M109 184 l0 2 q23 7 32 -21 q0 -7 -13 -18 q-1 -1 -1 -1 q-26 -34 -54 -83 l0 -3 q23 15 39 14 q23 0 28 -45 q4 -38 21 -38 q47 14 79 56 l0 -2 q-32 -69 -79 -70 q-28 -1 -35 54 q-4 39 -19 39 q-44 -8 -68 -84 q-3 -9 -7 -9 q-5 0 -12 8 q-2 3 -3 4 q0 5 10 22 q5 6 6 9 q8 13 31 51 q60 94 58 103 q0 7 -13 12 Z" /><glyph glyph-name="" unicode="&#x30a1;" d="M45 154 l2 0 q8 -11 19 -11 q1 0 34 5 q63 8 78 10 q1 0 3 2 q2 3 4 2 q9 -2 21 -16 q9 -11 5 -16 q-1 0 -4 0 q-5 1 -8 0 q-7 -2 -24 -10 q-25 -12 -37 -15 q-13 -68 -58 -114 l-3 0 q45 67 45 124 q-1 4 -8 8 q-1 1 -2 1 l0 1 q14 6 29 -14 l2 0 q50 29 41 38 q-79 -4 -110 -18 q-1 -1 -2 -2 q-3 -2 -5 -2 q-20 10 -22 27 Z" /><glyph glyph-name="" unicode="&#x30a2;" d="M23 187 l3 1 q3 -12 20 -14 q2 0 80 10 q56 7 70 9 q1 1 3 2 q1 1 2 1 l1 0 q44 -32 26 -42 q-2 0 -6 0 q-5 0 -7 -1 q-2 -1 -12 -5 q-40 -18 -59 -21 q-31 -128 -84 -154 q56 76 62 158 q-1 16 -14 20 q20 8 37 -20 q-1 -1 -1 -3 q58 34 58 51 q-76 2 -141 -21 q0 0 -1 -1 q-5 -6 -12 -6 q-22 5 -25 36 Z" /><glyph glyph-name="" unicode="&#x30a3;" d="M155 88 l0 -48 q0 -6 1 -25 q1 -8 1 -9 q0 -14 -6 -15 q-9 2 -10 21 q0 2 1 7 q2 9 2 14 l0 55 q0 5 -2 12 q-1 2 -1 3 q-34 -35 -72 -51 l-2 0 q73 54 103 112 q1 3 -4 10 q-1 1 -1 1 q17 -5 24 -26 q0 -1 -3 -1 q-4 0 -7 -2 q-4 -4 -12 -14 q-15 -18 -24 -27 q12 -7 12 -17 Z" /><glyph glyph-name="" unicode="&#x30a4;" d="M47 45 l-1 0 l0 2 q109 79 138 145 q0 4 -7 11 q-2 3 -3 4 l2 3 q23 -9 34 -34 q0 0 -2 -1 q-8 -2 -10 -5 q-23 -32 -45 -54 q12 -8 13 -22 l0 -46 q0 -16 2 -59 q0 -7 0 -7 q0 -15 -9 -16 q-11 5 -13 28 q0 3 1 9 q4 16 4 33 l0 61 q0 11 -3 14 q-41 -38 -101 -66 Z" /><glyph glyph-name="" unicode="&#x30a6;" d="M197 140 l0 3 q-16 0 -73 -4 q-47 -4 -63 -4 q0 -8 3 -35 q1 -16 1 -19 q-1 -12 -7 -15 q-11 -1 -12 19 q10 64 -16 69 q6 7 21 -3 q6 -4 8 -5 q4 0 30 2 q20 1 32 2 l0 16 q-1 18 -16 28 l0 1 q4 6 18 2 q17 -7 19 -15 q0 -2 -2 -5 q-7 -8 -7 -21 l0 -5 q18 2 52 3 q8 1 12 1 q1 0 5 2 q5 1 5 1 q14 -4 19 -21 q0 -3 -7 -7 q-3 -2 -4 -3 q-48 -126 -117 -146 q72 55 99 159 Z" /><glyph glyph-name="" unicode="&#x30a8;" d="M16 52 l1 0 q8 -12 26 -13 q3 0 27 2 q28 3 46 4 q5 26 6 56 q0 24 -15 32 q-17 -3 -28 -3 q-22 4 -29 24 q13 -8 27 -8 q66 2 94 11 q4 1 7 1 q10 0 18 -8 q10 -10 3 -12 q-1 0 -4 0 q-15 2 -26 2 q-15 0 -55 -6 q31 -10 29 -25 q-3 -5 -4 -11 q-1 -3 -3 -16 q-6 -28 -8 -36 q52 4 81 4 q0 0 2 1 q3 3 5 1 q1 0 2 -1 q12 -4 16 -10 q9 -6 5 -14 q-4 -2 -23 2 q-36 8 -67 8 q-44 0 -91 -13 q-11 -3 -14 -3 q-25 8 -28 31 Z" /><glyph glyph-name="" unicode="&#x30a9;" d="M54 29 l-3 0 q51 42 75 87 q-41 -5 -55 -13 q-13 3 -20 21 q12 -8 20 -8 q2 0 21 2 q28 4 44 6 l0 16 q0 16 -13 22 l0 3 q22 -3 27 -16 q0 -1 -2 -4 q-4 -4 -4 -7 l0 -13 q18 2 29 3 q2 0 8 2 q5 2 6 2 q12 -2 19 -13 q3 -7 -10 -5 q-2 0 -6 1 q-14 3 -26 4 q-9 0 -20 0 l0 -59 q0 -12 2 -44 q1 -6 1 -7 q-1 -9 -8 -10 q-4 0 -7 6 q-1 2 -2 3 q-4 5 -17 12 q-4 3 -6 4 l0 2 l24 -5 q4 -1 5 3 l0 83 q-30 -48 -82 -78 Z" /><glyph glyph-name="" unicode="&#x30aa;" d="M29 144 l3 2 q8 -14 19 -14 q3 0 28 3 q43 4 66 6 l0 26 q0 19 -21 28 q1 4 3 4 q31 -8 38 -20 q0 -4 -4 -11 q-1 -2 -2 -3 l0 -22 q5 0 15 1 q10 0 14 1 q8 0 14 6 q40 -9 22 -23 q-15 4 -54 4 q-6 0 -11 0 l0 -135 q0 -17 -8 -16 q-3 0 -5 6 q-2 3 -3 4 q-9 9 -34 24 q34 -12 35 -4 q1 2 1 9 l0 93 q-49 -74 -120 -98 q70 41 107 116 q-43 -2 -70 -13 q-6 -2 -8 -2 q-19 6 -25 28 Z" /><glyph glyph-name="" unicode="&#x30ab;" d="M53 137 l3 1 q6 -13 17 -13 q14 0 41 4 q8 1 12 1 q1 3 3 9 q3 6 8 19 q0 1 1 3 q3 7 3 16 q0 3 -1 5 q-2 3 -10 6 q-3 2 -5 3 q0 0 1 1 q1 2 3 2 q9 0 18 -5 q21 -8 15 -19 q-1 -1 -3 -3 q-1 -1 -1 -1 q-5 -11 -8 -20 q-1 -2 -3 -7 q-2 -4 -3 -7 q15 0 30 3 q2 0 6 1 q16 0 23 4 q1 0 2 1 q2 2 4 2 q3 0 8 -5 q1 -1 3 -4 q11 -9 6 -14 q-1 -2 -4 -5 q-4 -3 -4 -4 q-1 -3 -2 -9 q-2 -12 -4 -19 q-4 -15 -9 -29 q-9 -28 -24 -54 q-12 -25 -26 -25 q-3 0 -4 5 q1 4 -2 7 q-3 7 -10 15 q-2 2 -6 8 q-6 7 -8 11 q1 -1 4 -2 q7 -6 12 -8 q1 -1 2 -2 q11 -7 18 -7 q3 0 5 2 q4 4 9 13 q1 2 1 3 q10 19 21 54 q10 30 10 48 q0 3 -3 3 q-9 0 -27 -2 q-9 -1 -13 -1 q-12 -1 -22 -1 q-28 -62 -64 -94 q-20 -19 -44 -34 l-3 0 q54 48 89 120 q2 3 3 6 q-19 -3 -36 -10 q-4 -3 -9 -4 q-3 0 -8 5 q-2 1 -3 2 q-14 15 -12 25 Z" /><glyph glyph-name="" unicode="&#x30ad;" d="M178 167 l6 0 q11 -1 11 -8 q0 -3 -7 -6 q-2 0 -2 0 q-4 -2 -13 -4 q-5 -1 -7 -2 q-7 -2 -20 -6 q-14 -4 -21 -6 q1 -2 3 -7 q1 -4 2 -7 q4 -16 10 -33 q16 5 31 9 q11 3 19 6 q2 1 5 4 q6 4 11 4 l7 0 q7 0 12 -3 q8 -7 4 -13 q-5 -2 -11 -2 l-4 0 q-14 0 -36 -6 q-2 -1 -7 -2 q-7 -2 -22 -8 q-1 0 -3 0 q-2 -1 -3 -1 q3 -8 8 -23 q9 -27 15 -41 q2 -3 5 -10 q3 -7 4 -10 q4 -13 -4 -18 q-5 -3 -11 1 q-4 3 -7 13 q-1 2 -1 3 q-10 41 -21 81 q-5 -2 -14 -4 q-20 -7 -30 -11 q-9 -1 -16 -7 q0 0 -1 -1 q-6 -4 -11 -4 q-2 0 -4 1 q-13 4 -18 10 q-1 1 -4 3 q-8 5 -7 10 l3 2 q19 -16 63 2 q4 1 6 2 q8 2 22 7 q5 1 7 2 q-2 6 -5 18 q-6 19 -8 29 q0 0 -1 0 q-1 -1 -2 -1 q-13 -4 -25 -9 q-3 -1 -9 -2 q-12 -4 -18 -4 q-3 0 -7 3 q-12 6 -18 12 l0 2 q2 0 7 -1 q10 -2 15 -2 l3 0 q12 0 28 6 q5 1 14 4 q6 2 10 3 q-1 5 -4 15 q-2 7 -3 10 q0 1 -1 3 q-5 18 -12 23 q-3 2 -12 7 q-3 1 -5 2 q1 0 3 1 q2 1 3 1 q16 1 31 -5 q1 -1 3 -2 q3 -3 4 -4 q0 -2 -2 -6 q-2 -4 -2 -7 q0 -5 4 -16 q1 -5 2 -8 q0 -1 1 -2 q1 -4 1 -8 q20 6 38 15 q3 1 8 3 q6 3 10 3 Z" /><glyph glyph-name="" unicode="&#x30af;" d="M157 151 l-6 0 q-6 1 -9 7 q-3 -4 -6 -7 q-3 -4 -10 -12 q-3 -4 -5 -6 q-32 -28 -63 -44 q-6 -3 -12 -4 q35 27 69 71 q14 14 14 23 q0 4 -5 9 q-2 3 -3 4 q0 2 2 2 q6 0 16 -7 q2 -1 3 -2 q7 -6 8 -12 q0 -5 -4 -8 q0 0 0 -1 q-1 -1 -1 -2 q1 -1 1 -1 q5 -3 18 0 q1 0 2 0 q14 0 22 5 q0 0 2 1 q5 5 7 2 q9 -4 16 -11 q1 -1 2 -3 q3 -5 3 -8 q0 -7 -8 -10 q-3 -1 -7 -9 q-1 -3 -2 -4 q-1 -1 -2 -4 q-2 -5 -9 -16 q-18 -32 -56 -73 q-32 -35 -82 -56 q-1 0 -2 -1 q-9 -5 -12 -4 q89 56 147 162 q1 2 2 5 q5 11 6 17 q-5 0 -14 -1 q-14 -2 -22 -2 Z" /><glyph glyph-name="" unicode="&#x30b1;" d="M99 127 l5 0 q11 0 35 3 q8 1 12 2 q3 1 9 2 q23 4 34 9 q1 0 2 1 q2 2 4 2 q9 0 17 -5 q7 -2 13 -5 q1 -2 0 -6 q0 -1 0 -2 q-5 -2 -15 -1 q-5 1 -8 1 l-3 0 q-11 0 -33 -3 q-11 -2 -17 -3 q3 -2 7 -9 q1 -1 2 -2 q4 -4 6 -8 q1 -4 0 -5 q-6 -7 -12 -23 q-27 -55 -75 -84 q-6 -6 -12 -6 q44 40 70 91 q1 3 4 10 q7 15 7 24 q0 5 -5 11 q-18 -5 -36 -5 l-5 0 q-11 0 -18 7 q-1 2 -3 3 q-1 -1 -3 -3 q-1 -1 -1 -1 q-8 -8 -20 -17 q-15 -10 -33 -18 l-2 0 q51 38 65 83 q1 3 1 6 q0 6 -8 12 q0 0 1 0 q5 2 10 0 q14 -9 20 -22 q0 -5 -6 -8 q-3 -1 -4 -2 q-2 -6 -8 -15 q-1 -2 -2 -3 q-2 -2 -4 -5 q-2 -2 -3 -3 q6 -3 12 -3 Z" /><glyph glyph-name="" unicode="&#x30b3;" d="M155 26 l-5 0 q-7 0 -22 -2 q-7 -1 -11 -1 q-18 -2 -35 -8 q0 0 -1 -1 q-3 -2 -6 -2 q-9 0 -20 13 q-9 9 -8 15 l2 1 q8 -7 19 -11 l1 0 l4 0 q45 5 8 1 q37 4 80 7 q4 0 7 0 q3 12 8 36 q3 13 4 19 q6 20 6 34 q0 5 -8 5 l-8 0 q-9 0 -27 -2 q-9 -1 -13 -1 q-7 -1 -23 -4 q-3 -1 -5 -1 q-2 0 -6 -1 q-7 -1 -10 -2 q-2 -1 -4 -3 q-2 -2 -5 -2 q-5 0 -12 6 q-1 1 -2 1 q-1 1 -3 3 q-9 10 -8 17 q3 -1 6 -4 q2 -1 3 -2 q6 -4 11 -4 l4 0 q8 0 25 4 q8 1 12 2 q17 1 33 4 q4 1 13 1 q12 1 17 3 q1 0 3 2 q3 2 5 2 q4 0 11 -7 q2 -2 7 -7 q4 -4 6 -7 q2 -3 2 -7 q-8 -2 -11 -17 q-1 -2 -1 -3 q-1 -3 -3 -10 q-3 -11 -4 -16 q-2 -6 -5 -19 q-3 -13 -5 -20 q9 -1 10 -8 q-1 -9 -10 -7 q-2 0 -7 1 q-12 2 -19 2 Z" /><glyph glyph-name="" unicode="&#x30b4;" d="M182 169 q31 -5 33 -25 q0 -6 -5 -6 q-4 0 -9 5 q-1 2 -3 5 q-10 15 -16 21 ZM199 188 q36 0 39 -19 q-1 -6 -6 -7 q-4 0 -14 10 q-11 12 -19 16 ZM22 143 l1 0 q6 -10 19 -10 q71 6 110 14 q1 0 3 2 q3 1 5 2 q19 -9 24 -25 q0 -2 -6 -6 q-2 -1 -2 -1 q-5 -10 -21 -84 q8 -1 10 -5 q2 -6 -4 -9 q-4 0 -16 1 q-7 1 -9 1 q-33 0 -81 -12 q-6 -1 -7 -1 q-18 3 -30 25 q0 3 3 4 q7 -12 21 -12 q3 0 55 5 q36 3 46 4 q15 60 15 92 q1 4 -5 4 q-14 1 -85 -10 q-11 -1 -11 -1 q0 0 -2 -1 q-6 -4 -9 -4 q-21 4 -24 27 Z" /><glyph glyph-name="" unicode="&#x30b6;" d="M191 185 q34 -4 39 -23 q-1 -9 -10 -8 q-7 2 -14 13 q-3 6 -12 16 q-2 1 -3 2 ZM218 199 q35 -5 35 -22 q0 -8 -6 -8 q-6 1 -12 9 q-1 1 -3 4 q-8 12 -14 17 ZM3 131 l0 4 q11 -11 22 -11 q1 0 9 1 q21 4 37 5 l0 27 q-1 14 -15 21 l0 2 q21 4 31 -15 q0 -5 -1 -8 l0 -26 q29 5 67 6 l0 27 q0 16 -13 30 q-2 2 -2 2 q10 6 26 -8 q1 -1 2 -2 q13 -10 10 -18 q0 -1 -2 -2 q-4 -4 -4 -12 l0 -16 q15 0 30 0 q3 0 7 1 q4 1 6 1 q14 -1 23 -11 q6 -10 -7 -10 q-5 0 -16 1 q-23 3 -43 4 q-6 -120 -72 -149 q53 53 55 149 q-2 0 -6 0 q-19 0 -49 -2 q-8 -1 -12 -1 l0 -21 q0 -7 1 -27 q0 -8 0 -9 q0 -15 -8 -15 q-8 5 -10 25 q0 1 1 7 q1 7 1 10 l0 27 q-7 -2 -18 -4 q-21 -5 -24 -5 q-23 8 -26 22 Z" /><glyph glyph-name="" unicode="&#x30b7;" d="M47 185 l0 2 q13 -2 25 -8 q3 -1 9 -3 q5 -2 8 -3 q2 -1 5 -4 q6 -3 8 -5 q1 -2 1 -6 q0 -6 -3 -9 q-7 -3 -21 7 q-17 14 -32 29 ZM26 119 q14 -9 37 -10 q1 0 2 -1 q22 -3 22 -15 q0 -8 -8 -8 q-7 1 -13 4 q-4 1 -13 6 q-2 1 -4 2 q-10 4 -18 14 q-6 3 -5 8 ZM39 23 l2 1 q14 -18 25 -13 q6 2 18 10 q3 2 5 3 q26 15 50 32 q51 34 92 79 l0 -4 q-8 -12 -17 -25 q-24 -30 -53 -57 q-17 -15 -54 -40 q-7 -5 -10 -7 q-1 -1 -4 -3 q-8 -6 -11 -11 q-5 -8 -12 -4 q-8 3 -15 10 q-16 16 -16 29 Z" /><glyph glyph-name="" unicode="&#x30b9;" d="M167 158 l-2 1 q-12 -1 -32 -4 q2 0 -4 -1 q-23 -4 -33 -13 q0 0 -1 -1 q-1 -2 -4 -2 q-8 0 -19 9 q-11 10 -10 20 q4 -1 8 -6 q1 -1 2 -2 q1 0 2 -1 q4 -1 9 -1 q18 0 35 5 q21 3 42 7 q4 2 9 6 q1 0 2 1 q2 1 6 1 q5 -1 10 -7 q0 0 1 -1 q9 -6 9 -12 q-1 -8 -12 -14 q-5 -1 -11 -10 q-2 -3 -3 -5 q-8 -13 -17 -25 q-8 -13 -20 -26 q9 -1 21 -9 q10 -3 25 -12 q28 -15 42 -29 q1 -1 3 -4 q4 -4 5 -7 q3 -13 -3 -16 q-3 -2 -9 0 q0 0 -1 0 q-6 3 -11 9 q-3 3 -8 9 q-19 21 -31 31 q-4 3 -11 9 q-16 12 -24 17 q-4 -6 -9 -10 q-29 -31 -71 -50 q-2 -1 -5 -3 q-14 -7 -22 -8 q39 22 76 60 q35 36 57 74 q1 2 3 5 q5 10 6 15 Z" /><glyph glyph-name="" unicode="&#x30ba;" d="M208 199 q40 -6 37 -26 q-2 -7 -6 -6 q-5 2 -10 10 q-9 13 -21 22 ZM13 -1 l-2 0 q95 60 141 155 q-1 0 -5 -1 q-54 -8 -63 -13 q-4 -1 -8 -5 q-3 -3 -4 -3 q-23 8 -27 29 l2 1 q8 -10 20 -10 q27 2 76 13 q8 2 15 8 q14 -3 23 -19 q-1 -10 -10 -14 q-7 0 -12 -12 q-1 -2 -2 -3 q-14 -23 -38 -52 q74 -27 95 -62 q4 -16 -7 -18 q-10 0 -20 16 q-31 39 -71 62 q-46 -54 -103 -72 ZM187 185 q31 -12 32 -29 q0 -7 -6 -7 q-7 0 -10 7 q-1 2 -3 7 q-7 15 -13 22 Z" /><glyph glyph-name="" unicode="&#x30bb;" d="M40 90 l5 0 q12 0 32 8 q5 2 14 5 q10 3 14 4 l0 45 q0 14 -6 21 q-2 2 -7 6 q-3 3 -5 5 q1 0 2 1 q3 1 6 0 q10 -2 15 -6 q1 -1 4 -3 q9 -4 11 -9 q2 -3 0 -12 q0 -2 -2 -7 q-2 -4 -3 -7 q-1 -6 -1 -16 l0 -14 q13 4 39 11 q16 4 24 6 q3 1 8 2 q6 1 8 1 q1 0 2 2 q5 3 6 2 q1 -1 3 -2 q9 -4 14 -9 q0 0 1 -1 q9 -8 9 -13 q0 -7 -8 -7 l-3 0 l-1 0 q-8 -2 -21 -11 q-3 -2 -5 -3 q-5 -3 -13 -9 q-10 -6 -15 -9 l-4 0 q16 14 28 29 q11 10 13 21 l-5 0 q-14 0 -26 -5 q-15 -3 -30 -7 q-12 -5 -24 -8 l0 -55 q-1 -21 10 -29 q11 -10 33 -10 l7 0 q14 0 28 3 q1 0 4 1 q9 1 14 1 l4 0 q14 0 14 -5 q0 -10 -18 -13 q-1 0 -1 0 q-3 0 -8 -1 q-5 0 -8 0 l-32 0 q-32 1 -48 19 q-10 13 -12 42 q0 3 0 4 q0 7 0 20 q-1 13 -1 19 q0 0 -1 -1 q-1 0 -2 -1 q-33 -8 -44 -19 q-5 -5 -9 -5 q-10 1 -17 10 q-10 6 -9 13 q2 0 6 -2 q2 -1 3 -1 q2 -1 8 -1 Z" /><glyph glyph-name="" unicode="&#x30bc;" d="M190 165 q42 -8 43 -29 q-4 -12 -16 0 q-12 16 -27 29 ZM213 183 q37 -5 41 -24 q0 -6 -4 -8 q-4 -1 -8 4 q-1 1 -4 4 q-15 18 -25 24 ZM2 94 l2 0 q7 -6 14 -6 q4 0 42 11 q16 4 26 7 q-1 64 -1 51 q0 15 -16 23 q22 5 36 -18 q0 -5 -4 -12 q-3 -6 -3 -10 q0 -2 0 -6 q-1 -6 -1 -9 l0 -15 q8 2 24 6 q12 3 56 14 q3 2 8 2 q6 0 15 -9 q13 -7 13 -14 q0 -6 -11 -7 q-5 -1 -7 -2 q-2 -1 -14 -9 q-31 -19 -39 -23 l-1 0 q36 32 42 53 q-1 0 -2 0 q-2 1 -3 0 q-46 -11 -81 -21 l0 -49 q-2 -45 47 -44 q16 0 42 4 q10 1 12 1 q18 -1 13 -11 q-4 -8 -34 -8 l-39 0 q-50 1 -51 64 l0 19 q0 17 -1 21 q-36 -13 -52 -24 q-3 -2 -5 -2 q-20 4 -27 23 Z" /><glyph glyph-name="" unicode="&#x30bf;" d="M42 -30 l-3 0 q44 27 79 69 q4 6 12 16 q8 11 12 16 q-5 5 -6 8 q-18 19 -40 34 q-16 -12 -33 -22 q-9 -7 -14 -6 q17 12 40 37 q1 2 4 5 q28 32 36 52 q1 3 -2 6 q-1 2 -3 4 q-1 2 -5 7 q0 0 1 1 q1 2 2 2 q3 0 11 -4 q3 -1 5 -2 q1 -1 3 -2 q10 -6 10 -11 q0 -3 -4 -9 q-1 -1 -1 -1 q-1 0 -1 -1 q4 -2 10 -2 q5 0 10 0 q13 1 23 8 q0 0 2 1 q3 3 5 1 q6 -1 11 -7 q11 -8 11 -15 q0 -4 -7 -10 q-2 -1 -3 -2 q-4 -3 -8 -12 q-1 -1 -1 -2 q-46 -86 -110 -135 q-25 -17 -46 -24 ZM193 162 l-12 0 q-6 0 -18 -2 q-8 -2 -11 -2 q-5 1 -10 7 q-1 -2 -4 -4 q-2 -3 -7 -10 q-14 -19 -32 -35 q9 -2 18 -5 q1 -1 4 -2 q16 -9 23 -15 q7 -4 9 -9 q18 28 32 55 q1 2 3 6 q5 10 5 16 Z" /><glyph glyph-name="" unicode="&#x30c0;" d="M180 185 q34 -5 37 -27 q0 -8 -7 -8 q-6 1 -10 9 q-1 1 -3 4 q-10 16 -17 22 ZM204 199 q38 -1 40 -26 q-1 -6 -7 -6 q-5 1 -9 9 q-8 11 -24 23 ZM14 -30 l-2 0 q43 28 98 99 q-20 26 -44 44 q-25 -21 -49 -28 q66 47 80 94 q0 6 -7 16 q-1 1 -1 1 q7 7 30 -12 q5 -7 -2 -12 q-2 -2 -5 -5 q20 -1 42 5 q3 1 7 3 q2 1 3 2 q2 2 2 0 q19 -8 22 -25 q0 -4 -4 -5 q-7 -1 -12 -11 q-1 -2 -1 -3 q-69 -126 -157 -163 ZM119 90 q2 -1 3 -4 q32 45 39 76 q-4 0 -16 -2 q-18 -2 -22 -2 q-6 0 -14 6 q-1 -1 -2 -3 q-2 -4 -3 -5 q-12 -18 -35 -41 q30 -9 50 -25 Z" /><glyph glyph-name="" unicode="&#x30c1;" d="M146 130 l0 -8 q0 -2 0 -5 q1 0 3 0 q13 2 29 2 l7 0 q5 0 16 2 q-7 -2 3 0 l4 0 q20 0 25 -9 q3 -7 -1 -10 q-5 -2 -15 0 q-19 3 -41 3 l-11 0 q-10 0 -20 0 q0 -5 -2 -14 q-1 -5 -1 -7 q-1 -10 -6 -28 q-1 -3 -1 -4 q-9 -33 -29 -56 q-14 -16 -35 -26 l-2 0 q48 40 58 124 q1 2 1 5 q1 3 1 4 q-12 -2 -18 -2 q-32 -3 -51 -14 q-1 0 -2 -1 q-5 -4 -8 -4 q-7 0 -12 5 q-17 10 -16 22 q2 0 4 -3 q2 -2 4 -3 q9 -5 29 0 q6 1 19 4 q10 2 15 3 q6 1 19 3 q12 1 18 2 q1 7 1 16 q0 6 -1 9 q-4 10 -14 16 q-27 -11 -74 -16 q68 21 104 51 q3 1 4 4 q0 3 -5 6 q-3 2 -3 3 q0 3 2 3 q5 0 13 -4 q2 -1 3 -1 q3 -1 7 -4 q5 -2 7 -4 q4 -3 4 -9 q0 -7 -7 -8 q-4 0 -11 -1 q-2 -1 -7 -4 q-6 -4 -10 -5 q-12 -7 -21 -9 q1 0 2 -1 q3 0 8 -3 q1 -1 5 -4 q8 -6 12 -10 q2 -5 -3 -10 Z" /><glyph glyph-name="" unicode="&#x30c3;" d="M52 130 q25 -9 27 -33 q0 -10 -6 -10 q-6 1 -7 11 q-6 21 -14 32 ZM103 143 q20 -8 28 -25 q4 -12 -3 -17 q-7 -3 -12 9 q-5 19 -13 33 ZM179 143 q19 -6 25 -23 q0 -6 -5 -7 q-1 0 -4 0 q-3 0 -4 -1 q-42 -89 -96 -110 q63 53 87 129 q0 4 -5 7 q-2 2 -2 2 q1 3 4 3 Z" /><glyph glyph-name="" unicode="&#x30c6;" d="M92 180 l4 0 q7 0 22 3 q10 2 14 2 q3 1 9 2 q15 2 23 5 q3 0 6 2 q2 0 6 -1 q4 0 5 0 q13 -3 15 -8 q0 -8 -14 -8 l-8 0 q-30 0 -61 -8 q-2 0 -6 -1 q-12 -3 -17 -1 q-9 5 -17 11 q-1 1 -2 1 q-6 6 -6 12 q3 0 6 -4 q2 -1 3 -2 q0 0 1 0 q11 -5 17 -5 ZM151 93 l-6 -8 q-3 -6 -4 -12 q-9 -27 -23 -52 q-14 -26 -37 -43 q-1 0 -3 -2 q-7 -4 -10 -3 q20 14 40 60 q17 35 23 62 q0 0 0 1 q2 8 0 12 q-3 6 -8 8 q0 0 -2 0 q-43 -3 -64 -13 q0 0 -1 -1 q-2 -1 -5 -1 q-7 0 -13 8 q-15 12 -13 21 q3 -1 6 -4 q4 -4 6 -5 q4 -3 12 -3 q6 0 19 2 q8 1 12 1 q22 4 67 8 q14 1 21 2 q20 0 30 4 q1 0 3 1 q3 2 5 2 q7 0 17 -6 q8 -3 8 -7 q0 -9 -8 -9 q-3 0 -8 2 q-3 1 -4 1 q-15 2 -31 2 l-4 0 q-23 0 -46 -3 q5 -5 9 -7 q6 -6 11 -12 q2 -4 1 -6 Z" /><glyph glyph-name="" unicode="&#x30c8;" d="M102 106 l0 -30 q0 -14 2 -41 q1 -15 1 -23 q1 -6 1 -15 l0 -4 q0 -5 -1 -10 q-1 -15 -8 -17 q-1 1 -4 4 q-1 2 -2 3 q-4 9 -5 20 q-1 3 0 8 q1 3 1 4 q3 13 3 39 l0 132 q0 9 -3 13 q-2 5 -10 10 q-2 2 -3 3 q5 2 8 2 q14 0 27 -13 q5 -10 3 -15 q-1 -1 -2 -2 q-4 -2 -5 -5 q-2 -9 -2 -20 q-1 -14 -1 -29 l0 -9 q16 -1 31 -7 q17 -4 35 -15 q14 -10 14 -20 q-1 -8 -9 -9 q-5 0 -12 7 q-1 1 -1 1 q-2 3 -6 7 q-4 5 -7 7 q-8 8 -17 12 q-10 7 -28 12 Z" /><glyph glyph-name="" unicode="&#x30c9;" d="M136 157 q37 -5 40 -24 q-1 -8 -7 -7 q-6 1 -13 11 q-8 9 -20 20 ZM160 175 q33 -1 40 -20 q-5 -13 -17 -1 q-7 9 -23 21 ZM87 110 l0 -71 q0 -7 2 -21 q2 -14 2 -22 q-1 -24 -10 -30 q-10 8 -12 46 q3 6 5 34 q0 7 0 21 q1 14 1 22 l0 84 q1 19 -19 29 q22 8 40 -19 q0 -2 -2 -5 q-7 -10 -7 -27 l0 -38 q70 -14 76 -45 q-1 -20 -34 13 q-18 17 -42 29 Z" /><glyph glyph-name="" unicode="&#x30ca;" d="M128 140 l0 25 q0 26 -13 29 q-5 1 -6 5 q20 7 41 -19 q0 -4 -6 -13 l0 -12 q0 -6 -1 -16 q0 -9 0 -14 q23 3 42 3 q6 0 18 3 q-8 -2 2 1 q18 0 29 -8 q13 -11 0 -13 q-1 0 -6 1 q-31 3 -54 3 q-8 0 -32 -1 q-9 -121 -73 -149 q48 41 58 148 q-68 -6 -75 -13 q0 0 -1 -1 q-4 -5 -9 -5 q-28 14 -26 30 q12 -10 19 -10 q2 0 15 2 q48 6 78 8 q0 9 0 16 Z" /><glyph glyph-name="" unicode="&#x30cb;" d="M55 143 l1 0 q19 -10 35 -10 q23 0 75 9 q7 1 7 1 q27 -6 16 -18 q-11 3 -46 -2 q-35 -4 -55 -4 q-24 2 -33 24 ZM14 55 q12 -10 29 -10 q5 0 31 3 q64 7 90 7 q3 0 21 0 q19 -1 21 -1 q1 0 4 1 q6 1 8 0 q28 -11 23 -21 q-2 -4 -9 -4 q-1 0 -7 2 q-37 9 -76 9 q-56 0 -99 -14 q-4 -1 -5 -1 q-34 16 -31 29 Z" /><glyph glyph-name="" unicode="&#x30cf;" d="M8 30 l-3 0 q22 14 45 41 q19 23 30 43 q0 1 1 2 q1 2 1 5 q0 3 -1 6 q0 2 -3 4 q-4 3 -4 6 q1 0 3 1 q3 1 4 0 q2 -2 7 -4 q7 -5 10 -7 q1 -1 2 -1 q6 -6 6 -12 q0 -3 -3 -4 q-6 -3 -8 -7 q-3 -4 -9 -11 q-10 -12 -15 -17 q-2 -3 -8 -8 q-5 -6 -8 -9 q-21 -16 -47 -28 ZM158 131 l0 1 q55 -21 84 -61 q9 -13 9 -23 q0 -9 -9 -9 q-2 0 -5 0 q-8 5 -13 17 q-24 41 -66 75 Z" /><glyph glyph-name="" unicode="&#x30d1;" d="M5 26 l-2 0 l0 2 q42 32 60 57 q1 1 3 4 q11 16 11 25 q0 4 -4 8 q-3 3 -4 5 q0 0 1 1 q1 2 3 2 q5 0 15 -9 q2 -1 3 -2 q1 -1 2 -2 q8 -7 8 -14 q1 -1 -2 -2 q-4 -3 -8 -7 q-2 -2 -5 -7 q-10 -13 -17 -20 q-9 -7 -19 -16 q-21 -15 -45 -25 ZM144 124 l2 0 q27 -12 50 -30 q36 -26 36 -49 q0 -11 -8 -11 q-5 0 -9 6 q-2 3 -5 9 q-6 13 -10 18 q-6 11 -14 20 q-18 21 -42 37 ZM229 169 q22 -2 24 -25 q-1 -23 -24 -24 q-24 2 -26 24 q1 24 26 25 ZM229 124 q18 1 19 20 q-1 20 -19 21 q-21 0 -21 -21 q1 -19 21 -20 Z" /><glyph glyph-name="" unicode="&#x30d3;" d="M166 162 q40 -9 42 -26 q0 -9 -7 -9 q-7 0 -14 10 q-8 13 -21 25 ZM187 177 q40 -2 43 -22 q-6 -14 -21 2 q-9 12 -22 20 ZM59 60 l0 -15 q-1 -50 48 -49 q24 0 62 8 q15 3 18 3 q10 0 14 -5 q3 -5 -2 -11 q-8 -8 -54 -8 l-29 0 q-68 -1 -67 58 l0 112 q1 18 -23 30 q20 6 43 -19 q0 -4 -3 -8 q-5 -8 -5 -20 l0 -13 q0 -8 0 -16 q9 -3 17 -3 q27 0 67 16 q11 4 13 4 q28 -3 16 -20 q-59 -10 -87 -10 q-14 1 -26 7 q-2 -20 -2 -41 Z" /><glyph glyph-name="" unicode="&#x30d5;" d="M60 159 l5 0 q8 0 23 2 q11 2 16 2 q28 1 58 4 q16 0 31 2 q2 0 4 3 q4 3 7 3 l1 0 q3 -3 11 -9 q4 -3 6 -5 q5 -5 5 -9 q0 -4 -3 -7 q-3 -3 -7 -5 q-1 -1 -4 -6 q0 -2 -1 -3 q-2 -4 -5 -12 q-12 -26 -21 -39 q-13 -21 -31 -41 q-30 -30 -61 -51 q-1 0 -3 -2 q-7 -4 -11 -3 q21 17 39 38 q46 51 64 90 q14 26 14 45 q0 2 -3 2 l-5 0 q-10 0 -31 -2 q-14 -2 -21 -2 q-19 -2 -39 -5 q-20 0 -31 -5 q-1 0 -3 -2 q-2 -1 -3 -2 q-11 0 -24 16 q-9 9 -8 17 q3 0 8 -5 q2 -1 3 -2 q11 -7 20 -7 Z" /><glyph glyph-name="" unicode="&#x30d6;" d="M5 173 l2 0 q9 -14 28 -15 q106 8 134 11 q1 0 2 2 q3 2 5 2 q12 -4 24 -21 q0 -6 -10 -10 q-3 -1 -3 -2 q-51 -113 -128 -155 l-3 0 q91 87 115 169 q0 2 -1 4 q-107 -7 -130 -15 q-3 -5 -8 -5 q-28 17 -27 35 ZM192 194 q34 -5 35 -22 q-1 -6 -6 -8 q-5 0 -9 6 q-6 12 -20 24 ZM219 204 q30 -5 32 -22 q0 -7 -6 -7 q-5 1 -9 9 q-6 12 -17 20 Z" /><glyph glyph-name="" unicode="&#x30d7;" d="M228 210 q24 -2 26 -27 q-1 -25 -26 -26 q-25 2 -27 26 q3 25 27 27 ZM249 183 q-1 20 -21 21 q-20 -1 -21 -21 q2 -18 21 -20 q21 0 21 20 ZM2 167 l2 0 q10 -15 30 -16 l5 0 q12 0 37 4 q12 1 18 2 q26 2 51 6 q2 0 6 1 q11 1 16 3 q1 0 2 1 q2 1 4 1 l2 0 q13 -9 23 -23 l0 -1 q0 -4 -6 -6 q-3 0 -4 -1 q-4 -10 -10 -19 q-40 -83 -90 -119 q-16 -13 -36 -23 l-2 0 q58 43 100 124 q16 31 19 52 q0 1 -2 1 l-5 0 q-6 0 -18 -2 q-6 -1 -9 -1 q-18 -3 -37 -5 q-27 -3 -53 -8 q-6 -1 -10 -5 q-3 -3 -6 -3 q-4 0 -6 2 q-7 7 -13 14 q-9 11 -8 21 Z" /><glyph glyph-name="" unicode="&#x30d9;" d="M209 35 q-32 23 -74 59 q-30 27 -38 27 q-15 -1 -53 -45 q-1 -1 -2 -3 q-3 -5 -7 -5 q-27 3 -28 19 q2 0 5 -1 q5 -2 8 -2 q12 0 38 23 q26 23 37 23 q12 0 40 -23 q43 -35 82 -55 q3 -1 9 -4 q26 -9 24 -22 q0 -20 -41 9 ZM172 149 q42 -5 43 -27 q-3 -12 -17 2 q-2 2 -5 5 q-12 15 -21 20 ZM202 165 q34 -3 37 -22 q0 -8 -4 -8 q-5 1 -10 9 q-10 12 -23 21 Z" /><glyph glyph-name="" unicode="&#x30da;" d="M7 90 q2 0 7 -3 q1 -1 2 -2 q11 -4 30 14 q5 4 15 11 q9 8 14 11 q13 11 22 11 q8 0 18 -8 q4 -2 11 -8 q6 -4 8 -6 q4 -3 13 -10 q20 -18 32 -25 q29 -22 53 -30 q3 -2 4 -2 q11 -8 14 -19 q2 -19 -26 -3 q-6 4 -18 12 q-7 6 -11 8 q-33 26 -60 52 q-2 2 -8 7 q-6 6 -9 9 q-1 1 -5 4 q-10 8 -17 8 q-3 0 -10 -4 q-3 -2 -4 -3 q-14 -11 -32 -31 q0 -1 -1 -2 q-8 -13 -16 -13 q-3 0 -7 3 q-20 7 -19 19 ZM208 162 q23 -1 25 -26 q-1 -24 -25 -25 q-23 2 -25 25 q2 24 25 26 ZM208 116 q19 1 20 20 q-1 20 -20 21 q-19 -1 -20 -21 q1 -19 20 -20 Z" /><glyph glyph-name="" unicode="&#x30db;" d="M53 82 l2 0 q4 -13 4 -26 q-3 -20 -11 -47 q-3 -7 -9 -7 q-11 -2 -10 16 q0 8 9 22 q16 22 15 42 ZM168 87 l1 0 q32 -22 50 -48 q8 -10 8 -20 l0 -4 q0 -8 -8 -8 q-7 0 -11 11 q-15 36 -40 69 ZM131 91 l0 -52 q0 -5 1 -16 q1 -12 1 -18 l0 -4 q0 -7 -1 -14 q0 -1 0 -2 q-2 -10 -8 -10 q-4 -1 -7 6 q-5 12 -26 29 q-2 1 -3 2 q4 0 12 -4 q10 -4 16 -4 q4 2 4 7 l0 103 q-11 0 -23 -2 q-15 0 -32 -2 q-5 -1 -8 -1 q-1 0 -4 1 q2 -1 -1 1 q-8 3 -14 10 q-1 1 -3 2 q-7 5 -6 9 q4 0 12 -5 q2 -1 3 -2 q9 -3 18 -3 l4 0 q13 0 40 3 q8 2 12 2 q2 0 2 0 l0 34 q0 21 -13 30 l2 3 q7 -1 21 -9 q5 -1 8 -6 q2 -3 0 -11 q-2 -3 -3 -11 q-1 -2 -1 -3 q0 -4 -1 -12 q0 -9 -1 -13 l0 -1 q6 1 16 2 q11 1 16 1 q12 0 24 1 q1 0 3 1 q3 2 5 2 q7 0 13 -4 q0 0 1 -1 q5 -1 6 -5 q0 -5 -3 -7 q-3 -2 -6 -2 q-5 0 -12 1 q-3 1 -4 1 q-2 0 -6 0 q-5 1 -8 1 l-9 0 q-6 0 -18 -2 q-6 -1 -9 -1 q-5 0 -9 0 q0 -4 0 -12 q-1 -9 -1 -13 Z" /><glyph glyph-name="" unicode="&#x30dc;" d="M42 82 l2 0 q2 -8 3 -21 q-2 -27 -14 -58 q-13 -8 -18 14 q0 13 10 25 q13 17 17 40 ZM154 87 l1 0 q48 -34 57 -65 q2 -11 -4 -14 q-7 -3 -12 5 q-20 46 -42 74 ZM183 167 q32 -4 35 -23 q0 -10 -5 -9 q-6 1 -12 13 q-7 10 -18 19 ZM204 183 q29 -2 37 -16 q3 -7 -3 -10 q-6 -1 -11 5 q-1 1 -4 4 q-11 12 -19 17 ZM117 116 l0 -29 q0 -15 4 -68 q1 -14 1 -15 q0 -27 -9 -27 q-4 0 -9 7 q0 10 -28 28 q35 -13 31 -3 q1 8 1 17 l0 89 q-22 -2 -52 -6 q-11 -1 -12 -1 q-26 6 -29 24 q0 0 1 -1 q14 -8 24 -8 q4 0 29 2 q25 2 39 3 q0 67 -16 63 q16 9 32 -18 q0 -1 -1 -5 q-5 -18 -6 -39 q15 1 40 3 q12 1 17 1 q0 0 1 1 q3 2 6 2 q27 -3 18 -18 q-2 -2 -17 0 q-15 1 -25 1 q-21 0 -40 -3 Z" /><glyph glyph-name="" unicode="&#x30dd;" d="M208 157 q-24 2 -26 27 q2 24 26 26 q25 -2 27 -26 q-1 -26 -27 -27 ZM230 184 q-2 19 -22 20 q-19 -2 -21 -20 q1 -21 21 -22 q22 1 22 22 ZM160 85 l1 0 q22 -16 38 -33 q21 -21 20 -36 q1 -9 -8 -9 q-8 0 -12 9 q-2 4 -6 13 q-17 39 -33 56 ZM46 79 l2 0 q3 -10 3 -22 l0 -5 q0 -22 -9 -42 q-3 -9 -8 -13 q-5 -2 -8 0 q-2 2 -3 9 q-1 3 -1 4 l0 1 l0 5 q0 8 6 14 q17 25 18 49 ZM124 112 l0 -48 q0 -9 1 -25 q1 -16 1 -24 l0 -12 q0 -20 -5 -28 q-3 -3 -8 -2 q-3 1 -4 6 q0 3 -1 4 q-2 4 -9 11 q-9 11 -19 18 q14 -2 27 -8 l2 0 q5 1 5 14 l0 6 q0 8 -1 25 q-1 18 -1 27 l0 38 q-14 -2 -29 -2 q-3 0 -10 -1 q-7 0 -10 -1 q-6 -2 -13 -5 q-3 -1 -7 3 q-7 3 -13 8 q-10 9 -8 15 l2 1 q13 -11 22 -11 q8 0 24 2 q8 1 12 1 q15 2 30 3 l0 34 q-1 22 -16 28 l0 3 q9 5 21 -5 q14 -9 14 -19 q0 -5 -3 -11 q-3 -9 -3 -17 q-1 -3 -1 -11 q1 -1 4 0 q1 0 2 0 q6 1 18 1 q11 1 17 1 q0 0 1 0 q12 2 17 5 q1 1 3 1 q1 1 2 1 q7 0 17 -6 q8 -6 5 -12 q-3 -4 -8 -4 q-4 0 -13 1 q-10 2 -15 2 l-5 0 q-8 0 -24 -2 q-11 -2 -17 -2 q-3 0 -4 0 q0 0 0 -3 Z" /><glyph glyph-name="" unicode="&#x30de;" d="M215 131 l-1 0 q-124 -7 -165 -19 q-7 -3 -14 -3 q-22 4 -25 31 l3 0 q6 -11 17 -11 q14 0 103 8 q67 6 75 6 q1 0 3 1 q5 1 6 2 q26 -13 29 -34 q-2 -6 -9 -7 q-8 0 -14 -6 q-39 -32 -83 -53 q14 -14 14 -33 q0 -7 -7 -8 q-7 0 -12 7 q-20 43 -49 64 l1 0 q29 -6 49 -26 q74 53 79 81 Z" /><glyph glyph-name="" unicode="&#x30df;" d="M87 187 l0 1 q15 -12 51 -19 q38 -7 38 -24 q0 -6 -3 -7 q-3 -1 -8 2 q-6 4 -23 11 q-39 14 -55 36 ZM81 116 q3 1 8 -3 q3 -2 4 -3 q13 -9 45 -15 q34 -5 34 -19 q-1 -13 -21 -3 q-6 3 -20 8 q-37 11 -50 35 ZM65 39 q3 0 10 -4 q5 -4 8 -5 q13 -9 53 -15 q55 -10 55 -31 q-2 -15 -15 -7 q-11 8 -46 21 q-34 14 -46 22 q-10 7 -19 19 Z" /><glyph glyph-name="" unicode="&#x30e1;" d="M42 -12 l-2 0 q51 33 102 99 q-13 15 -36 32 l3 0 q19 -7 42 -21 q37 49 40 70 q0 8 -5 12 q-3 3 -2 5 q11 -1 24 -14 q12 -14 7 -20 q-1 -3 -5 -3 q-7 0 -12 -10 q-5 -11 -23 -36 q-6 -9 -9 -13 q25 -22 25 -39 q1 -10 -6 -8 q-8 2 -16 15 q-1 1 -2 2 q-7 10 -13 15 q-55 -64 -112 -86 Z" /><glyph glyph-name="" unicode="&#x30e3;" d="M79 147 l0 2 q5 4 21 0 q14 -4 14 -10 q0 -1 -1 -4 q-3 -5 -2 -8 q0 -2 2 -7 q2 -9 3 -15 q45 12 73 18 q1 0 2 2 q4 3 5 2 q28 -17 21 -30 q-2 -3 -7 -3 q-2 0 -2 0 q-4 -1 -25 -11 q-13 -7 -18 -9 l-3 0 q24 20 37 37 l-2 2 q-33 -5 -78 -15 q13 -54 29 -94 q3 -9 -2 -12 q-8 -3 -12 4 q-2 5 -13 50 q-8 35 -12 49 q-15 -4 -38 -13 q-2 -1 -3 -1 q-10 -6 -15 -4 q-1 1 -5 4 q-11 8 -11 13 q3 -1 11 -2 q3 -1 5 -1 q9 -1 53 12 q-3 18 -5 22 q-4 19 -22 22 Z" /><glyph glyph-name="" unicode="&#x30e7;" d="M169 23 l-37 0 q-20 0 -37 -6 q-3 -2 -6 -2 q-6 0 -18 14 q-3 3 -4 5 l0 3 q8 -8 22 -8 q17 0 49 3 q12 1 18 2 q3 10 6 32 q2 11 3 16 q-10 -1 -29 -4 q-21 -2 -32 -4 q-2 0 -5 -1 q-6 -2 -9 -2 q-14 4 -18 16 q8 -5 15 -5 q4 0 33 3 q35 4 45 5 l1 1 q4 18 5 39 l-10 0 q-23 -1 -60 -9 q-2 0 -6 -1 q-4 -1 -6 -1 q-15 3 -20 19 q2 0 5 -3 q7 -4 13 -4 q33 2 77 8 q1 0 3 2 q2 3 4 2 q18 -9 18 -19 q0 -2 -2 -4 q-1 -1 -2 -4 q0 -1 -3 -17 q-10 -49 -13 -63 q1 -1 2 -2 q5 -4 5 -6 q0 -5 -7 -5 Z" /><glyph glyph-name="" unicode="&#x30e9;" d="M61 191 q2 0 6 -2 q16 -7 32 -7 q21 0 55 8 q16 4 21 4 q19 0 20 -13 q1 -6 -21 -6 q-19 0 -59 -6 q-15 -2 -18 -2 q-25 5 -36 24 ZM37 129 l2 1 q8 -8 19 -8 q89 6 127 15 q1 0 2 1 q2 2 5 2 q5 0 11 -6 q2 -2 3 -3 q11 -6 13 -12 q0 -1 0 -1 q-1 -5 -12 -8 q-1 0 -2 0 q-55 -110 -136 -137 q84 58 120 147 q0 1 0 2 q-1 1 -1 1 q-66 -6 -111 -13 q-3 -1 -7 -4 q-5 -4 -8 -4 q-25 16 -25 27 Z" /><glyph glyph-name="" unicode="&#x30ea;" d="M94 116 l0 -45 q0 -16 -7 -19 q-8 3 -9 28 q0 1 1 7 q0 6 0 6 l0 71 q0 7 -7 20 q-3 5 -3 7 q22 -8 27 -35 q0 -2 -1 -15 q-1 -20 -1 -25 ZM182 167 l0 -55 q-1 -109 -64 -139 q50 51 51 146 l0 39 q0 32 -19 36 q8 14 37 -15 q0 -3 -2 -6 q-3 -2 -3 -6 Z" /><glyph glyph-name="" unicode="&#x30eb;" d="M140 131 l0 -101 q44 13 112 75 l0 -2 q-31 -51 -104 -96 q-1 -1 -2 -3 q-3 -5 -5 -5 q-13 7 -20 28 q-1 1 5 10 q1 13 1 42 l0 65 q0 10 -11 19 q-3 3 -3 4 q20 3 35 -19 q0 -3 -3 -6 q-5 -5 -5 -11 ZM6 -9 l-2 0 q32 34 53 97 q17 55 -3 66 l2 3 q22 -6 30 -17 q0 -3 -2 -5 q-2 -1 -3 -3 q-14 -96 -75 -141 Z" /><glyph glyph-name="" unicode="&#x30ec;" d="M36 162 l0 3 q25 5 43 -25 q0 -2 -3 -6 q-5 -6 -5 -11 l0 -96 l2 0 q75 30 147 94 l0 -1 q-60 -72 -138 -112 q-1 0 -3 -4 q-5 -8 -8 -8 q-13 7 -21 25 q0 2 4 7 q4 5 4 8 l0 84 q0 35 -22 42 Z" /><glyph glyph-name="" unicode="&#x30ed;" d="M177 45 l3 0 q14 65 15 90 q0 3 -3 3 l-30 0 q-10 0 -39 -4 q-27 -4 -36 -4 q-9 0 -12 1 q0 0 -1 0 q-1 -1 -2 0 q1 -12 5 -45 q3 -36 5 -49 q34 2 95 8 ZM72 140 l2 0 q3 0 31 3 q59 7 84 8 q2 0 4 2 q3 1 4 1 q20 -11 22 -29 q0 -2 -4 -5 q-3 -3 -3 -4 q0 -1 -3 -11 q-15 -50 -19 -63 q16 -10 5 -16 q-2 0 -8 1 q-19 3 -43 3 q-25 0 -61 -3 q0 -1 0 -6 q0 -15 -9 -10 q-7 7 -10 26 q0 1 1 7 q1 9 1 13 q-6 49 -10 71 q-4 16 -19 21 q14 5 32 -9 l3 0 Z" /><glyph glyph-name="" unicode="&#x30ef;" d="M88 -12 l-2 0 q80 63 108 173 q-2 0 -7 0 q-56 2 -127 -4 l-1 -3 q0 -6 3 -33 q3 -25 3 -30 q-1 -13 -7 -15 q-10 1 -16 24 q0 1 1 3 q4 14 4 27 q1 32 -17 49 q11 4 25 -11 q35 4 107 5 q20 1 25 1 q1 0 5 2 q5 4 9 4 q21 -11 25 -25 q0 -2 -13 -8 q-1 -1 -2 -1 q-42 -120 -123 -158 Z" /><glyph glyph-name="" unicode="&#x30f3;" d="M40 167 q7 -5 26 -12 q31 -9 30 -23 q-3 -14 -22 -1 q-2 2 -8 7 q-24 19 -26 29 ZM221 138 l0 -3 q-44 -55 -124 -115 q-16 -11 -22 -16 q-1 -1 -3 -4 q-2 -4 -5 -4 q-22 9 -30 34 q0 1 0 1 q-1 2 1 3 q11 -13 21 -13 q82 40 162 117 Z" /><glyph glyph-name="" unicode="&#x3105;" d="M104 198 q1 7 8 3 q11 -9 17 -21 q0 -4 -6 -6 q-4 -1 -24 -27 q-19 -25 -28 -34 q55 10 107 23 q3 2 7 2 q25 -13 30 -26 q0 -3 -4 -5 q-6 -4 -9 -10 q-46 -115 -82 -113 q-3 0 -3 3 q0 2 1 10 q-2 11 -21 29 q-2 2 -3 3 q-1 7 7 8 q20 -15 27 -17 q31 9 52 84 q3 13 -19 11 q-62 -7 -95 -22 q-1 0 -5 -3 q-4 -3 -6 -3 q-23 19 -9 27 q49 35 58 84 Z" /><glyph glyph-name="" unicode="&#x3106;" d="M49 -13 q-6 2 -2 8 q48 16 86 52 q-24 21 -52 38 q-3 3 -2 6 q2 3 6 2 q35 -15 61 -31 q23 26 31 58 q1 4 -2 5 q-49 -5 -80 -17 q-2 -2 -8 -5 q-11 6 -13 22 q33 20 46 64 q-5 14 4 14 q15 -9 21 -21 q1 -5 -10 -9 q-7 -7 -16 -21 q-11 -18 -21 -27 q69 12 80 20 q1 1 3 1 q17 -5 30 -24 q0 -4 -7 -8 q-5 -2 -6 -4 q-15 -35 -36 -58 q23 -15 33 -26 q15 -16 13 -30 q-6 -16 -20 -4 q-19 23 -42 44 q-41 -36 -97 -49 Z" /><glyph glyph-name="" unicode="&#x3107;" d="M67 171 l7 0 q36 0 93 13 q1 0 4 1 q4 2 7 2 q16 -5 33 -25 q0 -2 -3 -6 q-4 -5 -4 -9 l0 -5 q0 -9 1 -27 q2 -34 2 -53 l0 -40 q-1 -23 -11 -28 q-15 4 -17 18 q0 3 2 11 q5 23 5 54 l0 37 q0 41 -7 48 q-5 9 -35 1 q-5 -1 -17 -4 q-34 -8 -40 -8 l-2 0 q-4 1 -7 4 q0 -3 -1 -7 q-1 -9 -1 -14 l0 -41 q0 -33 -3 -65 q0 -32 -10 -34 q-16 9 -18 21 q0 3 3 12 q13 34 13 82 l0 11 q1 29 -11 55 q-1 3 4 4 q5 -1 13 -9 q0 1 0 1 Z" /><glyph glyph-name="" unicode="&#x3108;" d="M73 160 l0 -7 q0 -6 -1 -18 q0 -12 0 -17 q-1 -34 -1 -95 l0 -6 q-1 -4 4 -4 q45 0 93 12 q6 1 20 1 q11 -2 18 -14 q5 -12 -5 -12 q-4 0 -12 1 q-20 2 -29 2 l-10 0 q-20 0 -72 -9 q-14 -2 -15 -2 q-10 4 -15 17 q0 1 1 6 q8 30 8 51 l0 42 q-1 49 -9 70 q1 2 4 2 q6 -1 12 -6 q45 3 90 17 q8 4 14 4 q13 -3 17 -12 q2 -9 -11 -10 q-50 -3 -85 -13 q-4 -1 -5 -1 q-4 0 -12 5 q1 -2 1 -4 Z" /><glyph glyph-name="" unicode="&#x3109;" d="M135 104 q3 -4 1 -7 q-1 -2 -4 -4 q-3 -1 -3 -2 q-1 -2 -3 -7 q-30 -69 -84 -91 q-7 -3 -6 3 q0 3 -2 2 q67 40 72 114 q-17 -2 -23 -4 q-4 -2 -10 -6 q-6 -5 -9 -5 q-4 2 -11 12 q-5 8 -2 9 q30 17 50 59 q2 6 4 17 q1 6 2 8 q1 3 5 2 q21 -16 20 -26 q-2 -2 -5 -3 q-4 -1 -7 -4 q-2 -3 -9 -11 q-21 -28 -32 -38 q12 2 34 6 q41 6 63 11 q1 0 3 1 q8 2 12 2 q13 -3 31 -21 q0 -4 -6 -10 q-4 -6 -15 -37 q-31 -89 -56 -86 q-2 0 -3 5 q0 4 -1 6 q-1 9 -23 23 q-2 1 -2 1 q-3 5 3 8 q2 -1 7 -3 q14 -6 20 -6 q26 5 43 88 q2 12 -14 12 q-19 -1 -53 -7 q5 -3 13 -11 Z" /><glyph glyph-name="" unicode="&#x310a;" d="M41 114 l2 0 q19 -1 68 7 q6 26 5 47 q0 10 -4 19 q-1 2 -1 3 q0 0 0 1 q-1 4 3 4 q25 -4 33 -19 q0 -2 -3 -5 q-3 -3 -4 -6 q-2 -17 -8 -41 q15 2 39 7 q6 2 8 2 q2 0 6 1 q5 2 7 2 q16 -3 24 -19 q-1 -7 -5 -8 q-4 0 -13 1 q-8 1 -13 1 l-12 0 q-12 0 -34 -2 q-7 -1 -11 -1 q-15 -55 -35 -92 l3 0 q26 3 74 13 q-4 6 -12 16 q-5 6 -7 9 q-2 5 4 6 q51 -28 51 -51 q-1 -12 -15 -15 q-4 0 -7 11 q-1 3 -2 4 q-1 2 -3 6 q-2 3 -3 5 q-43 -9 -76 -23 q-2 -1 -6 -5 q-6 -6 -8 -6 q-12 6 -20 23 q23 13 42 95 q-14 -2 -34 -7 q-11 -3 -13 -3 q-15 7 -20 20 Z" /><glyph glyph-name="" unicode="&#x310b;" d="M49 188 q4 0 15 -1 q4 0 5 0 q37 0 91 12 q17 -1 29 -16 q0 -6 -3 -7 q-8 -1 -17 -8 q-12 -11 -42 -46 q-4 -4 -6 -6 q41 5 54 12 q2 1 3 1 q15 -6 29 -24 q3 -3 0 -6 q0 -3 -6 -5 q-6 -2 -8 -6 q-53 -102 -81 -100 q-7 0 -7 3 q3 12 -19 35 q-5 5 -3 7 q2 3 8 0 q3 -2 8 -6 q9 -7 17 -12 q22 -5 61 82 q5 15 -7 14 q-23 0 -44 -11 q-6 -3 -8 -3 q-15 3 -19 14 q0 2 6 8 q1 1 1 1 q36 35 45 58 q0 1 0 3 q1 1 -1 0 q-47 -6 -72 -14 q-7 -2 -10 -2 q-21 9 -19 23 Z" /><glyph glyph-name="" unicode="&#x310c;" d="M78 100 q0 0 -1 -1 q-5 -6 -9 -6 q-13 6 -17 17 q0 2 4 4 q3 2 4 3 q21 32 18 69 q2 4 6 4 q16 -9 23 -18 q0 -3 -1 -5 q-12 -2 -27 -50 q7 1 29 5 q15 2 22 3 q8 28 7 55 q0 1 -1 7 q-2 7 -2 10 q2 3 5 4 q17 -7 28 -16 q2 -1 0 -7 q-1 -1 -3 -4 q-2 -2 -3 -3 q-3 -21 -10 -41 q13 2 25 6 q2 0 4 1 q4 2 6 2 q23 -11 29 -24 q0 -5 -7 -8 q-4 -2 -5 -4 q-1 -5 -4 -18 q-20 -97 -56 -100 q-11 -2 -10 9 q-3 12 -15 22 q-5 6 -5 8 q-1 6 5 5 q2 -1 7 -5 q13 -9 18 -9 q28 -2 42 97 q0 7 -7 7 q-16 -3 -33 -5 q-33 -83 -95 -122 q-3 -2 -6 0 q-2 4 0 7 q53 39 81 112 q-39 -5 -46 -11 Z" /><glyph glyph-name="" unicode="&#x310d;" d="M113 189 q17 -8 21 -19 q0 -4 -4 -5 q-4 -2 -24 -28 q-31 -40 -48 -56 q15 -15 38 -35 q34 -27 31 -44 q-1 -10 -12 -12 q-6 -1 -16 15 q-17 31 -54 75 q0 1 0 2 q47 52 63 101 q-1 6 5 6 ZM126 89 l0 2 q56 56 57 87 q1 6 7 6 q14 -9 21 -23 q0 -4 -5 -5 q-5 -2 -7 -5 q-25 -34 -59 -62 q71 -57 71 -81 q1 -12 -13 -16 q-4 0 -12 11 q-25 51 -60 86 Z" /><glyph glyph-name="" unicode="&#x310e;" d="M45 176 l11 0 q32 0 113 17 q22 4 24 4 q11 -1 19 -11 q6 -7 -3 -10 q-1 0 -2 0 q-8 2 -18 2 q-19 -1 -67 -9 q9 -7 12 -13 q0 -2 0 -3 q0 -2 -7 -8 q-2 -1 -2 -1 q-2 -2 -22 -31 q1 2 -3 -4 q4 1 12 2 q30 3 46 10 q1 0 3 1 q3 2 5 2 q23 -8 31 -21 q0 -3 -4 -5 q-3 -2 -4 -4 q-2 -3 -7 -16 q-41 -96 -67 -94 q-2 0 -3 4 q-1 4 -2 6 q0 1 -1 2 q-3 9 -20 20 q-3 8 4 8 q0 0 1 -1 q11 -8 22 -10 q26 4 52 84 q1 7 -5 6 q-43 -3 -55 -10 q-1 0 -7 -4 q-9 -4 -10 -4 q-9 3 -16 17 q0 2 3 5 q1 1 1 1 q16 11 29 44 q1 3 2 11 q1 3 1 5 q-17 -2 -42 -6 q-11 -2 -11 -2 q-21 9 -13 16 Z" /><glyph glyph-name="" unicode="&#x310f;" d="M86 178 l5 1 q50 1 97 14 q8 2 10 2 q10 -2 20 -12 q5 -9 -3 -11 q-5 -2 -22 1 q-3 0 -3 0 q-28 -1 -74 -8 q-1 0 -4 -1 q-5 -2 -9 -2 q-4 1 -9 4 q-1 -2 -1 -2 q1 -131 -49 -170 q-3 -2 -6 0 q-2 2 -1 5 q37 33 36 132 q0 1 0 4 q1 29 -4 48 q2 2 3 2 q7 0 14 -7 Z" /><glyph glyph-name="" unicode="&#x3110;" d="M180 156 l0 -151 q-2 -12 -8 -13 q-11 7 -15 19 q0 1 1 5 q6 18 6 42 l0 16 q-3 -1 -10 -4 q-52 -23 -58 -28 q-2 -1 -5 -5 q-4 -5 -7 -5 q-11 7 -16 18 q0 3 4 7 q4 5 5 9 q4 20 5 67 q0 14 -4 21 q-1 3 -1 5 q1 2 4 2 q21 -6 22 -17 q0 -1 -2 -4 q-3 -5 -4 -11 q-1 -11 -3 -36 q-3 -28 -3 -33 q12 4 36 11 q25 7 37 12 l0 80 q0 15 -5 27 q-2 4 -2 6 q1 4 4 4 q26 -7 27 -16 q0 -2 -2 -5 q-7 -9 -6 -23 Z" /><glyph glyph-name="" unicode="&#x3112;" d="M137 119 l0 -40 q0 -18 3 -64 q1 -8 1 -8 q-1 -10 -8 -12 q-12 8 -18 28 q0 2 1 5 q7 19 7 64 l0 69 q-33 -4 -55 -9 q-1 0 -3 -1 q-5 -3 -8 -3 q-10 4 -16 18 q2 1 3 1 q44 0 133 18 q2 0 5 1 q7 2 10 2 q11 -1 20 -11 q8 -10 -1 -12 q-4 -1 -11 1 q-10 1 -16 1 q-9 0 -42 -3 q2 0 -5 -1 q-1 -10 0 -30 q0 -9 0 -14 Z" /><glyph glyph-name="" unicode="&#x3119;" d="M115 191 q5 4 17 -10 q12 -12 8 -20 q-1 -2 -5 -9 q-2 -4 -3 -6 q-7 -12 -35 -60 q-28 -47 -36 -60 q39 4 93 10 q22 1 22 2 q-2 8 -11 29 q-4 10 -5 13 q-1 3 0 4 q2 1 5 0 q22 -16 41 -54 q14 -34 -8 -38 q-11 0 -14 21 q-1 8 -3 10 q-35 -5 -92 -13 q3 0 -6 -1 q-3 -1 -10 -4 q-13 -5 -17 -3 q-13 9 -17 24 q0 5 9 14 q1 1 1 1 q26 32 62 111 q3 11 2 21 q-2 13 2 18 Z" /><glyph glyph-name="" unicode="&#x311a;" d="M140 113 l-2 -44 l0 -57 q-2 -19 -10 -22 q-12 7 -15 19 q0 2 3 13 q6 21 6 32 l1 55 q-1 15 -7 20 q-10 11 -58 43 q-11 7 -3 19 q7 6 19 -2 q8 -5 39 -40 q18 -19 19 -19 q31 29 44 51 q3 4 5 10 q1 6 4 6 q13 -3 23 -21 q0 -4 -5 -5 q-4 -1 -6 -3 q-9 -8 -24 -20 q-40 -33 -33 -35 Z" /><glyph glyph-name="" unicode="&#x311f;" d="M38 177 q0 4 8 3 q63 5 74 13 q1 0 2 2 q3 2 5 2 q20 -7 28 -17 q0 -1 0 -1 q1 -2 -1 -4 q-1 -1 -3 -3 q-7 -4 -7 -8 q-6 -89 65 -148 q8 -7 9 -9 q-3 -20 -27 -11 q-63 55 -62 172 q0 11 -8 10 q-18 -3 -48 -12 q-16 -4 -18 -4 q-13 6 -17 15 Z" /><glyph glyph-name="" unicode="&#x3121;" d="M56 181 l12 0 q64 1 89 16 q4 2 5 2 q26 -13 26 -22 q0 -3 -4 -5 q-1 -1 -2 -2 q-1 0 -3 -3 q-10 -41 -30 -76 q59 -61 60 -81 q-3 -11 -11 -13 q-8 0 -18 15 q-1 1 -1 2 q-18 31 -41 58 q-27 -39 -66 -68 q-1 0 -3 -2 q-15 -10 -20 -7 q-2 2 0 5 q43 28 77 87 q-28 33 -49 54 q-6 5 -5 9 q1 4 6 2 q26 -18 57 -47 q12 25 20 55 q5 18 -13 13 q-1 0 -2 0 q-56 -12 -70 -13 q-11 4 -17 15 q-3 6 3 6 Z" /><glyph glyph-name="" unicode="&#x3124;" d="M139 83 l0 -51 q-2 -22 23 -20 q16 0 31 5 q6 2 8 2 q13 -3 17 -15 q-1 -9 -36 -10 l-34 0 q-25 1 -26 24 l0 63 q1 10 -4 22 q-1 1 -1 2 q-16 -78 -72 -116 q-4 -1 -6 0 q-2 3 0 6 q51 44 62 121 q-18 -4 -37 -10 q-4 -1 -4 -1 q-20 8 -18 18 q36 3 61 8 q2 20 2 42 q0 6 -3 19 q-1 3 -1 4 q1 5 3 5 q1 0 3 -1 q27 -7 25 -13 q0 -1 -3 -4 q-2 -3 -3 -5 q0 -23 -4 -44 q23 4 46 10 q8 2 9 2 q14 -4 19 -15 q1 -7 -14 -7 q-24 1 -62 -5 q0 -1 0 -3 q-1 -3 -1 -5 q23 -4 28 -11 q0 -4 -3 -7 q-5 -4 -5 -10 Z" /><glyph glyph-name="" unicode="&#x3127;" d="M137 175 l0 -127 q0 -5 0 -14 q1 -12 0 -21 q0 -26 -10 -26 q-8 6 -14 32 q0 2 2 5 q4 6 4 11 q0 9 1 23 q1 34 1 61 l0 49 q0 13 -6 30 q-2 5 -2 6 q1 4 4 5 q19 -5 26 -18 q0 -1 0 -2 q1 -1 0 -2 q-6 -7 -6 -12 Z" /><glyph glyph-name="" unicode="&#x4e00;" d="M17 82 q-11 1 -12 13 q1 12 12 13 l222 0 q12 -1 13 -13 q-1 -12 -13 -13 l-222 0 Z" /><glyph glyph-name="" unicode="&#x4e01;" d="M19 167 q-11 1 -12 12 q1 11 12 12 l218 0 q11 -1 12 -12 q-1 -11 -12 -12 l-87 0 l0 -154 q1 -36 -38 -38 q-11 -1 -40 -1 q-15 1 -16 14 q-1 13 12 13 q17 0 32 0 q25 -2 23 23 l0 143 l-104 0 Z" /><glyph glyph-name="" unicode="&#x4e03;" d="M20 91 q-10 0 -13 11 q0 10 10 13 l71 10 l0 73 q1 12 13 13 q13 -1 14 -13 l0 -70 l120 16 q12 1 14 -10 q1 -11 -10 -14 l-124 -16 l0 -77 q-2 -26 24 -24 l46 0 q25 -1 28 22 q1 3 2 16 q1 4 1 6 q1 11 15 11 q12 -3 11 -16 q-1 -4 -2 -13 q-3 -13 -4 -18 q-4 -33 -48 -32 l-56 0 q-45 -1 -44 44 l0 77 l-68 -9 Z" /><glyph glyph-name="" unicode="&#x4e07;" d="M19 169 q-11 1 -12 11 q1 11 12 12 l218 0 q11 -1 12 -12 q-1 -10 -12 -11 l-131 0 q-1 -27 -3 -48 l99 0 q15 -1 15 -16 q-1 -24 -3 -71 q-1 -8 -1 -12 q-2 -48 -48 -47 q-11 -1 -39 -1 q-12 1 -13 12 q0 11 11 13 q11 -1 33 -1 q31 -3 31 31 q3 21 3 61 q-1 7 -7 8 l-83 0 q-8 -78 -70 -126 q-10 -7 -19 1 q-8 10 1 18 q71 47 68 178 l-62 0 Z" /><glyph glyph-name="" unicode="&#x4e09;" d="M45 79 q-11 1 -12 12 q1 11 12 12 l165 0 q11 -1 12 -12 q-1 -11 -12 -12 l-165 0 ZM33 163 q-11 1 -12 13 q1 11 12 12 l189 0 q11 -1 12 -12 q-1 -12 -12 -13 l-189 0 ZM19 -13 q-11 1 -12 12 q1 12 12 13 l218 0 q11 -1 12 -13 q-1 -11 -12 -12 l-218 0 Z" /><glyph glyph-name="" unicode="&#x4e0a;" d="M19 -17 q-11 1 -12 12 q1 11 12 12 l84 0 l0 189 q1 12 13 13 q13 -1 14 -13 l0 -61 l90 0 q10 -1 11 -12 q-1 -11 -11 -12 l-90 0 l0 -104 l107 0 q11 -1 12 -12 q-1 -11 -12 -12 l-218 0 Z" /><glyph glyph-name="" unicode="&#x4e0b;" d="M18 169 q-11 1 -12 12 q1 11 12 12 l219 0 q11 -1 12 -12 q-1 -11 -12 -12 l-107 0 l0 -188 q-1 -12 -13 -13 q-12 1 -13 13 l0 188 l-86 0 ZM210 55 q-40 27 -71 45 q-9 8 -2 17 q7 7 18 3 q34 -20 71 -43 q9 -8 3 -19 q-8 -9 -19 -3 Z" /><glyph glyph-name="" unicode="&#x4e0d;" d="M21 168 q-10 1 -11 11 q1 11 11 12 l216 0 q10 -1 11 -12 q-1 -10 -11 -11 l-82 0 q-14 -23 -31 -44 q2 0 3 0 q12 -1 13 -13 l0 -131 q-1 -12 -13 -13 q-12 1 -13 13 l0 131 l0 1 q-36 -42 -84 -75 q-12 -7 -20 2 q-6 11 4 18 q73 48 112 111 l-105 0 ZM225 41 q-32 25 -66 48 q-7 7 -1 15 q8 8 18 2 q47 -31 67 -46 q8 -8 2 -18 q-9 -9 -20 -1 Z" /><glyph glyph-name="" unicode="&#x4e0e;" d="M125 -27 q-13 1 -14 13 q1 12 12 12 q6 0 19 0 q15 -1 22 -1 q35 -1 36 27 q4 39 5 63 q1 7 -7 6 l-141 0 q-15 1 -14 15 l8 92 q3 12 14 13 q11 -1 12 -13 l-3 -25 l163 0 q10 -1 11 -11 q-1 -10 -11 -11 l-165 0 l-3 -31 q0 -6 6 -6 l142 0 q13 -1 14 -14 q0 -6 -1 -19 q-3 -44 -5 -62 q-1 -50 -53 -48 q-26 0 -47 0 ZM16 36 q-10 1 -11 11 q1 11 11 12 l158 0 q10 -1 11 -12 q-1 -10 -11 -11 l-158 0 Z" /><glyph glyph-name="" unicode="&#x4e11;" d="M33 81 q-10 1 -11 12 q1 9 11 10 l43 0 l8 71 l-53 0 q-10 1 -11 12 q1 10 11 11 l172 0 q14 -1 15 -15 l-11 -177 l31 0 q10 -1 11 -11 q-1 -10 -11 -11 l-221 0 q-10 1 -11 11 q1 10 11 11 l49 0 l8 76 l-41 0 ZM99 81 l-8 -76 l91 0 l4 76 l-87 0 ZM186 174 l-77 0 l-8 -71 l87 0 l3 65 q1 6 -5 6 Z" /><glyph glyph-name="" unicode="&#x4e13;" d="M30 159 q-9 1 -10 10 q1 10 10 11 l62 0 q1 4 4 11 q4 9 5 14 q6 10 17 6 q10 -4 7 -14 q-1 -3 -3 -8 q-2 -6 -3 -9 l107 0 q10 -1 11 -11 q-1 -9 -11 -10 l-116 0 q-2 -5 -6 -15 q-5 -10 -7 -15 l144 0 q9 -1 10 -10 q0 -9 -10 -10 l-153 0 q-2 -4 -6 -12 q-3 -7 -5 -11 q-2 -3 -1 -4 q1 -2 4 -2 l132 0 q11 -1 13 -12 q0 -9 -11 -18 l-55 -44 q7 -3 19 -9 q7 -3 10 -4 q11 -5 7 -16 q-5 -10 -17 -7 q-59 28 -121 53 q-11 6 -7 15 q4 9 16 6 q9 -4 31 -12 q25 -11 38 -16 l50 39 q2 4 -2 4 l-124 0 q-13 0 -14 12 q0 5 3 13 q6 10 12 25 l-44 0 q-9 1 -10 10 q1 9 10 10 l54 0 q2 5 7 15 q4 10 6 15 l-53 0 Z" /><glyph glyph-name="" unicode="&#x4e14;" d="M15 -19 q-9 0 -10 10 q1 10 10 11 l25 0 l0 176 q-1 20 19 19 l138 0 q20 1 19 -19 l0 -176 l24 0 q10 -1 11 -11 q0 -10 -11 -10 l-225 0 ZM65 47 l0 -45 l126 0 l0 45 l-126 0 ZM65 169 l0 -37 l126 0 l0 37 q0 7 -6 7 l-114 0 q-6 0 -6 -7 ZM65 111 l0 -44 l126 0 l0 44 l-126 0 Z" /><glyph glyph-name="" unicode="&#x4e16;" d="M125 42 q-19 -1 -18 18 l0 68 l-45 0 l0 -120 q0 -7 7 -7 l164 0 q10 -1 11 -10 q-1 -11 -11 -12 l-174 0 q-21 -1 -20 21 l0 128 l-22 0 q-10 1 -11 11 q1 10 11 11 l22 0 l0 38 q1 11 11 12 q11 -1 12 -12 l0 -38 l45 0 l0 48 q1 11 11 12 q11 -1 12 -12 l0 -48 l60 0 l0 48 q1 11 11 12 q11 -1 12 -12 l0 -48 l26 0 q10 -1 11 -11 q-1 -10 -11 -11 l-26 0 l0 -68 q2 -19 -18 -18 l-70 0 ZM184 63 q6 0 6 7 l0 58 l-60 0 l0 -58 q0 -6 6 -7 l48 0 Z" /><glyph glyph-name="" unicode="&#x4e18;" d="M17 -16 q-10 1 -11 12 q1 10 11 11 l28 0 l0 167 q1 13 15 15 q72 2 148 11 q14 -1 15 -11 q-1 -11 -9 -12 q-65 -7 -138 -11 q-6 0 -6 -6 l0 -46 l157 0 q10 -1 11 -11 q-1 -11 -11 -12 l-47 0 l0 -84 l59 0 q10 -1 11 -11 q-1 -11 -11 -12 l-222 0 ZM70 91 l0 -84 l86 0 l0 84 l-86 0 Z" /><glyph glyph-name="" unicode="&#x4e1a;" d="M17 -17 q-10 1 -11 11 q1 11 11 12 l66 0 l0 192 q1 10 12 11 q11 -1 12 -11 l0 -192 l41 0 l0 192 q1 11 12 12 q11 -1 12 -12 l0 -192 l66 0 q11 -1 12 -12 q-1 -10 -12 -11 l-221 0 ZM189 55 q-10 5 -6 15 q10 22 34 82 q4 9 14 7 q10 -4 8 -15 q-3 -8 -10 -25 q-17 -42 -25 -58 q-5 -10 -15 -6 ZM64 54 q-11 -2 -15 7 q-15 44 -31 84 q-2 10 7 14 q11 2 15 -7 q6 -17 20 -54 q8 -20 11 -29 q2 -11 -7 -15 Z" /><glyph glyph-name="" unicode="&#x4e1b;" d="M223 18 q-41 33 -52 83 q-11 -45 -50 -83 q-11 -8 -19 -1 q-8 9 1 19 q53 47 56 123 q1 14 1 39 q2 11 13 12 q10 -1 11 -12 q0 -21 -2 -45 l0 -1 q10 -78 57 -113 q9 -8 3 -18 q-9 -9 -19 -3 ZM17 22 q-9 7 0 19 q42 47 47 114 q2 22 2 43 q1 11 12 12 q11 -1 12 -12 q-1 -26 -3 -53 q0 -2 -1 -4 q22 -20 38 -36 q7 -9 0 -17 q-8 -7 -17 0 q-6 7 -25 26 q-9 -48 -46 -90 q-10 -10 -19 -2 ZM18 -20 q-10 1 -11 12 q1 10 11 11 l220 0 q10 -1 11 -11 q-1 -11 -11 -12 l-220 0 Z" /><glyph glyph-name="" unicode="&#x4e1c;" d="M18 153 q-11 1 -12 12 q2 10 12 11 l56 0 q4 6 10 19 q2 4 3 6 q6 13 18 8 q11 -4 6 -17 q-1 -2 -4 -8 q-3 -5 -5 -8 l136 0 q9 -1 11 -11 q-1 -11 -11 -12 l-148 0 q-6 -11 -19 -32 q-8 -13 -12 -20 q-3 -5 3 -6 l62 0 l0 35 q2 11 13 12 q11 -1 12 -12 l0 -35 l78 0 q10 -1 11 -11 q-1 -10 -11 -11 l-78 0 l0 -64 q2 -37 -36 -37 q-7 -1 -25 -1 q-14 2 -14 13 q1 11 12 11 q9 0 19 0 q20 -1 19 19 l0 59 l-80 0 q-17 0 -19 12 q-1 9 5 17 q13 18 32 51 l-44 0 ZM29 -14 q-9 -6 -18 0 q-6 10 2 18 q25 23 45 45 q8 10 18 2 q8 -8 0 -17 q-14 -15 -47 -48 ZM226 -9 q-19 18 -47 42 q-8 8 -1 16 q9 6 17 0 q24 -18 48 -40 q9 -9 1 -18 q-7 -9 -18 0 Z" /><glyph glyph-name="" unicode="&#x4e1d;" d="M140 109 q-13 0 -16 10 q-3 7 6 17 q25 29 48 64 q7 10 17 4 q9 -6 4 -16 q-30 -38 -43 -54 q-1 -1 -1 -3 q1 -1 3 -1 q18 0 40 0 q4 5 12 16 q3 4 4 6 q8 8 17 3 q9 -6 3 -16 q-15 -18 -50 -58 q-11 -12 -16 -18 q-2 -2 -1 -3 q0 -1 2 -1 q31 0 60 2 q9 -1 10 -11 q-1 -9 -11 -10 q-18 -2 -62 -3 q-12 -1 -17 -1 q-14 0 -17 9 q-3 10 6 19 q28 28 44 47 q-7 0 -21 -1 q-16 0 -21 -1 ZM35 109 q-14 0 -17 10 q-3 10 7 20 q28 35 44 62 q8 10 18 5 q9 -6 3 -16 q-9 -12 -29 -39 q-9 -12 -13 -17 q-2 -3 1 -4 q6 0 20 1 q13 0 19 0 q9 12 16 23 q9 9 17 4 q9 -6 3 -16 q-42 -54 -63 -80 q-1 -1 -1 -3 q1 -1 3 -1 q26 2 43 2 q9 0 10 -10 q0 -9 -10 -11 q-9 0 -30 -2 q-24 -1 -35 -2 q-14 0 -17 9 q-1 11 7 18 q24 26 42 49 q-20 0 -38 -2 ZM18 -19 q-10 1 -11 11 q1 10 11 11 l220 0 q10 -1 11 -11 q-1 -10 -11 -11 l-220 0 Z" /><glyph glyph-name="" unicode="&#x4e1e;" d="M88 16 q-11 1 -12 11 q1 10 10 11 q5 -1 17 -1 q18 -1 17 15 l0 87 q0 9 8 14 l47 22 q1 0 1 2 q-1 1 -2 1 l-133 0 q-10 1 -11 10 q1 9 11 10 l164 0 q12 -1 13 -12 q-1 -12 -12 -17 l-57 -28 q10 -19 22 -34 q4 3 12 9 q28 19 38 27 q8 6 16 -1 q6 -9 -2 -16 q-19 -15 -50 -34 q22 -24 53 -37 q12 -6 7 -18 q-7 -10 -19 -4 q-54 27 -83 80 l0 -66 q1 -31 -32 -31 q-11 0 -23 0 ZM17 -20 q-10 1 -11 11 q1 10 11 11 l221 0 q10 -1 11 -11 q-1 -10 -11 -11 l-221 0 ZM29 31 q-11 -7 -18 3 q-5 10 5 18 q38 25 59 65 q2 5 -3 5 l-44 0 q-9 1 -10 10 q1 9 10 10 l62 0 q10 -1 11 -10 q0 -12 -4 -21 q-21 -45 -68 -80 Z" /><glyph glyph-name="" unicode="&#x4e22;" d="M35 170 q-12 0 -12 11 q0 9 9 11 q85 1 188 7 q10 0 12 -10 q-1 -10 -10 -11 q-11 0 -35 -2 q-31 -1 -47 -2 l0 -38 l82 0 q11 0 11 -10 q-1 -10 -11 -11 l-82 0 l0 -38 l99 0 q9 -1 10 -11 q-1 -9 -10 -10 l-118 0 q-33 -33 -52 -50 q-3 -3 1 -4 q9 0 30 1 q52 2 81 3 l-21 21 q-6 8 1 15 q8 6 16 -1 q36 -34 52 -50 q6 -10 -1 -17 q-9 -6 -17 1 q-3 2 -7 7 q-3 3 -4 4 q-22 -1 -71 -3 q-54 -2 -77 -3 q-19 -2 -22 9 q-3 11 8 20 q28 22 51 47 l-72 0 q-10 1 -11 10 q1 10 11 11 l98 0 l0 38 l-82 0 q-9 1 -10 11 q1 10 10 10 l82 0 l0 37 q-13 0 -40 -1 q-27 -1 -40 -2 Z" /><glyph glyph-name="" unicode="&#x4e24;" d="M17 174 q-10 1 -11 11 q1 9 11 10 l222 0 q9 -1 10 -10 q-1 -10 -10 -11 l-64 0 q0 -16 -1 -33 l45 0 q13 -1 14 -14 l0 -121 q1 -34 -31 -33 q-9 -1 -28 -1 q-9 1 -12 11 q1 11 10 11 q3 0 10 -1 q7 0 10 0 q20 -1 19 16 l0 105 q-1 6 -6 7 l-33 0 l0 -1 q0 -18 -4 -34 q18 -18 36 -36 q6 -8 0 -17 q-8 -6 -16 0 q-7 8 -22 25 q-3 4 -4 5 q-9 -25 -27 -49 q-8 -10 -17 -3 q-8 7 -2 17 q32 37 35 93 l-47 0 q-1 -15 -3 -28 q14 -11 26 -23 q6 -7 0 -15 q-7 -8 -14 -1 q-9 8 -18 17 q-8 -26 -25 -50 q-7 -9 -17 -3 q-8 9 -1 18 q28 34 30 83 l0 2 l-31 0 q-6 0 -6 -7 l0 -134 q-1 -10 -12 -11 q-10 1 -11 11 l0 148 q1 12 14 13 l46 0 q1 11 1 33 l-66 0 ZM151 141 q1 10 1 33 l-46 0 q0 -6 -1 -17 q0 -11 0 -16 l46 0 Z" /><glyph glyph-name="" unicode="&#x4e25;" d="M19 176 q-10 1 -11 11 q1 9 11 10 l219 0 q9 -1 10 -10 q-1 -10 -10 -11 l-68 0 l0 -67 l68 0 q10 0 10 -10 q0 -9 -10 -10 l-181 0 q-6 0 -6 -7 l0 -13 q1 -59 -22 -93 q-6 -9 -17 -4 q-9 7 -4 17 q21 28 20 80 l0 27 q1 12 14 13 l48 0 l0 67 l-71 0 ZM112 176 l0 -67 l36 0 l0 67 l-36 0 ZM190 122 q-7 7 -1 14 q4 5 13 15 q5 7 8 10 q6 7 15 3 q7 -8 2 -15 q-8 -10 -21 -26 q-8 -6 -16 -1 ZM68 123 q-8 -4 -15 3 q-1 1 -2 2 q-10 16 -16 22 q-5 7 2 14 q9 5 15 -2 q3 -3 10 -11 q6 -8 9 -12 q4 -9 -3 -16 Z" /><glyph glyph-name="" unicode="&#x4e27;" d="M26 162 q-10 1 -11 11 q1 9 11 10 l90 0 l0 18 q1 11 12 12 q11 -1 12 -12 l0 -18 l90 0 q10 -1 11 -10 q-1 -10 -11 -11 l-90 0 l0 -61 l99 0 q9 -1 10 -10 q-1 -10 -10 -11 l-113 0 q13 -24 29 -40 q21 11 50 29 q9 6 17 -1 q5 -10 -3 -16 q-8 -4 -25 -14 q-15 -8 -22 -12 q26 -17 65 -28 q13 -5 10 -15 q-3 -11 -17 -8 q-100 27 -129 105 l-31 0 l0 -74 q0 -8 6 -5 q24 7 39 13 q11 3 15 -7 q2 -10 -9 -14 q-9 -4 -35 -13 q-11 -3 -15 -5 q-12 -3 -19 1 q-5 4 -5 17 l0 87 l-31 0 q-9 1 -10 11 q1 9 10 10 l100 0 l0 61 l-90 0 ZM187 111 q-9 -7 -19 -1 q-7 7 -1 13 q10 8 30 28 q9 8 18 2 q8 -6 1 -15 q-9 -9 -29 -27 ZM82 111 q-9 -5 -16 1 q-6 7 -26 27 q-5 7 2 14 q9 6 17 -1 q18 -18 26 -27 q4 -7 -3 -14 Z" /><glyph glyph-name="" unicode="&#x4e2a;" d="M26 89 q-11 -6 -17 4 q-5 11 4 16 q60 32 96 82 q11 14 19 13 q9 1 19 -13 q32 -45 95 -77 q9 -6 5 -17 q-5 -10 -18 -5 q-59 33 -98 82 q-2 3 -5 0 q-38 -52 -100 -85 ZM128 -34 q-12 1 -13 14 l0 131 q1 12 13 13 q12 -1 13 -13 l0 -131 q-1 -13 -13 -14 Z" /><glyph glyph-name="" unicode="&#x4e2d;" d="M35 51 q-14 0 -14 14 l0 59 l0 24 q1 13 14 14 l80 0 l0 38 q1 11 13 12 q11 -1 12 -12 l0 -38 l81 0 q13 -1 14 -14 l0 -83 q-1 -13 -14 -14 l-81 0 l0 -72 q-1 -11 -12 -12 q-12 1 -13 12 l0 72 l-80 0 ZM204 139 l-64 0 l0 -65 l64 0 q6 0 6 6 l0 53 q0 6 -6 6 ZM45 133 l0 -53 q1 -6 7 -6 l63 0 l0 65 l-63 0 q-6 -1 -7 -6 Z" /><glyph glyph-name="" unicode="&#x4e30;" d="M27 151 q-10 1 -11 12 q2 10 11 11 l88 0 l0 25 q1 12 13 13 q11 -1 12 -13 l0 -25 l88 0 q10 -1 12 -11 q-1 -11 -12 -12 l-88 0 l0 -39 l74 0 q10 -1 11 -11 q-1 -10 -11 -11 l-74 0 l0 -40 l98 0 q10 -1 11 -11 q-1 -10 -11 -11 l-98 0 l0 -48 q-1 -12 -12 -13 q-12 1 -13 13 l0 48 l-97 0 q-10 1 -11 11 q0 11 11 11 l97 0 l0 40 l-74 0 q-10 1 -11 11 q1 10 11 11 l74 0 l0 39 l-88 0 Z" /><glyph glyph-name="" unicode="&#x4e32;" d="M128 -33 q-11 1 -12 12 l0 34 l-78 0 q-18 -1 -17 17 l0 41 q0 18 17 17 l78 0 l0 24 l-67 0 q-18 -1 -17 16 l0 38 q0 18 17 17 l67 0 l0 17 q1 11 12 12 q11 -1 12 -12 l0 -17 l67 0 q17 1 16 -17 l0 -38 q1 -17 -16 -16 l-67 0 l0 -24 l78 0 q17 1 16 -17 l0 -41 q1 -18 -16 -17 l-78 0 l0 -34 q-1 -11 -12 -12 ZM211 63 q0 5 -5 5 l-66 0 l0 -35 l66 0 q5 0 5 5 l0 25 ZM45 63 l0 -25 q0 -5 5 -5 l66 0 l0 35 l-66 0 q-5 0 -5 -5 ZM200 158 q0 5 -5 5 l-55 0 l0 -32 l55 0 q5 0 5 5 l0 22 ZM56 158 l0 -22 q0 -5 5 -5 l55 0 l0 32 l-55 0 q-5 1 -5 -5 Z" /><glyph glyph-name="" unicode="&#x4e34;" d="M239 83 l0 -84 q1 -16 -16 -15 l-99 0 q-17 -1 -16 15 l0 84 q-1 17 16 16 l99 0 q17 1 16 -16 ZM72 -33 q-10 1 -11 11 l0 222 q1 10 11 11 q10 -1 11 -11 l0 -222 q-1 -10 -11 -11 ZM98 118 q-8 8 -1 16 q27 30 41 69 q4 10 15 7 q9 -5 7 -15 q-1 -3 -4 -10 q-3 -6 -5 -10 l89 0 q9 -1 10 -10 q0 -11 -10 -11 l-101 0 q-11 -18 -25 -35 q-7 -7 -16 -1 ZM27 -10 q-8 1 -9 9 l0 178 q1 9 9 10 q10 0 10 -10 l0 -178 q-1 -8 -10 -9 ZM218 9 l0 65 q0 5 -5 5 l-30 0 l0 -75 l30 0 q5 0 5 5 ZM129 74 l0 -65 q1 -5 4 -5 l31 0 l0 75 l-31 0 q-3 0 -4 -5 ZM180 111 q-5 6 -19 18 q-3 2 -4 3 q-5 8 1 13 q6 7 16 0 q12 -10 22 -20 q8 -7 0 -15 q-8 -6 -16 1 Z" /><glyph glyph-name="" unicode="&#x4e38;" d="M191 -24 q-29 0 -29 32 l0 127 q0 6 -6 6 l-49 0 q0 -3 0 -8 q-1 -6 -1 -9 q-1 -27 -6 -48 q21 -11 38 -20 q10 -7 5 -17 q-7 -10 -17 -5 q-6 3 -18 10 q-9 6 -14 8 q-14 -40 -63 -78 q-10 -7 -19 1 q-7 10 3 19 q45 33 57 71 q-6 3 -17 9 q-21 10 -30 16 q-9 4 -5 15 q8 8 16 4 q6 -3 20 -10 q14 -7 22 -11 q3 17 4 39 l0 14 l-60 0 q-10 1 -11 12 q1 11 11 12 l61 0 q1 17 1 34 q2 11 13 12 q11 -1 12 -13 q0 -15 -1 -33 l65 0 q13 -1 14 -15 l0 -133 q-2 -19 14 -17 l7 0 q15 -1 17 16 q2 9 3 27 q3 12 12 11 q11 -2 10 -14 q-1 -9 -3 -27 q-1 -6 -1 -9 q-4 -29 -35 -28 l-20 0 Z" /><glyph glyph-name="" unicode="&#x4e39;" d="M17 71 q-10 1 -11 11 q1 10 11 11 l31 0 q0 7 0 15 l0 78 q1 12 14 13 l137 0 q14 0 14 -13 l0 -93 l27 0 q10 -1 11 -11 q-1 -10 -11 -11 l-27 0 l0 -62 q2 -35 -35 -36 q-3 0 -10 0 q-14 -1 -20 0 q-11 1 -13 12 q1 10 11 11 q11 0 22 0 q22 -1 21 20 l0 55 l-118 0 q-3 -60 -35 -97 q-9 -8 -18 -2 q-8 8 -2 19 q29 30 31 80 l-30 0 ZM72 107 q0 -7 0 -14 l117 0 l0 78 q0 7 -6 7 l-104 0 q-6 0 -7 -7 l0 -64 ZM149 111 q-10 -4 -16 3 q-12 14 -25 30 q-6 8 2 14 q8 6 16 -2 q5 -5 15 -17 q7 -9 10 -12 q6 -9 -2 -16 Z" /><glyph glyph-name="" unicode="&#x4e3a;" d="M36 -27 q-11 -7 -20 2 q-7 10 2 18 q75 50 85 133 l-79 0 q-10 1 -11 11 q1 10 11 11 l81 0 q3 24 4 52 q1 12 13 12 q11 -1 12 -12 q0 -6 -1 -17 q-1 -24 -2 -35 l91 0 q13 -2 13 -14 q-2 -57 -5 -109 q-1 -51 -47 -50 q-15 -1 -37 -1 q-13 2 -15 14 q0 12 11 12 q5 0 17 -1 q11 0 15 0 q32 -3 32 32 q2 20 4 80 q0 6 0 9 q0 6 -5 6 l-76 0 q-10 -95 -93 -153 ZM182 45 q-9 -7 -18 1 q-11 13 -26 26 q-6 9 1 16 q9 6 17 -1 q8 -7 26 -25 q8 -10 0 -17 ZM80 164 q-7 -7 -18 0 q-7 9 -23 22 q-7 7 -1 15 q8 7 17 1 q2 -2 6 -5 q13 -11 18 -16 q7 -7 1 -17 Z" /><glyph glyph-name="" unicode="&#x4e3b;" d="M29 143 q-10 1 -11 12 q1 10 11 11 l197 0 q11 -1 12 -11 q-1 -11 -12 -12 l-86 0 l0 -54 l76 0 q11 -1 12 -12 q-1 -10 -12 -11 l-76 0 l0 -61 l97 0 q11 -1 12 -12 q-1 -10 -12 -11 l-219 0 q-10 1 -11 11 q1 11 11 12 l97 0 l0 61 l-75 0 q-11 1 -12 11 q1 11 12 12 l75 0 l0 54 l-86 0 ZM140 169 q-10 -5 -16 3 q-2 3 -6 11 q-5 7 -7 10 q-6 9 3 15 q9 6 17 -2 q10 -15 13 -20 q6 -10 -4 -17 Z" /><glyph glyph-name="" unicode="&#x4e3d;" d="M201 44 q-7 -4 -12 5 q-2 5 -7 14 q-9 19 -14 28 q-2 8 4 12 q9 3 13 -5 q5 -9 16 -30 q3 -7 5 -11 q4 -9 -5 -13 ZM150 -33 q-10 1 -11 11 l0 160 q1 12 13 12 l70 0 q12 0 12 -12 l0 -137 q2 -30 -28 -29 q-2 0 -9 0 q-7 -1 -10 -1 q-9 1 -10 11 q-1 8 7 9 q8 0 15 0 q15 -1 14 13 l0 120 q0 6 -5 6 l-43 0 q-5 0 -5 -6 l0 -146 q-1 -10 -10 -11 ZM82 42 q-9 -3 -13 5 q-11 25 -20 41 q-3 8 4 12 q8 3 13 -4 q4 -8 12 -24 q6 -11 9 -17 q3 -8 -5 -13 ZM32 -33 q-9 1 -10 11 l0 160 q0 12 12 12 l68 0 q12 0 12 -12 l0 -135 q1 -31 -29 -31 q-8 0 -17 0 q-9 0 -11 10 q-1 10 8 11 q2 0 7 -1 q5 0 7 0 q15 -1 14 14 l0 118 q0 6 -5 6 l-40 0 q-5 0 -5 -6 l0 -146 q-1 -10 -11 -11 ZM17 175 q-10 1 -11 11 q1 9 11 10 l221 0 q10 -1 11 -10 q-1 -10 -11 -11 l-221 0 Z" /><glyph glyph-name="" unicode="&#x4e3e;" d="M18 132 q-9 1 -10 10 q1 10 10 10 l149 0 q-2 5 1 11 q15 19 26 39 q7 10 17 5 q9 -6 4 -16 q-5 -7 -23 -32 q-4 -5 -5 -7 l51 0 q9 -1 10 -10 q-1 -9 -10 -10 l-60 0 q21 -33 62 -49 q8 -5 5 -15 q-6 -10 -17 -6 q-52 26 -74 70 l-52 0 q-25 -45 -76 -73 q-10 -5 -16 4 q-4 10 5 16 q42 20 62 53 l-59 0 ZM72 65 q-9 1 -10 9 q1 9 10 10 l44 0 l0 24 q1 11 12 12 q11 -1 12 -12 l0 -24 l44 0 q9 -1 10 -10 q-1 -8 -10 -9 l-44 0 l0 -30 l90 0 q9 -1 10 -10 q0 -9 -10 -10 l-90 0 l0 -37 q-1 -10 -12 -11 q-11 1 -12 11 l0 37 l-90 0 q-9 1 -10 10 q1 9 10 10 l90 0 l0 30 l-44 0 ZM136 164 q-10 -3 -15 6 q-7 13 -15 25 q-3 10 6 14 q10 3 15 -5 q9 -12 16 -26 q3 -8 -7 -14 ZM70 163 q-10 -5 -15 4 q-3 4 -9 12 q-5 7 -7 10 q-5 9 4 14 q10 5 16 -4 q4 -4 12 -16 q3 -4 4 -6 q4 -8 -5 -14 Z" /><glyph glyph-name="" unicode="&#x4e43;" d="M34 -24 q-9 -8 -19 0 q-9 10 0 20 q50 43 53 130 q2 28 2 47 l-43 0 q-10 1 -11 11 q1 10 11 11 l174 0 q12 -1 13 -11 q0 -10 -8 -21 l-23 -39 q-4 -5 2 -6 l43 0 q13 0 13 -13 q-1 -15 -2 -45 q-2 -24 -2 -34 q-1 -50 -51 -50 q-15 -1 -41 -1 q-12 1 -14 13 q1 12 11 12 q4 0 11 0 q17 -1 25 0 q33 -2 34 33 q3 27 3 57 q1 6 -6 7 l-47 0 q-10 0 -12 8 q-4 8 2 19 l27 44 q3 4 -2 5 l-82 0 q0 -8 -1 -25 q0 -14 0 -20 q-5 -101 -60 -152 Z" /><glyph glyph-name="" unicode="&#x4e45;" d="M27 98 q-7 9 0 17 q36 40 52 85 q5 11 17 8 q10 -4 8 -15 q-4 -10 -9 -19 l77 0 q11 -1 12 -12 q0 -12 -5 -22 q-9 -28 -25 -54 q30 -59 84 -88 q12 -8 5 -20 q-7 -10 -20 -4 q-55 35 -83 91 q-38 -54 -110 -93 q-12 -6 -19 5 q-5 11 5 19 q107 54 137 150 q3 5 -4 5 l-66 0 q-14 -24 -37 -52 q-8 -9 -19 -1 Z" /><glyph glyph-name="" unicode="&#x4e48;" d="M53 -20 q-19 0 -23 9 q-4 11 7 22 q68 60 133 148 q7 10 20 4 q9 -9 2 -19 q-59 -77 -121 -136 q-1 -1 -1 -2 q0 -1 2 -1 q28 1 88 5 q24 1 35 2 q-17 25 -34 46 q-6 10 3 16 q9 5 17 -3 q24 -31 59 -78 q6 -11 -3 -19 q-11 -6 -19 4 q-3 6 -8 12 q-10 -1 -31 -2 q-83 -5 -126 -8 ZM30 77 q-12 -8 -20 2 q-6 10 2 18 q60 48 97 106 q9 10 20 4 q8 -8 2 -19 q-47 -67 -101 -111 Z" /><glyph glyph-name="" unicode="&#x4e49;" d="M30 -29 q-13 -4 -20 8 q-2 12 9 17 q54 17 90 46 q-43 46 -69 132 q-3 12 8 16 q10 2 15 -8 q22 -77 65 -122 q43 44 62 123 q4 11 15 9 q11 -4 10 -15 q-22 -88 -68 -135 q37 -28 88 -43 q12 -6 9 -18 q-5 -12 -19 -8 q-61 21 -97 52 q-37 -32 -98 -54 ZM140 146 q-10 -4 -16 7 q-8 21 -19 41 q-2 10 7 14 q9 4 15 -6 q10 -18 20 -40 q2 -11 -7 -16 Z" /><glyph glyph-name="" unicode="&#x4e4b;" d="M234 -21 q-58 -2 -104 1 q-48 0 -73 32 q-5 5 -10 0 q-9 -9 -21 -24 q-8 -8 -16 -1 q-8 7 -1 18 q17 19 25 26 q10 10 19 10 q3 0 6 -1 q69 42 132 99 q1 1 1 3 q-1 1 -3 1 l-157 0 q-11 1 -12 11 q1 11 12 12 l98 0 q-4 1 -7 4 q-3 5 -10 15 q-3 4 -4 6 q-7 9 3 17 q9 5 18 -3 q3 -4 10 -14 q3 -5 5 -7 q5 -9 -4 -17 q-1 0 -2 0 q-2 -1 -3 -1 l77 0 q14 0 16 -13 q0 -10 -10 -21 q-64 -61 -141 -107 q20 -22 56 -22 q46 -1 103 0 q12 -1 13 -11 q0 -13 -16 -13 Z" /><glyph glyph-name="" unicode="&#x4e4c;" d="M143 -28 q-11 1 -13 12 q1 10 11 11 q14 0 36 0 q32 -2 33 31 q2 18 2 39 q0 6 -6 6 l-151 0 q-12 1 -13 12 l0 89 q1 13 14 14 l39 0 q4 5 8 17 q1 2 1 2 q5 9 15 6 q10 -4 6 -13 q-2 -6 -5 -12 l81 0 q11 -1 13 -14 q0 -13 -2 -29 q0 -35 -40 -34 q-17 0 -38 0 q-10 1 -11 11 q0 8 9 10 q5 0 17 -1 q12 0 16 0 q21 -1 23 14 q0 3 1 9 q0 6 1 9 q0 4 -5 4 l-113 0 q-6 0 -6 -6 l0 -61 q0 -6 6 -6 l153 0 q12 0 12 -13 q0 -6 -1 -20 q-1 -26 -2 -37 q0 -52 -51 -49 q-15 -1 -40 -1 ZM16 24 q-10 1 -11 10 q1 10 11 11 l162 0 q10 -1 11 -11 q-1 -9 -11 -10 l-162 0 Z" /><glyph glyph-name="" unicode="&#x4e4d;" d="M13 99 q-7 9 0 18 q39 39 61 85 q6 10 17 8 q11 -4 7 -15 q-1 -3 -5 -10 q-3 -6 -5 -10 l148 0 q10 -1 11 -11 q-1 -10 -11 -11 l-112 0 l0 -38 l98 0 q10 -1 11 -11 q-1 -10 -11 -11 l-98 0 l0 -39 l107 0 q10 -1 11 -11 q-1 -10 -11 -11 l-107 0 l0 -53 q-1 -11 -12 -12 q-12 1 -13 12 l0 174 l-25 0 q-18 -28 -43 -54 q-8 -7 -18 0 Z" /><glyph glyph-name="" unicode="&#x4e4e;" d="M32 169 q-11 0 -13 11 q1 10 10 11 q106 3 193 8 q11 1 12 -10 q0 -10 -10 -11 q-14 -1 -45 -3 q-25 -1 -38 -2 l0 -84 l98 0 q10 -1 11 -11 q-1 -10 -11 -11 l-98 0 l0 -57 q2 -37 -36 -38 q-3 0 -13 0 q-13 -1 -18 -1 q-12 1 -13 13 q0 11 11 11 q12 0 23 0 q22 -1 21 21 l0 51 l-100 0 q-10 1 -11 11 q1 10 11 11 l100 0 l0 83 q-18 -1 -56 -2 q-19 -1 -28 -1 ZM173 104 q-7 7 -1 16 q2 3 8 9 q13 17 19 25 q9 8 17 2 q9 -7 3 -16 q-5 -5 -16 -19 q-9 -11 -13 -15 q-8 -8 -17 -2 ZM82 105 q-9 -6 -17 2 q-8 9 -25 31 q-6 8 1 15 q8 6 16 -1 q6 -6 17 -20 q6 -7 9 -10 q7 -9 -1 -17 Z" /><glyph glyph-name="" unicode="&#x4e50;" d="M39 80 q-13 1 -13 14 l10 83 q2 13 14 14 q64 0 162 8 q12 1 14 -10 q2 -10 -9 -12 q-77 -6 -152 -8 q-6 0 -7 -6 l-7 -54 q1 -6 7 -7 l61 0 l0 41 q1 11 12 12 q12 -1 13 -12 l0 -41 l84 0 q10 -1 11 -11 q-2 -10 -11 -11 l-84 0 l0 -71 q2 -37 -33 -36 q-6 -1 -25 -1 q-13 1 -15 12 q1 11 11 12 l21 0 q17 -1 16 18 l0 66 l-80 0 ZM15 -12 q-8 7 -2 17 q27 27 45 53 q5 9 17 4 q9 -7 3 -16 q-25 -35 -46 -57 q-7 -7 -17 -1 ZM240 -12 q-9 -6 -18 3 q-14 20 -45 55 q-6 9 2 15 q9 6 17 -2 q2 -2 6 -7 q28 -32 40 -47 q7 -9 -2 -17 Z" /><glyph glyph-name="" unicode="&#x4e52;" d="M16 39 q-9 1 -10 11 q1 10 10 11 l32 0 l0 119 q1 13 13 13 q50 1 145 10 q12 1 15 -10 q1 -10 -9 -12 q-58 -5 -134 -9 q-6 0 -6 -7 l0 -29 l156 0 q10 -1 11 -11 q-1 -10 -11 -11 l-44 0 l0 -53 l55 0 q10 -1 11 -11 q-2 -10 -11 -11 l-223 0 ZM72 114 l0 -53 l88 0 l0 53 l-88 0 ZM41 -28 q-10 -5 -17 4 q-5 11 4 16 q40 23 61 39 q10 6 17 -2 q6 -8 -2 -15 q-26 -20 -63 -42 Z" /><glyph glyph-name="" unicode="&#x4e53;" d="M16 40 q-9 1 -10 10 q1 10 10 11 l32 0 l0 119 q0 13 13 13 q55 1 145 10 q12 0 15 -11 q-1 -9 -9 -11 q-51 -5 -134 -9 q-6 0 -6 -7 l0 -29 l156 0 q10 -1 11 -11 q-1 -10 -11 -11 l-44 0 l0 -53 l55 0 q10 -1 11 -11 q-1 -9 -11 -10 l-223 0 ZM72 114 l0 -53 l88 0 l0 53 l-88 0 ZM210 -27 q-29 20 -59 38 q-8 7 -3 16 q8 8 17 2 q1 -1 4 -2 q37 -21 55 -34 q9 -6 4 -17 q-7 -9 -18 -3 Z" /><glyph glyph-name="" unicode="&#x4e54;" d="M38 172 q-10 0 -12 11 q0 9 9 11 q81 0 184 5 q10 -1 12 -10 q0 -10 -10 -11 q-40 -3 -79 -3 l0 -1 q0 -3 -1 -8 q-3 -17 -5 -24 q0 0 -1 -2 q0 -1 -1 -2 l100 0 q10 -1 11 -11 q-1 -9 -11 -10 l-73 0 q24 -32 76 -44 q11 -3 9 -15 q-5 -10 -17 -7 q-67 18 -93 66 l-11 0 q-20 -40 -97 -67 q-14 -4 -18 6 q-2 12 8 16 q56 17 79 45 l-75 0 q-10 1 -11 10 q1 10 11 11 l87 0 q2 3 3 7 q2 6 5 21 q1 6 1 8 q-13 -1 -40 -1 q-27 -1 -40 -1 ZM48 -30 q-12 -5 -20 3 q-4 9 4 15 q37 16 41 47 q2 14 2 26 q1 9 12 10 q10 -1 11 -12 q0 -12 -2 -24 q-5 -45 -48 -65 ZM172 -33 q-11 1 -12 11 l0 81 q1 11 12 12 q10 -1 11 -12 l0 -81 q-1 -10 -11 -11 Z" /><glyph glyph-name="" unicode="&#x4e56;" d="M35 174 q-9 1 -11 10 q1 9 9 10 q110 2 186 6 q10 -1 12 -10 q1 -9 -8 -10 q-26 -1 -84 -3 l0 -29 l100 0 q10 0 10 -10 q-1 -8 -10 -9 l-100 0 l0 -151 q-1 -10 -11 -11 q-10 1 -11 11 l0 151 l-100 0 q-9 1 -10 9 q1 10 10 10 l100 0 l0 28 q-14 0 -41 -1 q-28 0 -41 -1 ZM196 7 q-30 -1 -29 29 l0 70 q1 10 10 11 q10 -1 11 -11 l0 -23 q17 7 38 17 q10 3 15 -4 q3 -8 -4 -14 q-8 -3 -27 -10 q-15 -6 -22 -9 l0 -23 q-1 -14 13 -13 l11 0 q13 -1 15 11 q0 3 2 8 q2 9 11 8 q8 -2 7 -12 q0 -2 -1 -7 q-1 -6 -2 -8 q-5 -21 -29 -20 l-19 0 ZM21 74 q-8 1 -9 9 q1 9 9 10 l46 0 l0 14 q1 9 11 10 q10 -1 11 -10 l0 -96 q-1 -10 -11 -11 q-10 1 -11 11 l0 17 q-5 -1 -15 -4 q-20 -5 -30 -8 q-10 -1 -14 8 q-1 11 8 13 q15 2 43 9 q6 1 8 2 l0 26 l-46 0 Z" /><glyph glyph-name="" unicode="&#x4e58;" d="M34 177 q-9 1 -10 9 q1 9 9 10 q129 2 188 5 q11 0 12 -8 q0 -9 -10 -10 q-24 -1 -84 -3 l0 -23 l101 0 q8 -1 9 -9 q-1 -8 -9 -9 l-101 0 l0 -55 q34 -60 99 -83 q11 -5 8 -16 q-6 -10 -17 -5 q-59 24 -90 71 l0 -73 q-1 -10 -11 -11 q-10 1 -11 11 l0 72 q-29 -43 -90 -72 q-12 -4 -17 5 q-3 11 6 16 q68 28 101 85 l0 55 l-101 0 q-8 1 -9 9 q1 8 9 9 l101 0 l0 22 q-14 0 -42 -1 q-28 0 -41 -1 ZM197 47 q-28 0 -28 29 l0 44 q1 10 10 11 q9 -1 10 -11 l0 -13 q4 1 14 4 q18 6 26 9 q8 1 12 -6 q1 -7 -5 -11 q-25 -7 -47 -13 l0 -12 q-1 -14 13 -13 l12 0 q14 -1 15 10 q2 3 3 8 q1 8 10 7 q8 -3 6 -11 q0 -3 -2 -11 q-1 -2 -1 -3 q-6 -18 -27 -18 l-21 0 ZM22 94 q-8 0 -8 9 q0 9 8 9 l45 0 l0 8 q1 10 10 10 q9 -1 10 -10 l0 -66 q-1 -9 -10 -10 q-9 1 -10 10 l0 4 q-7 -1 -22 -5 q-15 -3 -23 -5 q-10 -1 -12 8 q-2 8 7 11 q11 1 32 6 q12 2 18 3 l0 18 l-45 0 Z" /><glyph glyph-name="" unicode="&#x4e5d;" d="M30 -27 q-10 -6 -19 2 q-7 9 1 18 q65 43 66 127 q0 2 0 8 q1 6 1 9 l-57 0 q-11 1 -12 11 q1 11 12 12 l58 0 q0 7 1 20 q0 13 0 19 q1 12 12 13 q13 -1 13 -13 q0 -18 -1 -39 l66 0 q14 -1 15 -15 l0 -128 q-1 -18 14 -16 l8 0 q14 -1 16 14 q2 11 3 29 q1 10 12 11 q11 -2 10 -14 q-2 -28 -4 -37 q-3 -29 -34 -28 l-19 0 q-34 -2 -32 36 l0 118 q-1 6 -6 7 l-50 0 q0 -3 -1 -10 q0 -6 0 -8 q-1 -97 -73 -146 Z" /><glyph glyph-name="" unicode="&#x4e5e;" d="M82 -23 q-44 1 -46 30 q0 17 17 32 q24 20 94 59 q2 2 -1 3 l-88 0 q-10 1 -11 10 q1 10 11 11 l128 0 q11 -1 12 -12 q0 -11 -11 -16 q-78 -42 -110 -66 q-14 -11 -13 -18 q0 -11 28 -11 l80 0 q40 -2 41 24 q1 3 2 14 q1 5 1 7 q2 12 13 11 q12 -1 11 -16 q-2 -15 -5 -30 q-3 -33 -59 -32 l-94 0 ZM9 105 q-6 9 0 18 q35 36 53 82 q6 10 16 8 q11 -4 7 -15 q-4 -10 -9 -19 l155 0 q10 -1 11 -11 q-1 -10 -11 -11 l-167 0 q-13 -23 -37 -52 q-7 -7 -18 0 Z" /><glyph glyph-name="" unicode="&#x4e5f;" d="M167 48 q-12 0 -13 12 q-1 10 9 11 q4 -1 17 -1 q18 -1 20 21 q2 24 2 45 q0 7 -7 5 l-54 -13 l0 -93 q-1 -11 -12 -13 q-11 1 -12 13 l0 87 l-54 -13 l0 -84 q-2 -27 25 -25 l105 0 q26 -1 29 18 q0 2 1 6 q2 12 2 18 q3 11 14 10 q12 -3 10 -16 q-1 -14 -5 -30 q-5 -29 -46 -28 l-117 0 q-44 -2 -42 40 l0 85 l-20 -5 q-12 -1 -14 9 q-1 11 9 13 l25 6 l0 47 q1 11 12 12 q11 -1 12 -12 l0 -41 l54 13 l0 55 q1 11 12 12 q11 -1 12 -12 l0 -50 l62 15 q22 4 23 -15 q-1 -24 -3 -63 q-1 -39 -36 -39 q-9 0 -20 0 Z" /><glyph glyph-name="" unicode="&#x4e60;" d="M112 96 q-6 3 -18 10 q-25 15 -36 21 q-9 7 -3 16 q7 9 17 3 q13 -6 43 -23 q8 -5 12 -7 q9 -7 4 -17 q-8 -10 -19 -3 ZM134 -25 q-14 1 -15 13 q1 12 12 13 q18 0 32 0 q39 -3 37 37 q0 13 2 48 q1 54 2 76 q0 6 -7 6 l-167 0 q-10 1 -11 12 q1 11 11 12 l185 0 q15 -1 14 -15 q0 -5 0 -15 q-2 -92 -4 -132 q1 -56 -54 -54 q-10 -1 -37 -1 ZM35 15 q-14 -4 -18 8 q-3 12 9 17 q81 26 140 48 q13 2 17 -8 q3 -12 -9 -17 q-16 -6 -54 -19 q-58 -20 -85 -29 Z" /><glyph glyph-name="" unicode="&#x4e61;" d="M31 -31 q-15 -3 -17 9 q-2 12 12 15 q116 18 153 66 q-80 -5 -125 -9 q-13 -1 -17 8 q-3 11 7 17 q47 27 81 50 q-10 0 -7 0 q-49 -2 -70 -4 q-12 0 -15 9 q-1 9 7 15 q39 24 80 62 q11 8 20 1 q7 -8 -2 -17 q-35 -28 -61 -45 q-1 -1 -1 -2 q0 -1 2 -1 q5 0 18 1 q40 1 58 3 q10 7 29 22 q7 6 11 9 q12 9 20 2 q8 -9 -2 -18 q-49 -41 -122 -85 q-2 -2 0 -3 q15 1 47 3 q39 2 56 3 q0 1 0 1 q7 12 12 30 q6 10 16 8 q11 -4 8 -16 q-5 -15 -11 -29 q-31 -81 -187 -105 Z" /><glyph glyph-name="" unicode="&#x4e66;" d="M165 -5 q-12 2 -13 12 q1 10 10 10 q12 0 24 0 q25 -1 25 19 q2 16 2 29 q0 6 -6 6 l-86 0 l0 -92 q-1 -11 -12 -13 q-12 1 -13 13 l0 92 l-79 0 q-10 1 -11 12 q1 9 11 10 l79 0 l0 50 l-63 0 q-10 1 -11 11 q1 10 11 11 l63 0 l0 34 q1 11 13 12 q11 -1 12 -12 l0 -34 l71 0 q14 -2 14 -15 l-4 -57 l22 0 q15 -1 14 -14 q0 -13 -2 -37 q-1 -7 -1 -10 q-2 -37 -40 -37 q-14 0 -30 0 ZM176 143 l-55 0 l0 -50 l57 0 l3 45 q0 5 -5 5 ZM221 155 q-8 6 -26 19 q-8 6 -11 8 q-8 7 -2 16 q8 7 16 1 q4 -3 14 -9 q17 -11 24 -16 q8 -8 2 -17 q-7 -8 -17 -2 Z" /><glyph glyph-name="" unicode="&#x4e70;" d="M18 47 q-10 1 -11 10 q1 10 11 11 l117 0 q0 3 0 5 q7 28 7 81 q1 11 12 12 q11 -1 12 -13 q0 -49 -6 -81 q-1 -1 -1 -4 l79 0 q10 -1 11 -11 q-1 -9 -11 -10 l-84 0 q-1 -4 -4 -9 q6 -3 20 -9 q47 -23 66 -33 q10 -7 6 -16 q-6 -11 -19 -5 q-38 22 -85 44 q-24 -30 -105 -50 q-14 -3 -17 8 q-3 12 9 16 q87 17 103 54 l-110 0 ZM205 122 q-10 5 -8 15 l15 33 q1 5 -4 6 l-182 0 q-11 0 -11 11 q0 10 11 10 l202 0 q10 -1 11 -10 q0 -10 -4 -21 l-15 -36 q-5 -10 -15 -8 ZM77 79 q-19 13 -41 26 q-8 6 -4 14 q5 7 14 3 q13 -6 40 -23 q2 -1 3 -2 q8 -6 3 -14 q-6 -8 -15 -4 ZM102 120 q-19 13 -41 25 q-7 5 -3 14 q5 7 14 3 q9 -4 27 -14 q10 -6 15 -9 q8 -6 4 -15 q-7 -9 -16 -4 Z" /><glyph glyph-name="" unicode="&#x4e71;" d="M24 173 q-10 0 -12 10 q1 10 9 11 q8 0 5 0 q62 2 94 5 q10 -1 11 -9 q1 -11 -9 -12 q-18 -2 -38 -2 l0 -38 l47 0 q9 -1 10 -11 q-1 -8 -10 -9 l-47 0 l0 -38 l30 0 q13 0 13 -14 l0 -70 q0 -14 -13 -14 l-82 0 q-14 0 -14 14 l0 70 q0 14 14 14 l30 0 l0 38 l-47 0 q-9 1 -10 9 q1 10 10 11 l47 0 l0 36 q-7 0 -20 -1 q-12 0 -18 0 ZM187 -28 q-30 -1 -31 32 l0 193 q2 11 12 12 q11 -1 12 -12 l0 -187 q-1 -16 14 -15 l13 0 q16 -1 16 14 q3 14 4 33 q1 11 12 10 q10 -2 10 -13 q-2 -19 -5 -38 q-4 -30 -33 -29 l-24 0 ZM40 54 l0 -46 q0 -6 6 -6 l54 0 q6 0 5 6 l0 46 q1 6 -5 6 l-54 0 q-6 0 -6 -6 Z" /><glyph glyph-name="" unicode="&#x4e86;" d="M69 -26 q-11 1 -14 13 q1 12 12 13 q9 -1 30 -1 q25 -2 23 24 l0 81 q0 14 11 20 l65 44 q1 1 1 2 q0 1 -2 1 l-170 0 q-10 1 -11 12 q1 10 11 11 l196 0 q12 -1 14 -14 q0 -13 -11 -21 l-74 -50 q-4 -2 -4 -11 l0 -81 q2 -44 -40 -42 q-11 -1 -37 -1 Z" /><glyph glyph-name="" unicode="&#x4e88;" d="M70 -28 q-13 1 -14 12 q-1 11 11 12 q8 0 27 0 q24 -1 23 24 l0 66 l-97 0 q-10 1 -11 11 q1 10 11 11 l104 0 q-2 2 -7 5 q-33 23 -48 33 q-8 7 -3 15 q6 7 16 2 q27 -17 43 -28 l56 36 q2 1 1 2 q-1 2 -3 2 l-139 0 q-10 1 -11 11 q1 10 11 11 l168 0 q11 -1 13 -14 q0 -12 -11 -20 l-66 -43 q2 -7 -2 -11 q0 0 -1 -1 l87 0 q10 -2 11 -11 q0 -12 -4 -22 l-12 -33 q-5 -10 -16 -8 q-10 4 -8 16 l11 30 q2 6 -4 6 l-64 0 l0 -71 q2 -43 -38 -42 q-9 -1 -34 -1 Z" /><glyph glyph-name="" unicode="&#x4e89;" d="M28 130 q-8 -6 -16 2 q-5 9 2 15 q34 24 62 60 q6 8 17 3 q8 -6 2 -15 q-1 -1 -2 -2 q0 -1 -3 -3 l92 0 q9 -1 10 -10 q0 -7 -7 -15 l-19 -19 l39 0 q13 -1 14 -14 l0 -33 l22 0 q10 0 10 -10 q-1 -8 -10 -9 l-22 0 l0 -33 q0 -12 -14 -13 l-70 0 l0 -24 q2 -37 -35 -37 q-5 0 -16 -1 q-10 0 -14 0 q-11 -1 -13 11 q1 10 10 11 q11 0 24 0 q22 -2 20 21 l0 19 l-74 0 q-8 1 -9 9 q1 8 9 9 l74 0 l0 28 l-96 0 q-8 1 -9 9 q1 9 9 10 l96 0 l0 27 l-63 0 q-8 1 -9 10 q0 2 0 2 q-5 -5 -11 -8 ZM155 170 l-82 0 q-11 -12 -25 -24 l89 0 l20 20 q1 1 1 3 q-1 1 -3 1 ZM196 59 l0 21 l-61 0 l0 -28 l55 0 q6 1 6 7 ZM190 126 l-55 0 l0 -27 l61 0 l0 21 q0 6 -6 6 Z" /><glyph glyph-name="" unicode="&#x4e8b;" d="M16 174 q-8 1 -9 8 q0 8 9 8 l100 0 l0 11 q1 10 11 11 q11 -1 12 -11 l0 -11 l102 0 q7 -1 8 -8 q-1 -7 -8 -8 l-102 0 l0 -15 l69 0 q12 0 12 -11 l0 -25 q0 -11 -12 -11 l-69 0 l0 -15 l73 0 q13 0 13 -13 l0 -21 l17 0 q8 0 8 -8 q-1 -7 -8 -8 l-17 0 l0 -21 q0 -12 -13 -12 l-73 0 l0 -7 q2 -34 -33 -35 q-3 0 -13 0 q-11 -1 -16 -1 q-10 1 -12 11 q1 8 9 9 q14 0 24 0 q20 -2 18 18 l0 5 l-89 0 q-7 1 -8 8 q1 6 8 7 l89 0 l0 18 l-102 0 q-7 1 -8 8 q0 8 8 8 l102 0 l0 19 l-86 0 q-6 1 -7 7 q1 7 7 8 l86 0 l0 15 l-68 0 q-12 0 -12 12 l0 23 q0 12 12 12 l68 0 l0 15 l-100 0 ZM197 82 l-58 0 l0 -19 l64 0 l0 13 q0 6 -6 6 ZM197 29 q6 0 6 6 l0 12 l-64 0 l0 -18 l58 0 ZM194 145 l-55 0 l0 -19 l55 0 q4 1 4 4 l0 11 q0 4 -4 4 ZM58 141 l0 -11 q0 -3 4 -4 l54 0 l0 19 l-54 0 q-4 0 -4 -4 Z" /><glyph glyph-name="" unicode="&#x4e8c;" d="M39 154 q-12 1 -13 13 q1 11 13 12 l178 0 q11 -1 12 -12 q-1 -12 -12 -13 l-178 0 ZM21 -4 q-11 1 -13 12 q1 12 13 13 l214 0 q12 -1 13 -13 q-2 -11 -13 -12 l-214 0 Z" /><glyph glyph-name="" unicode="&#x4e8e;" d="M37 171 q-11 1 -12 12 q1 10 12 11 l183 0 q11 -1 12 -11 q-1 -11 -12 -12 l-76 0 l0 -61 l94 0 q11 -1 12 -12 q-1 -11 -12 -12 l-94 0 l0 -74 q2 -39 -36 -39 q-3 0 -13 0 q-15 -1 -21 -1 q-13 2 -14 14 q0 10 11 11 q14 0 27 0 q23 -2 21 21 l0 68 l-102 0 q-11 1 -12 12 q1 11 12 12 l102 0 l0 61 l-82 0 Z" /><glyph glyph-name="" unicode="&#x4e8f;" d="M16 114 q-10 1 -11 11 q1 10 11 11 l223 0 q10 -1 11 -11 q-1 -10 -11 -11 l-157 0 l-9 -33 q-2 -5 4 -5 l128 0 q13 -2 15 -15 q-1 -11 -3 -30 q-1 -10 -1 -14 q-3 -44 -53 -43 q-7 0 -23 0 q-17 -1 -25 -1 q-13 2 -14 14 q0 11 11 11 q23 0 45 0 q31 -2 33 22 q2 15 3 28 q0 6 -6 6 l-132 0 q-10 1 -11 10 q0 4 2 12 q-2 -5 0 2 l11 36 l-41 0 ZM39 172 q-11 0 -11 12 q1 10 11 11 l180 0 q9 -1 11 -11 q-1 -11 -11 -12 l-180 0 Z" /><glyph glyph-name="" unicode="&#x4e91;" d="M18 96 q-11 1 -12 11 q1 11 12 12 l221 0 q10 -1 11 -12 q-1 -10 -11 -11 l-112 0 q-38 -52 -64 -80 q-2 -4 3 -5 q7 0 25 1 q64 2 95 3 q-13 18 -30 39 q-6 9 3 15 q9 6 16 -2 q31 -35 58 -71 q7 -10 -2 -19 q-10 -6 -19 4 q-4 6 -9 13 q-95 -4 -157 -8 q-15 0 -20 10 q-3 12 6 20 q34 35 63 80 l-77 0 ZM39 171 q-11 1 -12 12 q1 10 12 11 l178 0 q10 -1 11 -11 q-1 -11 -11 -12 l-178 0 Z" /><glyph glyph-name="" unicode="&#x4e92;" d="M26 172 q-9 1 -10 11 q1 10 10 11 l204 0 q10 -1 11 -11 q-1 -10 -11 -11 l-149 0 l-5 -35 l120 0 q15 -1 14 -15 l-7 -116 l34 0 q10 -1 11 -11 q-1 -10 -11 -11 l-218 0 q-10 1 -11 11 q1 10 11 11 l159 0 l2 38 l-126 0 q-14 1 -14 15 l16 113 l-30 0 ZM179 115 l-106 0 l-7 -43 q0 -6 6 -6 l110 0 l3 43 q0 6 -6 6 Z" /><glyph glyph-name="" unicode="&#x4e94;" d="M24 173 q-10 1 -11 12 q1 10 11 11 l207 0 q11 -1 12 -11 q-1 -11 -12 -12 l-115 0 l-10 -60 l90 0 q15 0 15 -14 l0 -95 l29 0 q10 -1 11 -12 q-1 -10 -11 -11 l-224 0 q-10 1 -11 11 q1 11 11 12 l45 0 l15 87 l-47 0 q-10 1 -11 11 q1 10 11 11 l51 0 l10 60 l-66 0 ZM179 91 l-77 0 l-15 -87 l99 0 l0 81 q0 6 -7 6 Z" /><glyph glyph-name="" unicode="&#x4e95;" d="M23 137 q-10 1 -11 12 q1 11 11 12 l45 0 l0 39 q1 11 12 12 q11 -1 12 -12 l0 -39 l76 0 l0 39 q1 11 12 12 q12 -1 13 -12 l0 -39 l40 0 q10 -1 11 -12 q-1 -11 -11 -12 l-40 0 l0 -57 l46 0 q10 -1 11 -11 q-1 -10 -11 -11 l-46 0 l0 -78 q-1 -12 -13 -13 q-11 1 -12 13 l0 78 l-76 0 q-2 -56 -49 -85 q-10 -7 -20 1 q-6 9 2 17 q40 24 42 67 l-50 0 q-11 1 -12 11 q1 10 12 11 l51 0 l0 57 l-45 0 ZM92 137 l0 -57 l76 0 l0 57 l-76 0 Z" /><glyph glyph-name="" unicode="&#x4e98;" d="M51 30 q-13 1 -14 15 l0 92 q1 14 14 15 l153 0 q14 0 14 -15 l0 -92 q0 -15 -14 -15 l-153 0 ZM18 -19 q-10 1 -11 10 q1 10 11 11 l220 0 q10 -1 11 -11 q-1 -9 -11 -10 l-220 0 ZM25 177 q-9 1 -10 10 q1 10 10 11 l206 0 q9 -1 10 -11 q-1 -9 -10 -10 l-206 0 ZM189 50 q5 0 5 5 l0 26 l-133 0 l0 -26 q0 -5 5 -5 l123 0 ZM61 127 l0 -27 l133 0 l0 27 q0 4 -5 4 l-123 0 q-5 0 -5 -4 Z" /><glyph glyph-name="" unicode="&#x4e9a;" d="M24 172 q-10 1 -11 11 q1 11 11 12 l208 0 q10 -1 11 -12 q-1 -10 -11 -11 l-60 0 l0 -166 l66 0 q11 -1 12 -12 q-1 -10 -12 -11 l-220 0 q-11 1 -12 11 q1 11 12 12 l65 0 l0 166 l-59 0 ZM107 172 l0 -166 l41 0 l0 166 l-41 0 ZM188 40 q-9 5 -5 15 q23 50 34 81 q5 10 15 6 q10 -4 6 -14 q-16 -41 -36 -82 q-4 -9 -14 -6 ZM64 41 q-11 -4 -15 7 q-13 37 -30 80 q-2 10 6 14 q10 3 15 -6 q6 -15 19 -49 q8 -22 12 -31 q3 -11 -7 -15 Z" /><glyph glyph-name="" unicode="&#x4e9b;" d="M19 69 q-11 -1 -13 10 q-1 11 10 12 q2 1 5 1 q4 1 6 1 l0 85 q1 10 11 11 q10 -1 11 -11 l0 -83 q13 3 28 4 l0 102 q1 9 11 10 q10 -1 11 -10 l0 -34 l29 0 q9 -1 10 -10 q-1 -9 -10 -10 l-29 0 l0 -45 q5 1 14 2 q10 2 15 3 q10 0 11 -9 q1 -9 -9 -12 q-17 -3 -59 -9 q-35 -5 -52 -8 ZM179 73 q-31 -2 -30 33 l0 95 q1 10 11 11 q10 -1 11 -11 l0 -45 q29 14 50 30 q10 5 16 -3 q4 -9 -3 -16 q-30 -18 -63 -34 l0 -23 q-1 -17 17 -16 l19 0 q16 -1 18 14 q1 3 3 14 q-1 -1 0 4 q1 9 11 8 q10 -2 9 -13 q-1 -7 -4 -25 q-5 -24 -34 -23 l-31 0 ZM20 -20 q-10 1 -11 11 q2 10 11 11 l216 0 q9 -1 11 -11 q-1 -10 -11 -11 l-216 0 ZM42 30 q-10 1 -11 11 q1 9 11 10 l170 0 q10 -1 11 -10 q-1 -10 -11 -11 l-170 0 Z" /><glyph glyph-name="" unicode="&#x4ea1;" d="M17 138 q-11 1 -12 12 q1 10 12 11 l113 0 q-2 3 -7 13 q-8 14 -11 18 q-3 11 7 15 q10 4 17 -5 q3 -4 12 -19 q5 -10 7 -13 q1 -4 1 -9 l82 0 q11 -1 12 -11 q-1 -11 -12 -12 l-171 0 l0 -126 q0 -6 6 -6 l154 0 q11 -1 12 -12 q-1 -10 -12 -11 l-171 0 q-13 1 -14 14 l0 141 l-25 0 Z" /><glyph glyph-name="" unicode="&#x4ea4;" d="M27 -30 q-13 -4 -18 8 q-2 12 9 16 q59 14 91 36 q-22 22 -37 48 q-5 12 4 17 q9 5 17 -4 q16 -27 35 -45 q17 16 33 46 q6 10 17 6 q10 -8 4 -18 q-15 -29 -35 -50 q32 -22 87 -34 q13 -4 10 -16 q-2 -11 -18 -9 q-64 16 -98 43 q-36 -27 -101 -44 ZM19 154 q-10 1 -11 11 q1 10 11 11 l102 0 l0 1 q-1 3 -5 10 q-3 6 -5 9 q-3 10 7 14 q11 3 17 -6 q5 -10 10 -20 q0 -4 -1 -8 l93 0 q10 -1 11 -11 q-1 -10 -11 -11 l-218 0 ZM34 78 q-12 -6 -18 4 q-6 9 4 17 q32 19 60 41 q9 8 18 -1 q6 -9 -2 -17 q-26 -21 -62 -44 ZM220 83 q-30 22 -59 40 q-8 7 -3 16 q8 9 17 3 q13 -8 40 -25 q13 -9 20 -13 q9 -6 3 -18 q-7 -9 -18 -3 Z" /><glyph glyph-name="" unicode="&#x4ea6;" d="M19 148 q-10 1 -11 11 q1 10 11 11 l105 0 q-3 3 -3 6 q-4 11 -9 20 q-2 11 9 14 q12 2 17 -8 q5 -10 9 -21 q2 -6 -3 -11 l94 0 q11 -1 12 -11 q-1 -10 -12 -11 l-61 0 l0 -137 q1 -37 -32 -37 q-14 0 -27 0 q-13 1 -14 12 q0 10 10 12 q12 0 21 0 q20 -2 18 18 l0 132 l-43 0 q-1 -15 -1 -38 q1 -97 -69 -138 q-10 -7 -19 1 q-7 9 1 18 q64 34 62 120 q1 5 1 18 q1 13 1 19 l-67 0 ZM240 40 q-9 -4 -16 6 q-1 1 -2 4 q-19 37 -28 52 q-4 10 5 14 q10 5 15 -4 q7 -11 21 -36 q7 -13 11 -19 q4 -10 -6 -17 ZM14 41 q-9 6 -5 16 q11 19 25 54 q6 10 15 6 q9 -4 7 -15 q-11 -25 -26 -56 q-6 -9 -16 -5 Z" /><glyph glyph-name="" unicode="&#x4ea7;" d="M13 -29 q-10 7 -4 18 q24 30 23 84 l0 25 q0 12 12 12 l107 0 q0 2 1 3 q6 8 17 27 q3 5 4 7 q7 10 18 6 q10 -6 4 -16 q-2 -2 -6 -8 q-8 -13 -13 -19 l57 0 q11 0 11 -10 q-1 -10 -11 -11 l-171 0 q-6 0 -6 -6 l0 -12 q0 -57 -26 -96 q-8 -8 -17 -4 ZM20 161 q-10 1 -11 11 q1 10 11 11 l104 0 q-1 2 -2 7 q-2 4 -3 6 q-3 10 8 14 q11 1 16 -8 q4 -10 7 -19 l88 0 q10 -1 11 -11 q-1 -10 -11 -11 l-218 0 ZM102 115 q-9 -5 -18 3 q-10 15 -14 20 q-5 8 3 15 q9 5 17 -3 q1 -2 5 -7 q7 -8 10 -12 q5 -10 -3 -16 Z" /><glyph glyph-name="" unicode="&#x4ea8;" d="M53 90 q-12 0 -12 12 l0 33 q0 12 12 12 l149 0 q13 0 13 -12 l0 -33 q0 -12 -13 -12 l-149 0 ZM80 -30 q-11 1 -12 12 q1 9 10 10 q14 0 27 0 q17 -1 17 14 l0 20 q0 8 7 10 l46 14 q2 2 0 2 l-148 0 q-9 1 -10 10 q1 8 10 9 l190 0 q10 -1 11 -10 q0 -11 -10 -14 l-67 -23 q-5 -2 -5 -8 l0 -16 q0 -29 -31 -29 q-10 -1 -35 -1 ZM16 165 q-8 1 -9 10 q1 9 9 10 l104 0 q-1 3 -4 10 q-2 2 -2 3 q-4 12 10 14 q8 2 13 -6 q4 -8 7 -17 q1 -2 1 -4 l94 0 q9 -1 10 -10 q-1 -9 -10 -10 l-223 0 ZM64 125 l0 -14 q1 -3 4 -4 l120 0 q4 1 4 4 l0 15 q0 4 -4 4 l-120 0 q-3 0 -4 -5 Z" /><glyph glyph-name="" unicode="&#x4eab;" d="M14 18 q-8 1 -9 9 q1 9 9 10 l106 0 q0 8 7 10 l41 13 q1 1 -1 2 l-132 0 q-8 1 -9 9 q1 8 9 9 l173 0 q9 -1 10 -10 q-1 -8 -9 -12 l-59 -20 q-3 0 -3 -1 l94 0 q8 -1 9 -10 q-1 -8 -9 -9 l-97 0 l0 -16 q1 -30 -30 -31 q-23 0 -34 -1 q-10 1 -11 11 q0 9 8 10 q9 -1 27 -1 q17 -1 16 15 l0 13 l-106 0 ZM53 97 q-14 -1 -13 12 l0 28 q0 13 13 13 l148 0 q13 0 13 -13 l0 -28 q0 -12 -13 -12 l-148 0 ZM16 166 q-8 1 -9 9 q1 9 9 10 l103 0 q-1 2 -2 6 q-2 4 -3 6 q-2 12 11 14 q10 1 13 -8 q1 -3 4 -12 q1 -4 2 -6 l96 0 q8 -1 9 -10 q-1 -8 -9 -9 l-224 0 ZM63 128 l0 -10 q1 -4 4 -4 l120 0 q4 0 4 4 l0 10 q0 4 -4 4 l-120 0 q-3 0 -4 -4 Z" /><glyph glyph-name="" unicode="&#x4eac;" d="M50 57 q-12 1 -12 13 l0 52 q0 12 12 12 l156 0 q12 0 12 -12 l0 -52 q0 -13 -12 -13 l-62 0 l0 -52 q1 -33 -31 -33 q-17 0 -24 -1 q-11 1 -13 12 q1 10 10 11 q9 0 18 0 q17 -1 16 14 l0 49 l-70 0 ZM17 158 q-9 1 -10 10 q1 10 10 11 l102 0 q-3 7 -7 16 q-2 13 11 15 q10 2 13 -7 q6 -10 8 -19 q2 -3 0 -5 l95 0 q9 -1 10 -11 q-1 -9 -10 -10 l-222 0 ZM62 109 l0 -27 q1 -3 4 -4 l124 0 q5 0 5 5 l0 26 q0 5 -5 5 l-124 0 q-3 0 -4 -5 ZM27 -14 q-9 -4 -16 4 q-5 8 3 15 q34 20 53 34 q9 4 16 -2 q6 -9 -2 -15 q-25 -18 -54 -36 ZM224 -11 q-3 2 -10 6 q-28 18 -40 25 q-7 6 -3 15 q7 6 16 3 q20 -11 50 -30 q9 -5 4 -16 q-8 -8 -17 -3 Z" /><glyph glyph-name="" unicode="&#x4ead;" d="M55 102 q-13 -1 -12 12 l0 29 q0 12 12 12 l148 0 q13 0 13 -13 l0 -28 q1 -13 -13 -12 l-148 0 ZM232 37 q-10 1 -11 11 l0 14 q0 5 -4 5 l-178 0 q-4 0 -4 -5 l0 -14 q-1 -9 -11 -10 q-11 0 -12 11 l0 24 q0 13 12 13 l207 0 q13 0 13 -13 l0 -25 q-1 -10 -12 -11 ZM50 28 q-8 1 -9 10 q1 8 9 9 l156 0 q8 -1 9 -9 q-1 -9 -9 -10 l-60 0 l0 -26 q1 -31 -29 -30 q-17 0 -32 0 q-10 1 -12 10 q1 9 9 10 q12 -1 24 -1 q17 -1 16 14 l0 23 l-72 0 ZM18 170 q-9 1 -10 10 q1 8 10 9 l98 0 q-1 5 -3 9 q-3 12 11 14 q10 1 12 -7 q1 -2 2 -5 q2 -7 3 -11 l97 0 q9 -1 10 -9 q-1 -9 -10 -10 l-220 0 ZM193 123 l0 10 q0 4 -4 4 l-120 0 q-3 0 -4 -4 l0 -10 q1 -4 4 -4 l120 0 q4 0 4 4 Z" /><glyph glyph-name="" unicode="&#x4eae;" d="M59 102 q-13 -1 -12 13 l0 26 q-1 13 13 12 l135 0 q13 0 13 -12 l0 -26 q0 -13 -13 -13 l-136 0 ZM27 -30 q-12 -3 -17 7 q-1 9 9 13 q55 9 51 43 l0 6 q0 11 10 11 l84 0 q13 0 13 -12 l0 -30 q-1 -14 13 -13 l19 0 q14 -1 16 12 q1 2 1 7 q1 5 1 7 q2 9 12 8 q10 -3 9 -13 q-1 -9 -3 -17 q-4 -24 -33 -23 l-30 0 q-29 -1 -28 27 l0 23 q0 6 -6 5 l-49 0 q-6 1 -7 -6 q0 -44 -65 -55 ZM230 42 q-10 1 -11 10 l0 10 q0 5 -5 5 l-173 0 q-3 0 -4 -5 l0 -11 q-1 -9 -11 -10 q-11 1 -12 11 l0 21 q0 12 12 12 l203 0 q12 0 12 -12 l0 -20 q-1 -10 -11 -11 ZM18 170 q-9 1 -10 9 q1 8 10 9 l100 0 q-3 6 -4 10 q-2 13 11 14 q10 1 13 -7 q1 -3 3 -9 q1 -5 2 -8 l95 0 q8 -1 9 -9 q-1 -8 -9 -9 l-220 0 ZM70 134 l0 -12 q0 -3 3 -4 l109 0 q3 1 3 4 l0 11 q0 4 -3 4 l-109 0 q-2 0 -3 -3 Z" /><glyph glyph-name="" unicode="&#x4eb2;" d="M16 100 q-9 1 -10 11 q1 9 10 10 l66 0 q-1 0 -3 3 q-2 3 -7 10 q-4 7 -6 10 q-5 9 4 15 q11 3 16 -4 q8 -11 14 -22 q4 -6 -1 -12 l52 0 q0 2 1 3 q12 17 20 31 q6 9 17 5 q8 -5 5 -15 q-2 -3 -6 -8 q-7 -10 -12 -16 l64 0 q9 -1 10 -10 q-1 -10 -10 -11 l-98 0 l0 -29 l88 0 q9 -1 10 -11 q-1 -9 -10 -10 l-88 0 l0 -40 q2 -38 -35 -37 q-8 -1 -23 -1 q-11 1 -12 11 q-1 10 9 11 q9 0 19 0 q20 -1 19 19 l0 37 l-94 0 q-8 1 -9 10 q1 10 9 11 l94 0 l0 29 l-103 0 ZM27 163 q-9 1 -10 10 q1 9 10 10 l93 0 q0 3 -2 8 q-2 5 -3 7 q-3 11 10 14 q10 1 13 -7 q5 -12 8 -22 l83 0 q9 -1 10 -10 q0 -9 -10 -10 l-202 0 ZM32 -13 q-10 -6 -17 3 q-5 8 3 15 q24 16 44 32 q10 6 18 -1 q6 -7 -1 -15 q-22 -18 -47 -34 ZM220 -13 q-14 10 -47 32 q-8 8 -2 15 q7 8 16 2 q8 -5 28 -17 q13 -9 19 -13 q8 -8 3 -16 q-7 -7 -17 -3 Z" /><glyph glyph-name="" unicode="&#x4eba;" d="M30 -26 q-10 -7 -19 3 q-6 11 3 18 q88 53 98 152 q1 11 2 34 q1 10 1 16 q1 13 13 12 q11 -1 12 -13 q0 -4 0 -14 q-1 -10 -1 -15 q12 -123 102 -169 q10 -7 4 -19 q-10 -10 -21 -3 q-79 47 -95 136 q-17 -87 -99 -138 Z" /><glyph glyph-name="" unicode="&#x4ec0;" d="M96 100 q-11 1 -12 12 q2 11 12 12 l61 0 l0 74 q1 12 12 13 q12 -1 13 -13 l0 -74 l58 0 q10 -1 11 -12 q-1 -11 -11 -12 l-58 0 l0 -121 q-1 -11 -13 -12 q-11 1 -12 12 l0 121 l-61 0 ZM9 78 q-6 7 0 19 q31 40 55 102 q4 11 17 8 q9 -5 7 -16 q-10 -26 -21 -47 l0 -166 q-1 -10 -12 -11 q-11 1 -12 11 l0 126 q-7 -11 -16 -23 q-8 -8 -18 -3 Z" /><glyph glyph-name="" unicode="&#x4ec1;" d="M10 78 q-8 8 -2 19 q34 49 51 104 q4 11 16 8 q10 -3 7 -16 q-9 -22 -18 -43 l0 -172 q-1 -11 -11 -12 q-11 1 -12 12 l0 126 q-6 -10 -13 -21 q-8 -11 -18 -5 ZM96 -11 q-11 1 -12 13 q1 11 12 12 l143 0 q11 -1 13 -12 q-1 -12 -13 -13 l-143 0 ZM109 155 q-11 1 -12 12 q1 11 12 12 l120 0 q11 -1 12 -12 q-1 -11 -12 -12 l-120 0 Z" /><glyph glyph-name="" unicode="&#x4ec4;" d="M13 -27 q-9 5 -4 18 q25 36 23 113 l0 76 q1 14 14 15 l193 0 q10 -1 11 -11 q-1 -10 -11 -11 l-177 0 q-6 0 -6 -7 l0 -60 q2 -83 -26 -129 q-7 -9 -17 -4 ZM74 -27 q-11 -6 -18 2 q-7 10 3 19 q69 43 76 118 q3 17 3 41 q1 11 12 12 q11 -1 12 -13 q0 -16 -1 -23 q17 -96 81 -133 q10 -7 4 -18 q-7 -10 -19 -3 q-59 40 -74 106 q-14 -62 -79 -108 Z" /><glyph glyph-name="" unicode="&#x4ec5;" d="M92 -28 q-13 -6 -19 4 q-6 11 5 18 q42 22 68 49 q-34 43 -49 118 q0 7 2 9 l-3 0 q-10 1 -11 12 q1 9 11 10 l128 0 q10 0 10 -10 q0 -10 -2 -21 q-18 -76 -54 -119 q25 -26 64 -47 q10 -6 6 -18 q-8 -10 -19 -4 q-40 22 -67 51 q-27 -28 -70 -52 ZM9 86 q-9 6 -1 17 q30 45 49 99 q5 10 15 8 q11 -5 7 -16 q-9 -25 -19 -46 l0 -170 q-1 -11 -12 -12 q-10 1 -11 12 l0 128 q-6 -9 -12 -17 q-6 -9 -16 -3 ZM120 166 q12 -64 43 -105 q30 40 45 104 q1 5 -4 5 l-87 0 q1 0 2 -2 q1 -1 1 -2 Z" /><glyph glyph-name="" unicode="&#x4ec7;" d="M73 -27 q-7 8 -1 19 q43 44 43 135 q0 5 0 9 l-25 0 q-10 1 -11 11 q1 10 11 11 l26 0 q1 21 1 41 q1 11 13 12 q11 -1 11 -12 q0 -18 -1 -41 l49 0 q13 -1 14 -14 l0 -133 q-1 -12 10 -11 l4 0 q9 -1 11 12 q2 17 2 35 q2 8 11 9 q9 -2 9 -12 q-1 -8 -2 -24 q-2 -12 -2 -17 q-4 -28 -29 -27 l-10 0 q-29 -1 -28 31 l0 123 q0 6 -6 6 l-33 0 q-1 -4 -1 -9 q-1 -102 -47 -152 q-8 -8 -19 -2 ZM9 80 q-7 7 -1 19 q25 39 44 101 q4 11 16 9 q11 -6 7 -16 q-7 -23 -16 -44 l0 -171 q-1 -10 -11 -11 q-11 1 -12 11 l0 123 q-5 -9 -11 -18 q-6 -9 -16 -3 Z" /><glyph glyph-name="" unicode="&#x4eca;" d="M144 90 q-11 -6 -18 3 q-9 14 -20 29 q-6 8 2 15 q9 5 16 -3 q17 -19 22 -28 q6 -9 -2 -16 ZM132 -29 q-8 7 -2 17 l49 62 q1 1 1 3 q-1 1 -3 1 l-136 0 q-10 1 -11 11 q1 10 11 11 l162 0 q9 -1 11 -11 q0 -12 -7 -20 l-57 -71 q-10 -9 -18 -3 ZM25 98 q-12 -6 -18 4 q-5 10 5 17 q63 32 99 79 q9 12 18 11 q9 1 17 -11 q37 -49 95 -75 q11 -6 6 -17 q-6 -9 -18 -5 q-57 29 -98 79 q-2 3 -5 0 q-36 -45 -101 -82 Z" /><glyph glyph-name="" unicode="&#x4ecb;" d="M173 -33 q-12 1 -13 13 l0 119 q1 12 13 13 q11 -2 12 -13 l0 -119 q-1 -11 -12 -13 ZM49 -28 q-11 -8 -19 1 q-7 8 0 17 q40 26 39 86 q0 10 0 22 q1 12 12 13 q11 -1 12 -13 q0 -10 0 -22 q2 -70 -44 -104 ZM28 91 q-13 -7 -20 3 q-5 12 6 19 q62 34 96 84 q8 11 18 11 q9 1 17 -11 q31 -49 95 -79 q11 -7 7 -19 q-7 -11 -19 -5 q-61 33 -97 82 q-2 3 -5 0 q-37 -48 -98 -85 Z" /><glyph glyph-name="" unicode="&#x4ecd;" d="M75 -27 q-8 8 -2 19 q41 41 41 139 q0 25 1 40 l-17 0 q-10 1 -11 11 q1 10 11 11 l113 0 q11 -1 12 -12 q0 -12 -6 -22 l-18 -37 q-1 -5 3 -5 l30 0 q9 -2 9 -11 q0 -50 -3 -86 q1 -45 -40 -45 q-17 0 -31 0 q-12 1 -14 12 q1 11 11 12 q3 0 12 0 q9 -1 13 -1 q26 -1 26 27 q2 38 2 64 q0 6 -6 6 l-32 0 q-9 0 -10 11 q0 9 6 19 l19 41 q2 2 1 4 q-1 1 -4 1 l-52 0 q0 -30 -1 -41 q0 -107 -45 -156 q-8 -7 -18 -1 ZM9 80 q-7 5 -2 18 q29 46 46 102 q4 11 16 9 q9 -6 7 -16 q-7 -21 -15 -40 l0 -175 q-1 -10 -12 -11 q-10 1 -11 11 l0 127 q-4 -5 -10 -16 q-2 -4 -3 -6 q-7 -9 -16 -3 Z" /><glyph glyph-name="" unicode="&#x4ece;" d="M103 -26 q-9 -8 -19 0 q-7 8 0 19 q64 56 68 149 q2 34 2 56 q1 12 12 13 q11 -2 12 -13 q0 -21 -1 -44 q11 -113 68 -159 q8 -11 -1 -20 q-9 -6 -19 2 q-45 43 -58 115 q-10 -64 -64 -118 ZM12 -26 q-9 8 -3 20 q42 54 45 148 q2 28 2 56 q1 11 12 12 q12 -1 13 -13 q0 -6 -1 -18 q-1 -28 -2 -46 q9 -9 33 -36 q10 -12 14 -16 q9 -11 0 -19 q-9 -7 -17 1 q-7 8 -27 32 q-4 5 -6 7 q-8 -71 -45 -125 q-9 -8 -18 -3 Z" /><glyph glyph-name="" unicode="&#x4ed3;" d="M87 -23 q-37 0 -37 36 l0 95 q1 13 15 14 l120 0 q13 -1 14 -14 q-2 -30 -3 -42 q0 -34 -36 -33 q-3 0 -15 0 q-12 -1 -16 -1 q-12 1 -14 12 q1 10 11 10 q14 0 27 0 q20 -1 20 15 q0 4 1 13 q0 9 0 13 q0 5 -5 5 l-89 0 q-6 0 -6 -6 l0 -74 q-1 -22 23 -21 l85 0 q24 -1 27 19 q1 4 2 15 q0 -3 1 5 q4 10 15 9 q10 -3 9 -15 q-1 -3 -2 -9 q-3 -13 -4 -18 q-7 -29 -45 -28 l-98 0 ZM28 103 q-12 -5 -18 4 q-5 11 5 18 q59 28 95 74 q7 11 18 10 q9 0 17 -10 q34 -43 95 -70 q11 -7 7 -18 q-6 -10 -19 -5 q-62 31 -97 74 q-2 3 -5 0 q-37 -45 -98 -77 Z" /><glyph glyph-name="" unicode="&#x4ed4;" d="M91 78 q-11 1 -12 12 q1 10 12 11 l71 0 l0 11 q0 12 7 19 l34 38 q3 3 -1 4 l-90 0 q-11 1 -12 11 q1 10 12 11 l113 0 q11 -1 12 -12 q0 -13 -9 -22 l-38 -41 q-3 -3 -4 -10 l0 -9 l54 0 q11 -1 12 -11 q-1 -11 -12 -12 l-54 0 l0 -68 q2 -38 -34 -37 q-16 0 -33 0 q-12 1 -13 12 q0 10 11 11 q15 0 26 0 q20 -1 19 19 l0 63 l-71 0 ZM10 84 q-7 7 -1 19 q30 44 48 97 q5 11 16 9 q11 -5 8 -16 q-9 -24 -19 -45 l0 -169 q-1 -10 -12 -11 q-11 1 -12 11 l0 126 q-6 -9 -12 -18 q-6 -7 -16 -3 Z" /><glyph glyph-name="" unicode="&#x4ed5;" d="M93 111 q-11 1 -12 11 q1 11 12 12 l61 0 l0 64 q1 11 12 12 q11 -1 12 -12 l0 -64 l62 0 q10 -1 11 -12 q-1 -10 -11 -11 l-62 0 l0 -106 l57 0 q10 -1 11 -12 q-1 -10 -11 -11 l-137 0 q-11 1 -12 11 q1 11 12 12 l56 0 l0 106 l-61 0 ZM9 78 q-7 7 -1 19 q34 46 54 104 q5 10 17 8 q10 -5 6 -15 q-7 -21 -21 -48 l0 -168 q-1 -11 -11 -12 q-11 1 -12 12 l0 127 q-2 -4 -8 -12 q-5 -8 -8 -12 q-8 -8 -16 -3 Z" /><glyph glyph-name="" unicode="&#x4ed6;" d="M189 48 q-11 1 -12 11 q0 10 10 11 l12 0 q14 -1 13 17 q2 26 2 45 q0 5 -5 4 l-35 -10 l0 -96 q-1 -11 -11 -12 q-10 1 -11 12 l0 90 l-38 -11 l0 -90 q-2 -24 23 -22 l59 0 q25 -1 28 18 q2 10 4 22 q2 9 13 8 q10 -2 8 -14 q-2 -18 -6 -29 q-6 -27 -40 -26 l-74 0 q-39 -2 -37 36 l0 90 l-13 -3 q-10 -1 -12 9 q-1 9 9 13 l16 4 l0 50 q1 10 11 11 q10 -1 11 -11 l0 -44 l38 11 l0 58 q1 10 11 11 q10 -1 11 -11 l0 -52 l47 13 q13 3 15 -11 q0 -15 -1 -43 q-1 -17 -1 -23 q-1 -35 -25 -34 q-10 -2 -20 -2 ZM9 80 q-7 7 -1 19 q25 39 47 103 q4 10 15 8 q10 -3 7 -16 q-2 -4 -5 -13 q-4 -10 -14 -34 l0 -170 q-1 -10 -11 -11 q-10 1 -11 11 l0 127 q-6 -11 -12 -20 q-6 -8 -15 -4 Z" /><glyph glyph-name="" unicode="&#x4ed7;" d="M89 142 q-11 1 -12 12 q2 10 12 11 l84 0 l0 34 q1 11 12 12 q11 -1 12 -12 l-1 -34 l43 0 q9 -1 11 -11 q-1 -11 -11 -12 l-43 0 l0 -1 q-1 -70 -27 -106 q27 -22 71 -38 q12 -6 8 -18 q-5 -9 -19 -6 q-45 19 -75 43 q-22 -22 -62 -45 q-11 -6 -19 4 q-4 12 5 18 q37 19 58 41 q-28 31 -40 79 q-2 12 7 16 q10 2 15 -8 q10 -41 34 -69 q19 30 20 90 l-83 0 ZM9 80 q-8 7 -2 19 q30 42 50 102 q4 10 16 8 q9 -5 7 -16 q-9 -25 -20 -48 l0 -167 q-1 -11 -12 -12 q-10 1 -11 12 l0 125 q-2 -3 -6 -9 q-4 -7 -6 -10 q-7 -9 -16 -4 Z" /><glyph glyph-name="" unicode="&#x4ed8;" d="M90 132 q-10 1 -11 11 q1 11 11 12 l98 0 l0 44 q1 11 13 12 q11 -1 12 -12 l0 -44 l24 0 q11 -1 12 -12 q-1 -10 -12 -11 l-24 0 l0 -122 q1 -37 -36 -38 q-14 0 -32 0 q-12 1 -14 12 q1 11 11 12 q8 -1 25 -1 q22 -1 21 20 l0 117 l-98 0 ZM26 84 q-8 -8 -17 -2 q-7 9 0 20 q30 42 49 99 q4 10 17 8 q9 -4 7 -16 q-9 -22 -19 -45 l0 -170 q-1 -10 -12 -11 q-10 1 -11 11 l0 127 q-8 -10 -14 -21 ZM147 42 q-11 -6 -17 3 q-19 26 -36 45 q-5 8 3 16 q8 5 16 -2 q26 -31 36 -45 q6 -9 -2 -17 Z" /><glyph glyph-name="" unicode="&#x4ed9;" d="M106 -17 q-15 0 -15 14 l0 154 q1 11 11 12 q11 -1 12 -12 l0 -139 q0 -6 6 -6 l32 0 l0 194 q1 10 12 11 q10 -1 11 -11 l0 -194 l34 0 q6 0 6 6 l0 139 q1 11 11 12 q11 0 11 -12 l0 -154 q0 -14 -14 -14 l-117 0 ZM9 82 q-7 7 -1 19 q30 49 47 102 q4 9 16 7 q9 -4 7 -15 q-2 -5 -6 -15 q-4 -10 -14 -33 l0 -169 q-1 -9 -11 -11 q-10 1 -11 11 l0 126 q-6 -9 -11 -18 q-7 -9 -16 -4 Z" /><glyph glyph-name="" unicode="&#x4edf;" d="M109 165 q-11 -1 -13 11 q-1 9 10 12 q58 2 123 8 q10 0 13 -10 q1 -11 -10 -12 q-23 -3 -50 -4 l0 -68 l58 0 q11 -1 12 -12 q-1 -11 -12 -12 l-58 0 l0 -100 q-2 -11 -13 -12 q-10 1 -12 12 l0 100 l-63 0 q-10 2 -12 12 q2 11 12 12 l63 0 l0 66 q-24 -1 -48 -3 ZM8 81 q-7 8 -1 19 q29 39 52 103 q5 9 16 7 q9 -5 7 -16 q-9 -23 -19 -44 l0 -172 q-1 -11 -11 -12 q-11 1 -12 12 l0 130 q-7 -12 -15 -23 q-7 -9 -17 -4 Z" /><glyph glyph-name="" unicode="&#x4ee3;" d="M90 103 q-11 -1 -13 10 q-1 11 10 13 l46 5 q-2 20 -4 70 q1 11 12 12 q11 -2 12 -13 q2 -34 3 -66 l79 9 q10 0 13 -10 q0 -11 -10 -13 l-80 -9 q5 -60 20 -89 q13 -28 29 -27 q11 -1 15 18 q2 13 5 23 q1 10 12 9 q10 -3 9 -14 q-1 -10 -6 -29 q-7 -32 -34 -32 q-30 -1 -50 40 q-19 33 -24 98 l-44 -5 ZM9 82 q-8 7 -2 18 q32 45 53 103 q5 9 16 7 q11 -5 7 -16 q-1 -2 -3 -6 q-5 -17 -17 -40 l0 -170 q-1 -11 -12 -12 q-10 1 -11 12 l0 128 q-7 -12 -15 -22 q-7 -8 -16 -2 ZM208 155 q-12 12 -30 26 q-6 8 0 15 q9 6 17 0 q4 -4 17 -14 q9 -7 12 -10 q7 -8 1 -16 q-8 -7 -17 -1 Z" /><glyph glyph-name="" unicode="&#x4ee4;" d="M155 -30 q-47 31 -92 58 q-7 5 -3 14 q6 8 16 3 q15 -8 53 -30 l52 48 q3 4 -1 4 l-140 0 q-10 1 -11 10 q1 10 11 11 l165 0 q12 -1 13 -12 q0 -11 -10 -19 l-58 -54 q3 -2 10 -6 q6 -4 9 -6 q9 -7 5 -17 q-9 -10 -19 -4 ZM26 102 q-11 -6 -18 4 q-5 11 7 18 q60 30 95 76 q10 12 17 11 q7 1 18 -12 q33 -45 94 -72 q12 -6 8 -18 q-6 -10 -19 -5 q-61 31 -97 76 q-3 3 -5 0 q-44 -48 -100 -78 ZM145 98 q-11 -6 -17 2 q-1 1 -2 3 q-16 18 -21 23 q-5 7 3 15 q8 6 16 -2 q2 -3 8 -9 q11 -12 14 -16 q6 -9 -1 -16 Z" /><glyph glyph-name="" unicode="&#x4ee5;" d="M114 -28 q-12 -6 -20 4 q-5 10 5 19 q91 41 89 141 q2 34 2 59 q1 11 12 13 q11 -1 13 -13 q-1 -10 -1 -29 q-1 -20 -1 -30 q-3 -49 -16 -81 q7 -7 23 -25 q18 -21 25 -29 q8 -12 -1 -20 q-11 -7 -20 3 q-6 7 -19 25 q-14 17 -20 24 q-23 -34 -71 -61 ZM32 -4 q-8 5 -8 19 l0 178 q2 11 13 12 q11 -1 12 -12 l0 -159 q0 -2 1 -3 q2 0 4 1 q22 14 47 32 q11 6 18 -2 q6 -11 -5 -19 q-20 -15 -62 -43 q-12 -7 -20 -4 ZM134 137 q-10 -5 -18 5 q-15 31 -26 48 q-4 9 4 15 q10 4 17 -4 q4 -7 14 -23 q9 -17 13 -24 q6 -11 -4 -17 Z" /><glyph glyph-name="" unicode="&#x4eea;" d="M94 -29 q-12 -4 -19 5 q-6 10 4 18 q42 21 67 46 q-31 38 -46 95 q-1 5 -4 15 q-3 13 -4 19 q-2 11 9 14 q10 2 13 -8 q1 -6 5 -18 q2 -10 3 -14 q12 -51 40 -85 q31 35 44 94 q3 11 5 26 q5 11 14 9 q11 -3 9 -14 q0 -4 -2 -13 q-2 -10 -3 -14 q-16 -64 -50 -106 q24 -23 62 -44 q9 -6 5 -18 q-9 -10 -19 -5 q-43 25 -65 49 q-23 -25 -68 -51 ZM9 79 q-8 7 -2 19 q32 46 51 104 q5 10 16 8 q9 -4 7 -15 q-1 -2 -2 -5 q-11 -30 -19 -45 l0 -167 q-1 -11 -11 -12 q-10 1 -11 12 l0 125 q-6 -10 -14 -21 q-6 -7 -15 -3 ZM173 146 q-10 -4 -16 6 q-11 30 -17 42 q-4 9 6 14 q10 3 15 -7 q1 -3 4 -9 q10 -22 14 -31 q4 -10 -6 -15 Z" /><glyph glyph-name="" unicode="&#x4eec;" d="M171 -28 q-12 1 -14 12 q0 10 10 12 q3 0 12 0 q9 -1 13 -1 q23 0 22 22 l0 146 q0 5 -6 5 l-43 0 q-10 1 -11 12 q1 10 11 11 l59 0 q13 -1 14 -14 l0 -165 q1 -40 -35 -40 q-15 0 -32 0 ZM9 82 q-7 6 -1 18 q27 46 44 101 q5 12 16 8 q10 -4 7 -15 q-8 -23 -17 -44 l0 -172 q-1 -11 -11 -12 q-11 1 -12 12 l0 126 q-1 -2 -3 -4 q-2 -6 -8 -14 q-5 -9 -15 -4 ZM105 -31 q-11 1 -12 12 l0 159 q1 11 12 12 q11 -1 12 -12 l0 -159 q-1 -11 -12 -12 ZM135 162 q-9 -6 -17 4 q-2 2 -7 8 q-8 11 -12 15 q-4 9 3 16 q10 4 17 -3 q3 -3 10 -11 q7 -9 9 -12 q6 -10 -3 -17 Z" /><glyph glyph-name="" unicode="&#x4ef0;" d="M166 -33 q-10 1 -11 11 l0 194 q1 14 14 15 l54 0 q15 0 15 -15 l0 -134 q1 -30 -26 -31 q-6 -1 -22 -1 q-9 1 -12 11 q1 10 10 11 q7 -1 13 -1 q16 0 15 16 l0 118 q0 5 -4 5 l-30 0 q-5 0 -5 -5 l0 -183 q-1 -10 -11 -11 ZM10 80 q-7 6 -3 18 q26 44 42 105 q5 10 16 8 q10 -3 7 -16 q-7 -22 -16 -45 l0 -172 q-1 -10 -11 -11 q-10 1 -11 11 l0 124 q-4 -9 -9 -17 q-6 -8 -15 -5 ZM108 8 q-21 -9 -21 14 l0 156 q0 9 9 12 q6 1 24 7 q12 4 16 5 q9 4 15 -4 q5 -11 -4 -15 q-24 -8 -34 -10 q-4 -2 -4 -8 l0 -128 q0 -4 3 -3 q18 9 26 14 q10 3 14 -6 q4 -9 -6 -15 q-3 -2 -11 -6 q-18 -9 -27 -13 Z" /><glyph glyph-name="" unicode="&#x4ef2;" d="M102 44 q-14 1 -15 16 l0 84 q1 15 15 16 l50 0 l0 40 q1 10 11 11 q11 -1 12 -11 l0 -40 l49 0 q15 -1 16 -16 l0 -82 q-1 -17 -18 -18 l-47 0 l0 -66 q-1 -11 -12 -12 q-10 1 -11 12 l0 66 l-50 0 ZM9 83 q-7 6 -2 18 q28 43 47 102 q5 10 16 8 q10 -5 6 -16 q-7 -24 -18 -46 l0 -171 q-1 -10 -11 -11 q-10 1 -11 11 l0 127 q-2 -2 -4 -7 q-5 -7 -7 -10 q-6 -9 -16 -5 ZM212 138 l-37 0 l0 -73 l37 0 q6 0 6 6 l0 61 q0 6 -6 6 ZM109 132 l0 -61 q0 -6 6 -6 l37 0 l0 73 l-37 0 q-6 0 -6 -6 Z" /><glyph glyph-name="" unicode="&#x4ef6;" d="M88 92 q-10 4 -7 15 q19 38 28 77 q3 10 14 9 q10 -4 8 -15 q-3 -12 -7 -24 l38 0 l0 46 q1 11 12 12 q11 -1 12 -12 l0 -46 l47 0 q11 -1 12 -11 q-1 -10 -12 -11 l-47 0 l0 -58 l54 0 q11 -1 12 -12 q-1 -10 -12 -11 l-54 0 l0 -73 q-1 -11 -12 -12 q-11 1 -12 12 l0 73 l-76 0 q-11 1 -12 11 q1 11 12 12 l76 0 l0 58 l-45 0 q-3 -10 -11 -29 q-1 -3 -2 -5 q-6 -10 -16 -6 ZM10 80 q-8 7 -2 19 q30 46 46 103 q5 10 16 8 q10 -5 7 -15 q-5 -18 -17 -45 l0 -172 q-1 -10 -11 -11 q-10 1 -11 11 l0 126 q-2 -3 -6 -10 q-4 -6 -6 -10 q-6 -8 -16 -4 Z" /><glyph glyph-name="" unicode="&#x4ef7;" d="M10 81 q-9 8 -2 19 q30 45 45 102 q5 10 16 8 q11 -5 7 -15 q-7 -24 -16 -45 l0 -172 q-1 -11 -12 -12 q-10 1 -11 12 l0 125 q-6 -9 -11 -18 q-6 -9 -16 -4 ZM90 106 q-10 -6 -17 3 q-7 10 3 17 q45 30 68 70 q6 12 16 11 q10 0 16 -11 q23 -41 68 -66 q10 -6 4 -18 q-7 -8 -18 -2 q-42 25 -68 65 q-2 3 -4 0 q-22 -36 -68 -69 ZM80 -28 q-7 10 0 17 q34 29 32 90 l0 22 q1 11 12 12 q11 -1 12 -12 l0 -23 q2 -70 -37 -105 q-9 -8 -19 -1 ZM195 -32 q-11 1 -12 12 l0 121 q1 11 12 12 q11 -1 12 -12 l0 -121 q-1 -11 -12 -12 Z" /><glyph glyph-name="" unicode="&#x4efb;" d="M93 77 q-10 1 -11 11 q1 10 11 11 l63 0 l0 68 q-27 -1 -53 -3 q-11 1 -13 11 q1 10 10 12 q37 1 115 8 q10 1 15 1 q10 1 13 -10 q1 -11 -10 -13 q-6 0 -21 -2 q-21 -1 -31 -2 l0 -70 l59 0 q11 -1 12 -11 q-1 -10 -12 -11 l-59 0 l0 -73 l56 0 q10 -1 11 -11 q-1 -10 -11 -11 l-139 0 q-11 1 -12 11 q1 10 12 11 l58 0 l0 73 l-63 0 ZM10 81 q-8 8 -2 20 q32 45 50 100 q6 11 17 8 q9 -4 6 -15 q-9 -23 -18 -44 l0 -172 q-1 -10 -12 -11 q-10 1 -11 11 l0 128 q-7 -10 -15 -21 q-6 -8 -15 -4 Z" /><glyph glyph-name="" unicode="&#x4efd;" d="M92 -28 q-10 -7 -18 1 q-7 8 2 17 q43 33 44 94 l-17 0 q-10 1 -11 11 q1 9 11 10 l100 0 q13 -1 14 -14 q0 -10 -1 -33 q-1 -33 -2 -46 q-1 -39 -40 -39 q-3 0 -12 -1 q-9 0 -13 0 q-12 1 -14 12 q1 10 10 11 q12 0 21 0 q24 -1 24 22 q0 4 1 13 q2 33 2 48 q0 6 -5 6 l-45 0 q0 -72 -51 -112 ZM9 84 q-8 8 -1 19 q29 39 48 98 q5 12 16 8 q9 -3 7 -15 q-7 -20 -21 -51 l0 -165 q-1 -11 -12 -12 q-10 1 -11 12 l0 124 q-1 -2 -5 -7 q-3 -5 -5 -7 q-5 -9 -16 -4 ZM227 108 q-39 32 -59 85 q-2 10 7 14 q10 2 15 -7 q17 -45 54 -75 q7 -8 1 -18 q-10 -7 -18 1 ZM90 101 q-9 -9 -18 -1 q-6 9 1 18 q33 31 51 75 q5 9 16 7 q10 -6 6 -15 q-19 -45 -56 -84 Z" /><glyph glyph-name="" unicode="&#x4eff;" d="M91 147 q-10 1 -11 11 q1 10 11 11 l66 0 q0 1 0 1 q-1 1 -1 1 q-4 15 -8 25 q-3 12 8 14 q12 2 17 -8 q2 -7 7 -22 q2 -3 2 -4 q0 -3 -1 -7 l60 0 q10 -1 11 -11 q-1 -10 -11 -11 l-98 0 l-2 -36 l76 0 q15 0 15 -15 q-2 -49 -4 -78 q0 -44 -41 -44 q-12 0 -25 0 q-13 1 -14 11 q0 10 10 12 q14 0 24 0 q23 -2 23 25 q1 12 2 43 q1 12 1 18 q0 6 -6 6 l-61 0 q-4 -70 -46 -115 q-9 -9 -18 -2 q-8 8 -2 18 q43 41 43 110 l1 47 l-28 0 ZM10 79 q-8 7 -1 19 q31 46 48 102 q4 11 16 9 q10 -4 7 -16 q-3 -6 -7 -19 q-7 -17 -10 -25 l0 -171 q-1 -11 -12 -12 q-10 1 -11 12 l0 126 q-8 -11 -14 -22 q-6 -7 -16 -3 Z" /><glyph glyph-name="" unicode="&#x4f01;" d="M21 -20 q-10 1 -11 11 q1 10 11 11 l28 0 l0 84 q1 11 12 12 q11 -1 12 -12 l0 -84 l49 0 l0 122 q1 11 12 12 q11 -1 12 -12 l0 -41 l63 0 q9 -1 10 -11 q-1 -10 -10 -11 l-63 0 l0 -59 l86 0 q10 -1 11 -11 q-1 -10 -11 -11 l-211 0 ZM27 103 q-12 -5 -18 5 q-5 10 5 17 q61 29 97 74 q11 12 19 11 q9 0 17 -11 q33 -44 94 -71 q11 -6 6 -18 q-5 -10 -18 -4 q-64 33 -96 74 q-4 2 -6 0 q-39 -45 -100 -77 Z" /><glyph glyph-name="" unicode="&#x4f0a;" d="M80 112 q-10 1 -11 10 q1 9 11 10 l46 0 l0 43 l-31 0 q-9 -1 -10 10 q1 9 10 10 l117 0 q15 -1 16 -15 l0 -48 l13 0 q9 -1 10 -10 q0 -9 -10 -10 l-13 0 l0 -49 q-1 -14 -16 -15 l-69 0 q-8 -42 -49 -74 q-8 -7 -17 0 q-7 8 1 18 q32 24 41 56 l-32 0 q-9 1 -10 10 q1 9 10 10 l36 0 q1 8 2 27 q1 8 1 13 l0 4 l-46 0 ZM8 81 q-4 3 -4 9 q0 5 2 10 q30 46 48 100 q4 10 15 9 q10 -4 8 -14 q-1 -3 -3 -7 q-7 -20 -17 -42 l0 -167 q-1 -11 -11 -12 q-10 1 -11 12 l0 125 q-2 -3 -6 -9 q-4 -7 -6 -10 q-6 -8 -15 -4 ZM149 106 q0 -22 -2 -38 l51 0 q7 0 7 7 l0 37 l-56 0 l0 -6 ZM150 175 q0 -21 0 -43 l55 0 l0 35 q0 8 -7 8 l-48 0 Z" /><glyph glyph-name="" unicode="&#x4f0d;" d="M95 172 q-10 1 -11 11 q1 10 11 11 l138 0 q10 -1 11 -11 q-1 -10 -11 -11 l-78 0 l-8 -61 l64 0 q14 0 14 -14 l0 -93 l15 0 q10 -1 11 -11 q-1 -10 -11 -11 l-160 0 q-10 1 -11 11 q1 10 11 11 l29 0 l11 85 l-26 0 q-9 1 -10 11 q1 10 10 11 l29 0 l8 61 l-36 0 ZM9 81 q-5 3 -5 9 q0 5 2 10 q29 48 45 100 q6 11 15 9 q11 -4 8 -14 q-1 -2 -2 -7 q-8 -25 -13 -36 l0 -175 q-1 -10 -11 -11 q-11 1 -12 11 l0 128 q-2 -5 -8 -14 q-2 -4 -3 -6 q-6 -8 -16 -4 ZM197 89 l-53 0 l-11 -85 l69 0 l0 80 q0 5 -5 5 Z" /><glyph glyph-name="" unicode="&#x4f0e;" d="M91 151 q-10 1 -11 11 q1 9 11 10 l60 0 l0 29 q1 10 11 11 q11 -1 12 -11 l0 -29 l64 0 q9 -1 10 -10 q-1 -10 -10 -11 l-64 0 l0 -36 l47 0 q12 -1 13 -12 q0 -9 -5 -18 q-20 -37 -47 -62 q24 -15 58 -27 q11 -6 6 -18 q-5 -8 -18 -5 q-40 16 -66 35 q-28 -21 -70 -37 q-13 -5 -19 5 q-4 10 6 17 q39 15 64 31 q-24 21 -43 61 q-2 3 0 10 l-8 0 q-9 1 -10 10 q1 9 10 10 l59 0 l0 36 l-60 0 ZM8 80 q-4 3 -4 9 q-1 5 2 9 q31 42 51 104 q5 10 15 8 q10 -3 8 -14 q-9 -24 -19 -45 l0 -174 q-1 -10 -11 -11 q-10 1 -11 11 l0 130 q-7 -12 -15 -23 q-6 -8 -16 -4 ZM121 94 q16 -35 41 -56 q23 19 43 51 q2 5 -3 6 l-82 0 q1 -1 1 -1 Z" /><glyph glyph-name="" unicode="&#x4f0f;" d="M85 114 q-10 1 -11 11 q1 10 11 11 l60 0 q1 22 1 65 q2 11 13 12 q11 -2 11 -12 q0 -48 -1 -65 l69 0 q11 -1 12 -11 q-1 -10 -12 -11 l-68 0 q11 -75 70 -116 q9 -9 3 -20 q-9 -9 -20 -1 q-50 39 -65 101 q-12 -63 -65 -105 q-11 -6 -19 2 q-6 10 2 18 q61 44 67 121 l-58 0 ZM9 81 q-5 2 -5 9 q0 5 2 9 q33 47 52 102 q6 10 15 8 q11 -3 9 -14 q-10 -25 -21 -48 l0 -169 q-1 -10 -12 -11 q-10 1 -11 11 l0 127 q-2 -3 -6 -10 q-5 -7 -7 -11 q-6 -7 -16 -3 ZM230 156 q-8 -7 -16 1 q-2 2 -10 11 q-9 9 -12 12 q-6 6 1 14 q6 5 15 0 q17 -17 23 -22 q6 -9 -1 -16 Z" /><glyph glyph-name="" unicode="&#x4f10;" d="M89 115 q-9 -1 -12 10 q1 10 10 12 l44 5 q-1 10 -1 29 q-1 19 -1 29 q1 11 11 12 q12 -1 13 -12 q0 -30 1 -56 l80 9 q10 -1 12 -10 q-1 -10 -10 -12 l-80 -8 q3 -33 9 -61 q23 15 51 44 q8 8 17 3 q7 -7 1 -17 q-28 -29 -61 -53 q15 -42 35 -44 q10 -2 13 12 q2 6 5 22 q1 4 1 6 q3 10 13 9 q10 -4 8 -14 q-2 -19 -6 -33 q-8 -27 -31 -27 q-37 0 -59 56 q-25 -16 -54 -29 q-12 -4 -17 6 q-4 10 5 16 q32 14 59 30 q-7 26 -10 59 q0 2 -1 6 q0 4 -1 6 l-44 -5 ZM10 77 q-4 3 -5 9 q0 5 3 10 q35 48 54 104 q5 11 16 9 q10 -4 8 -15 q-10 -25 -21 -47 l0 -169 q-1 -11 -12 -12 q-10 1 -11 12 l0 126 q-4 -6 -13 -18 q-2 -3 -3 -5 q-6 -8 -16 -4 ZM205 162 q-14 10 -28 22 q-7 5 -2 14 q8 6 15 2 q7 -4 21 -15 q6 -4 8 -6 q7 -8 1 -15 q-7 -7 -15 -2 Z" /><glyph glyph-name="" unicode="&#x4f11;" d="M88 134 q-11 1 -12 11 q1 11 12 12 l59 0 l0 43 q1 11 12 12 q10 -1 11 -12 l0 -43 l64 0 q10 -1 11 -12 q-1 -10 -11 -11 l-60 0 q22 -64 69 -103 q9 -9 3 -19 q-9 -10 -18 -1 q-38 36 -58 86 l0 -119 q-1 -10 -11 -11 q-11 1 -12 11 l0 119 q-19 -46 -62 -90 q-8 -8 -17 0 q-7 9 -1 17 q53 46 76 110 l-55 0 ZM9 83 q-3 1 -5 9 q0 5 3 9 q32 45 50 101 q4 9 16 8 q10 -4 8 -14 q-10 -27 -21 -48 l0 -170 q-1 -11 -11 -12 q-10 1 -12 12 l0 127 q-6 -9 -12 -18 q-6 -9 -16 -4 Z" /><glyph glyph-name="" unicode="&#x4f17;" d="M28 105 q-10 -6 -18 4 q-5 10 5 17 q59 28 96 72 q10 11 18 11 q9 0 17 -11 q31 -42 95 -67 q10 -5 6 -18 q-7 -10 -18 -4 q-62 28 -98 70 q-2 3 -5 0 q-39 -44 -98 -74 ZM117 -27 q-9 -8 -18 1 q-7 9 1 17 q53 37 57 96 q2 14 2 25 q1 10 12 11 q11 -1 12 -11 q0 -2 -1 -6 q0 -5 -1 -7 q11 -64 61 -102 q8 -8 2 -19 q-9 -7 -20 -1 q-41 37 -51 77 q-11 -46 -56 -81 ZM30 -24 q-10 -8 -19 0 q-8 10 1 17 q46 36 53 86 q1 4 2 17 q1 10 1 14 q1 11 12 12 q12 -1 11 -12 q0 -12 -2 -25 q30 -27 39 -36 q7 -7 1 -17 q-8 -7 -16 -1 q-12 14 -29 29 q-11 -49 -54 -84 Z" /><glyph glyph-name="" unicode="&#x4f18;" d="M85 123 q-10 1 -11 11 q1 10 11 11 l42 0 q0 8 0 26 q1 18 1 28 q1 11 12 12 q11 -1 12 -12 q0 -10 -1 -27 q0 -18 -1 -27 l85 0 q10 -1 11 -11 q-1 -10 -11 -11 l-58 0 q5 -3 5 -10 l0 -100 q-1 -14 14 -13 l11 0 q14 -1 16 16 q3 18 3 29 q2 10 13 9 q10 -3 10 -14 q-1 -5 -2 -15 q-3 -16 -4 -21 q-4 -27 -33 -27 l-20 0 q-32 -1 -31 31 l0 105 q0 7 5 10 l-15 0 l0 -3 q-3 -86 -58 -144 q-8 -9 -18 -1 q-7 8 -1 19 q51 50 53 127 l0 2 l-40 0 ZM9 83 q-4 1 -4 9 q0 5 3 9 q34 48 50 100 q4 9 15 7 q10 -3 8 -14 q-10 -27 -21 -49 l0 -167 q-1 -11 -12 -12 q-10 1 -11 12 l0 125 q-6 -8 -12 -17 q-7 -8 -16 -3 ZM204 160 q-2 1 -5 5 q-15 13 -22 18 q-7 7 0 14 q7 7 16 1 q20 -15 27 -22 q8 -6 0 -15 q-6 -8 -16 -1 Z" /><glyph glyph-name="" unicode="&#x4f19;" d="M93 -27 q-9 -6 -19 2 q-6 11 3 19 q68 50 69 150 q0 10 1 30 q0 18 0 26 q1 11 12 12 q11 -1 12 -12 q0 -10 -1 -30 q0 -20 -1 -29 q11 -97 73 -142 q9 -10 2 -21 q-9 -9 -19 -1 q-52 43 -66 109 q-11 -67 -66 -113 ZM8 78 q-3 1 -5 9 q0 6 3 10 q30 40 54 104 q4 10 15 9 q10 -5 8 -15 q-10 -25 -21 -47 l0 -170 q-1 -10 -11 -11 q-11 1 -12 11 l0 128 q-2 -4 -7 -12 q-5 -9 -8 -13 q-7 -8 -16 -3 ZM195 92 q-8 6 -3 16 q20 29 28 44 q6 9 16 5 q8 -6 5 -15 q-18 -30 -30 -46 q-5 -9 -16 -4 ZM117 90 q-11 -3 -16 6 q-8 19 -23 45 q-4 9 5 14 q9 4 15 -5 q1 -2 3 -6 q16 -27 21 -38 q4 -11 -5 -16 Z" /><glyph glyph-name="" unicode="&#x4f1a;" d="M23 50 q-10 1 -11 11 q1 10 11 11 l210 0 q9 -1 10 -11 q-1 -10 -10 -11 l-114 0 q-34 -39 -46 -47 q-2 -4 2 -4 q43 2 101 5 q-3 3 -9 10 q-6 6 -9 9 q-7 7 1 14 q8 5 16 -1 q33 -31 48 -48 q6 -8 -1 -16 q-9 -6 -17 1 q-2 2 -6 6 q-3 4 -4 5 q-9 0 -31 -2 q-69 -3 -106 -5 q-15 0 -19 9 q-2 11 7 20 q21 18 43 44 l-66 0 ZM27 105 q-10 -6 -18 4 q-4 11 6 17 q62 31 96 73 q9 10 17 10 q9 0 18 -10 q32 -43 95 -69 q10 -5 6 -17 q-6 -11 -19 -5 q-58 28 -97 72 q-2 3 -5 0 q-40 -45 -99 -75 ZM71 102 q-10 1 -11 11 q1 10 11 11 l113 0 q10 -1 11 -11 q-1 -10 -11 -11 l-113 0 Z" /><glyph glyph-name="" unicode="&#x4f1e;" d="M21 23 q-11 1 -12 11 q1 10 12 11 l94 0 l0 91 q2 11 13 12 q11 -1 12 -12 l0 -91 l96 0 q10 -1 11 -11 q-1 -10 -11 -11 l-96 0 l0 -45 q-1 -11 -12 -12 q-11 1 -13 12 l0 45 l-94 0 ZM139 207 q33 -48 104 -77 q12 -6 8 -17 q-5 -10 -15 -7 q-68 33 -106 78 q-2 2 -4 0 q-38 -47 -103 -79 q-11 -4 -16 6 q-3 11 6 16 q68 32 104 80 q6 6 11 6 q6 0 11 -6 ZM163 66 q-7 7 0 16 q16 14 27 25 q8 7 17 1 q8 -8 1 -16 q-14 -14 -28 -26 q-8 -7 -17 0 ZM88 65 q-8 -7 -17 2 q-3 4 -13 15 q-7 8 -10 11 q-7 8 1 15 q8 6 17 -1 q6 -7 24 -25 q6 -9 -2 -17 Z" /><glyph glyph-name="" unicode="&#x4f1f;" d="M184 -2 q-10 1 -12 11 q1 10 10 10 q9 0 17 0 q16 0 17 12 q0 14 0 27 q1 4 -5 4 l-48 0 l0 -84 q-1 -11 -12 -12 q-10 1 -12 12 l0 84 l-57 0 q-10 1 -11 11 q1 10 11 11 l57 0 l0 27 l-45 0 q-9 1 -10 11 q1 10 10 10 l45 0 l0 27 l-50 0 q-9 1 -10 11 q1 10 10 10 l50 0 l0 21 q1 10 12 11 q11 -1 12 -11 l0 -21 l68 0 q9 -1 10 -10 q-1 -10 -10 -11 l-68 0 l0 -27 l58 0 q10 0 10 -10 q-1 -10 -10 -11 l-58 0 l0 -27 l64 0 q12 -1 13 -14 q0 -19 -2 -41 q1 -31 -34 -31 q-9 0 -20 0 ZM10 78 q-5 2 -5 9 q0 5 2 9 q33 55 47 105 q4 11 15 8 q10 -3 8 -14 q-7 -23 -16 -44 l0 -173 q-1 -11 -12 -12 q-10 1 -11 12 l0 126 q-6 -12 -13 -22 q-6 -8 -15 -4 Z" /><glyph glyph-name="" unicode="&#x4f20;" d="M96 155 q-9 1 -10 11 q1 9 10 10 l37 0 q3 12 6 24 q5 13 15 10 q11 -1 9 -13 q-1 -5 -4 -14 q-1 -5 -2 -7 l76 0 q9 -1 10 -10 q-1 -10 -10 -11 l-81 0 q-3 -7 -6 -20 q-2 -7 -3 -10 l98 0 q9 -1 10 -10 q0 -9 -10 -10 l-104 0 q-2 -7 -5 -18 q-1 -4 -2 -6 q-1 -5 4 -5 l88 0 q10 -1 13 -11 q1 -10 -7 -17 l-44 -44 q3 -2 9 -5 q11 -6 16 -8 q10 -6 5 -16 q-5 -10 -17 -5 q-26 15 -77 41 q-14 7 -21 11 q-8 5 -4 13 q7 8 16 5 q8 -4 24 -12 q19 -8 28 -13 l38 37 q3 4 -1 4 l-83 0 q-12 1 -13 11 q-1 7 2 16 q0 1 2 5 q2 5 5 17 l-29 0 q-10 1 -11 10 q1 9 11 10 l35 0 q5 15 8 30 l-31 0 ZM11 80 q-5 3 -5 9 q0 5 2 10 q28 46 47 101 q3 10 15 9 q10 -4 8 -15 q-2 -5 -5 -14 q-8 -22 -13 -33 l0 -166 q0 -12 -11 -12 q-10 1 -11 12 l0 122 q-1 -3 -5 -9 q-4 -7 -6 -10 q-8 -8 -16 -4 Z" /><glyph glyph-name="" unicode="&#x4f24;" d="M225 111 q14 -2 14 -14 q0 -23 -2 -59 q-1 -12 -1 -17 q-1 -48 -47 -49 q-12 -1 -31 -1 q-11 1 -12 12 q1 10 10 11 q15 0 31 0 q25 -1 27 29 q2 28 3 62 q0 5 -5 5 l-53 0 q-2 -72 -61 -116 q-10 -6 -18 1 q-8 8 0 17 q54 38 55 98 l-45 0 q-9 1 -9 11 q1 9 9 10 l47 0 q0 12 0 22 q1 12 13 13 q10 -1 11 -13 q0 -10 -1 -22 l65 0 ZM10 77 q-5 3 -5 9 q0 5 2 9 q28 44 47 105 q4 10 15 9 q11 -4 9 -15 q-2 -5 -6 -16 q-2 -7 -11 -27 l0 -173 q-1 -11 -12 -12 q-10 1 -11 12 l0 124 q-6 -10 -12 -21 q-6 -8 -16 -4 ZM81 120 q-6 8 -1 17 q27 33 41 66 q5 10 16 7 q11 -3 7 -14 q-1 -4 -6 -12 q-2 -4 -3 -6 l105 0 q10 -1 11 -11 q-1 -10 -11 -11 l-117 0 q-6 -9 -20 -28 q-3 -5 -5 -7 q-7 -7 -17 -1 Z" /><glyph glyph-name="" unicode="&#x4f26;" d="M140 -23 q-37 -2 -35 35 l0 93 q1 11 11 12 q11 -1 12 -12 l0 -38 q45 20 71 39 q10 6 17 -1 q6 -9 -2 -16 q-34 -24 -86 -45 l0 -27 q-1 -19 21 -18 l39 0 q18 -1 22 18 q0 3 1 9 q2 11 3 17 q2 11 13 9 q10 -3 10 -15 q-1 -4 -3 -14 q-2 -13 -3 -18 q-5 -29 -37 -28 l-54 0 ZM10 81 q-5 3 -5 9 q-1 5 2 10 q32 46 50 101 q4 10 15 9 q10 -4 8 -15 q-9 -25 -19 -46 l0 -171 q-1 -11 -11 -12 q-10 1 -12 12 l0 127 q-2 -2 -5 -7 q-5 -9 -8 -13 q-6 -8 -15 -4 ZM96 111 q-10 -6 -17 1 q-7 10 1 17 q41 27 66 66 q9 12 16 12 q7 1 16 -12 q27 -39 67 -63 q9 -7 3 -18 q-7 -8 -18 -2 q-35 22 -66 64 q-1 2 -3 0 q-23 -34 -65 -65 Z" /><glyph glyph-name="" unicode="&#x4f2a;" d="M148 215 q9 -1 11 -9 q-1 -10 -1 -30 q-1 -21 -1 -31 l68 0 q14 0 14 -14 q0 -10 -1 -31 q-1 -60 -2 -82 q-1 -44 -40 -44 q-15 0 -33 0 q-12 0 -12 12 q1 11 11 12 q13 0 26 0 q25 -2 24 26 q3 34 3 93 q0 6 -6 6 l-54 0 q-7 -94 -66 -150 q-10 -8 -18 -2 q-7 9 -1 15 q57 55 63 137 l-48 0 q-10 1 -11 11 q1 10 11 11 l50 0 q1 10 1 31 q1 20 1 31 q1 7 11 8 ZM9 79 q-5 3 -5 9 q-1 5 2 9 q30 48 48 104 q4 10 15 9 q11 -3 9 -14 q-9 -25 -19 -48 l0 -171 q-1 -10 -11 -11 q-10 1 -11 11 l0 128 q-2 -5 -8 -14 q-3 -5 -5 -8 q-7 -8 -15 -4 ZM197 44 q-8 -6 -15 2 q-3 4 -13 16 q-8 9 -12 14 q-5 8 2 14 q8 5 15 -2 q1 -2 5 -5 q15 -17 20 -24 q6 -8 -2 -15 ZM120 155 q-9 -4 -15 3 q-2 4 -8 12 q-6 8 -9 11 q-4 7 3 12 q8 4 14 -2 q1 -1 4 -5 q10 -11 13 -16 q5 -9 -2 -15 Z" /><glyph glyph-name="" unicode="&#x4f2b;" d="M10 77 q-3 2 -4 8 q-1 5 2 10 q31 52 47 105 q4 10 15 8 q11 -3 9 -14 q-3 -7 -8 -23 q-6 -15 -9 -23 l0 -170 q-1 -11 -12 -12 q-10 1 -11 12 l0 124 q-3 -7 -11 -18 q-1 -2 -2 -3 q-6 -10 -16 -4 ZM98 104 q-10 1 -11 12 l0 39 q0 14 14 14 l53 0 q-2 5 -8 19 q-4 7 -5 10 q-4 10 7 14 q12 3 16 -6 q4 -7 16 -31 q0 -1 0 -2 q1 -3 0 -4 l49 0 q14 0 14 -14 l0 -39 q-1 -11 -12 -12 q-11 1 -12 12 l0 25 q0 6 -6 6 l-97 0 q-5 0 -5 -6 l0 -25 q-2 -11 -13 -12 ZM90 -14 q-11 1 -12 12 q1 11 12 12 l148 0 q11 -1 12 -12 q-1 -11 -12 -12 l-148 0 Z" /><glyph glyph-name="" unicode="&#x4f2f;" d="M112 -22 q-14 1 -15 16 l0 165 q1 14 15 15 l28 0 q1 3 3 10 q4 15 6 20 q3 10 15 9 q11 -2 10 -14 q-4 -11 -9 -25 l56 0 q15 -1 16 -15 l0 -164 q0 -17 -17 -17 l-108 0 ZM9 79 q-5 3 -5 9 q0 5 2 10 q29 42 49 104 q5 10 16 8 q10 -4 8 -14 q-9 -25 -19 -48 l0 -171 q-1 -10 -12 -11 q-10 1 -11 11 l0 127 q-6 -10 -13 -21 q-6 -8 -15 -4 ZM206 -1 q7 0 7 7 l0 61 l-92 0 l0 -61 q1 -6 6 -7 l79 0 ZM121 146 l0 -58 l92 0 l0 58 q0 7 -7 7 l-79 0 q-5 -1 -6 -7 Z" /><glyph glyph-name="" unicode="&#x4f30;" d="M87 140 q-10 1 -11 11 q1 10 11 11 l64 0 l0 40 q1 11 12 12 q11 -1 12 -12 l0 -40 l66 0 q10 -1 11 -11 q-1 -10 -11 -11 l-66 0 l0 -48 l44 0 q13 -1 14 -14 l0 -84 q-2 -14 -16 -16 l-108 0 q-14 1 -16 16 l0 84 q0 14 14 14 l44 0 l0 48 l-64 0 ZM8 81 q-4 1 -4 9 q0 5 2 9 q32 50 51 104 q3 10 15 8 q10 -3 8 -14 q-9 -24 -20 -48 l0 -171 q-1 -11 -12 -12 q-10 1 -11 12 l0 127 q-2 -3 -6 -10 q-5 -7 -7 -11 q-7 -8 -16 -3 ZM116 65 l0 -58 q1 -5 7 -6 l79 0 q6 1 7 6 l0 58 q0 5 -5 5 l-82 0 q-6 0 -6 -5 Z" /><glyph glyph-name="" unicode="&#x4f34;" d="M94 95 q-10 1 -11 11 q1 10 11 11 l57 0 l0 83 q1 11 11 12 q11 -1 12 -12 l0 -83 l58 0 q10 -1 11 -11 q-1 -10 -11 -11 l-58 0 l0 -37 l66 0 q10 -1 11 -11 q-1 -10 -11 -11 l-66 0 l0 -58 q-1 -11 -12 -12 q-10 1 -11 12 l0 58 l-67 0 q-10 1 -11 11 q1 10 11 11 l67 0 l0 37 l-57 0 ZM9 80 q-3 3 -4 9 q0 5 2 9 q31 46 50 103 q4 10 15 9 q12 -5 8 -15 q-8 -24 -19 -48 l0 -169 q-1 -11 -11 -12 q-11 1 -12 12 l0 126 q-3 -5 -10 -15 q-2 -4 -3 -5 q-6 -8 -16 -4 ZM197 133 q-7 6 -3 14 q7 8 20 28 q2 4 3 5 q6 9 16 5 q8 -6 4 -15 q-16 -24 -23 -34 q-8 -8 -17 -3 ZM125 133 q-9 -4 -15 5 q-12 20 -21 32 q-4 9 4 14 q9 4 15 -4 q13 -19 22 -31 q4 -10 -5 -16 Z" /><glyph glyph-name="" unicode="&#x4f38;" d="M102 30 q-15 1 -16 15 l0 110 q1 12 15 13 l49 0 l0 33 q1 11 12 12 q10 -1 11 -12 l0 -33 l50 0 q14 0 14 -13 l0 -110 q0 -15 -15 -15 l-49 0 l0 -52 q-1 -10 -11 -11 q-11 1 -12 11 l0 52 l-48 0 ZM9 80 q-4 3 -4 9 q-1 5 2 9 q25 39 47 102 q2 10 14 9 q11 -5 9 -14 q-6 -15 -16 -42 q-3 -6 -4 -9 l0 -167 q-1 -10 -11 -11 q-11 1 -12 11 l0 122 l-9 -15 q-5 -9 -16 -4 ZM209 148 l-36 0 l0 -40 l42 0 l0 34 q0 6 -6 6 ZM109 142 l0 -34 l41 0 l0 40 l-35 0 q-6 0 -6 -6 ZM208 50 q7 0 7 6 l0 33 l-42 0 l0 -39 l35 0 ZM109 56 q0 -6 6 -6 l35 0 l0 39 l-41 0 l0 -33 Z" /><glyph glyph-name="" unicode="&#x4f3c;" d="M147 -28 q-9 -5 -18 3 q-6 10 3 17 q73 40 70 145 q2 30 2 57 q1 10 11 11 q10 -1 11 -11 q0 -10 -1 -30 q0 -19 0 -27 q-3 -62 -17 -95 q23 -25 38 -43 q8 -11 1 -19 q-9 -7 -18 1 q-20 27 -32 41 q-15 -24 -50 -50 ZM9 79 q-4 2 -5 9 q0 5 2 9 q31 50 46 105 q4 9 14 8 q11 -4 8 -14 q-7 -25 -16 -46 l0 -173 q-1 -11 -11 -12 q-10 1 -11 12 l0 126 q-6 -11 -12 -20 q-6 -8 -15 -4 ZM95 14 q-5 4 -5 21 l0 143 q1 11 11 12 q10 -1 11 -12 l0 -129 q1 -5 5 -3 q24 14 38 26 q11 5 16 -4 q4 -9 -8 -18 q-10 -8 -33 -23 q-10 -7 -16 -11 q-13 -8 -19 -2 ZM170 135 q-9 -4 -15 5 q-3 5 -10 18 q-10 21 -14 29 q-3 10 5 14 q9 4 15 -5 q5 -8 16 -29 q6 -11 8 -16 q4 -10 -5 -16 Z" /><glyph glyph-name="" unicode="&#x4f3d;" d="M184 -15 q-12 1 -13 14 l0 168 q1 12 13 13 l42 0 q11 -1 12 -14 l0 -167 q-1 -13 -12 -14 l-42 0 ZM141 169 q12 -1 13 -14 q0 -28 -1 -70 q0 -56 -1 -78 q-2 -34 -32 -34 l-18 0 q-11 1 -11 10 q1 10 10 11 q4 -1 16 -1 q14 -2 14 18 q2 47 2 131 q1 6 -5 6 l-19 0 q0 -7 -1 -20 q0 -11 0 -16 q-2 -96 -29 -135 q-6 -8 -16 -2 q-6 6 -1 17 q24 38 26 119 q0 17 1 37 l-18 0 q-9 1 -10 10 q1 11 10 11 l18 0 q0 17 0 32 q1 9 11 10 q9 -1 10 -10 q0 -15 0 -32 l31 0 ZM8 82 q-3 2 -4 8 q0 3 3 11 q24 43 38 101 q3 9 13 8 q10 -3 8 -13 q-6 -23 -14 -44 l0 -176 q-1 -11 -10 -12 q-10 1 -11 12 l0 126 q-4 -9 -9 -18 q-6 -9 -14 -3 ZM214 6 q5 0 5 6 l0 143 q0 4 -5 4 l-19 0 q-5 0 -5 -4 l0 -143 q0 -6 5 -6 l19 0 Z" /><glyph glyph-name="" unicode="&#x4f46;" d="M109 40 q-14 0 -14 14 l0 128 q0 13 14 13 l109 0 q14 0 14 -13 l0 -128 q0 -14 -14 -14 l-109 0 ZM10 82 q-5 3 -5 9 q0 5 2 9 q28 42 47 101 q4 9 15 7 q10 -3 8 -14 q-9 -27 -19 -49 l0 -167 q-1 -11 -12 -12 q-10 1 -11 12 l0 123 q-4 -7 -10 -15 q-6 -8 -15 -4 ZM202 61 q6 0 6 6 l0 40 l-89 0 l0 -40 q0 -6 5 -6 l78 0 ZM119 169 l0 -41 l89 0 l0 41 q0 5 -6 5 l-77 0 q-6 0 -6 -5 ZM84 -17 q-10 1 -11 11 q1 10 11 11 l156 0 q10 -1 11 -11 q-1 -10 -11 -11 l-156 0 Z" /><glyph glyph-name="" unicode="&#x4f4d;" d="M84 -20 q-10 1 -11 11 q1 10 11 11 l78 0 q25 68 40 119 q6 10 16 8 q10 -4 8 -15 q-8 -23 -26 -74 q-9 -27 -13 -38 l54 0 q10 -1 11 -11 q-1 -10 -11 -11 l-157 0 ZM10 81 q-5 3 -5 9 q0 5 3 9 q31 52 47 102 q3 10 15 9 q10 -4 8 -14 q-1 -3 -4 -10 q-4 -13 -13 -34 l0 -175 q-1 -11 -11 -12 q-11 1 -12 12 l0 128 q-3 -6 -10 -17 q-1 -2 -2 -3 q-5 -9 -16 -4 ZM90 144 q-10 1 -11 11 q1 10 11 11 l66 0 q0 1 -1 1 q-1 4 -5 16 q-4 11 -5 15 q-3 11 9 13 q11 1 15 -8 q3 -8 11 -32 q0 -3 0 -5 l56 0 q10 -1 11 -11 q-1 -10 -11 -11 l-146 0 ZM137 21 q-11 -2 -14 9 q-7 23 -24 80 q-1 3 -1 4 q-4 10 7 15 q11 2 15 -8 q4 -11 2 -7 q18 -54 24 -77 q2 -12 -9 -16 Z" /><glyph glyph-name="" unicode="&#x4f4e;" d="M110 -12 q-9 -3 -16 3 q-3 4 -3 15 l0 169 q1 15 15 16 q88 4 124 9 q10 1 13 -9 q1 -10 -9 -13 q-3 0 -9 -1 q-26 -1 -41 -3 q0 -19 2 -59 l54 0 q10 0 10 -10 q-1 -10 -10 -11 l-53 0 q3 -55 21 -85 q7 -10 13 -10 q5 0 7 9 q1 3 2 13 q1 9 1 12 q3 9 11 8 q9 -2 9 -12 q-1 -5 -2 -15 q-2 -14 -3 -19 q-5 -22 -25 -22 q-21 1 -33 25 q-19 33 -24 96 l-50 0 l0 -75 q0 -4 4 -3 q3 1 13 7 q12 7 16 9 q9 4 13 -6 q3 -10 -7 -14 q-1 -2 -3 -2 q2 -1 3 -3 q2 -2 6 -7 q8 -9 13 -15 q4 -8 -3 -15 q-9 -5 -16 3 q-3 4 -10 14 q-5 6 -7 9 q-2 2 -2 5 q-13 -6 -24 -13 ZM9 82 q-5 4 -5 10 q0 5 3 9 q32 46 50 101 q5 10 15 8 q10 -4 8 -14 q-10 -27 -21 -49 l0 -170 q-1 -10 -11 -11 q-10 1 -11 11 l0 130 q-6 -11 -13 -20 q-6 -9 -15 -5 ZM163 115 q-2 34 -2 58 q-23 -1 -41 -3 q-5 -1 -6 -6 l0 -49 l49 0 Z" /><glyph glyph-name="" unicode="&#x4f4f;" d="M96 144 q-10 1 -11 11 q1 10 11 11 l62 0 q0 1 0 1 q-3 13 -10 31 q-3 10 8 14 q11 3 15 -7 q2 -4 6 -17 q5 -13 6 -17 q0 -2 0 -5 l52 0 q10 -1 11 -11 q-1 -10 -11 -11 l-57 0 l0 -55 l50 0 q10 -1 11 -11 q-1 -10 -11 -11 l-50 0 l0 -63 l63 0 q10 -1 11 -11 q-1 -10 -11 -11 l-152 0 q-10 1 -11 11 q1 10 11 11 l65 0 l0 63 l-51 0 q-10 1 -11 11 q1 10 11 11 l51 0 l0 55 l-58 0 ZM9 78 q-5 3 -5 9 q0 5 3 9 q33 48 54 106 q4 10 15 8 q12 -3 8 -14 q-4 -12 -14 -33 q-3 -8 -5 -12 l0 -174 q-1 -11 -12 -12 q-11 1 -12 12 l0 130 q-7 -13 -16 -25 q-6 -9 -16 -4 Z" /><glyph glyph-name="" unicode="&#x4f50;" d="M87 146 q-10 1 -11 11 q1 10 11 11 l44 0 q2 6 5 20 q2 8 3 13 q2 11 14 10 q11 -3 9 -13 q-3 -15 -8 -30 l85 0 q10 -1 11 -11 q-1 -10 -11 -11 l-91 0 q-9 -26 -21 -50 l102 0 q10 -1 11 -10 q-1 -10 -11 -11 l-46 0 l0 -71 l58 0 q10 -1 11 -11 q-1 -10 -11 -11 l-152 0 q-9 1 -10 11 q1 10 10 11 l71 0 l0 71 l-44 0 q-14 -23 -32 -47 q-8 -7 -16 0 q-7 8 -1 18 q37 42 57 100 l-37 0 ZM8 80 q-5 3 -5 9 q0 5 3 9 q35 55 51 103 q5 10 15 8 q10 -3 8 -14 q-12 -31 -20 -48 l0 -170 q-1 -10 -12 -11 q-10 1 -11 11 l0 127 q-2 -3 -6 -10 q-5 -6 -7 -10 q-6 -8 -16 -4 Z" /><glyph glyph-name="" unicode="&#x4f51;" d="M89 147 q-10 1 -11 11 q1 9 11 10 l50 0 q6 18 12 38 q3 7 13 5 q9 -3 8 -12 q-2 -6 -6 -18 q-3 -9 -4 -13 l77 0 q10 -1 11 -10 q-1 -10 -11 -11 l-86 0 q-11 -24 -23 -47 l88 0 q13 -1 14 -14 l0 -93 q-2 -14 -15 -16 l-94 0 q-16 0 -16 17 l0 72 q-13 -17 -28 -35 q-8 -6 -16 -1 q-6 9 -2 15 q45 51 69 102 l-41 0 ZM8 83 q-5 3 -5 9 q0 5 3 9 q30 44 51 100 q5 10 15 8 q10 -3 8 -14 q-12 -28 -22 -50 l0 -166 q-1 -10 -12 -11 q-10 1 -11 11 l0 124 q-2 -3 -7 -10 q-2 -5 -4 -7 q-6 -7 -16 -3 ZM204 -2 q5 0 5 6 l0 69 q0 6 -5 6 l-70 0 q-3 0 -4 -6 l0 -69 q1 -5 4 -6 l70 0 Z" /><glyph glyph-name="" unicode="&#x4f53;" d="M85 140 q-10 1 -11 11 q1 9 11 10 l59 0 l0 40 q1 10 11 11 q10 -1 11 -11 l0 -40 l64 0 q10 -1 11 -10 q-1 -10 -11 -11 l-52 0 q24 -61 66 -99 q8 -9 2 -18 q-8 -9 -17 -1 q-41 42 -63 102 l0 -87 l31 0 q10 0 10 -10 q-1 -10 -10 -11 l-31 0 l0 -38 q-1 -11 -11 -12 q-10 1 -11 12 l0 38 l-31 0 q-9 1 -10 11 q1 10 10 10 l31 0 l0 85 q-21 -58 -62 -103 q-8 -7 -17 0 q-8 9 1 18 q45 45 67 103 l-48 0 ZM8 80 q-3 1 -5 9 q0 5 3 9 q30 48 48 101 q4 10 15 9 q11 -4 8 -14 q-9 -27 -19 -49 l0 -168 q-1 -10 -11 -11 q-10 1 -11 11 l0 125 q-6 -9 -12 -18 q-6 -8 -16 -4 Z" /><glyph glyph-name="" unicode="&#x4f55;" d="M94 170 q-10 2 -11 11 q1 9 11 11 l147 0 q10 -1 11 -11 q-1 -10 -11 -11 l-12 0 l0 -159 q2 -38 -35 -38 q-6 -1 -25 0 q-7 0 -9 0 q-12 1 -13 12 q1 11 10 10 q15 0 28 0 q22 -1 21 20 l0 155 l-112 0 ZM106 33 q-13 2 -14 13 l0 79 q1 12 14 13 l55 0 q13 -1 14 -13 l0 -79 q-1 -12 -14 -13 l-55 0 ZM9 83 q-5 2 -5 9 q0 5 2 9 q33 51 49 99 q5 10 15 8 q10 -3 8 -14 q-2 -4 -4 -11 q-4 -12 -13 -30 l0 -176 q-1 -10 -11 -11 q-10 1 -11 11 l0 132 q-1 -2 -4 -7 q-3 -5 -10 -15 q-7 -10 -16 -4 ZM149 52 q5 0 5 6 l0 56 q-1 5 -5 5 l-30 0 q-5 0 -6 -5 l0 -56 q1 -5 6 -6 l30 0 Z" /><glyph glyph-name="" unicode="&#x4f57;" d="M140 -24 q-39 -1 -38 38 l0 99 q1 11 12 12 q11 -1 12 -12 l0 -44 q41 16 85 44 q10 6 17 -2 q6 -10 -3 -17 q-36 -23 -99 -49 l0 -26 q-2 -23 22 -21 l43 0 q23 -1 25 18 q0 3 2 12 q1 11 2 16 q1 10 13 9 q11 -3 10 -14 q-3 -16 -5 -34 q-6 -30 -42 -29 l-56 0 ZM9 80 q-5 2 -5 9 q0 5 2 9 q34 54 49 103 q4 10 15 8 q10 -3 8 -14 q-8 -23 -17 -44 l0 -174 q-1 -11 -11 -12 q-10 1 -12 12 l0 129 q-2 -4 -6 -11 q-5 -8 -7 -12 q-7 -8 -16 -3 ZM232 126 q-10 1 -11 10 l0 16 q0 5 -5 5 l-103 0 q-5 0 -5 -5 l0 -15 q-1 -10 -11 -11 q-10 1 -11 11 l0 28 q1 12 14 13 l55 0 q-1 2 -1 3 l-8 18 q-3 10 8 13 q11 1 15 -8 l9 -19 q0 -3 -1 -7 l52 0 q14 -1 15 -13 l0 -29 q-1 -9 -12 -10 Z" /><glyph glyph-name="" unicode="&#x4f58;" d="M28 110 q-11 -4 -18 5 q-4 11 5 17 q62 25 96 66 q11 12 18 11 q9 0 17 -11 q31 -40 93 -64 q11 -6 6 -18 q-6 -9 -18 -5 q-17 9 -32 16 q2 -2 2 -5 q-1 -10 -10 -11 l-118 0 q-10 1 -11 11 q0 1 1 2 q0 2 0 2 q-14 -9 -31 -16 ZM24 59 q-10 1 -11 11 q1 10 11 11 l208 0 q10 -1 11 -11 q-1 -10 -11 -11 l-88 0 l0 -53 q2 -34 -31 -35 q-14 -1 -26 -1 q-11 0 -13 11 q0 10 10 12 l18 0 q18 -1 17 17 l0 49 l-95 0 ZM187 132 q-32 20 -55 49 q-4 2 -5 0 q-24 -29 -58 -49 l118 0 ZM221 -14 q-28 24 -48 40 q-8 7 -2 15 q7 8 17 2 q9 -7 29 -23 q14 -10 20 -15 q8 -7 2 -17 q-8 -8 -18 -2 ZM34 -16 q-10 -6 -18 2 q-6 9 3 16 q26 20 45 41 q9 6 17 0 q7 -7 0 -16 q-8 -7 -26 -23 q-14 -14 -21 -20 Z" /><glyph glyph-name="" unicode="&#x4f59;" d="M28 109 q-10 -4 -17 5 q-5 10 5 17 q62 28 96 68 q9 11 17 10 q9 0 17 -10 q28 -39 93 -65 q11 -6 6 -18 q-7 -9 -18 -5 q-3 2 -10 5 q-5 3 -18 9 q1 -1 1 -3 q-1 -10 -10 -11 l-47 0 l0 -32 l89 0 q10 -1 11 -10 q-1 -10 -11 -11 l-89 0 l0 -52 q2 -35 -32 -35 q-8 -1 -27 -1 q-10 0 -12 11 q1 11 10 12 q9 0 18 0 q20 -1 19 17 l0 48 l-95 0 q-10 1 -11 11 q1 9 11 10 l95 0 l0 32 l-53 0 q-9 1 -10 11 q0 2 1 3 q-3 -2 -8 -5 q-6 -3 -21 -11 ZM127 181 q-26 -28 -59 -49 l120 0 q-33 20 -56 49 q-2 3 -5 0 ZM33 -17 q-9 -6 -17 2 q-6 10 2 17 q19 14 46 41 q8 7 17 1 q8 -9 0 -17 q-9 -9 -31 -28 q-12 -11 -17 -16 ZM221 -14 q-28 24 -48 40 q-8 6 -2 15 q7 6 17 2 q9 -7 29 -23 q14 -10 20 -15 q8 -6 2 -17 q-8 -8 -18 -2 Z" /><glyph glyph-name="" unicode="&#x4f5b;" d="M203 -4 q-8 0 -10 9 q0 9 8 10 q6 0 12 0 q11 -1 12 12 q0 8 0 19 q1 4 -5 4 l-32 0 l0 -69 q-1 -10 -11 -11 q-10 1 -11 11 l0 69 l-30 0 q-5 -47 -46 -77 q-9 -6 -16 2 q-6 10 1 16 q33 23 39 59 l-30 0 q-14 1 -13 14 l5 45 q2 13 14 13 l29 0 l0 34 l-38 0 q-9 1 -10 9 q1 10 10 11 l36 0 l0 24 q1 10 11 11 q10 -1 11 -11 l0 -24 l27 0 l0 24 q1 10 11 11 q10 -1 11 -11 l0 -24 l31 0 q14 0 14 -16 l0 -42 q0 -15 -14 -16 l-31 0 l0 -32 l42 0 q14 0 14 -13 q0 -6 -1 -19 q0 -13 -1 -18 q-1 -23 -23 -24 q-8 0 -16 0 ZM8 80 q-5 3 -5 9 q0 5 2 9 q26 44 43 104 q4 10 15 9 q10 -4 8 -15 q-8 -24 -17 -48 l0 -170 q-1 -11 -11 -12 q-9 1 -10 12 l0 125 q-1 -2 -3 -6 q-2 -4 -8 -13 q-6 -8 -14 -4 ZM139 156 l0 -34 l27 0 l0 34 l-27 0 ZM207 156 l-21 0 l0 -34 l21 0 q6 1 6 7 l0 20 q0 7 -6 7 ZM139 94 q0 -4 0 -12 q-1 -8 -1 -12 l28 0 l0 32 l-27 0 l0 -8 ZM92 75 q-1 -5 4 -5 l20 0 q1 11 1 24 l2 4 l0 4 l-19 0 q-6 0 -6 -4 l-2 -23 Z" /><glyph glyph-name="" unicode="&#x4f5c;" d="M81 100 q-9 7 -2 17 q25 35 43 84 q4 10 15 9 q10 -3 8 -14 q-1 -4 -5 -12 q-3 -8 -5 -12 l106 0 q10 -1 11 -10 q-1 -11 -11 -12 l-77 0 l0 -40 l64 0 q9 -1 10 -11 q-1 -9 -10 -10 l-64 0 l0 -41 l71 0 q9 -1 10 -11 q-1 -10 -10 -11 l-71 0 l0 -48 q-1 -11 -12 -12 q-10 1 -11 12 l0 172 l-16 0 q-12 -25 -26 -46 q-9 -11 -18 -4 ZM9 77 q-4 3 -4 9 q0 5 2 9 q31 48 50 107 q4 10 15 8 q10 -3 8 -14 q-7 -24 -18 -46 l0 -173 q-1 -10 -11 -11 q-10 1 -11 11 l0 128 q-2 -3 -5 -8 q-7 -11 -10 -16 q-6 -9 -16 -4 Z" /><glyph glyph-name="" unicode="&#x4f5f;" d="M93 123 q-10 -6 -17 1 q-6 8 2 17 q26 25 48 65 q5 9 16 5 q9 -5 5 -13 q-1 -2 -3 -6 q-3 -4 -4 -6 l83 0 q11 -1 12 -11 q0 -10 -6 -18 q-19 -28 -43 -47 q23 -12 54 -19 q10 -3 8 -15 q-4 -10 -16 -7 q-40 12 -67 28 q-31 -19 -79 -32 q-11 -1 -14 8 q-3 11 8 15 q38 8 65 22 q-21 19 -33 36 q-5 -7 -17 -20 q-1 -2 -2 -3 ZM9 82 q-5 3 -5 9 q0 5 3 9 q31 44 50 103 q4 9 15 8 q11 -4 8 -14 q-12 -34 -21 -51 l0 -168 q-1 -10 -11 -11 q-10 1 -11 11 l0 127 q-2 -3 -6 -9 q-4 -7 -6 -10 q-6 -8 -16 -4 ZM207 -29 q-59 18 -114 31 q-9 4 -7 14 q4 9 15 8 q13 -3 42 -11 q49 -13 72 -19 q11 -5 7 -15 q-3 -10 -15 -8 ZM198 28 q-49 14 -74 20 q-10 4 -8 13 q3 9 15 8 q15 -3 51 -13 q16 -5 24 -7 q9 -4 7 -14 q-5 -10 -15 -7 ZM126 165 q15 -25 39 -42 q21 13 39 38 q3 4 -3 5 l-74 0 q0 -1 -1 -1 Z" /><glyph glyph-name="" unicode="&#x4f60;" d="M9 78 q-3 1 -5 9 q0 5 3 9 q34 51 51 105 q4 10 16 9 q10 -4 8 -15 q-2 -5 -6 -15 q-4 -10 -14 -33 l0 -170 q-1 -10 -12 -11 q-10 1 -11 11 l0 125 q-2 -3 -6 -10 q-5 -7 -7 -11 q-8 -8 -17 -3 ZM86 110 q-7 7 -3 17 q20 30 38 74 q3 10 15 9 q10 -4 8 -14 q-4 -12 -9 -22 l99 0 q11 -1 12 -10 q0 -7 -3 -18 l-10 -26 q-5 -10 -15 -8 q-11 2 -8 13 l10 23 q-1 4 -4 4 l-92 0 q-10 -21 -22 -40 q-6 -8 -16 -2 ZM122 -28 q-10 -1 -12 11 q-1 11 9 12 l17 0 q18 -1 17 16 l0 113 q1 10 12 11 q11 -1 12 -11 l0 -117 q1 -34 -32 -35 q-11 0 -23 0 ZM240 10 q-12 -2 -16 7 q-7 20 -25 62 q-2 5 -3 7 q-2 10 6 14 q11 2 15 -7 q5 -11 16 -36 q10 -22 14 -31 q3 -11 -7 -16 ZM88 10 q-10 6 -6 16 q14 29 29 65 q4 10 14 8 q9 -4 7 -15 q-12 -33 -29 -68 q-4 -9 -15 -6 Z" /><glyph glyph-name="" unicode="&#x4f69;" d="M63 -27 q-7 3 -4 14 q17 36 16 113 l0 84 q0 14 14 14 l119 0 q14 0 14 -14 l0 -151 q0 -37 9 -37 q5 0 5 9 q2 15 2 30 q1 6 7 5 q6 0 5 -6 q0 -19 -2 -35 q-2 -27 -19 -26 q-25 -1 -25 58 l0 142 q0 6 -6 6 l-98 0 q-6 0 -6 -6 l0 -74 q1 -78 -17 -121 q-4 -9 -14 -5 ZM111 138 q-8 1 -9 9 q1 8 9 9 l75 0 q8 -1 9 -9 q-1 -8 -9 -9 l-29 0 l0 -25 l19 0 q13 0 13 -13 l0 -77 q1 -19 -15 -20 q-5 0 -10 0 q-6 -1 -9 5 l0 -31 q0 -8 -8 -8 q-6 0 -7 8 l0 118 l-14 0 q-5 0 -5 -6 l0 -83 q-1 -7 -7 -8 q-6 1 -7 8 l0 94 q0 13 13 13 l18 0 l0 25 l-27 0 ZM9 83 q-3 3 -4 8 q0 5 3 11 q21 39 34 100 q2 9 13 8 q10 -2 7 -12 q-5 -24 -13 -47 l0 -175 q-1 -9 -9 -10 q-9 1 -10 10 l0 126 q0 -1 -1 -3 q-3 -9 -6 -12 q-5 -9 -14 -4 ZM170 95 l-15 0 l0 -79 q2 6 7 6 q1 0 4 0 q2 -1 3 -1 q6 0 6 7 l0 61 q0 6 -5 6 Z" /><glyph glyph-name="" unicode="&#x4f6c;" d="M95 157 q-8 1 -9 10 q1 9 9 10 l37 0 l0 23 q1 11 11 12 q11 -1 12 -12 l0 -23 l34 0 q10 0 10 -10 q-1 -9 -10 -10 l-34 0 l0 -34 l18 0 q26 23 46 54 q7 9 17 5 q8 -6 3 -16 q-17 -24 -35 -43 l36 0 q9 -1 10 -10 q-1 -9 -10 -10 l-57 0 q-25 -21 -54 -38 l0 -22 q42 15 81 34 q10 4 16 -5 q5 -9 -4 -14 q-47 -21 -93 -36 l0 -9 q-1 -19 19 -18 l45 0 q18 -1 20 15 q0 2 1 5 q2 11 2 16 q2 9 13 8 q12 -4 10 -13 q-2 -12 -4 -25 q-7 -28 -37 -27 l-58 0 q-36 -1 -35 33 l0 45 q-12 -6 -26 -12 q-9 -4 -15 5 q-4 11 5 15 q45 18 79 43 l-72 0 q-9 1 -10 10 q1 9 10 10 l56 0 l0 34 l-37 0 ZM9 82 q-4 2 -5 8 q0 6 3 10 q30 43 49 102 q4 9 15 8 q12 -4 8 -15 q-1 -3 -4 -10 q-11 -30 -18 -44 l0 -164 q-1 -10 -12 -11 q-10 1 -11 11 l0 123 q-4 -8 -10 -14 q-6 -9 -15 -4 Z" /><glyph glyph-name="" unicode="&#x4f70;" d="M97 173 q-10 1 -11 10 q1 9 11 10 l142 0 q10 -1 11 -10 q-1 -9 -11 -10 l-65 0 l-9 -33 l57 0 q13 -2 14 -14 l0 -134 q-1 -12 -14 -14 l-111 0 q-13 1 -14 14 l0 134 q1 13 14 14 l31 0 l7 33 l-52 0 ZM10 83 q-5 3 -5 9 q0 5 3 9 q32 50 47 100 q4 10 15 9 q11 -4 8 -14 q-9 -26 -18 -47 l0 -173 q-1 -10 -12 -11 q-10 1 -11 11 l0 128 q-5 -8 -11 -17 q-6 -8 -16 -4 ZM207 -1 q5 0 5 5 l0 48 l-92 0 l0 -48 q0 -5 5 -5 l82 0 ZM120 114 l0 -42 l92 0 l0 42 q0 5 -5 5 l-82 0 q-5 0 -5 -5 Z" /><glyph glyph-name="" unicode="&#x4f73;" d="M98 39 q-9 1 -10 10 q1 10 10 11 l54 0 l0 19 q1 11 12 12 q11 -1 12 -12 l0 -19 l54 0 q10 -1 11 -11 q-1 -9 -11 -10 l-54 0 l0 -38 l65 0 q10 -1 11 -11 q-1 -10 -11 -11 l-154 0 q-10 1 -11 11 q1 10 11 11 l65 0 l0 38 l-54 0 ZM99 153 q-9 1 -10 11 q1 9 10 10 l53 0 l0 25 q1 11 12 12 q11 -1 12 -12 l0 -25 l52 0 q10 -1 11 -10 q-1 -10 -11 -11 l-52 0 l0 -35 l61 0 q10 -1 11 -11 q-1 -9 -11 -10 l-147 0 q-10 1 -11 10 q1 10 11 11 l62 0 l0 35 l-53 0 ZM9 82 q-5 3 -5 9 q0 6 2 10 q33 45 53 100 q4 10 15 9 q10 -5 8 -15 q-1 -2 -2 -6 q-8 -19 -18 -40 l0 -172 q-1 -11 -12 -12 q-10 1 -12 12 l0 129 q-2 -3 -6 -10 q-5 -6 -7 -10 q-6 -9 -16 -4 Z" /><glyph glyph-name="" unicode="&#x4f76;" d="M107 -23 q-13 1 -14 14 l0 65 q1 13 14 14 l111 0 q13 -1 14 -14 l0 -65 q-1 -13 -14 -14 l-111 0 ZM86 155 q-10 1 -11 10 q1 9 11 10 l65 0 l0 26 q1 11 11 12 q11 -1 12 -12 l0 -26 l67 0 q9 -1 10 -10 q-1 -9 -10 -10 l-67 0 l0 -36 l57 0 q9 -1 10 -10 q-1 -10 -10 -11 l-137 0 q-10 1 -11 11 q1 9 11 10 l57 0 l0 36 l-65 0 ZM10 81 q-5 3 -5 9 q0 5 2 10 q33 50 48 102 q4 9 15 8 q10 -4 8 -14 q-2 -5 -5 -15 q-3 -9 -12 -30 l0 -174 q-1 -11 -11 -12 q-10 1 -12 12 l0 129 q-6 -10 -13 -21 q-6 -8 -15 -4 ZM116 44 l0 -41 q1 -5 6 -6 l81 0 q5 1 6 6 l0 41 q-1 5 -6 6 l-81 0 q-5 -1 -6 -6 Z" /><glyph glyph-name="" unicode="&#x4f7f;" d="M84 160 q-9 1 -10 10 q1 9 10 10 l66 0 l0 22 q1 11 11 12 q11 -1 12 -12 l0 -22 l67 0 q9 -1 10 -10 q-1 -9 -10 -10 l-67 0 l0 -24 l50 0 q13 -1 14 -13 l0 -49 q-1 -12 -14 -13 l-53 0 q-4 -33 -15 -48 q29 -15 84 -19 q10 -3 8 -14 q-4 -10 -15 -8 q-60 7 -92 25 q-17 -15 -54 -27 q-11 -4 -17 5 q-4 11 6 16 q29 8 44 20 q-13 11 -24 26 q-6 8 2 14 q7 4 14 -2 q12 -14 23 -23 q8 10 13 35 l-48 0 q-13 1 -14 13 l0 49 q1 12 14 13 l51 0 l0 24 l-66 0 ZM9 79 q-5 4 -5 10 q0 5 3 9 q28 46 44 103 q5 10 16 8 q10 -4 7 -14 q-9 -27 -18 -50 l0 -168 q-1 -10 -11 -11 q-10 1 -11 11 l0 124 q-4 -9 -10 -17 q-6 -8 -15 -5 ZM149 80 q0 4 0 14 q1 12 1 18 l0 5 l-38 0 q-5 0 -5 -5 l0 -27 q0 -5 5 -5 l37 0 ZM210 80 q5 0 5 5 l0 27 q0 5 -5 5 l-37 0 l0 -3 q0 -19 -1 -34 l38 0 Z" /><glyph glyph-name="" unicode="&#x4f83;" d="M101 103 q-15 1 -16 16 l0 63 q1 14 16 15 l108 0 q15 -1 16 -15 l0 -61 q-1 -17 -17 -18 l-107 0 ZM9 80 q-5 2 -5 8 q0 5 2 10 q26 40 45 104 q3 10 15 8 q11 -3 8 -14 q-9 -26 -18 -50 l0 -169 q-1 -10 -11 -11 q-10 1 -11 11 l0 124 q-3 -4 -7 -11 q-2 -4 -3 -6 q-6 -8 -15 -4 ZM195 124 q5 1 6 7 l0 39 q-1 5 -6 6 l-80 0 q-5 -1 -6 -6 l0 -39 q1 -6 6 -7 l80 0 ZM216 -25 q-25 -1 -24 28 l0 75 q1 9 11 10 q9 -1 10 -10 l0 -71 q-1 -12 8 -11 l3 0 q7 -1 8 11 q1 3 2 14 q1 9 1 12 q1 7 9 6 q8 -1 7 -10 q0 -16 -2 -30 q-4 -25 -25 -24 l-8 0 ZM87 -26 q-7 -7 -16 -1 q-7 7 -1 16 q26 21 24 82 l0 6 q1 10 10 11 q10 -1 11 -11 l0 -7 q1 -71 -28 -96 ZM154 -26 q-10 1 -11 11 l0 93 q1 9 11 10 q9 -1 10 -10 l0 -93 q-1 -10 -10 -11 Z" /><glyph glyph-name="" unicode="&#x4f8b;" d="M89 -26 q-8 -6 -16 1 q-6 8 1 15 q34 32 48 64 q-5 0 -8 2 q-2 2 -10 9 q-9 9 -13 13 q-4 -9 -10 -18 q-6 -7 -14 -3 q-6 7 -2 16 q27 45 36 103 l-16 0 q-9 1 -10 10 q1 9 10 10 l74 0 q10 0 10 -10 q-1 -9 -10 -10 l-38 0 q-3 -18 -7 -34 l32 0 q13 0 13 -12 l0 -3 q-6 -97 -70 -153 ZM8 81 q-3 3 -3 8 q0 5 3 10 q26 46 42 103 q4 10 13 8 q10 -3 8 -12 q-6 -23 -15 -46 l0 -176 q-1 -9 -11 -10 q-9 0 -10 10 l0 128 q-6 -10 -12 -21 q-5 -8 -15 -2 ZM185 -27 q-10 0 -12 11 q1 11 10 12 q5 -1 19 -1 q17 0 16 16 l0 189 q1 10 11 11 q9 -1 10 -11 l0 -193 q1 -33 -28 -33 q-6 -1 -26 -1 ZM185 26 q-8 1 -9 10 l0 132 q1 9 9 10 q9 -1 10 -10 l0 -132 q-1 -9 -10 -10 ZM127 74 q1 -1 2 -2 q6 22 9 45 q1 5 -4 6 l-25 0 q-4 -15 -10 -27 q6 -4 25 -19 q2 -2 3 -3 Z" /><glyph glyph-name="" unicode="&#x4f8d;" d="M97 158 q-10 1 -11 10 q1 9 11 10 l54 0 l0 23 q2 11 12 12 q11 -1 12 -12 l0 -23 l55 0 q10 0 10 -10 q0 -9 -10 -10 l-55 0 l0 -32 l66 0 q10 -1 11 -10 q-1 -9 -11 -10 l-158 0 q-9 1 -10 10 q1 9 10 10 l68 0 l0 32 l-54 0 ZM86 56 q-10 1 -11 11 q1 9 11 10 l100 0 l0 10 q1 11 12 12 q11 -1 12 -12 l0 -10 l31 0 q9 -1 10 -10 q-1 -10 -10 -11 l-31 0 l0 -51 q1 -33 -34 -33 q-4 0 -15 -1 q-11 0 -15 0 q-10 0 -12 12 q1 11 10 11 q12 0 25 0 q18 -1 17 17 l0 45 l-100 0 ZM8 82 q-5 3 -5 9 q0 6 3 9 q31 45 51 102 q4 10 15 8 q10 -3 8 -14 q-9 -24 -19 -45 l0 -174 q-1 -10 -11 -11 q-11 1 -12 11 l0 131 q-6 -11 -14 -22 q-7 -9 -16 -4 ZM139 8 q-8 -7 -16 1 q-12 10 -25 23 q-6 8 1 15 q8 5 16 -1 q3 -3 13 -12 q9 -8 12 -11 q5 -9 -1 -15 Z" /><glyph glyph-name="" unicode="&#x4f91;" d="M89 158 q-10 1 -11 11 q1 9 11 10 l41 0 q3 6 8 20 q1 3 2 4 q4 10 14 9 q11 -4 9 -14 q-1 -3 -3 -8 q-1 -2 -5 -11 l86 0 q9 -1 10 -10 q-1 -10 -10 -11 l-95 0 q-6 -14 -14 -26 l83 0 q14 -1 15 -16 l0 -115 q1 -27 -28 -28 q-11 0 -27 0 q-11 0 -11 10 q-1 9 10 10 q12 0 21 0 q15 -1 14 13 l0 18 l-84 0 l0 -46 q-1 -11 -11 -12 q-10 1 -11 12 l0 114 q-9 -10 -19 -21 q-9 -6 -16 2 q-5 9 3 18 q30 28 50 67 l-32 0 ZM10 78 q-5 3 -5 9 q-1 4 2 10 q32 49 48 105 q4 10 15 8 q10 -3 8 -14 q-9 -26 -19 -50 l0 -169 q-1 -10 -11 -11 q-10 1 -11 11 l0 125 q-6 -9 -12 -20 q-7 -8 -15 -4 ZM125 68 l0 -27 l84 0 l0 27 l-84 0 ZM125 107 l0 -21 l84 0 l0 21 q-1 5 -6 6 l-73 0 q-5 0 -5 -6 Z" /><glyph glyph-name="" unicode="&#x4f9b;" d="M90 137 q-10 1 -11 11 q0 10 11 10 l22 0 l0 43 q0 12 11 12 q10 -1 11 -12 l0 -43 l51 0 l0 43 q1 11 11 12 q11 -1 12 -12 l0 -43 l24 0 q10 -1 11 -10 q-1 -10 -11 -11 l-24 0 l0 -66 l32 0 q10 -1 11 -11 q-1 -10 -11 -11 l-162 0 q-9 1 -10 11 q1 10 10 11 l34 0 l0 66 l-22 0 ZM8 83 q-3 3 -4 9 q0 5 2 9 q32 47 49 101 q4 10 15 7 q10 -3 8 -14 q-9 -23 -18 -44 l0 -174 q-1 -11 -12 -12 q-10 1 -11 12 l0 130 q-3 -5 -10 -15 q-2 -4 -3 -5 q-6 -8 -16 -4 ZM134 137 l0 -66 l51 0 l0 66 l-51 0 ZM94 -27 q-9 -6 -18 0 q-7 7 0 17 q31 26 45 43 q8 6 17 2 q8 -7 2 -17 q-15 -17 -46 -45 ZM241 -27 q-8 -7 -17 1 q-6 6 -23 23 q-16 17 -21 22 q-7 8 0 16 q10 6 17 -1 q13 -12 45 -44 q8 -10 -1 -17 Z" /><glyph glyph-name="" unicode="&#x4f9d;" d="M84 148 q-9 1 -10 10 q1 10 10 11 l69 0 q-1 4 -6 14 q-4 10 -6 13 q-3 10 6 14 q9 4 16 -6 q9 -21 12 -29 q1 -3 1 -6 l64 0 q9 -1 10 -11 q0 -9 -10 -10 l-73 0 q6 -35 16 -62 q24 18 38 30 q8 6 16 -1 q6 -9 -2 -16 q-20 -15 -44 -31 q19 -35 53 -62 q9 -7 3 -18 q-10 -8 -19 -1 q-59 46 -77 137 q-9 -17 -21 -32 l0 -83 q0 -4 4 -3 q2 1 9 5 q14 8 19 11 q10 2 14 -7 q2 -9 -8 -15 q-3 -2 -12 -7 q-23 -12 -32 -17 q-8 -2 -13 3 q-2 2 -2 14 l0 74 q-15 -15 -31 -28 q-9 -6 -16 2 q-6 9 2 16 q48 38 77 91 l-57 0 ZM9 81 q-5 3 -5 9 q0 5 3 9 q34 54 48 102 q5 10 15 8 q10 -5 8 -15 q-8 -25 -20 -48 l0 -170 q-1 -10 -10 -11 q-10 1 -11 11 l0 130 q-3 -7 -11 -18 q-1 -2 -2 -3 q-6 -9 -15 -4 Z" /><glyph glyph-name="" unicode="&#x4fa0;" d="M94 154 q-10 1 -11 11 q1 9 11 10 l58 0 q0 14 0 26 q1 11 12 12 q10 -1 11 -12 q0 -12 0 -26 l56 0 q10 -1 11 -10 q-1 -10 -11 -11 l-56 0 q-1 -15 -1 -36 q0 -6 -1 -17 q0 -12 -1 -17 l69 0 q10 -1 11 -11 q-1 -9 -11 -10 l-66 0 q16 -46 66 -69 q11 -6 5 -17 q-6 -9 -17 -4 q-50 27 -69 72 q-13 -41 -69 -73 q-10 -5 -18 4 q-4 11 5 17 q55 27 67 70 l-63 0 q-9 1 -10 10 q1 10 10 11 l67 0 q2 15 2 35 q0 5 0 15 q1 13 1 20 l-58 0 ZM8 79 q-5 3 -5 9 q0 5 2 9 q31 45 52 105 q2 9 15 8 q10 -5 8 -15 q-2 -4 -5 -13 q-10 -25 -16 -36 l0 -169 q-1 -10 -11 -11 q-10 1 -11 11 l0 128 q-6 -12 -14 -22 q-7 -8 -15 -4 ZM196 98 q-8 6 -2 14 q4 4 14 16 q5 6 7 9 q7 7 15 3 q7 -7 2 -14 q-15 -18 -22 -26 q-6 -6 -14 -2 ZM125 99 q-8 -4 -15 3 q-12 17 -19 24 q-4 9 2 13 q9 4 15 -2 q4 -4 12 -15 q5 -6 7 -8 q6 -9 -2 -15 Z" /><glyph glyph-name="" unicode="&#x4fa6;" d="M100 22 q-9 1 -10 12 l0 90 q0 13 13 13 l39 0 l0 65 q1 11 12 12 q10 -1 11 -12 l0 -18 l73 0 q10 0 10 -10 q-1 -9 -10 -10 l-73 0 l0 -27 l55 0 q13 0 13 -13 l0 -89 q-1 -11 -11 -12 q-10 1 -11 12 l0 75 q0 6 -6 6 l-87 0 q-6 0 -6 -6 l0 -76 q-1 -11 -12 -12 ZM7 83 q-4 3 -4 9 q0 5 3 9 q32 42 52 102 q5 9 16 8 q11 -5 7 -15 q-10 -27 -23 -51 l0 -168 q0 -12 -11 -12 q-10 1 -11 12 l0 127 q-2 -3 -6 -9 q-5 -6 -7 -9 q-6 -9 -16 -3 ZM90 -31 q-12 -3 -17 6 q-3 11 6 15 q70 19 69 71 q2 8 2 33 q1 10 11 11 q11 -1 12 -11 q0 -12 -2 -34 q-1 -15 -5 -26 q6 1 11 -2 q22 -13 65 -41 q8 -8 2 -17 q-6 -7 -17 -2 q-10 8 -43 29 q-16 11 -22 15 q-1 0 -1 1 q-1 1 -1 1 q-15 -29 -70 -49 Z" /><glyph glyph-name="" unicode="&#x4fa7;" d="M154 39 q-9 0 -9 9 l0 123 q0 6 -5 6 l-47 0 q-5 0 -5 -6 l0 -122 q0 -8 -8 -9 q-9 0 -9 9 l0 135 q0 13 12 13 l68 0 q12 0 12 -12 l0 -137 q0 -9 -9 -9 ZM6 83 q-3 3 -3 8 q-1 4 2 11 q23 34 41 100 q2 9 13 8 q9 -3 7 -13 q-7 -25 -16 -49 l0 -173 q-1 -9 -10 -10 q-9 1 -10 10 l0 128 q-4 -9 -9 -17 q-7 -9 -15 -3 ZM190 -28 q-11 0 -11 11 q0 9 9 11 l16 0 q17 -2 15 17 l0 192 q1 9 10 10 q9 -1 10 -10 l0 -198 q1 -31 -25 -32 q-3 0 -11 0 q-9 -1 -13 -1 ZM75 -27 q-9 -6 -16 2 q-6 9 2 16 q29 20 37 40 q9 20 9 65 l0 54 q1 8 10 9 q8 -1 9 -9 l0 -55 q0 -34 -5 -56 q6 -5 24 -20 q17 -15 23 -20 q7 -8 1 -16 q-10 -7 -16 0 q-3 3 -11 10 q-19 18 -28 25 q-8 -21 -39 -45 ZM191 26 q-9 1 -10 9 l0 147 q1 7 10 8 q7 -1 8 -8 l0 -147 q0 -9 -8 -9 Z" /><glyph glyph-name="" unicode="&#x4fac;" d="M90 119 q-11 0 -11 11 l0 31 q0 14 14 14 l55 0 q2 7 3 23 q1 3 1 4 q2 11 13 10 q11 -1 10 -12 q0 -1 -1 -5 q0 -6 -3 -20 l54 0 q14 0 14 -14 l0 -27 q-1 -10 -11 -11 q-10 1 -11 10 l0 17 q0 6 -6 5 l-45 0 q-1 -6 -3 -10 q8 -37 20 -63 q18 12 36 28 q9 8 16 0 q7 -7 -1 -15 q-17 -15 -42 -31 q19 -30 51 -53 q9 -7 3 -18 q-9 -8 -18 -2 q-61 48 -77 123 q-2 -3 -6 -10 q-7 -14 -12 -20 l0 -77 q0 -3 1 -3 q0 -1 3 0 q3 2 19 10 q8 3 11 5 q12 3 15 -6 q3 -10 -8 -15 q-6 -3 -24 -11 q-15 -7 -21 -10 q-8 -3 -14 2 q-4 2 -4 12 l0 66 q-14 -15 -32 -30 q-9 -6 -16 2 q-6 10 2 18 q60 45 78 108 l-37 0 q-6 1 -6 -5 l0 -21 q-1 -10 -10 -10 ZM9 81 q-5 3 -5 9 q0 5 2 9 q29 45 45 102 q3 10 15 8 q10 -3 8 -13 q-8 -25 -17 -47 l0 -173 q-1 -10 -11 -11 q-9 1 -10 11 l0 129 q-7 -9 -13 -20 q-5 -8 -14 -4 Z" /><glyph glyph-name="" unicode="&#x4faf;" d="M81 64 q-7 7 -1 14 q16 19 28 43 q4 8 14 5 q8 -3 6 -12 q-1 -2 -3 -6 q-1 -3 -2 -4 l106 0 q8 -1 9 -9 q-1 -9 -9 -10 l-56 0 q0 -4 -1 -15 q0 -10 -1 -15 l70 0 q10 0 10 -10 q-1 -8 -10 -9 l-66 0 q16 -31 66 -44 q11 -5 7 -16 q-4 -8 -15 -5 q-53 15 -73 50 q-13 -32 -72 -52 q-11 -3 -16 6 q-3 11 6 15 q58 17 66 46 l-66 0 q-9 1 -10 9 q1 10 10 10 l70 0 q2 20 2 30 l-38 0 l-1 0 q-4 -6 -12 -15 q-1 -2 -2 -3 q-8 -8 -16 -3 ZM9 81 q-4 2 -5 8 q0 4 3 10 q30 48 46 102 q4 11 15 8 q10 -3 8 -14 q-9 -24 -19 -48 l0 -170 q-1 -11 -11 -12 q-9 1 -10 12 l0 127 q-4 -5 -9 -15 q-2 -3 -3 -5 q-7 -8 -15 -3 ZM79 131 q-9 1 -10 10 q1 9 10 10 l116 0 l2 21 q0 5 -4 5 l-93 0 q-9 1 -10 10 q1 8 10 9 l109 0 q14 0 12 -13 l-3 -32 l23 0 q9 -1 10 -10 q-1 -9 -10 -10 l-162 0 Z" /><glyph glyph-name="" unicode="&#x4fb5;" d="M81 57 q-11 1 -12 10 l0 21 q1 12 14 12 l146 0 q13 0 14 -12 l0 -20 q-1 -10 -11 -11 q-10 1 -11 10 l0 10 q0 6 -6 6 l-118 0 q-6 0 -6 -5 l0 -11 q0 -2 0 -2 q2 1 5 1 l114 0 q9 -1 10 -9 q0 -9 -6 -17 q-18 -21 -36 -34 q24 -11 56 -15 q10 -3 8 -14 q-4 -9 -14 -6 q-40 7 -71 23 q-28 -16 -74 -25 q-10 -3 -14 7 q-2 10 8 14 q36 8 59 17 q-16 11 -34 35 q-2 4 -2 7 l-4 0 q-8 0 -8 9 l0 1 q-3 -2 -7 -2 ZM95 151 q-6 1 -7 7 q1 7 7 7 l111 0 l0 11 q0 6 -7 6 l-108 0 q-8 1 -9 9 q1 7 9 8 l122 0 q15 0 15 -14 l0 -55 q-1 -12 -15 -13 l-126 0 q-8 1 -9 8 q1 8 9 9 l112 0 q7 0 7 6 l0 11 l-111 0 ZM10 81 q-5 2 -5 8 q0 4 2 10 q26 42 43 100 q3 10 14 9 q11 -4 9 -14 q-9 -25 -18 -49 l0 -169 q-1 -10 -11 -11 q-9 1 -10 11 l0 125 q-4 -9 -9 -15 q-5 -9 -15 -5 ZM123 49 q14 -19 33 -32 q17 10 33 28 q2 1 2 3 q-1 1 -3 1 l-65 0 Z" /><glyph glyph-name="" unicode="&#x4fbf;" d="M89 178 q-8 1 -9 10 q1 8 9 9 l150 0 q9 -1 10 -9 q-1 -9 -10 -10 l-66 0 l0 -23 l49 0 q15 0 15 -14 l0 -76 q0 -14 -15 -14 l-53 0 q-3 -25 -16 -42 q30 -12 88 -16 q10 -1 9 -12 q-3 -11 -15 -9 q-67 6 -98 22 q-18 -14 -51 -24 q-11 -4 -16 5 q-4 9 5 14 q27 8 43 17 q-14 11 -25 24 q-6 8 1 15 q7 4 15 -1 q12 -15 25 -24 q10 12 14 31 l-47 0 q-15 0 -15 14 l0 76 q0 14 15 14 l50 0 l0 23 l-62 0 ZM10 78 q-5 2 -5 9 q-1 5 2 9 q32 51 45 105 q4 10 15 9 q10 -4 8 -14 q-8 -25 -17 -49 l0 -171 q-1 -9 -11 -10 q-10 1 -11 10 l0 127 q-6 -12 -12 -22 q-7 -8 -14 -3 ZM209 69 q7 0 7 7 l0 19 l-44 0 q0 -6 0 -9 q0 -9 0 -17 l37 0 ZM150 69 q1 5 1 18 l0 8 l-44 0 l0 -19 q0 -6 7 -7 l36 0 ZM107 131 l0 -19 l44 0 l0 25 l-37 0 q-7 0 -7 -6 ZM173 137 q0 -5 -1 -13 q0 -8 0 -12 l44 0 l0 19 q0 6 -7 6 l-36 0 Z" /><glyph glyph-name="" unicode="&#x4fc3;" d="M108 108 q-14 1 -15 16 l0 57 q2 14 15 16 l107 0 q13 -2 15 -16 l0 -57 q-1 -15 -15 -16 l-39 0 l0 -39 l57 0 q9 -1 10 -10 q-1 -10 -10 -11 l-57 0 l0 -47 q18 -1 67 -1 q9 -1 8 -12 q-1 -10 -12 -10 q-31 0 -65 2 q-45 1 -66 38 q-6 -19 -23 -43 q-7 -9 -16 -1 q-7 7 -1 17 q26 29 27 86 q3 11 13 10 q9 -1 10 -11 q-1 -16 -3 -29 q13 -34 38 -42 l0 103 l-45 0 ZM10 77 q-5 3 -5 9 q-1 5 2 9 q33 48 47 105 q4 10 15 9 q11 -4 9 -14 q-6 -21 -20 -54 l0 -165 q-1 -10 -12 -11 q-10 1 -11 11 l0 123 q-2 -4 -7 -13 q-2 -3 -3 -4 q-7 -9 -15 -5 ZM201 129 q6 0 6 6 l0 34 q-1 6 -6 7 l-79 0 q-6 -1 -7 -7 l0 -34 q0 -5 7 -6 l79 0 Z" /><glyph glyph-name="" unicode="&#x4fc4;" d="M82 165 q-10 0 -12 9 q0 9 8 12 q28 3 64 9 q10 1 12 -7 q1 -11 -8 -13 q-3 0 -10 -2 q-9 -1 -13 -2 l0 -35 l42 0 q-2 42 -2 67 q1 10 11 11 q11 -1 12 -11 q0 -43 1 -67 l55 0 q10 -1 11 -10 q-1 -10 -11 -11 l-54 0 q1 -33 4 -56 q17 17 29 37 q8 8 16 3 q8 -6 2 -15 q-18 -30 -43 -52 q0 -1 0 -1 q6 -37 20 -36 q7 0 10 12 q0 3 1 8 q2 10 2 16 q3 10 13 8 q9 -3 8 -13 q-1 -4 -3 -13 q-2 -11 -3 -16 q-5 -27 -27 -26 q-29 -2 -40 45 q-7 -5 -21 -15 q-5 -3 -7 -5 q-9 -4 -16 3 q-5 11 2 16 q20 12 37 26 q-4 28 -6 74 l-43 0 l0 -38 q4 1 11 2 q8 2 12 3 q9 1 12 -8 q0 -9 -9 -13 q-5 -1 -18 -3 q-5 -1 -8 -2 l0 -52 q2 -30 -27 -31 q-9 0 -19 0 q-11 0 -12 9 q0 11 8 13 q9 0 15 0 q14 -1 13 14 l0 42 q-14 -3 -25 -6 q-10 -1 -14 9 q-1 10 9 13 q5 1 17 3 q8 1 13 2 l0 43 l-29 0 q-10 1 -11 11 q1 9 11 10 l29 0 l0 32 q-10 -1 -19 -3 ZM7 85 q-3 3 -3 8 q0 5 3 11 q26 43 40 98 q3 10 14 9 q11 -3 9 -13 q-8 -23 -17 -47 l0 -176 q-1 -10 -11 -11 q-9 1 -10 11 l0 129 q-2 -4 -6 -10 q-3 -4 -4 -6 q-6 -9 -15 -3 ZM238 152 q-8 -6 -16 1 q-3 3 -12 13 q-9 9 -12 12 q-5 7 1 13 q7 6 14 0 q4 -3 13 -12 q10 -9 13 -12 q6 -8 -1 -15 Z" /><glyph glyph-name="" unicode="&#x4fca;" d="M93 26 q-8 -6 -16 1 q-6 7 0 13 q35 28 54 57 q5 7 15 6 q9 -4 5 -12 q-1 -2 -3 -4 q-1 -2 -5 -7 l68 0 q9 0 10 -10 q0 -8 -5 -18 q-18 -25 -36 -39 q25 -10 61 -18 q10 -4 7 -15 q-4 -9 -15 -7 q-43 10 -72 27 q-27 -16 -73 -30 q-11 -2 -16 7 q-4 11 5 14 q39 10 64 22 q-17 13 -29 31 q-13 -13 -19 -18 ZM9 83 q-3 2 -5 8 q0 1 0 1 q0 6 3 10 q35 46 53 100 q4 9 15 8 q11 -5 8 -15 q-11 -27 -23 -51 l0 -167 q-1 -10 -11 -11 q-10 1 -11 11 l0 129 q-2 -3 -6 -9 q-5 -7 -7 -10 q-6 -9 -16 -4 ZM105 134 q-12 0 -16 9 q-3 10 5 16 q25 22 47 47 q9 8 18 4 q10 -6 3 -14 q-6 -5 -18 -17 q-16 -15 -23 -21 q-1 -1 -1 -2 q0 -1 2 -1 q12 1 38 2 q25 1 37 1 q-3 4 -11 11 q-3 3 -5 5 q-5 6 1 12 q9 5 15 -1 q6 -6 21 -19 q17 -16 23 -22 q6 -9 -1 -15 q-7 -6 -15 1 q-4 4 -10 10 q-14 -1 -43 -2 q-47 -3 -67 -4 ZM87 81 q-9 -3 -15 4 q-4 9 5 14 q35 20 48 29 q8 5 14 -3 q4 -7 -2 -13 q-7 -4 -25 -15 q-17 -11 -25 -16 ZM126 59 q15 -21 34 -34 q19 12 32 31 q3 4 -2 5 l-62 0 q-1 -1 -2 -2 ZM232 85 q-7 4 -25 14 q-18 9 -25 13 q-8 5 -4 13 q6 8 14 3 q10 -5 35 -17 q11 -6 15 -8 q8 -6 4 -14 q-5 -9 -14 -4 Z" /><glyph glyph-name="" unicode="&#x4fcf;" d="M101 -34 q-10 1 -11 12 l0 149 q0 15 14 15 l48 0 l0 59 q1 11 11 12 q11 -1 12 -12 l0 -59 l48 0 q14 -1 15 -15 l0 -124 q1 -29 -30 -31 q-13 0 -30 0 q-12 0 -12 12 q0 9 11 9 l23 0 q16 -1 15 15 l0 17 l-102 0 l0 -47 q-1 -11 -12 -12 ZM9 80 q-5 3 -5 9 q0 5 2 10 q30 50 45 102 q4 10 15 8 q11 -3 8 -14 q-4 -15 -15 -41 q-2 -5 -3 -8 l0 -169 q-1 -11 -11 -12 q-10 1 -11 12 l0 125 q-6 -8 -10 -17 q-6 -9 -15 -5 ZM113 73 l0 -29 l102 0 l0 29 l-102 0 ZM113 115 l0 -22 l102 0 l0 22 q0 6 -6 6 l-90 0 q-6 0 -6 -6 ZM199 152 q-7 7 -1 15 q7 10 28 33 q8 5 15 0 q7 -7 1 -14 q-16 -18 -27 -33 q-8 -7 -16 -1 ZM127 156 q-7 -6 -15 2 q-6 6 -20 22 q-2 3 -3 4 q-6 7 1 15 q8 5 15 -1 q12 -12 24 -26 q6 -9 -2 -16 Z" /><glyph glyph-name="" unicode="&#x4fd0;" d="M83 172 q-11 -1 -13 9 q0 10 9 11 q35 2 70 7 q12 0 13 -9 q1 -9 -9 -12 q-12 -1 -26 -3 l0 -40 l26 0 q10 -1 11 -10 q-1 -9 -11 -10 l-26 0 l0 -22 q5 1 9 -2 q12 -12 23 -23 q7 -7 3 -16 q-7 -7 -15 -1 q-9 9 -20 20 l0 -95 q-1 -9 -11 -10 q-9 1 -10 10 l0 100 q-14 -32 -27 -51 q-6 -8 -15 -2 q-7 8 -1 17 q26 32 41 75 l-28 0 q-9 1 -10 10 q1 10 10 10 l30 0 l0 39 q-12 -2 -23 -2 ZM8 84 q-3 3 -3 8 q-1 3 3 11 q24 39 40 100 q2 11 14 8 q10 -3 8 -13 q-7 -24 -16 -47 l0 -175 q-1 -9 -10 -10 q-10 1 -11 10 l0 128 q-4 -9 -10 -17 q-5 -9 -15 -3 ZM185 -27 q-10 0 -12 10 q0 10 8 12 q11 0 21 0 q17 -1 16 17 l0 188 q1 10 10 11 q10 -1 11 -11 l0 -194 q1 -32 -28 -32 q-6 -1 -26 -1 ZM183 26 q-9 1 -10 9 l0 134 q1 8 10 9 q9 -1 10 -9 l0 -134 q-1 -8 -10 -9 Z" /><glyph glyph-name="" unicode="&#x4fd7;" d="M111 -23 q-15 2 -16 16 l0 63 q1 14 16 16 l94 0 q15 -1 16 -16 l0 -61 q-1 -17 -17 -18 l-93 0 ZM8 82 q-5 3 -5 9 q0 6 2 10 q31 44 51 101 q3 11 14 8 q11 -4 8 -13 q-10 -28 -22 -52 l0 -168 q-1 -11 -11 -12 q-10 1 -11 12 l0 128 q-2 -3 -6 -9 q-4 -7 -6 -10 q-5 -8 -14 -4 ZM86 64 q-11 -6 -17 2 q-5 10 3 16 q47 25 71 63 q6 12 14 11 q7 0 14 -10 q23 -38 70 -59 q10 -8 4 -17 q-7 -9 -17 -3 q-44 22 -68 59 q-2 2 -4 0 q-23 -34 -70 -62 ZM118 46 l0 -42 q1 -5 7 -6 l67 0 q5 1 6 6 l0 42 q-1 5 -6 6 l-67 0 q-6 -1 -7 -6 ZM223 142 q-24 21 -49 44 q-6 6 0 14 q7 6 16 0 q10 -8 35 -29 q10 -9 14 -12 q8 -9 0 -17 q-8 -7 -16 0 ZM80 138 q-6 8 0 16 q26 25 43 44 q9 7 17 1 q7 -6 1 -15 q-28 -30 -44 -46 q-10 -7 -17 0 Z" /><glyph glyph-name="" unicode="&#x4fdd;" d="M106 114 q-13 2 -15 15 l0 55 q2 14 15 15 l108 0 q14 -1 15 -15 l0 -55 q-1 -14 -15 -15 l-44 0 q1 -2 1 -4 l0 -27 l69 0 q10 0 10 -10 q-1 -9 -10 -10 l-54 0 q19 -33 57 -52 q9 -7 5 -17 q-8 -8 -17 -3 q-40 22 -60 61 l0 -74 q-1 -10 -11 -11 q-11 1 -12 11 l0 73 q-22 -39 -63 -64 q-10 -5 -17 4 q-4 9 3 15 q41 24 62 57 l-54 0 q-10 1 -11 10 q1 9 11 10 l69 0 l0 27 q0 2 1 4 l-43 0 ZM9 80 q-5 2 -5 8 q0 5 2 9 q28 43 45 105 q3 10 15 8 q10 -3 8 -14 q-8 -25 -17 -48 l0 -171 q-1 -9 -11 -11 q-10 1 -11 11 l0 126 q-2 -3 -4 -8 q-2 -2 -7 -11 q-6 -9 -15 -4 ZM200 135 q7 0 7 6 l0 31 q0 6 -7 6 l-80 0 q-6 -1 -7 -6 l0 -31 q0 -5 7 -6 l80 0 Z" /><glyph glyph-name="" unicode="&#x4fde;" d="M40 -33 q-9 1 -10 11 l0 124 q1 14 13 14 l73 0 q13 0 13 -14 l0 -102 q1 -27 -26 -27 q-3 -1 -15 0 q-4 0 -5 0 q-9 0 -11 9 q0 8 8 11 q2 0 9 -1 q6 0 7 0 q13 1 12 13 l0 15 l-57 0 l0 -42 q-1 -10 -11 -11 ZM24 124 q-12 -3 -16 6 q-4 11 7 15 q61 24 96 56 q12 11 18 10 q7 0 17 -10 q30 -31 95 -52 q11 -4 7 -16 q-4 -9 -16 -6 q-28 11 -49 21 q2 -2 2 -5 q-1 -8 -9 -9 l-96 0 q-8 1 -9 9 q0 1 1 4 q-13 -8 -45 -22 q24 11 -3 -1 ZM172 -28 q-11 1 -12 10 q1 11 9 12 q10 0 21 0 q17 -1 16 16 l0 102 q1 10 11 11 q9 -1 10 -11 l0 -107 q2 -32 -31 -32 q-6 -1 -24 -1 ZM167 12 q-10 1 -11 11 l0 77 q1 10 11 11 q9 -1 10 -11 l0 -77 q-1 -10 -10 -11 ZM82 152 l94 0 q-25 15 -44 34 q-3 3 -5 0 q-21 -19 -45 -34 ZM51 59 l0 -22 l57 0 l0 22 l-57 0 ZM51 92 l0 -16 l57 0 l0 16 q0 6 -5 6 l-46 0 q-6 0 -6 -6 Z" /><glyph glyph-name="" unicode="&#x4fe1;" d="M103 -23 q-14 1 -15 16 l0 50 q0 15 15 15 l118 0 q15 0 15 -15 l0 -50 q0 -16 -15 -16 l-118 0 ZM8 79 q-5 3 -5 9 q0 5 3 9 q28 42 46 104 q4 10 16 9 q10 -5 8 -14 q-9 -25 -19 -48 l0 -172 q-1 -10 -11 -11 q-10 1 -11 11 l0 128 q-6 -10 -12 -21 q-6 -8 -15 -4 ZM85 159 q-9 1 -10 11 q1 9 10 10 l68 0 q-1 2 -2 6 q-4 7 -5 11 q-4 10 8 14 q11 3 15 -7 q4 -8 8 -18 q0 -3 0 -6 l63 0 q10 -1 11 -10 q-1 -10 -11 -11 l-155 0 ZM110 32 l0 -28 q1 -7 7 -7 l90 0 q7 0 7 7 l0 28 q0 7 -7 7 l-90 0 q-6 0 -7 -7 ZM96 80 q-8 1 -9 9 q1 9 9 10 l133 0 q9 -1 10 -10 q-1 -8 -10 -9 l-133 0 ZM95 120 q-8 1 -9 9 q1 8 9 9 l134 0 q8 -1 9 -9 q-1 -8 -9 -9 l-134 0 Z" /><glyph glyph-name="" unicode="&#x4fe9;" d="M83 174 q-9 1 -10 10 q1 10 10 11 l155 0 q10 -1 11 -11 q-1 -9 -11 -10 l-41 0 q0 -5 0 -15 q-1 -13 -1 -19 l30 0 q14 0 14 -14 l0 -125 q0 -27 -24 -29 q-13 0 -29 0 q-11 0 -11 10 q-1 9 8 10 l23 0 q12 0 12 13 l0 32 q0 0 -1 -2 q-7 -6 -13 1 q-5 6 -16 21 q-3 3 -4 5 q-7 -25 -21 -49 q-6 -6 -13 -2 q-7 5 -3 14 q25 38 27 95 l-32 0 q-1 -13 -3 -25 q14 -12 23 -21 q6 -6 1 -14 q-4 -6 -12 -2 q-4 5 -15 16 q-7 -28 -22 -54 q-5 -7 -13 -2 q-5 6 -2 15 q21 34 25 87 l-22 0 q-5 0 -5 -6 l0 -137 q-1 -10 -10 -11 q-10 1 -11 11 l0 149 q0 14 14 14 l32 0 q0 16 0 34 l-40 0 ZM9 80 q-5 3 -5 9 q0 5 2 9 q27 49 41 103 q2 9 14 8 q10 -3 8 -13 q-7 -26 -17 -49 l0 -171 q-1 -10 -10 -11 q-10 1 -11 11 l0 125 q-3 -9 -8 -16 q-5 -8 -14 -5 ZM218 50 q1 0 1 -2 l0 66 q0 6 -5 6 l-21 0 q0 -18 -3 -36 q4 -5 13 -16 q11 -13 15 -18 ZM176 140 q0 16 0 34 l-32 0 q0 -18 0 -34 l32 0 Z" /></font>
</defs>
</svg>
