<?xml version="1.0" standalone="no"?><!DOCTYPE svg PUBLIC "-//W3C//DTD SVG 1.1//EN" "http://www.w3.org/Graphics/SVG/1.1/DTD/svg11.dtd"><svg t="1637573745591" class="icon" viewBox="0 0 1024 1024" version="1.1" xmlns="http://www.w3.org/2000/svg" p-id="2570" xmlns:xlink="http://www.w3.org/1999/xlink" width="200" height="200"><defs><style type="text/css"></style></defs><path d="M938.666667 224v704a53.393333 53.393333 0 0 1-53.333334 53.333333H181.333333a53.393333 53.393333 0 0 1-53.333333-53.333333V224a53.393333 53.393333 0 0 1 53.333333-53.333333h92.986667c-0.666667 1.126667-1.333333 2.266667-2 3.406666C261.493333 193.22 256 213.606667 256 234.666667a64 64 0 0 0 64 64h426.666667a64 64 0 0 0 64-64c0-21.06-5.493333-41.446667-16.32-60.593334-0.666667-1.14-1.333333-2.28-2-3.406666H885.333333a53.393333 53.393333 0 0 1 53.333334 53.333333z m-209.046667-60.88c-19.533333-16.153333-46.053333-29.666667-77.186667-39.38a129.22 129.22 0 0 0-41.453333-54.84 128 128 0 0 0-155.293333 0 129.22 129.22 0 0 0-41.453334 54.84c-31.133333 9.713333-57.646667 23.226667-77.186666 39.38C311.94 183.88 298.666667 208.62 298.666667 234.666667a21.333333 21.333333 0 0 0 21.333333 21.333333h426.666667a21.333333 21.333333 0 0 0 21.333333-21.333333c0-26.046667-13.273333-50.786667-38.38-71.546667z" fill="#5C5C66" p-id="2571"></path></svg>