<svg xmlns="http://www.w3.org/2000/svg" viewBox="0 0 481.48 73.84"><defs><style>.a{fill:#fff;}</style></defs><title>LOGO</title><polygon class="a" points="204.42 30.76 204.42 28.55 210.54 28.55 214.23 20.41 186.3 20.41 186.3 28.55 193.48 28.55 193.48 30.76 204.42 30.76"/><path class="a" d="M273.56,32.94V6.73H238.12v30H268.7ZM262.62,34H249.13v-5.4h9.3L261.67,21H249.13V14.53h13.49Z" transform="translate(-21.52 -6)"/><polygon class="a" points="243.46 44.08 240.77 38.28 229.5 38.28 235.86 53.92 248.72 53.92 255.5 38.28 245.91 38.28 243.46 44.08"/><polygon class="a" points="238.14 59.67 241.09 67.12 252.58 67.12 249.46 59.67 238.14 59.67"/><polygon class="a" points="202.23 0 190.71 0 185.39 17.94 197.16 17.97 198.73 13.02 211.42 13.02 214.81 5.29 200.7 5.29 202.23 0"/><polygon class="a" points="193.48 67.12 208.61 67.12 211.98 59.67 193.48 59.67 193.48 67.12"/><polygon class="a" points="193.48 36.82 185.83 36.82 185.83 44.88 193.48 44.88 193.48 53.92 204.42 53.92 204.42 44.66 210.69 44.66 214.37 36.82 204.42 36.82 193.48 36.82"/><rect class="a" x="216.6" y="36.5" width="11.01" height="17.42"/><polygon class="a" points="216.6 66.93 229.76 66.93 232.94 59.67 216.6 59.67 216.6 66.93"/><polygon class="a" points="271.57 26.98 288.42 26.98 288.42 30.39 299.97 30.39 299.97 26.98 316.16 26.98 316.17 30.39 327.75 30.39 327.75 19.29 319.95 19.29 326.77 9.99 326.77 2.66 279.15 2.66 280.32 0.11 267.82 0.11 261.8 14.29 274.45 14.29 276.31 10.61 312.84 10.61 306.64 19.29 260.56 19.29 260.57 30.39 271.57 30.39 271.57 26.98"/><polygon class="a" points="271.57 47.83 318.53 47.76 327.75 39.88 327.75 36.5 316.19 36.5 316.19 39.88 299.97 39.92 299.97 36.5 288.42 36.5 288.42 39.92 271.57 39.92 271.57 36.5 260.57 36.5 260.59 53.92 271.55 53.92 271.57 47.83"/><polygon class="a" points="260.6 67.41 321.71 67.37 327.87 59.67 260.59 59.67 260.6 67.41"/><polygon class="a" points="387.68 28.76 387.72 27.2 401.98 10.46 402.05 0.88 338.76 0.88 338.76 10.28 387.1 10.35 374.93 24.72 374.93 28.76 335.41 28.76 335.41 38.06 374.93 38.06 374.93 53.92 387.68 53.92 387.68 38.06 396.02 38.06 404.21 33.39 395.96 28.76 387.68 28.76"/><polygon class="a" points="341.2 67.48 373.36 67.48 384.77 59.67 341.2 59.67 341.2 67.48"/><polygon class="a" points="411.02 67.43 425.53 67.43 433.84 60.35 410.98 60.35 411.02 67.43"/><path class="a" d="M495.68,59.19H483.63v-2a23.41,23.41,0,0,0,4.18-1.33,23.9,23.9,0,0,0,14.6-22,23.52,23.52,0,0,0-1.88-9.3,23.94,23.94,0,0,0-7.2-9.45L496,6.39l-12,.07-1.29,3.87a23.83,23.83,0,0,0-8.07-.07l-1.35-3.8H461l2.95,8.47a23.53,23.53,0,0,0-7.61,10V6.8H431.59v7.88h14.8V25.47h-14.8V51.72h14.66v8.14h10.06V43.92H441.55V33.23l6.48,0,8.08-7.69a23.89,23.89,0,0,0,17.06,31.65v2H458V67h15.17v8.24h10.46V67h12.05L503,63.3Zm-14.3-10.32V46.56h-5.74v2.31a15,15,0,0,1-3.08-.92,15.43,15.43,0,0,1-6.74-5.55,15.27,15.27,0,0,1-2.33-5.67h3.35V31h-3.35a15.88,15.88,0,0,1,.92-3.08A15.4,15.4,0,0,1,470,21.17a15.15,15.15,0,0,1,5.68-2.33v2.27h5.74V18.84A15.25,15.25,0,0,1,493.52,31h-2.78v5.75h2.78a15.22,15.22,0,0,1-.92,3.08,15.39,15.39,0,0,1-5.55,6.73A15,15,0,0,1,481.38,48.87Z" transform="translate(-21.52 -6)"/><polygon class="a" points="458.71 20.49 455.26 20.49 455.26 26.13 449.62 26.13 449.62 29.58 455.26 29.58 455.26 35.21 458.71 35.21 458.71 29.58 464.34 29.58 464.34 26.13 458.71 26.13 458.71 20.49"/><path class="a" d="M164.19,6.38c-19.22-.32-41.59,3.5-63,10.77-9.87,3.35-19.41,7.05-28.37,11l-.65.28.8,6.38v.34h0v.09l.94-.19h0c9-.94,18.46-1.44,28.22-1.49-.19,1.26-.34,2.49-.45,3.72-1.13,13,.88,25.72,5.66,36.09h-1.86c-21.29,0-40.4-1.91-53.81-5.38-13-3.36-20.19-8-20.19-13,0-3.69,6.14-9,16.83-14.57L59,34.89,47.68,38.65C31.79,43.9,21.52,51.45,21.52,57.88s8.3,12.09,24,16.05c15.08,3.81,36.39,5.91,60,5.91,36.73,0,70.12-5.86,83.06-14.58,4.4-2.79,6.63-5.83,6.63-9,0-6.26-9.17-13.11-25.16-18.79-16.38-5.83-36.9-9.44-57.88-10.2a60.26,60.26,0,0,1,2-7.39c17.18-4.79,34-7.07,47.33-6.42,12.12.58,20.15,3.59,21.48,8a23.48,23.48,0,0,1,.93,8.46c0,.66,0,1.33,0,2v.8l.73.16c1,.21,7.91,2.45,10.5,3.3l1.1.36.09-1.22c0-.53.95-13-.67-18.45C193.71,10.62,182,6.68,164.19,6.38ZM103.54,27.1c-3.88,0-7.79.08-11.66.21,3.68-1.4,7.41-2.75,11.13-4l1.81-.6C104.32,24.29,103.9,25.73,103.54,27.1Zm75.72,29.12a5,5,0,0,1-1.32,3.69C172.12,67,149.3,72,118.32,73.16c-6.2-9.84-8.87-21.9-7.74-34.93.13-1.48.3-3,.51-4.54C149.12,35,178.4,46.63,179.26,56.22Z" transform="translate(-21.52 -6)"/></svg>